<svg width="428" height="275" viewBox="0 0 428 275" fill="none" xmlns="http://www.w3.org/2000/svg">
<path d="M423.043 158.081C425.482 159.391 428.097 159.535 430.813 159.514C439.733 159.448 448.653 159.508 457.573 159.541C460.264 159.525 462.947 159.835 465.563 160.465C465.563 160.827 465.56 161.19 465.555 161.553C461.432 160.966 457.273 160.667 453.108 160.658C430.43 160.678 407.753 160.683 385.076 160.672C323.788 160.672 262.499 160.67 201.21 160.664C199.11 160.664 197.278 160.264 197.295 163.657C197.434 190.863 197.443 218.069 197.325 245.274C197.319 247.501 197.882 248.183 200.176 248.174C226.285 248.096 252.394 248.093 278.502 248.165C280.969 248.171 281.659 247.256 281.619 244.915C281.505 238.177 281.477 231.433 281.605 224.697C281.95 206.445 296.562 190.929 314.411 189.744C333.918 188.444 350.444 201.405 353.16 220.211C354.286 228.011 353.645 235.876 353.581 243.703C353.552 247.209 354.495 248.21 358.052 248.203C405.979 248.085 453.907 248.071 501.835 248.159C505.421 248.159 508.625 247.506 511.386 245.159L512.063 245.824C509.899 248.497 506.963 249.415 503.673 249.449C497.834 249.509 491.996 249.53 486.157 249.567C484.575 249.521 482.992 249.444 481.41 249.441C480.277 249.441 479.29 249.162 478.621 250.849C475.005 260.295 467.805 267.931 458.588 272.096L457.236 272.49C457.424 272.625 457.605 272.869 457.798 272.877C458.775 272.926 459.756 272.922 460.734 272.923L544.513 273C544.477 273.813 544.234 274.407 543.245 274.373C542.256 274.339 541.285 274.373 540.304 274.373C376.352 274.373 212.4 274.332 48.4478 274.25C39.4378 274.24 30.4008 273.85 21.3728 273.757C20.7938 273.751 20.1318 273.917 19.7058 273.012C22.5288 271.934 25.5058 273.018 28.5558 272.303C27.7376 270.708 26.476 269.383 24.9228 268.487L25.6588 267.009C25.5288 260.692 28.3198 258.109 35.1958 258.172L36.5228 258.213C38.0878 260.302 40.4308 261.841 40.6508 264.854C40.8638 267.779 39.6598 270.093 37.2578 272.396H45.3418C48.5128 272.455 51.6828 272.553 54.8548 272.564C62.4118 272.589 62.4118 272.572 62.2318 264.781C62.2431 263.841 62.2548 262.901 62.2668 261.961C62.3415 261.423 62.4158 260.884 62.4898 260.344L63.6548 260.435C63.6448 261.045 63.6648 261.655 63.6208 262.262C63.1998 268.136 63.5438 268.556 69.3758 268.523C70.8383 268.535 72.2942 268.326 73.6948 267.905C75.2948 267.389 77.3838 267.277 77.6628 264.914C79.8528 264.472 80.7688 267.524 83.0348 266.873L89.5078 267.856C90.6198 268.572 92.2478 269.035 92.7498 270.056C94.3798 273.356 97.0308 272.485 99.6498 272.234C96.5048 271.163 94.0208 268.944 91.0818 267.56C90.0768 266.223 88.848 265.069 87.4498 264.15C84.1428 260.127 80.8688 256.083 79.3198 250.975C79.1258 249.919 78.2668 250.12 77.5558 250.039C77.6398 248.945 77.6718 247.844 77.8208 246.759C77.9888 245.54 77.6208 244.998 76.3038 244.932C72.9881 244.777 69.7781 243.717 67.0218 241.867C65.5448 240.887 64.7768 241.32 64.7448 243.111C64.7288 243.964 64.6098 244.811 64.5388 245.666L63.4608 245.642C63.4605 245.1 63.3511 244.563 63.1391 244.063C62.9271 243.563 62.6169 243.112 62.2268 242.734C59.8596 240.109 58.567 236.689 58.6058 233.154C58.5188 223.435 58.6188 213.716 58.6438 203.996C59.0748 202.414 58.0348 202.277 56.9048 202.229C58.0978 197.583 57.6158 196.381 53.6388 194.087C53.6518 193.703 53.6628 193.32 53.6738 192.936C54.9098 193.101 55.0368 192.322 55.0298 191.384C55.1306 189.452 55.1156 187.515 54.9848 185.584C54.5618 182.268 55.7338 180.031 58.8238 178.784L59.8668 178.813C59.6098 181.473 59.3258 184.133 60.1068 186.813C62.1878 180.67 65.8858 175.135 66.2788 168.492H67.3708C66.9081 174.114 66.4455 179.735 65.9828 185.354C64.9468 185.361 63.8278 185.254 63.9168 186.833C62.7828 191.533 59.6108 195.61 59.5948 200.647C59.5642 210.765 59.5642 220.883 59.5948 231.002C59.5948 232.623 59.3288 234.345 60.7368 235.913C60.8728 234.633 60.9868 233.554 61.1018 232.475L62.1798 232.493C62.0238 233.686 61.8998 234.885 61.7068 236.072C61.2268 239.021 61.8978 240.484 65.4358 240.161C69.7023 239.815 73.9897 239.812 78.2568 240.151C81.2098 240.359 81.8758 239.122 82.2698 236.532C84.4298 222.404 86.7598 208.313 89.0298 194.213L90.1588 194.222C90.2958 195.164 89.3368 196.261 90.5588 197.05C90.5098 196.826 90.4588 196.601 90.4078 196.378L90.0638 196.546L90.5698 197.038C91.8838 194.575 95.4638 194.79 96.5108 192.014C96.8881 192.014 97.2655 192.012 97.6428 192.007L102.35 209.353L101.584 210.33C99.8838 205.346 99.7838 205.322 95.7738 208.999C83.6648 220.099 83.6018 242.824 95.6478 253.96C102.048 259.878 110.421 261.18 117.674 257.309C118.752 256.733 120.403 256.43 119.944 254.521L121.122 254.534C122.422 257.947 123.715 261.366 125.041 264.769C125.416 265.731 125.493 267.041 127.087 266.843C131.187 266.337 134.951 265.11 137.761 261.859C138.217 261.333 138.874 260.739 138.14 259.991C134.786 256.578 134.616 251.805 132.822 247.727C132.457 246.898 132.544 245.035 130.871 245.814C126.741 247.741 122.54 246.573 118.356 246.428L118.377 245.078C122.699 243.751 126.998 242.348 131.351 241.136C133.372 240.574 133.958 239.95 133.338 237.619C129.257 222.268 125.421 206.854 122.204 191.294L123.456 191.267C140.478 198.318 148.654 211.048 147.986 229.457C147.814 234.229 148.07 239.017 147.92 243.79C147.82 246.89 148.882 248.199 152.151 248.169C165.876 248.051 179.603 248.076 193.329 248.169C195.512 248.183 196.258 247.693 196.251 245.346C196.165 218.024 196.161 190.702 196.237 163.378C196.237 161.335 195.728 160.623 193.588 160.628C169.077 160.695 144.566 160.695 120.055 160.628C117.614 160.62 117.555 161.544 117.955 163.49C118.844 167.801 119.528 172.153 120.295 176.49L119.18 176.528C118.192 170.9 117.206 165.27 116.221 159.64L117.782 159.526C125.248 159.511 132.715 159.496 140.182 159.48C157.928 159.431 175.673 159.379 193.418 159.324L199.99 159.334C206.09 159.383 212.19 159.48 218.295 159.471C237.71 159.446 257.124 159.399 276.539 159.331L300.009 159.603C304.202 159.939 308.416 159.939 312.609 159.603C316.896 159.564 321.184 159.498 325.472 159.492C357.466 159.446 389.46 159.408 421.453 159.376C421.853 159.403 422.443 159.683 422.195 158.829L423.042 158.08M305.507 271.98C294.76 267.198 288.114 258.72 283.924 247.018C279.695 258.727 273.072 267.247 262.271 271.995C261.777 272.154 261.104 271.902 260.762 272.686H307.293C307.293 272.558 307.3 272.431 307.304 272.303L305.504 271.979M338.735 271.968C338.262 272.084 337.411 272.141 337.38 272.328C337.216 273.346 338.12 272.969 338.554 272.967C350.187 272.918 361.82 272.847 373.454 272.755H426.512C423.428 271.197 420.547 269.444 417.638 267.74L414.253 264.718C411.879 261.949 408.898 259.326 407.894 255.91C405.904 249.14 401.281 248.69 395.661 249.576L382.468 249.53H369.959C367.274 249.493 364.58 249.572 361.906 249.381C359.991 249.245 359.106 250.033 358.381 251.727C354.719 260.774 347.672 268.035 338.739 271.966M337.752 231.611C337.731 223.611 335.494 216.378 330.022 210.395C321.746 201.345 309.281 201.333 300.866 210.262C290.425 221.337 290.366 241.52 300.745 252.681C309.321 261.905 322.089 261.757 330.395 252.262C335.547 246.372 337.695 239.362 337.752 231.612M230.459 272.612C220.138 268.531 213.409 261.012 209.175 251.088C208.994 250.521 208.616 250.036 208.111 249.721C207.605 249.406 207.003 249.281 206.414 249.369C189.268 249.406 172.122 249.406 154.976 249.369C154.444 249.278 153.897 249.372 153.427 249.637C152.957 249.902 152.593 250.321 152.396 250.823C151.218 253.468 149.875 256.038 148.471 258.9C149.819 258.9 150.911 258.826 151.991 258.917C153.761 259.067 155.691 259.551 156.115 261.393C156.553 263.279 154.385 263.454 153.222 264.122C148.656 266.746 144.022 269.253 139.415 271.805C169.878 272.82 200.115 273.13 230.46 272.605" fill="#050605"/>
<path d="M502.443 182.397C507.996 188.987 511.928 196.786 513.923 205.169L512.801 205.204C512.501 204.272 512.218 203.336 511.901 202.404C511.774 201.889 511.524 201.413 511.172 201.016C510.82 200.619 510.377 200.313 509.881 200.125C509.385 199.936 508.85 199.872 508.324 199.935C507.797 199.999 507.294 200.19 506.857 200.491C506.407 200.815 506.031 201.231 505.755 201.712C505.479 202.193 505.309 202.727 505.257 203.279C504.431 207.756 501.723 208.718 497.406 208.652C480.622 208.395 463.827 208.308 447.049 208.681C441.449 208.806 437.01 207.66 433.572 203.223C431.428 200.456 428.615 199.86 425.182 199.894C408.15 200.055 391.118 199.957 374.082 199.982C372.204 199.982 370.554 199.965 369.282 198.121C365.668 192.881 361.882 187.758 358.172 182.588C357.451 181.583 356.66 180.577 357.441 179.256C358.212 177.956 359.478 178.143 360.707 178.228C383.071 179.769 405.42 181.584 427.807 182.774C452.135 184.074 476.49 185.96 500.85 183.137L502.439 182.391" fill="#050605"/>
<path d="M67.3689 168.483H66.2769C65.9189 167.211 65.4009 167.73 64.8579 168.35C62.3725 171.381 60.6595 174.97 59.8659 178.808L58.8229 178.778C59.2572 174.237 61.2675 169.992 64.5049 166.778C65.8072 165.505 66.5941 163.796 66.7149 161.978C67.6829 149.286 68.8149 136.606 68.5249 123.855C68.5491 122.52 68.3243 121.191 67.8619 119.938C65.6379 114.384 63.6049 108.753 61.4409 103.175C61.0409 102.132 61.0059 100.617 59.2409 100.714C56.1599 100.884 55.5659 98.7543 54.9839 96.3533C52.4419 85.8723 51.3229 75.3653 54.3449 64.8063C56.3219 57.9063 60.0379 52.0903 66.0779 48.0063C70.3939 45.0913 75.5689 44.9273 80.4639 44.0643C83.6209 43.5093 85.6329 42.4333 85.5329 38.9443L86.6139 38.9923C86.5671 41.887 86.123 44.7615 85.2939 47.5353C84.5699 44.6103 83.1879 44.7003 81.6579 45.0673C80.2329 45.4093 78.7929 45.7113 77.3459 45.9353C75.5089 46.2203 75.1919 46.9193 76.1539 48.5923C78.6699 52.9603 81.3709 57.1783 85.1689 60.5513C88.9989 63.9513 93.2989 66.3173 98.5089 64.0803C102.068 62.5533 103.737 56.7053 102.733 50.9363C102.545 49.8623 102.504 48.5163 101.233 48.2243C97.0569 47.2753 96.3329 44.1293 96.1149 40.5893L97.5149 40.4463C97.5419 43.9853 99.0339 46.3303 102.649 47.2513C110.408 49.2273 114.059 55.0653 116.268 62.1383C117.626 66.0582 118.305 70.181 118.276 74.3293L117.205 74.3393C117.072 73.3743 116.937 72.4113 116.805 71.4473C115.966 65.2073 114.575 59.1473 110.619 54.0363C109.005 51.9523 107.265 49.8843 104.366 49.7563C104.366 51.7293 104.43 53.5563 104.355 55.3833C103.961 64.9093 96.6239 69.1003 88.2929 64.4983C86.5993 63.5178 85.0256 62.3432 83.6039 60.9983C80.0714 57.7595 77.211 53.857 75.1859 49.5133C73.9079 46.7953 72.4459 46.6133 70.0419 47.6213C63.2259 50.4803 59.2579 55.9523 56.7089 62.4993C52.1869 74.1173 53.7529 85.8293 56.7309 97.4993C56.8024 97.9814 57.0453 98.4215 57.415 98.7389C57.7848 99.0563 58.2566 99.2297 58.7439 99.2273C63.9279 99.5753 69.0029 99.4053 73.8029 97.0073C75.8429 95.9883 76.5029 94.8183 76.0749 92.4073C74.7565 85.6765 74.1133 78.8309 74.1549 71.9723C74.1819 70.7593 73.7619 69.3443 75.0339 68.3333C75.3159 68.6393 75.5809 68.7943 75.5819 68.9493C75.574 77.3944 76.2852 85.8249 77.7079 94.1493C77.8079 94.7143 77.8579 95.6583 77.5509 95.8653C75.0089 97.5903 76.5029 99.7653 76.7739 101.79C76.9859 103.377 77.4739 104.177 79.3529 103.219C88.6659 98.4793 99.0419 95.8543 107.338 89.0943L108.07 89.7703C108.064 90.0353 108.057 90.3003 108.052 90.5703L108.122 90.4843C97.6029 98.0393 85.2099 101.526 73.2669 107.513C73.2964 106.978 73.4812 106.463 73.7987 106.031C74.1162 105.599 74.5528 105.268 75.0549 105.08C76.2029 104.397 75.6149 103.355 75.4949 102.446C75.3949 101.668 74.9609 100.946 74.0839 101.132C70.2169 101.964 66.3659 101.22 61.9839 100.732C64.1239 106.366 66.0419 111.49 68.0169 116.595C70.1059 122.001 72.8319 123.144 77.9169 120.558C88.9089 114.958 99.8849 109.33 110.782 103.553C112.235 102.783 115.537 102.747 113.867 99.3693C114.337 99.0402 114.825 98.7368 115.328 98.4603C116.594 100.232 118.796 97.7323 120.065 99.4963C113.995 101.723 114.089 107.468 114.073 112.096C114.046 119.506 115.415 126.924 115.608 134.68C117.343 134.509 118.342 133.397 119.481 132.647C127.955 127.071 135.963 120.701 145.711 117.3C149.748 115.892 153.78 114.456 158.093 114.121C158.093 114.483 158.1 114.845 158.104 115.206C151.282 116.626 144.676 118.933 138.454 122.07C131.633 125.71 125.617 130.589 119.039 134.583C116.227 136.291 114.981 138.223 115.847 141.404C115.691 147.507 116.342 153.604 117.782 159.536L116.221 159.651C113.914 149.794 114.537 139.715 113.982 129.728C113.63 122.222 112.838 114.742 111.609 107.328C106.958 110.269 102.48 112.969 97.4559 113.928C91.5499 115.053 86.4329 117.762 81.2609 120.479C77.6979 122.35 74.2099 124.365 69.7669 122.113C70.4769 138.096 68.7979 153.289 67.3669 168.496M98.4669 111.809L97.5479 112.22C97.7109 112.282 97.8859 112.412 98.0359 112.388C98.3769 112.336 98.7169 112.215 98.4259 111.751C98.6584 111.905 98.9387 111.968 99.2146 111.93C99.4906 111.892 99.7433 111.756 99.9259 111.545C99.9619 111.506 99.8899 111.27 99.8179 111.239C99.1799 110.964 98.7859 111.306 98.4659 111.808M107.79 106.855L100.581 110.476L101.031 111.276C103.626 110.467 106.073 109.241 108.274 107.645C108.608 107.445 109.197 107.339 108.874 106.784C108.551 106.229 108.153 106.745 107.793 106.858M110.014 106.573C110.106 106.473 110.185 106.393 110.265 106.312C110.11 106.218 109.945 106.143 109.773 106.088C109.711 106.074 109.615 106.234 109.533 106.314L110.014 106.573Z" fill="#28272F"/>
<path d="M158.105 115.196C158.105 114.834 158.098 114.472 158.094 114.112C162.538 113.004 167.08 112.983 171.608 112.979C201.626 112.953 231.645 112.968 261.663 113.024C264.352 113.032 265.386 112.403 265.853 109.566C267.268 100.956 267.435 100.98 276.184 100.976C284.025 100.976 291.87 101.081 299.707 100.917C302.625 100.855 304.145 101.845 305.087 104.646C307.901 112.998 307.997 112.905 316.639 112.991C321.16 113.037 325.701 112.556 330.203 113.339C330.186 113.688 330.169 114.039 330.153 114.388C328.444 114.308 326.734 114.158 325.023 114.158C275.423 114.146 225.82 114.135 176.216 114.127C170.16 114.017 164.105 114.374 158.105 115.196Z" fill="#050605"/>
<path d="M86.6117 38.9924L85.5277 38.9444C86.2187 36.1984 85.5497 34.0444 83.7817 31.6354C80.0557 26.5624 80.7187 21.0984 84.2127 15.5244C80.8537 15.4954 77.8927 15.0544 75.9837 12.3104C75.3949 11.5273 74.9679 10.6349 74.7276 9.68511C74.4872 8.73534 74.4383 7.74723 74.5837 6.77837C75.2207 2.77037 79.1947 -0.457638 82.8837 0.0533624C87.8297 0.739362 90.2837 4.91538 89.3297 11.5034C95.1477 9.88838 100.523 10.3764 104.778 14.9794C106.317 16.5731 107.416 18.5389 107.969 20.6845C108.521 22.8302 108.508 25.0825 107.93 27.2214H106.808C106.335 25.9004 105.083 26.0604 104.071 25.8134C101.112 25.0924 98.0017 24.5504 95.4707 22.9024C91.9357 20.6024 89.0837 19.3464 87.1297 24.5414C86.6637 25.4142 85.8737 26.0692 84.9296 26.3654C82.5466 27.1464 83.1756 28.4654 84.0416 29.9384C86.9626 34.8924 91.3717 36.8094 96.9837 36.2714C97.0337 36.7714 97.0836 37.2714 97.1366 37.7714L97.4946 40.4464L96.0947 40.5884C92.1247 41.2704 89.5007 39.2184 87.2607 35.4754C86.9467 37.1444 86.7727 38.0684 86.6007 38.9924" fill="#050605"/>
<path d="M108.07 89.7704L107.338 89.0944C109.489 87.9394 110.738 86.3944 110.445 83.6944C110.265 82.0444 110.763 80.3294 110.845 78.6374C110.813 78.3346 110.851 78.0284 110.957 77.7429C111.063 77.4574 111.233 77.2003 111.455 76.9918C111.677 76.7833 111.945 76.6291 112.236 76.5412C112.528 76.4533 112.836 76.4343 113.136 76.4854L114.7 76.5034C116.879 77.3304 117.342 76.1864 117.189 74.3364L118.26 74.3264C118.275 76.0704 118.616 77.4174 120.889 77.2194C122.858 77.0484 123.399 78.2024 123.189 80.0254C122.934 82.2134 122.795 84.4174 122.705 86.6174C122.673 87.3884 122.305 88.1784 123.105 88.9644C124.605 90.4434 124.367 93.1264 122.768 94.9034C120.883 93.6554 119.527 94.2644 118.521 96.2464C119.582 95.6367 120.825 95.4211 122.03 95.6374C121.56 97.0134 122.664 99.1904 120.068 99.4854C118.8 97.7214 116.597 100.221 115.331 98.4494C113.324 97.4974 113.831 96.2684 115.289 94.7724C113.055 95.7614 111.715 93.6004 110.652 93.6724C107.606 93.8814 107.975 92.3024 108.129 90.4724L108.06 90.5584C108.432 90.7324 108.791 90.6584 108.83 90.2584C108.844 90.1194 108.343 89.9314 108.077 89.7664M117.263 97.4174C117.363 97.1884 117.525 96.9864 117.52 96.7894C117.515 96.5924 117.342 96.4024 117.242 96.2094C117.15 96.4094 116.984 96.6094 116.985 96.8094C116.986 97.0094 117.155 97.1994 117.263 97.4204" fill="#050605"/>
<path d="M53.6759 192.926C53.6649 193.31 53.6519 193.693 53.6409 194.077C48.2629 192.077 42.8699 190.12 37.5119 188.068C28.5329 184.628 27.9649 184.857 24.4669 193.932C17.0782 213.093 9.6879 232.254 2.2959 251.414C1.1149 254.461 0.715902 257.583 4.1019 259.014C11.1579 261.992 18.1569 265.214 25.6649 267.003L24.9289 268.482C17.9609 265.874 10.9429 263.392 4.0449 260.611C0.254895 259.084 -0.855098 255.772 0.644902 251.879C8.4989 231.475 16.3572 211.072 24.2199 190.671C26.5699 184.58 29.2419 183.379 35.2489 185.707C41.3989 188.091 47.5329 190.518 53.6739 192.926" fill="#28272F"/>
<path d="M330.152 114.387L330.202 113.338C331.761 113.171 333.032 113.992 334.329 114.623C363.412 128.767 392.489 142.924 421.558 157.094C422.075 157.389 422.571 157.719 423.042 158.083L422.195 158.832L421.432 159.004C420.617 157.683 419.132 157.518 417.884 156.936C401.212 148.761 384.571 140.522 367.856 132.436C357.088 127.225 346.522 121.589 335.479 116.955C333.939 115.61 331.931 115.234 330.152 114.389" fill="#28272F"/>
<path d="M97.1479 37.7713C97.0959 37.2706 97.0446 36.7706 96.9939 36.2713C99.281 35.7569 101.393 34.6499 103.117 33.0614C104.841 31.4729 106.116 29.4588 106.816 27.2213H107.938C106.788 33.2403 102.49 36.0373 97.1489 37.7703" fill="#28272F"/>
<path d="M122.027 95.6424C120.822 95.4258 119.58 95.6419 118.52 96.2524C119.526 94.2694 120.882 93.6614 122.766 94.9074L122.027 95.6424Z" fill="#28272F"/>
<path d="M512.802 205.203C513.335 208.163 513.866 211.123 514.394 214.082C514.501 221.665 514.626 229.248 514.708 236.83C514.672 239.922 513.488 242.889 511.386 245.155C508.625 247.505 505.421 248.163 501.835 248.155C453.906 248.098 405.978 248.112 358.052 248.198C354.496 248.206 353.552 247.205 353.581 243.698C353.646 235.87 354.287 228.005 353.16 220.205C350.444 201.399 333.918 188.442 314.411 189.738C296.561 190.923 281.95 206.438 281.605 224.691C281.477 231.428 281.505 238.171 281.619 244.909C281.658 247.251 280.968 248.165 278.502 248.159C252.394 248.093 226.285 248.095 200.176 248.167C197.882 248.174 197.32 247.493 197.325 245.267C197.399 218.062 197.389 190.856 197.295 163.65C197.278 160.258 199.108 160.658 201.21 160.658C262.499 160.668 323.788 160.671 385.076 160.666C407.754 160.666 430.431 160.662 453.108 160.652C457.273 160.661 461.432 160.96 465.555 161.547C478.606 164.311 489.92 170.205 498.945 180.171C499.726 181.033 500.945 181.69 500.855 183.138C476.495 185.959 452.14 184.069 427.812 182.775C405.43 181.583 383.08 179.77 360.712 178.227C359.484 178.143 358.217 177.954 357.446 179.256C356.665 180.576 357.456 181.582 358.177 182.586C361.892 187.756 365.677 192.88 369.287 198.12C370.559 199.964 372.209 199.984 374.087 199.981C391.121 199.954 408.153 200.054 425.187 199.891C428.62 199.859 431.433 200.455 433.577 203.221C437.015 207.658 441.457 208.803 447.054 208.679C463.832 208.306 480.627 208.393 497.411 208.65C501.729 208.716 504.436 207.75 505.262 203.276C505.314 202.724 505.484 202.19 505.76 201.709C506.036 201.227 506.411 200.811 506.862 200.487C507.299 200.186 507.802 199.995 508.329 199.932C508.855 199.868 509.39 199.933 509.886 200.121C510.382 200.309 510.825 200.615 511.177 201.012C511.529 201.409 511.779 201.886 511.906 202.401C512.219 203.328 512.506 204.265 512.806 205.196M238.873 179.496V179.481C240.456 179.481 242.039 179.512 243.621 179.472C243.896 179.505 244.176 179.474 244.438 179.384C244.7 179.293 244.939 179.145 245.136 178.95C245.333 178.755 245.484 178.518 245.577 178.256C245.67 177.995 245.703 177.716 245.674 177.44C245.685 177.193 245.643 176.947 245.551 176.718C245.459 176.488 245.319 176.281 245.14 176.11C244.962 175.94 244.748 175.81 244.515 175.729C244.281 175.647 244.033 175.617 243.787 175.64C240.623 175.588 237.458 175.581 234.292 175.619C233.038 175.633 232.159 176.254 232.245 177.634C232.328 178.979 233.235 179.488 234.49 179.493C235.951 179.499 237.412 179.493 238.874 179.493" fill="#FCFCFC"/>
<path d="M67.3677 168.483C68.7977 153.277 70.4767 138.083 69.7677 122.101C74.2117 124.353 77.6988 122.337 81.2628 120.466C86.4358 117.748 91.5517 115.039 97.4577 113.916C102.482 112.96 106.958 110.259 111.611 107.316C112.839 114.73 113.632 122.21 113.984 129.716C114.539 139.703 113.917 149.783 116.223 159.639C117.209 165.268 118.195 170.897 119.182 176.527C119.886 181.508 120.896 186.441 122.205 191.297C125.422 206.858 129.258 222.272 133.339 237.623C133.959 239.954 133.373 240.576 131.352 241.138C126.999 242.351 122.7 243.755 118.378 245.08C115.435 246.341 114.145 245.45 113.164 242.249C109.783 231.216 105.987 220.31 102.35 209.354L97.6387 192.01C97.0839 189.69 96.65 187.343 96.3388 184.977C95.6308 176.532 97.2978 168.177 97.3908 159.733C97.5028 149.362 97.0727 138.933 98.8197 128.616C99.1987 126.377 99.5577 124.807 102.501 124.861C104.084 124.89 106.192 124.912 107.83 122.891C103.536 123.281 104.873 120.9 105.372 118.899C105.697 117.599 106.6 116.33 105.818 114.644C104.288 115.98 104.186 117.664 103.943 119.091C103.486 121.782 102.29 124 99.7358 124.638C97.6898 125.148 97.8877 126.364 97.5917 127.738C95.6967 136.521 96.4758 145.546 95.1238 154.374C93.0904 167.654 91.0608 180.935 89.0348 194.216C86.7618 208.316 84.4268 222.406 82.2748 236.524C81.8748 239.114 81.2137 240.351 78.2597 240.142C73.9927 239.803 69.7053 239.807 65.4388 240.153C61.9008 240.474 61.2308 239.013 61.7098 236.064C61.9018 234.878 62.0267 233.679 62.1817 232.485C62.4177 230.178 62.6988 227.876 62.8818 225.566C63.9291 212.16 64.9624 198.754 65.9818 185.346C66.4444 179.724 66.9071 174.103 67.3698 168.483" fill="#FCFCFC"/>
<path d="M120.298 176.488C119.53 172.152 118.845 167.8 117.956 163.488C117.556 161.542 117.615 160.618 120.056 160.626C144.566 160.7 169.077 160.7 193.588 160.626C195.728 160.62 196.241 161.333 196.237 163.376C196.176 190.698 196.181 218.021 196.251 245.344C196.258 247.693 195.512 248.181 193.329 248.167C179.604 248.077 165.876 248.052 152.152 248.167C148.882 248.195 147.823 246.885 147.92 243.786C148.07 239.013 147.813 234.225 147.986 229.453C148.652 211.013 140.476 198.283 123.457 191.263C122.402 186.335 121.348 181.408 120.296 176.48M162.662 179.488V179.468C164.373 179.468 166.085 179.497 167.796 179.458C168.043 179.468 168.29 179.428 168.521 179.34C168.752 179.252 168.964 179.118 169.142 178.947C169.321 178.775 169.463 178.57 169.56 178.342C169.658 178.115 169.708 177.87 169.709 177.622C169.742 177.376 169.721 177.126 169.648 176.888C169.574 176.651 169.45 176.432 169.284 176.248C169.118 176.063 168.914 175.917 168.685 175.819C168.457 175.721 168.21 175.674 167.962 175.681C164.662 175.6 161.362 175.612 158.062 175.633C157.814 175.614 157.565 175.648 157.332 175.732C157.098 175.815 156.884 175.947 156.705 176.119C156.526 176.291 156.385 176.498 156.291 176.728C156.197 176.958 156.153 177.205 156.162 177.453C156.142 177.731 156.184 178.01 156.284 178.27C156.384 178.529 156.539 178.764 156.739 178.958C156.939 179.152 157.179 179.299 157.442 179.39C157.705 179.481 157.985 179.514 158.262 179.485C159.729 179.493 161.197 179.485 162.662 179.485" fill="#FCFCFC"/>
<path d="M417.886 156.935C419.131 157.517 420.619 157.684 421.434 159.003C421.393 159.058 421.372 159.125 421.376 159.194C421.38 159.262 421.408 159.327 421.455 159.376C389.46 159.414 357.467 159.454 325.475 159.494C321.187 159.5 316.899 159.566 312.61 159.603C308.415 159.298 304.204 159.298 300.01 159.603L276.539 159.331C278.131 155.765 278.426 152.255 275.799 149.031C269.103 140.811 262.382 132.611 255.637 124.431C252.061 120.077 247.543 117.143 241.855 117.055C229.003 116.855 216.144 117.02 203.289 116.961C200.953 116.95 200.089 117.811 199.989 120.183C199.529 131.166 199.489 131.107 209.837 134.624C220.586 138.278 231.295 142.044 242.007 145.8C242.89 146.11 244.185 146.277 244.346 147.334C244.535 148.571 243.118 148.644 242.341 149.101C240.131 150.401 237.684 151.371 235.672 152.917C232.472 155.374 229.449 155.267 225.782 153.917C218.8 151.355 211.631 149.296 204.536 147.044C200.427 145.744 200.06 146.001 200.036 150.144C200.018 153.204 200.005 156.265 199.997 159.325L193.426 159.315C193.413 155.149 193.297 150.98 193.426 146.815C193.497 144.539 192.906 143.246 190.515 142.553C184.534 140.82 178.674 138.667 172.691 136.94C165.8 134.947 165.766 135.067 169.934 129.333C174.925 122.467 174.925 122.469 182.765 125.071C183.693 125.378 184.63 125.66 185.557 125.971C193.633 128.671 193.549 128.677 193.439 120.095C193.409 117.71 192.714 116.823 190.288 116.944C182.967 117.309 175.651 116.881 168.298 117.533C158.812 118.444 149.539 120.907 140.852 124.824C131.552 128.896 124.2 135.888 115.852 141.382C114.985 138.202 116.231 136.269 119.044 134.561C125.622 130.567 131.638 125.69 138.459 122.048C144.681 118.913 151.287 116.605 158.109 115.184C164.109 114.362 170.163 114.004 176.218 114.114C225.818 114.151 275.421 114.161 325.027 114.145C326.736 114.145 328.446 114.295 330.157 114.375C331.936 115.221 333.943 115.596 335.483 116.941C313.435 116.953 291.386 116.961 269.336 116.965C266.682 116.965 264.059 116.948 262.909 119.981C261.809 122.881 263.871 124.547 265.609 126.248C275.833 136.279 286.107 146.248 296.293 156.303C296.925 156.951 297.69 157.456 298.534 157.784C299.378 158.112 300.283 158.255 301.187 158.203C338.915 158.153 376.644 158.126 414.374 158.122C415.632 158.122 417.16 158.622 417.887 156.929" fill="#FCFCFC"/>
<path d="M25.6608 267.004C18.1528 265.213 11.1538 261.994 4.09779 259.015C0.71079 257.585 1.1108 254.463 2.2978 251.415C9.71847 232.267 17.1085 213.107 24.4678 193.933C27.9678 184.859 28.5348 184.633 37.5128 188.07C42.8708 190.122 48.2638 192.078 53.6418 194.077C57.6188 196.377 58.0998 197.577 56.9078 202.22C49.6718 220.869 42.4365 239.518 35.2018 258.168C28.3268 258.099 25.5328 260.688 25.6648 267.004M15.3898 261.622L16.6838 262.122L43.6578 192.095L42.3648 191.595C33.3735 214.938 24.3815 238.28 15.3888 261.621" fill="white"/>
<path d="M337.752 231.62C337.697 239.368 335.552 246.382 330.396 252.271C322.09 261.764 309.323 261.913 300.746 252.69C290.368 241.529 290.425 221.346 300.867 210.27C309.282 201.343 321.747 201.354 330.023 210.405C335.495 216.387 337.731 223.623 337.752 231.62Z" fill="#3422F2"/>
<path d="M230.459 272.622C200.112 273.145 169.878 272.835 139.414 271.822C144.022 269.27 148.655 266.763 153.221 264.139C154.384 263.471 156.551 263.296 156.114 261.41C155.688 259.567 153.76 259.084 151.99 258.933C150.91 258.842 149.818 258.916 148.47 258.916C149.87 256.054 151.217 253.484 152.395 250.839C152.592 250.337 152.956 249.918 153.426 249.653C153.896 249.388 154.443 249.294 154.975 249.385C172.122 249.415 189.268 249.415 206.413 249.385C207.002 249.297 207.604 249.422 208.11 249.737C208.615 250.052 208.993 250.537 209.174 251.104C213.407 261.028 220.137 268.547 230.458 272.628" fill="#FCFCFC"/>
<path d="M119.946 254.524C120.403 256.432 118.754 256.735 117.674 257.312C110.423 261.184 102.051 259.881 95.6498 253.963C83.6028 242.824 83.6658 220.106 95.7758 209.002C99.7848 205.325 99.8898 205.349 101.584 210.333C105.339 222.077 109.097 233.821 112.857 245.563C113.136 246.432 113.245 247.963 114.526 247.45C117.469 246.261 117.415 248.65 118.11 250.138C118.779 251.574 119.338 253.06 119.946 254.524Z" fill="#3422F2"/>
<path d="M369.959 249.539H382.474C382.538 250.584 383.341 250.966 384.137 251.25C389.676 253.223 394.478 256.52 399.373 259.65L399.541 259.943L399.669 259.813L399.369 259.65C398.927 256.003 396.569 253.061 395.669 249.582C401.288 248.697 405.913 249.146 407.903 255.918C408.903 259.333 411.888 261.955 414.261 264.724C412.926 265.278 411.577 265.8 410.261 266.398C409.72 266.645 409.161 267.063 409.337 267.767C409.526 268.53 410.261 268.367 410.837 268.456C413.168 268.804 415.376 267.992 417.644 267.748C420.554 269.448 423.435 271.205 426.519 272.763H373.462L372.204 272.034C371.384 267.943 372.228 265.61 375.53 265.134C378.671 264.685 381.763 263.889 385.172 264.413C389.25 265.041 393.124 266.371 397.643 267.132C397.915 267.18 397.715 267.087 397.504 267.021C397.11 266.899 397.037 267.021 397.35 267.285C397.528 267.408 397.73 267.492 397.943 267.532C397.974 267.54 398.057 267.362 397.643 267.132C396.921 265.253 395.353 264.775 394.153 264.083C390.085 261.838 385.652 260.331 381.059 259.629C372.69 258.168 370.27 255.929 369.959 249.529" fill="#A4A4A4"/>
<path d="M45.3418 272.391H37.2538C39.6538 270.091 40.8608 267.775 40.6468 264.849C40.4278 261.836 38.0838 260.297 36.5188 258.208C36.8598 257.426 37.2298 256.654 37.5368 255.859C43.9198 239.351 50.2738 222.832 56.7368 206.359C57.0618 205.529 56.5928 203.608 58.6368 203.988C58.6118 213.707 58.5118 223.426 58.5988 233.146C58.5598 236.681 59.8517 240.1 62.2178 242.726C62.608 243.104 62.9184 243.555 63.1306 244.055C63.3427 244.554 63.4523 245.092 63.4528 245.634C63.1682 248.384 62.8838 251.134 62.5998 253.884C59.3398 252.532 56.1348 251.015 52.7998 249.864C46.8528 247.808 43.6768 248.316 42.6998 251.164C41.5908 254.396 44.0738 256.975 50.2628 258.778C54.2328 259.935 58.2568 260.907 62.2568 261.961C62.2455 262.901 62.2338 263.84 62.2218 264.78C58.0838 264.749 53.9808 263.94 49.7978 264.7C44.5278 265.655 43.3428 267.488 45.3318 272.4" fill="#FCFCFC"/>
<path d="M64.5358 245.656C64.6078 244.805 64.7248 243.956 64.7358 243.101C64.7678 241.31 65.5358 240.877 67.0128 241.856C69.769 243.707 72.9794 244.768 76.2958 244.923C77.6138 244.989 77.9817 245.532 77.8127 246.75C77.6637 247.834 77.6318 248.936 77.5478 250.03C77.0208 254.212 76.1038 258.364 76.5818 262.622C76.7498 263.489 76.7398 264.452 77.7818 264.852L77.6608 264.909C77.3818 267.272 75.2968 267.384 73.6928 267.9C72.2915 268.322 70.8349 268.53 69.3718 268.518C63.5408 268.55 63.1958 268.131 63.6178 262.257C63.6618 261.65 63.6418 261.04 63.6518 260.43C63.9451 255.506 64.2388 250.581 64.5328 245.656" fill="#FCFCFC"/>
<path d="M118.359 246.429C122.543 246.572 126.743 247.74 130.873 245.815C132.547 245.034 132.459 246.897 132.824 247.728C134.618 251.804 134.789 256.579 138.142 259.992C138.877 260.739 138.219 261.334 137.765 261.86C134.955 265.111 131.19 266.336 127.091 266.844C125.497 267.044 125.42 265.732 125.045 264.77C123.717 261.37 122.428 257.948 121.124 254.533L118.36 246.433" fill="#FCFCFC"/>
<path d="M89.0327 194.215C91.062 180.935 93.0917 167.654 95.1217 154.373C96.4737 145.544 95.6957 136.519 97.5897 127.737C97.8897 126.364 97.6897 125.148 99.7337 124.637C102.287 124 103.484 121.782 103.941 119.091C104.184 117.665 104.286 115.981 105.815 114.644C106.599 116.33 105.696 117.596 105.37 118.899C104.87 120.899 103.534 123.281 107.828 122.891C106.189 124.912 104.083 124.891 102.499 124.861C99.5557 124.808 99.1987 126.377 98.8167 128.616C97.0707 138.933 97.5017 149.361 97.3877 159.733C97.2967 168.173 95.6297 176.533 96.3377 184.977C96.651 187.343 97.0869 189.691 97.6437 192.011C97.2664 192.011 96.8891 192.014 96.5117 192.018C94.9897 187.491 94.7297 182.69 93.1177 178.032C92.1317 183.432 91.1464 188.83 90.1617 194.225L89.0327 194.215Z" fill="#28272F"/>
<path d="M61.1016 232.465C60.9876 233.545 60.8726 234.624 60.7386 235.903C59.3306 234.335 59.5997 232.613 59.5957 230.992C59.5703 220.874 59.5703 210.755 59.5957 200.637C59.6107 195.601 62.7827 191.525 63.9177 186.823C65.4307 188.3 64.3637 190.023 64.2497 191.578C63.2607 205.211 62.1656 218.837 61.1026 232.464" fill="#D0E0FC"/>
<path d="M58.6427 203.987C56.5997 203.607 57.0707 205.528 56.7427 206.358C50.2777 222.833 43.9227 239.352 37.5427 255.858C37.2357 256.658 36.8657 257.424 36.5247 258.207L35.1997 258.166C42.4344 239.516 49.6697 220.867 56.9057 202.218C58.0347 202.266 59.0747 202.403 58.6447 203.985" fill="#28272F"/>
<path d="M118.359 246.433L121.123 254.533C120.731 254.533 120.339 254.529 119.947 254.52C119.34 253.057 118.78 251.571 118.111 250.135C117.411 248.643 117.47 246.258 114.527 247.447C113.247 247.964 113.137 246.429 112.858 245.56C109.091 233.82 105.333 222.077 101.585 210.331C101.842 210.006 102.097 209.677 102.352 209.352C105.99 220.308 109.784 231.214 113.165 242.247C114.147 245.447 115.435 246.339 118.38 245.078L118.359 246.43" fill="#28272F"/>
<path d="M61.1047 232.465C62.1677 218.838 63.2627 205.212 64.2517 191.579C64.3657 190.022 65.4327 188.301 63.9197 186.824C63.8297 185.245 64.9487 185.353 65.9857 185.345C64.9537 198.753 63.9204 212.159 62.8857 225.565C62.7047 227.876 62.4227 230.178 62.1857 232.484L61.1057 232.466" fill="#28272F"/>
<path d="M90.1619 194.224C91.1479 188.824 92.1332 183.426 93.1179 178.03C94.7309 182.69 94.9898 187.49 96.5128 192.016C95.4638 194.793 91.8839 194.578 90.5699 197.04L90.5569 197.054C89.3409 196.262 90.2989 195.165 90.1569 194.223" fill="#FCFCFC"/>
<path d="M59.8657 178.804C60.6589 174.966 62.372 171.377 64.8577 168.346C65.4007 167.726 65.9197 167.207 66.2767 168.479C65.8827 175.122 62.1868 180.656 60.1058 186.8C59.3248 184.126 59.6057 181.464 59.8657 178.8" fill="#D0E0FC"/>
<path d="M262.272 272L305.507 271.985L307.307 272.309C307.307 272.437 307.299 272.564 307.296 272.693H260.763C261.105 271.908 261.778 272.159 262.272 272Z" fill="#ADE9C9"/>
<path d="M338.738 271.974L372.202 272.034L373.461 272.762C361.825 272.841 350.191 272.912 338.561 272.974C338.128 272.974 337.223 273.353 337.387 272.335C337.418 272.147 338.269 272.091 338.741 271.975" fill="#ADE9C9"/>
<path d="M120.298 176.493C121.351 181.421 122.405 186.349 123.459 191.276L122.205 191.303C120.897 186.446 119.887 181.512 119.182 176.531L120.298 176.493Z" fill="#28272F"/>
<path d="M62.4917 260.341C62.5284 258.189 62.5664 256.036 62.6057 253.884C62.8904 251.133 63.1747 248.383 63.4587 245.633L64.5367 245.658C64.2447 250.583 63.9517 255.508 63.6577 260.433L62.4927 260.342" fill="#28272F"/>
<path d="M369.96 249.538C370.268 255.938 372.689 258.176 381.06 259.638C385.653 260.34 390.086 261.847 394.154 264.092C395.354 264.783 396.922 265.261 397.169 267.007C393.128 266.375 389.253 265.045 385.175 264.417C381.766 263.893 378.675 264.689 375.533 265.138C372.233 265.611 371.386 267.944 372.205 272.038C361.05 272.02 349.895 272 338.741 271.978C347.674 268.047 354.721 260.786 358.384 251.739C359.108 250.045 359.993 249.257 361.908 249.393C364.582 249.584 367.276 249.507 369.961 249.543" fill="#C5C5C5"/>
<path d="M262.272 272.001C273.072 267.253 279.695 258.733 283.925 247.023C288.115 258.723 294.76 267.203 305.508 271.985L262.273 272" fill="#C5C5C5"/>
<path d="M62.2681 261.956C58.2681 260.901 54.2441 259.931 50.2741 258.773C44.0861 256.973 41.6022 254.391 42.7112 251.158C43.6882 248.313 46.8651 247.805 52.8111 249.858C56.1411 251.009 59.3461 252.526 62.6061 253.878C62.5668 256.032 62.5285 258.185 62.4912 260.337C62.4152 260.876 62.3405 261.415 62.2672 261.953" fill="#C5C5C5"/>
<path d="M45.3421 272.391C43.3531 267.483 44.5421 265.65 49.8081 264.691C53.9911 263.931 58.0941 264.74 62.2321 264.771C62.4131 272.563 62.4131 272.58 54.8551 272.555C51.6841 272.544 48.5131 272.446 45.3421 272.387" fill="#C5C5C5"/>
<path d="M83.037 266.87C80.771 267.521 79.855 264.47 77.665 264.911L77.787 264.854C78.968 264.095 77.704 263.33 77.794 262.568C78.182 258.685 77.794 254.701 79.318 250.968C80.868 256.075 84.142 260.119 87.448 264.142C86.029 265.133 84.029 265.188 83.036 266.869" fill="#C5C5C5"/>
<path d="M91.0801 267.551C94.0191 268.936 96.5031 271.151 99.6481 272.225C97.0341 272.476 94.3821 273.35 92.7481 270.047C92.2481 269.03 90.6181 268.568 89.5061 267.847L91.0751 267.547" fill="#C5C5C5"/>
<path d="M395.668 249.584C396.568 253.063 398.931 256.005 399.368 259.652C394.474 256.519 389.668 253.221 384.132 251.252C383.332 250.969 382.532 250.585 382.469 249.541L395.663 249.586" fill="#C5C5C5"/>
<path d="M417.645 267.747C415.378 267.992 413.169 268.803 410.837 268.457C410.262 268.371 409.527 268.531 409.337 267.769C409.163 267.069 409.72 266.646 410.26 266.399C411.574 265.799 412.923 265.279 414.26 264.726L417.646 267.748" fill="#C5C5C5"/>
<path d="M79.3167 250.967C77.7907 254.7 78.1807 258.685 77.7927 262.567L76.5927 262.622C76.1127 258.363 77.0297 254.211 77.5587 250.03C78.2697 250.111 79.1297 249.912 79.3217 250.967" fill="#28272F"/>
<path d="M91.0798 267.551L89.5108 267.851L83.0378 266.869C84.0308 265.188 86.0288 265.131 87.4498 264.14C88.847 265.06 90.0751 266.213 91.0798 267.55" fill="#FCFCFC"/>
<path d="M300.013 159.602C304.207 159.297 308.418 159.297 312.613 159.602C308.419 159.939 304.206 159.939 300.013 159.602Z" fill="#28272F"/>
<path d="M90.5688 197.041L90.0627 196.549L90.4068 196.381C90.4588 196.604 90.5068 196.828 90.5578 197.053L90.5688 197.042" fill="#FCFCFC"/>
<path d="M421.453 159.376C421.406 159.326 421.379 159.262 421.375 159.194C421.371 159.126 421.391 159.058 421.432 159.003C421.687 158.946 421.942 158.888 422.195 158.829C422.443 159.684 421.854 159.403 421.453 159.376Z" fill="#D0E0FC"/>
<path d="M117.194 74.3403C117.347 76.1903 116.884 77.3343 114.705 76.5063C114.444 74.5473 115.105 72.3583 113.142 70.1633V76.4873C112.842 76.4364 112.534 76.4556 112.242 76.5436C111.951 76.6315 111.684 76.7857 111.462 76.9942C111.24 77.2026 111.069 77.4596 110.963 77.7451C110.857 78.0305 110.819 78.3366 110.851 78.6393C110.77 80.3303 110.272 82.0473 110.451 83.6973C110.744 86.3883 109.495 87.9373 107.344 89.0973C99.0497 95.8583 88.6707 98.4833 79.3587 103.222C77.4757 104.181 76.9917 103.38 76.7797 101.793C76.5107 99.7683 75.0137 97.5933 77.5567 95.8703C77.8637 95.6613 77.8137 94.7193 77.7147 94.1523C76.291 85.828 75.5794 77.3975 75.5877 68.9523C75.5877 68.7963 75.3217 68.6423 75.0397 68.3353C73.7677 69.3463 74.1887 70.7613 74.1607 71.9743C74.1194 78.833 74.7629 85.6786 76.0817 92.4093C76.5107 94.8183 75.8487 95.9883 73.8087 97.0093C69.0087 99.4093 63.9347 99.5773 58.7507 99.2293C58.261 99.2352 57.7859 99.0632 57.4134 98.7452C57.041 98.4272 56.7966 97.9849 56.7257 97.5003C53.7457 85.8343 52.1797 74.1233 56.7037 62.5003C59.2517 55.9543 63.2197 50.4813 70.0367 47.6223C72.4367 46.6143 73.9027 46.7983 75.1807 49.5153C77.2059 53.8581 80.0659 57.7599 83.5977 60.9983C85.0191 62.3435 86.5928 63.5181 88.2867 64.4983C96.6177 69.0983 103.956 64.9073 104.349 55.3833C104.425 53.5593 104.36 51.7273 104.36 49.7543C107.26 49.8823 109 51.9543 110.613 54.0343C114.569 59.1443 115.961 65.2063 116.8 71.4453C116.929 72.4103 117.064 73.3733 117.2 74.3363" fill="#FCFCFC"/>
<path d="M108.126 90.4803C107.97 92.3073 107.603 93.8863 110.649 93.6803C111.712 93.6073 113.049 95.7673 115.286 94.7803C113.829 96.2753 113.32 97.5053 115.328 98.4553C114.825 98.7317 114.337 99.0354 113.867 99.3653C115.537 102.742 112.235 102.778 110.782 103.549C99.8819 109.326 88.9089 114.958 77.9169 120.549C72.8349 123.135 70.1089 121.992 68.0169 116.588C66.0429 111.488 64.1239 106.358 61.9839 100.725C66.3679 101.214 70.2179 101.958 74.0839 101.125C74.9599 100.937 75.3939 101.662 75.4949 102.44C75.6139 103.347 76.2049 104.391 75.0549 105.073C74.5527 105.261 74.1162 105.592 73.7987 106.024C73.4812 106.456 73.2964 106.971 73.2669 107.506C85.2099 101.518 97.6039 98.0323 108.122 90.4773" fill="#FCFCFC"/>
<path d="M86.6118 38.9924C86.7848 38.0684 86.9578 37.1443 87.2728 35.4753C89.5138 39.2183 92.1378 41.2693 96.1068 40.5883C96.3218 44.1293 97.0488 47.2743 101.225 48.2253C102.501 48.5153 102.542 49.8614 102.725 50.9364C103.725 56.7064 102.06 62.5534 98.5008 64.0814C93.2928 66.3184 88.9918 63.9514 85.1608 60.5504C81.3608 57.1794 78.6608 52.9614 76.1468 48.5914C75.1848 46.9194 75.5018 46.2204 77.3368 45.9354C78.7858 45.7094 80.2238 45.4094 81.6498 45.0674C83.1798 44.7004 84.5608 44.6104 85.2858 47.5344C86.1143 44.7611 86.5587 41.8873 86.6068 38.9933" fill="#FCFCFC"/>
<path d="M108.272 107.63C106.07 109.225 103.624 110.451 101.029 111.261L100.579 110.461L107.787 106.84L108.272 107.63Z" fill="#ADE9C9"/>
<path d="M98.4217 111.735C98.7147 112.202 98.3737 112.322 98.0347 112.374C97.8837 112.398 97.7097 112.267 97.5457 112.206C97.8527 112.07 98.1587 111.933 98.4657 111.795L98.4217 111.735Z" fill="#ADE9C9"/>
<path d="M98.4658 111.796C98.7838 111.296 99.1798 110.951 99.8158 111.225C99.8878 111.256 99.9618 111.493 99.9248 111.531C99.7421 111.742 99.4894 111.878 99.2135 111.916C98.9376 111.954 98.6574 111.89 98.4248 111.737L98.4668 111.796" fill="#ADE9C9"/>
<path d="M108.076 89.7704C108.342 89.9354 108.843 90.1254 108.829 90.2644C108.79 90.6644 108.429 90.7394 108.059 90.5644L108.076 89.7644" fill="#FCFCFC"/>
<path d="M107.788 106.843C108.148 106.729 108.549 106.22 108.871 106.769C109.193 107.318 108.606 107.43 108.271 107.63L107.788 106.843Z" fill="#ADE9C9"/>
<path d="M110.01 106.558L109.529 106.298C109.61 106.218 109.707 106.058 109.769 106.072C109.941 106.127 110.106 106.202 110.261 106.296C110.181 106.377 110.102 106.46 110.01 106.557" fill="#ADE9C9"/>
<path d="M106.815 27.2174C106.115 29.4549 104.839 31.4689 103.115 33.0575C101.391 34.646 99.2799 35.753 96.9927 36.2674C91.3817 36.8054 86.9737 34.8904 84.0527 29.9344C83.1847 28.4624 82.5577 27.1424 84.9407 26.3614C85.8835 26.0652 86.672 25.41 87.1358 24.5374C89.0908 19.3434 91.9428 20.5974 95.4768 22.8984C98.0098 24.5474 101.12 25.0904 104.077 25.8114C105.091 26.0584 106.343 25.8984 106.816 27.2174" fill="#FCFCFC"/>
<path d="M113.141 76.4913V70.1674C115.104 72.3624 114.441 74.5513 114.705 76.5103L113.141 76.4923" fill="#28272F"/>
<path d="M117.261 97.4213C117.153 97.1993 116.983 97.0043 116.983 96.8103C116.983 96.6163 117.147 96.4103 117.24 96.2103C117.34 96.4033 117.513 96.5944 117.518 96.7914C117.523 96.9884 117.362 97.1913 117.261 97.4193" fill="#28272F"/>
<path d="M115.85 141.394C124.201 135.9 131.55 128.907 140.85 124.834C149.537 120.919 158.809 118.456 168.294 117.544C175.648 116.892 182.963 117.32 190.285 116.956C192.712 116.835 193.406 117.722 193.436 120.107C193.545 128.689 193.631 128.686 185.555 125.983C184.627 125.672 183.69 125.391 182.762 125.083C174.923 122.483 174.923 122.483 169.931 129.346C165.763 135.08 165.797 134.961 172.689 136.952C178.671 138.681 184.531 140.834 190.513 142.567C192.904 143.26 193.494 144.553 193.423 146.827C193.291 150.989 193.407 155.159 193.423 159.327C175.678 159.379 157.933 159.431 140.187 159.481C132.72 159.502 125.254 159.517 117.787 159.527C116.347 153.595 115.696 147.499 115.852 141.396" fill="#E5E5E5"/>
<path d="M199.994 159.333C200.006 156.273 200.019 153.214 200.033 150.154C200.06 146.007 200.426 145.745 204.533 147.054C211.633 149.306 218.797 151.365 225.779 153.928C229.446 155.273 232.469 155.381 235.669 152.928C237.681 151.383 240.128 150.412 242.338 149.112C243.115 148.655 244.533 148.581 244.343 147.345C244.182 146.286 242.886 146.119 242.004 145.811C231.292 142.053 220.581 138.288 209.834 134.635C199.488 131.118 199.526 131.177 199.986 120.193C200.086 117.82 200.952 116.961 203.286 116.971C216.142 117.031 229 116.863 241.853 117.065C247.541 117.155 252.053 120.087 255.635 124.441C262.364 132.633 269.085 140.833 275.797 149.041C278.425 152.268 278.128 155.776 276.537 159.341C257.122 159.392 237.707 159.439 218.293 159.481C212.193 159.489 206.093 159.393 199.988 159.344" fill="#E5E5E5"/>
<path d="M417.885 156.933C417.16 158.633 415.631 158.125 414.372 158.126C376.643 158.162 338.914 158.189 301.185 158.209C300.281 158.26 299.377 158.116 298.532 157.789C297.688 157.461 296.924 156.957 296.291 156.309C286.105 146.249 275.83 136.28 265.603 126.261C263.867 124.561 261.803 122.898 262.903 119.994C264.053 116.961 266.675 116.976 269.331 116.978C291.379 116.988 313.428 116.98 335.478 116.954C346.521 121.588 357.087 127.226 367.855 132.435C384.57 140.522 401.211 148.762 417.883 156.935M316.747 122.479C317.51 123.869 318.796 124.094 319.847 124.598C329.431 129.192 339.27 133.315 348.578 138.409C358.482 143.89 369.626 146.739 380.945 146.682C380.43 145.689 379.132 145.482 378.098 144.975C366.037 139.029 353.698 133.575 341.958 127.062C334.31 122.739 325.426 121.124 316.746 122.478M340.788 147.178C339.414 146.316 339.035 146.028 338.617 145.822C323.14 138.203 307.744 130.407 292.127 123.085C287.117 120.735 281.506 122.361 275.727 122.332C276.94 124.145 278.314 124.472 279.495 125.038C289.966 130.064 300.738 134.544 310.858 140.194C319.997 145.294 329.815 145.91 340.783 147.177" fill="#E5E5E5"/>
<path d="M238.868 179.503C237.407 179.503 235.946 179.503 234.484 179.503C233.229 179.497 232.322 178.988 232.239 177.644C232.153 176.264 233.033 175.644 234.286 175.629C237.451 175.591 240.616 175.598 243.781 175.65C244.027 175.627 244.275 175.657 244.508 175.739C244.742 175.82 244.955 175.95 245.134 176.121C245.313 176.291 245.453 176.498 245.545 176.728C245.637 176.957 245.679 177.203 245.668 177.45C245.697 177.726 245.664 178.005 245.571 178.266C245.478 178.528 245.327 178.765 245.13 178.96C244.933 179.155 244.694 179.303 244.432 179.394C244.169 179.484 243.89 179.515 243.615 179.482C242.033 179.521 240.45 179.49 238.867 179.49L238.868 179.503Z" fill="#050605"/>
<path d="M162.663 179.496C161.196 179.496 159.728 179.503 158.263 179.496C157.986 179.525 157.706 179.492 157.443 179.401C157.18 179.31 156.94 179.163 156.74 178.969C156.54 178.776 156.384 178.541 156.285 178.281C156.185 178.021 156.143 177.742 156.163 177.464C156.155 177.216 156.199 176.969 156.292 176.739C156.386 176.509 156.527 176.302 156.706 176.13C156.886 175.958 157.099 175.826 157.333 175.742C157.567 175.659 157.815 175.625 158.063 175.644C161.363 175.623 164.663 175.61 167.963 175.692C168.211 175.685 168.458 175.732 168.686 175.83C168.915 175.928 169.119 176.074 169.285 176.259C169.452 176.443 169.576 176.662 169.649 176.899C169.722 177.137 169.743 177.387 169.71 177.633C169.709 177.881 169.659 178.126 169.561 178.353C169.464 178.581 169.322 178.786 169.143 178.958C168.965 179.129 168.754 179.263 168.522 179.351C168.291 179.438 168.044 179.479 167.797 179.469C166.086 179.508 164.374 179.479 162.663 179.479V179.496Z" fill="#050605"/>
<path d="M15.3907 261.623C24.382 238.281 33.3741 214.939 42.3667 191.597L43.6597 192.097L16.6807 262.122L15.3867 261.622" fill="#28272F"/>
<path d="M398.119 267.27C398.059 267.37 397.975 267.545 397.944 267.536C397.731 267.496 397.528 267.412 397.349 267.289C397.036 267.022 397.112 266.905 397.506 267.027C397.715 267.092 397.915 267.184 398.119 267.27Z" fill="#95D57C"/>
<path d="M399.373 259.651L399.673 259.812L399.545 259.944L399.373 259.651Z" fill="#95D57C"/>
<path d="M76.5888 262.622L77.7888 262.566C77.6988 263.327 78.9638 264.093 77.7818 264.852C76.7428 264.452 76.7528 263.49 76.5818 262.622" fill="#050605"/>
<path d="M316.744 122.477C325.424 121.123 334.308 122.738 341.956 127.061C353.699 133.579 366.035 139.028 378.096 144.974C379.13 145.483 380.428 145.688 380.943 146.681C369.624 146.737 358.48 143.889 348.576 138.408C339.268 133.313 329.429 129.191 319.845 124.597C318.795 124.097 317.509 123.868 316.745 122.478" fill="#FCFCFC"/>
<path d="M340.789 147.176C329.822 145.908 320.003 145.294 310.864 140.193C300.744 134.543 289.972 130.063 279.501 125.037C278.32 124.471 276.946 124.144 275.733 122.331C281.508 122.361 287.118 120.731 292.133 123.084C307.75 130.405 323.146 138.202 338.623 145.821C339.041 146.027 339.423 146.315 340.794 147.177" fill="#FCFCFC"/>
</svg>
