<svg width="269" height="298" viewBox="0 0 269 298" fill="none" xmlns="http://www.w3.org/2000/svg">
<path d="M228.802 216.978H39.446C17.781 216.978 0.218018 234.541 0.218018 256.205C0.218018 277.87 17.781 295.433 39.446 295.433H228.802C250.467 295.433 268.03 277.87 268.03 256.205C268.03 234.541 250.467 216.978 228.802 216.978Z" fill="white"/>
<path d="M83.5779 145.536C79.5189 138.836 60.0219 138.943 58.2559 141.921C58.2559 141.921 67.9169 173.148 78.6829 169.911C89.4489 166.674 83.5779 145.536 83.5779 145.536Z" fill="#92E3A9"/>
<path opacity="0.3" d="M83.5779 145.536C79.5189 138.836 60.0219 138.943 58.2559 141.921C58.2559 141.921 67.9169 173.148 78.6829 169.911C89.4489 166.674 83.5779 145.536 83.5779 145.536Z" fill="black" fill-opacity="0.7"/>
<path d="M83.5779 145.536C79.5189 138.836 60.0219 138.943 58.2559 141.921C58.2559 141.921 67.9169 173.148 78.6829 169.911C89.4489 166.674 83.5779 145.536 83.5779 145.536Z" stroke="#263238" stroke-linecap="round" stroke-linejoin="round"/>
<path d="M60.319 161.426C58.9959 163.106 58.2701 165.179 58.256 167.317C58.256 170.229 63.812 228.402 80.956 248.653C84.548 252.904 88.6559 255.482 93.3289 255.537C107.845 255.693 114.875 244.178 124.112 217.468C125.261 214.143 126.455 210.572 127.694 206.757C136.676 179.188 147.71 121.683 147.71 121.683C147.71 121.683 128.129 126.225 116.51 137.739C111.434 142.771 106.146 157.052 102.765 167.539C101.102 172.694 99.897 176.923 99.395 178.708C99.239 179.299 99.15 179.622 99.15 179.622C98.653 177.817 97.9644 176.071 97.0959 174.413C97.0849 174.391 97.0849 174.379 97.075 174.368C97.0432 174.328 97.0201 174.283 97.007 174.234C94.4726 169.651 91.3826 165.398 87.8069 161.571L83.5779 145.538C83.5779 145.538 82.083 148.46 75.322 149.499C68.561 150.538 58.252 141.923 58.252 141.923L60.319 161.426Z" fill="#F3F3F3"/>
<path opacity="0.3" d="M80.96 248.658C84.552 252.909 88.66 255.487 93.333 255.542C107.849 255.698 114.879 244.183 124.116 217.473L123.916 155.394C123.916 155.394 113.004 157.514 102.773 167.543C101.11 172.698 99.905 176.927 99.403 178.712C103.487 187.212 110.603 206.761 102.438 227.591C97.139 241.101 88.469 246.589 80.96 248.658Z" fill="black" fill-opacity="0.7"/>
<path d="M60.319 161.426C58.9959 163.106 58.2701 165.179 58.256 167.317C58.256 170.229 63.812 228.402 80.956 248.653C84.548 252.904 88.6559 255.482 93.3289 255.537C107.845 255.693 114.875 244.178 124.112 217.468C125.261 214.143 126.455 210.572 127.694 206.757C136.676 179.188 147.71 121.683 147.71 121.683C147.71 121.683 128.129 126.225 116.51 137.739C111.434 142.771 106.146 157.052 102.765 167.539C101.102 172.694 99.897 176.923 99.395 178.708C99.239 179.299 99.15 179.622 99.15 179.622C98.653 177.817 97.9644 176.071 97.0959 174.413C97.0849 174.391 97.085 174.379 97.075 174.368C97.0432 174.328 97.0201 174.283 97.007 174.234C94.4726 169.651 91.3826 165.398 87.8069 161.571L83.5779 145.538C83.5779 145.538 82.083 148.46 75.322 149.499C68.561 150.538 58.252 141.923 58.252 141.923L60.319 161.426Z" stroke="#263238" stroke-linecap="round" stroke-linejoin="round"/>
<path d="M106.481 198.575C107.522 204.025 107.563 209.935 105.043 215.007" stroke="#263238" stroke-linecap="round" stroke-linejoin="round"/>
<path d="M99.158 179.622C102.038 184.499 104.242 189.746 105.71 195.217" stroke="#263238" stroke-linecap="round" stroke-linejoin="round"/>
<path d="M108.409 186.49C108.409 186.49 106.367 180.874 100.851 179.624" stroke="#263238" stroke-linecap="round" stroke-linejoin="round"/>
<path d="M80.2319 165.966C81.5612 165.244 82.8027 164.372 83.9319 163.366" stroke="#263238" stroke-linecap="round" stroke-linejoin="round"/>
<path d="M60.3159 161.426C64.6379 166.049 71.3779 169.07 77.6609 167.059" stroke="#263238" stroke-linecap="round" stroke-linejoin="round"/>
<path d="M97.0049 174.246C97.0274 174.289 97.0535 174.33 97.0829 174.369C97.0512 174.329 97.028 174.284 97.0149 174.235C97.0135 174.235 97.0121 174.235 97.0109 174.236C97.0096 174.236 97.0084 174.237 97.0075 174.238C97.0066 174.239 97.0058 174.24 97.0054 174.242C97.005 174.243 97.0048 174.244 97.0049 174.246Z" fill="#92E3A9" stroke="#263238" stroke-linecap="round" stroke-linejoin="round"/>
<path d="M224.892 292.841C224.892 292.841 227.362 273.35 228.866 266.988C235.644 238.337 259.522 171.954 255.673 152.309C251.715 132.122 227.513 114.459 188.451 112.518C152.224 110.71 122.356 123.552 115.215 138.48C108.398 152.728 108.678 251.064 110.407 295.435H209.924C215.017 295.349 220.067 294.474 224.892 292.841Z" fill="#F3F3F3"/>
<path opacity="0.3" d="M217.113 174.376C198.348 200.098 177.891 238.592 177.891 238.592L122.004 168.942C122.004 168.942 134.804 257.407 141.783 266.985C148.762 276.563 148.453 280.96 148.453 280.96C148.453 280.96 166.166 300.036 179.453 297.446C190.722 295.246 231.253 250.023 243.891 197.593L217.113 174.376Z" fill="black" fill-opacity="0.7"/>
<path d="M224.892 292.841C224.892 292.841 227.362 273.35 228.866 266.988C235.644 238.337 259.522 171.954 255.673 152.309C251.715 132.122 227.513 114.459 188.451 112.518C152.224 110.71 122.356 123.552 115.215 138.48C108.398 152.728 108.678 251.064 110.407 295.435H209.924C215.017 295.349 220.067 294.474 224.892 292.841V292.841Z" stroke="#263238" stroke-linecap="round" stroke-linejoin="round"/>
<path d="M204.224 116.451C204.224 116.451 184.745 124.805 163.665 117.881C163.665 117.881 166.38 111.281 166.393 105.843C166.406 103.115 165.718 100.667 163.665 99.5019C163.665 99.5019 164.618 98.4549 166.234 96.8019H166.247C174.232 88.6719 198.477 65.8159 206.369 79.4419C206.365 79.4389 198.107 80.2209 204.224 116.451Z" fill="white" stroke="#263238" stroke-linecap="round" stroke-linejoin="round"/>
<path d="M182.203 91.2119C182.203 91.2119 179.003 102.956 166.392 105.843C166.405 103.115 165.717 100.667 163.664 99.5019C163.664 99.5019 164.617 98.4549 166.233 96.8019H166.246C173.965 93.7679 182.203 91.2119 182.203 91.2119Z" fill="#263238"/>
<path d="M211.854 60.2639C220.22 26.9249 202.201 15.5149 190.846 11.1459C172.659 4.14592 149.705 12.1099 144.328 30.6299C138.951 49.1499 143.796 53.3669 143.545 60.9439C143.369 66.2589 139.845 68.8759 143.729 82.2099C146.293 91.0099 151.053 101.099 156.604 101.422C171.628 102.295 185.852 93.7389 185.062 89.7219" fill="white"/>
<path d="M211.854 60.2639C220.22 26.9249 202.201 15.5149 190.846 11.1459C172.659 4.14592 149.705 12.1099 144.328 30.6299C138.951 49.1499 143.796 53.3669 143.545 60.9439C143.369 66.2589 139.845 68.8759 143.729 82.2099C146.293 91.0099 151.053 101.099 156.604 101.422C171.628 102.295 185.852 93.7389 185.062 89.7219" stroke="#263238" stroke-linecap="round" stroke-linejoin="round"/>
<path d="M164.645 43.929C164.645 43.929 171.372 41.604 174.964 48.941" stroke="#263238" stroke-linecap="round" stroke-linejoin="round"/>
<path d="M141.783 42.8339C141.783 42.8339 146.783 38.5889 151.798 44.5949" stroke="#263238" stroke-linecap="round" stroke-linejoin="round"/>
<path d="M167.651 60.8509C168.572 60.8509 169.319 59.5946 169.319 58.0449C169.319 56.4952 168.572 55.2389 167.651 55.2389C166.73 55.2389 165.983 56.4952 165.983 58.0449C165.983 59.5946 166.73 60.8509 167.651 60.8509Z" fill="#263238"/>
<path d="M146.785 56.51C146.785 58.059 147.532 59.316 148.453 59.316C149.374 59.316 150.121 58.059 150.121 56.51C150.121 54.961 149.374 53.704 148.453 53.704C147.532 53.704 146.785 54.964 146.785 56.51Z" fill="#263238"/>
<path d="M151.798 50.0859C151.798 50.0859 152.834 57.8049 152.371 59.3149C151.908 60.8249 146.686 65.5389 146.481 67.6329C146.276 69.7269 150.848 71.8449 150.848 71.8449" fill="white"/>
<path d="M151.798 50.0859C151.798 50.0859 152.834 57.8049 152.371 59.3149C151.908 60.8249 146.686 65.5389 146.481 67.6329C146.276 69.7269 150.848 71.8449 150.848 71.8449" stroke="#263238" stroke-linecap="round" stroke-linejoin="round"/>
<path d="M148.453 76.278C148.453 76.278 158.883 78.897 167.653 76.278C167.653 76.278 163.522 89.2149 155.353 87.8979C149.945 87.0249 151.322 78.547 151.322 78.547L148.453 76.278Z" fill="#263238"/>
<path d="M177.21 25.2469C174.11 23.3922 170.407 22.8278 166.896 23.6749C160.896 25.0749 159.953 37.6899 159.953 37.6899C159.953 37.6899 156.746 34.8499 156.18 31.3579L154.294 36.7709L149.294 32.0559L147.619 37.6899L145.633 33.6269L141.782 41.1269C141.782 41.1269 135.997 33.6709 136.893 27.9079C139.337 12.1929 151.808 -0.719071 177.893 0.667929C191.023 1.36793 195.924 10.3679 195.924 10.3679C195.924 10.3679 208.766 8.63093 214.461 15.2929C233.861 37.9769 221.694 62.6099 203.274 85.9469L196.96 63.7059L190.848 63.0059C190.983 60.7236 190.996 58.4356 190.886 56.1519C190.697 52.6599 188.622 47.5519 188.622 47.5519L186.359 48.5679L187.302 44.3079L182.132 46.9589C182.132 46.9589 184.317 29.4379 182.132 26.4699C181.639 25.6579 180.845 25.0736 179.923 24.8445C179.001 24.6155 178.026 24.7601 177.21 25.2469Z" fill="#263238"/>
<path d="M193.117 66.098C193.117 66.098 199.229 54.707 205.617 57.486C212.005 60.265 207.561 73.877 202.005 78.322C196.449 82.767 193.114 78.322 193.114 78.322" fill="white"/>
<path d="M193.117 66.098C193.117 66.098 199.229 54.707 205.617 57.486C212.005 60.265 207.561 73.877 202.005 78.322C196.449 82.767 193.114 78.322 193.114 78.322" stroke="#263238" stroke-linecap="round" stroke-linejoin="round"/>
<g opacity="0.2">
<path d="M182.753 20.5599C181.941 18.6091 180.594 16.9279 178.867 15.7107C177.139 14.4936 175.103 13.7902 172.993 13.6819C165.513 13.1909 160.138 21.2969 159.967 26.9459" stroke="white" stroke-linecap="round" stroke-linejoin="round"/>
<path d="M187.813 20.3029C187.813 20.3029 192.939 16.3729 195.913 20.3029C200.94 26.9459 196.778 42.9859 196.778 42.9859" stroke="white" stroke-linecap="round" stroke-linejoin="round"/>
<path d="M194.784 15.6178C194.784 15.6178 200.118 12.3418 204.684 18.6608C209.25 24.9798 208.763 40.3318 208.763 40.3318" stroke="white" stroke-linecap="round" stroke-linejoin="round"/>
<path d="M209.9 14.7689C209.9 14.7689 219.135 18.6609 219.659 37.2629" stroke="white" stroke-linecap="round" stroke-linejoin="round"/>
<path d="M188.435 15.6179C188.435 15.6179 183.235 6.80386 167.86 9.75186C152.485 12.6999 150.172 28.4199 150.172 28.4199" stroke="white" stroke-linecap="round" stroke-linejoin="round"/>
<path d="M192.262 12.9459C192.262 12.9459 186.069 4.3459 167.243 6.0679C148.417 7.7899 140.848 24.2439 142.76 32.1039" stroke="white" stroke-linecap="round" stroke-linejoin="round"/>
</g>
<path d="M38 123.172C38 123.172 60.39 105.938 70.148 104.191C79.906 102.444 113.488 109.779 113.488 109.779V149.548C113.488 149.548 92.479 151.853 83.051 158.755C73.623 165.657 41.142 166.764 41.142 166.764L38 123.172Z" fill="#757575" stroke="#263238" stroke-linecap="round" stroke-linejoin="round"/>
<path d="M59.012 110.853C59.2732 108.208 59.7074 105.583 60.312 102.995C61.103 100.201 66.5119 100.5 67.7379 101.485C68.6432 102.288 69.449 103.197 70.1379 104.192C70.1379 104.192 68.2589 104.74 67.7379 104.915C67.2169 105.09 66.695 115.218 59.012 110.853Z" fill="white" stroke="#263238" stroke-linecap="round" stroke-linejoin="round"/>
<path d="M87.6041 50.1307L65.2939 114.807L97.321 125.855L119.631 61.1785L87.6041 50.1307Z" fill="#3422F2"/>
<path opacity="0.5" d="M65.293 114.808L97.321 125.856L119.632 61.1799L87.604 50.1309L65.293 114.808ZM116.264 62.8199L95.682 122.49L68.661 113.169L89.244 53.5009L116.264 62.8199Z" fill="black" fill-opacity="0.7"/>
<path opacity="0.5" d="M92.3609 58.5518L89.6049 66.5388C89.4568 66.9681 89.1443 67.3211 88.7361 67.52C88.3279 67.719 87.8574 67.7477 87.428 67.5998C86.9989 67.4515 86.6462 67.1389 86.4476 66.7306C86.2491 66.3224 86.2207 65.8519 86.3689 65.4228L89.1229 57.4358C89.1962 57.2232 89.3106 57.027 89.4596 56.8586C89.6087 56.6902 89.7895 56.5528 89.9916 56.4543C90.1938 56.3558 90.4134 56.298 90.6379 56.2844C90.8624 56.2708 91.0873 56.3015 91.2999 56.3748C91.5127 56.448 91.7089 56.5623 91.8774 56.7113C92.0459 56.8603 92.1833 57.0411 92.2819 57.2433C92.3804 57.4455 92.4381 57.6652 92.4517 57.8897C92.4653 58.1142 92.4344 58.3392 92.3609 58.5518Z" fill="black" fill-opacity="0.7"/>
<path opacity="0.5" d="M98.558 110.563L95.8021 118.55C95.6538 118.979 95.3411 119.332 94.9329 119.53C94.5246 119.729 94.0542 119.757 93.6251 119.609C93.4124 119.536 93.2163 119.421 93.0479 119.272C92.8794 119.123 92.7421 118.942 92.6435 118.74C92.545 118.538 92.4872 118.318 92.4736 118.094C92.46 117.869 92.4907 117.645 92.5641 117.432L95.3201 109.445C95.4684 109.016 95.781 108.663 96.1893 108.465C96.5975 108.266 97.0679 108.238 97.497 108.386C97.7098 108.459 97.906 108.573 98.0745 108.722C98.243 108.871 98.3804 109.052 98.479 109.254C98.5775 109.457 98.6352 109.676 98.6488 109.901C98.6624 110.125 98.6315 110.35 98.558 110.563Z" fill="black" fill-opacity="0.7"/>
<path opacity="0.5" d="M82.43 84.5328C81.7458 86.5171 81.6654 88.6597 82.1988 90.6898C82.7323 92.7198 83.8558 94.5461 85.4271 95.9376C86.9985 97.3292 88.9472 98.2236 91.0268 98.5077C93.1065 98.7918 95.2236 98.4529 97.1107 97.5338C98.9977 96.6146 100.57 95.1566 101.628 93.3441C102.687 91.5315 103.184 89.4458 103.057 87.3507C102.93 85.2556 102.185 83.2451 100.915 81.5736C99.6458 79.902 97.9092 78.6444 95.925 77.9598C94.6074 77.5053 93.2131 77.3147 91.8217 77.3991C90.4304 77.4834 89.0693 77.841 87.8162 78.4513C86.5631 79.0617 85.4424 79.9129 84.5183 80.9564C83.5941 81.9998 82.8845 83.2151 82.43 84.5328ZM98.039 89.1328L98.83 89.4058L98.348 90.8058L97.557 90.5318C96.884 91.6728 95.724 91.9668 94.249 91.4588L93.503 91.2018L94.06 89.5878L94.913 89.8818C95.6901 90.1488 96.088 89.9048 96.274 89.3618C96.46 88.8188 96.3 88.3808 95.523 88.1118C94.746 87.8428 94.081 87.9618 92.785 88.8008C91.201 89.8178 90.166 90.0008 88.924 89.5698C87.465 89.0698 86.742 88.1408 86.89 86.8538L86.084 86.5758L86.566 85.1758L87.372 85.4538C88.038 84.3278 89.183 84.0288 90.659 84.5378L91.001 84.6558L90.445 86.2698L89.995 86.1148C89.218 85.8478 88.817 86.0548 88.628 86.5998C88.439 87.1448 88.628 87.5548 89.405 87.8238C90.182 88.0928 90.831 87.9678 92.143 87.1348C93.743 86.1228 94.762 85.9348 96.004 86.3658C97.48 86.8748 98.207 87.8378 98.035 89.1338L98.039 89.1328Z" fill="black" fill-opacity="0.7"/>
<path d="M87.6041 50.1307L65.2939 114.807L97.321 125.855L119.631 61.1785L87.6041 50.1307Z" stroke="#263238" stroke-linecap="round" stroke-linejoin="round"/>
<path d="M38 123.173C38 123.173 70.478 112.225 79.208 110.653C87.938 109.081 113.488 109.78 113.488 109.78V149.549C113.488 149.549 86.817 157.641 82.701 160.879C78.585 164.117 41.142 166.765 41.142 166.765L38 123.173Z" fill="#999999" stroke="#263238" stroke-linecap="round" stroke-linejoin="round"/>
<path d="M82.318 127.908C80.607 137.115 81.836 149.458 75.741 156.927" stroke="#263238" stroke-linecap="round" stroke-linejoin="round"/>
<path d="M85.147 113.971C84.4863 116.976 83.8577 119.987 83.261 123.006" stroke="#263238" stroke-linecap="round" stroke-linejoin="round"/>
<path d="M109.528 20.4299C109.528 21.869 109.101 23.2758 108.302 24.4724C107.502 25.6689 106.366 26.6015 105.036 27.1522C103.707 27.7028 102.244 27.8469 100.832 27.566C99.4208 27.2852 98.1243 26.5922 97.1068 25.5745C96.0893 24.5568 95.3964 23.2603 95.1158 21.8488C94.8351 20.4373 94.9794 18.9743 95.5302 17.6448C96.0811 16.3153 97.0138 15.179 98.2105 14.3797C99.4071 13.5803 100.814 13.1537 102.253 13.1539C103.209 13.1539 104.155 13.3421 105.037 13.7078C105.92 14.0735 106.722 14.6094 107.398 15.2851C108.073 15.9607 108.609 16.7628 108.975 17.6456C109.34 18.5284 109.528 19.4745 109.528 20.4299Z" fill="white" stroke="#263238" stroke-linecap="round" stroke-linejoin="round"/>
<path d="M106.316 24.961C107.212 24.157 107.849 23.1057 108.147 21.9399C108.445 20.7741 108.391 19.546 107.991 18.411C107.591 17.2759 106.864 16.2849 105.901 15.563C104.938 14.8411 103.783 14.4209 102.582 14.3553C101.38 14.2898 100.186 14.582 99.1506 15.1949C98.115 15.8077 97.2844 16.7139 96.7636 17.7987C96.2429 18.8836 96.0555 20.0984 96.225 21.2897C96.3945 22.4811 96.9134 23.5954 97.7161 24.492C98.2499 25.0877 98.8958 25.5724 99.6169 25.9184C100.338 26.2644 101.12 26.4649 101.919 26.5085C102.718 26.552 103.517 26.4378 104.272 26.1722C105.026 25.9067 105.721 25.4951 106.316 24.961ZM99.7771 18.3029L99.4571 17.945L100.087 17.38L100.407 17.738C100.725 17.5559 101.1 17.5018 101.456 17.587C101.812 17.6721 102.122 17.8899 102.323 18.196L102.623 18.532L101.893 19.185L101.547 18.7999C101.233 18.4489 100.966 18.462 100.721 18.682C100.476 18.902 100.434 19.167 100.749 19.518C101.064 19.869 101.43 19.995 102.313 19.936C102.701 19.8578 103.102 19.8801 103.478 20.0009C103.854 20.1217 104.194 20.3369 104.463 20.626C104.74 20.8561 104.921 21.182 104.97 21.5391C105.018 21.8962 104.93 22.2584 104.724 22.5539L105.051 22.919L104.421 23.4839L104.094 23.1199C103.779 23.2988 103.407 23.3511 103.054 23.2663C102.701 23.1814 102.394 22.9658 102.194 22.6629L102.056 22.5079L102.784 21.8539L102.967 22.0539C103.281 22.4049 103.54 22.4119 103.787 22.1919C104.034 21.9719 104.053 21.713 103.738 21.362C103.423 21.011 103.064 20.892 102.174 20.944C101.787 21.0209 101.386 20.9979 101.01 20.8772C100.634 20.7565 100.294 20.542 100.024 20.254C99.745 20.0197 99.5645 19.6888 99.5187 19.3273C99.473 18.9658 99.5652 18.6004 99.7771 18.3039V18.3029Z" fill="#3422F2"/>
<path d="M49.242 65.1099C47.8446 64.7667 46.5804 64.0169 45.6092 62.9553C44.638 61.8937 44.0034 60.5679 43.7857 59.1456C43.568 57.7233 43.7769 56.2683 44.386 54.9648C44.9952 53.6612 45.9773 52.5676 47.208 51.8222C48.4387 51.0767 49.8628 50.713 51.3003 50.777C52.7377 50.8409 54.1239 51.3297 55.2836 52.1815C56.4432 53.0333 57.3243 54.2098 57.8152 55.5623C58.3062 56.9148 58.3851 58.3825 58.042 59.7799C57.5818 61.6536 56.3961 63.2678 54.7458 64.2674C53.0955 65.267 51.1157 65.57 49.242 65.1099Z" fill="white" stroke="#263238" stroke-linecap="round" stroke-linejoin="round"/>
<path d="M45.609 60.9099C46.1756 61.9722 47.0445 62.8426 48.1058 63.411C49.1671 63.9794 50.3731 64.2203 51.5714 64.1033C52.7696 63.9863 53.9063 63.5165 54.8375 62.7535C55.7688 61.9905 56.4528 60.9684 56.8032 59.8166C57.1536 58.6648 57.1545 57.4349 56.8059 56.2825C56.4573 55.1302 55.7748 54.1071 54.8447 53.3426C53.9146 52.5782 52.7787 52.1067 51.5806 51.9879C50.3825 51.869 49.1762 52.1081 48.114 52.6749C47.4087 53.0511 46.7845 53.5625 46.2769 54.18C45.7694 54.7975 45.3884 55.5089 45.1558 56.2736C44.9231 57.0383 44.8434 57.8413 44.9212 58.6368C44.999 59.4323 45.2327 60.2047 45.609 60.9099ZM53.635 56.1479L54.059 55.9219L54.459 56.6699L54.035 56.8959C54.1358 57.2475 54.0988 57.6243 53.9316 57.9496C53.7644 58.2749 53.4795 58.5242 53.135 58.6469L52.735 58.8599L52.274 57.9949L52.731 57.7509C53.147 57.5299 53.198 57.2659 53.044 56.9759C52.89 56.6859 52.644 56.5809 52.226 56.8039C51.808 57.0269 51.6 57.3509 51.446 58.2219C51.4295 58.6171 51.312 59.0014 51.1047 59.3382C50.8975 59.6751 50.6073 59.9531 50.262 60.1459C49.9722 60.3602 49.6125 60.4578 49.2542 60.4194C48.8958 60.3811 48.5649 60.2096 48.327 59.9389L47.895 60.1689L47.495 59.4209L47.928 59.1909C47.8287 58.841 47.8665 58.4663 48.0337 58.1432C48.2009 57.8201 48.4849 57.5729 48.828 57.4519L49.011 57.3519L49.472 58.2169L49.231 58.3449C48.815 58.5659 48.746 58.8159 48.901 59.1079C49.056 59.3999 49.301 59.4799 49.718 59.2589C50.135 59.0379 50.336 58.7159 50.498 57.8389C50.5157 57.4442 50.6337 57.0605 50.8408 56.724C51.048 56.3875 51.3375 56.1094 51.682 55.9159C51.9768 55.7014 52.3418 55.6061 52.7039 55.6491C53.0661 55.6921 53.3986 55.8703 53.635 56.1479Z" fill="#3422F2"/>
<path d="M136.469 129.769C134.615 126.411 129.318 128.029 123.14 137.74C116.962 147.451 114.44 158.774 115.93 162.898C117.42 167.022 137.411 172.02 137.411 172.02L141.53 161.574L136.469 129.769Z" fill="#92E3A9"/>
<path d="M136.469 129.769C134.615 126.411 129.318 128.029 123.14 137.74C116.962 147.451 114.44 158.774 115.93 162.898C117.42 167.022 137.411 172.02 137.411 172.02L141.53 161.574L136.469 129.769Z" fill="white" fill-opacity="0.7"/>
<path d="M136.469 129.769C134.615 126.411 129.318 128.029 123.14 137.74C116.962 147.451 114.44 158.774 115.93 162.898C117.42 167.022 137.411 172.02 137.411 172.02L141.53 161.574L136.469 129.769Z" stroke="#263238" stroke-linecap="round" stroke-linejoin="round"/>
<path d="M144.922 150.097L133.457 125.009C133.457 125.009 125.987 114.318 124.515 110.242C123.043 106.166 106.615 102.995 102.899 102.995C99.183 102.995 95.264 109.625 95.264 109.625L102.984 109.63C102.984 109.63 105.863 112.657 106.224 114.469C106.585 116.281 96.019 125.289 94.509 126.144C92.999 126.999 89.015 128.328 84.817 131.438C80.619 134.548 71.158 136.974 69.396 139.762C67.634 142.55 68.88 143.078 70.144 143.72C71.2211 144.162 72.3617 144.43 73.523 144.513C73.523 144.513 72.768 147.683 73.523 149.344C74.278 151.005 78.677 150.855 78.677 150.855C78.7348 151.492 78.9946 152.094 79.4187 152.573C79.8427 153.052 80.4087 153.382 81.034 153.517C82.3239 153.729 83.5906 154.064 84.817 154.517C84.817 154.517 93.905 156.054 97.981 155.19C102.057 154.326 114.427 147.738 117.452 148.012C120.477 148.286 128.837 167.692 128.837 167.692C128.837 167.692 143.111 165.275 144.922 150.097Z" fill="white" stroke="#263238" stroke-linecap="round" stroke-linejoin="round"/>
<path d="M73.5239 144.514C73.5239 144.514 85.3929 141.948 86.1759 141.042C86.9589 140.136 95.2639 137.555 95.2639 137.555" stroke="#263238" stroke-linecap="round" stroke-linejoin="round"/>
<path d="M78.678 150.854C78.678 150.854 85.343 149.495 87.661 149.192C89.979 148.889 99.491 144.512 99.491 144.512" stroke="#263238" stroke-linecap="round" stroke-linejoin="round"/>
<path d="M84.8179 154.518C84.8179 154.518 94.2079 153.718 96.1699 152.818C98.1319 151.918 103.87 150.099 103.87 150.099" stroke="#263238" stroke-linecap="round" stroke-linejoin="round"/>
<path d="M223.547 139.042C209.615 148.224 201.2 170.402 201.2 170.402L179.453 210.853C179.453 210.853 161.165 165.828 155.985 165.253L136.469 129.769C136.469 129.769 138.777 150.569 130.643 159.393C122.509 168.217 115.93 162.898 115.93 162.898L122.004 179.671L123.516 187.64C123.516 187.64 149.169 264.6 157.555 269.364C165.941 274.128 185.022 276.264 201.2 264.417C217.378 252.57 245.057 207.768 247.677 193.112" fill="#F3F3F3"/>
<path d="M223.547 139.042C209.615 148.224 201.2 170.402 201.2 170.402L179.453 210.853C179.453 210.853 161.165 165.828 155.985 165.253L136.469 129.769C136.469 129.769 138.777 150.569 130.643 159.393C122.509 168.217 115.93 162.898 115.93 162.898L122.004 179.671L123.516 187.64C123.516 187.64 149.169 264.6 157.555 269.364C165.941 274.128 185.022 276.264 201.2 264.417C217.378 252.57 245.057 207.768 247.677 193.112" stroke="#263238" stroke-linecap="round" stroke-linejoin="round"/>
<path d="M148.132 170.577C148.832 169.523 149.485 168.432 150.081 167.313" stroke="#263238" stroke-linecap="round" stroke-linejoin="round"/>
<path d="M131.694 181.095C137.309 180.434 142.457 177.648 146.081 173.309" stroke="#263238" stroke-linecap="round" stroke-linejoin="round"/>
<path d="M122.004 179.671C124.172 180.583 126.487 181.098 128.838 181.191" stroke="#263238" stroke-linecap="round" stroke-linejoin="round"/>
<path d="M185.158 228.689C185.265 230.54 185.115 232.397 184.713 234.207" stroke="#263238" stroke-linecap="round" stroke-linejoin="round"/>
<path d="M179.453 210.853C182.06 215.34 183.865 220.246 184.787 225.353" stroke="#263238" stroke-linecap="round" stroke-linejoin="round"/>
<path d="M191.481 218.096C191.481 218.096 187.527 213.142 183.018 210.853" stroke="#263238" stroke-linecap="round" stroke-linejoin="round"/>
<path d="M225.859 159.387C225.859 159.387 213.624 157.752 203.914 168.944" stroke="#263238" stroke-linecap="round" stroke-linejoin="round"/>
<path d="M238.799 193.608C236.453 193.953 234.058 193.565 231.941 192.496" stroke="#263238" stroke-linecap="round" stroke-linejoin="round"/>
<path d="M253.49 177.198C251.565 186.484 246.382 191.198 241.865 192.834" stroke="#263238" stroke-linecap="round" stroke-linejoin="round"/>
<path d="M195.805 124.417C195.805 124.417 175.494 129.136 164.176 121.57" stroke="#263238" stroke-linecap="round" stroke-linejoin="round"/>
<path d="M122.96 248.713C122.96 248.713 134.027 279.963 159.628 285.26" stroke="#263238" stroke-linecap="round" stroke-linejoin="round"/>
<path d="M196.945 292.028C195.627 293.021 194.245 293.928 192.845 294.797" stroke="#263238" stroke-linecap="round" stroke-linejoin="round"/>
<path d="M69.4329 51.132V78.605" stroke="#263238" stroke-linecap="round" stroke-linejoin="round"/>
<path d="M69.4329 34.6479V45.6369" stroke="#263238" stroke-linecap="round" stroke-linejoin="round"/>
<path d="M69.4329 24.3789V30.2569" stroke="#263238" stroke-linecap="round" stroke-linejoin="round"/>
<path d="M64.2449 75.3929L69.4329 81.815L74.6209 75.3929" stroke="#263238" stroke-linecap="round" stroke-linejoin="round"/>
</svg>
