<svg width="424" height="374" viewBox="0 0 424 374" fill="none" xmlns="http://www.w3.org/2000/svg">
<g clip-path="url(#clip0_409_733)">
<path d="M172.253 300.52C172.31 299.384 172.418 298.249 172.418 297.113C172.418 267.765 172.412 238.418 172.399 209.072C172.399 207.936 172.3 206.798 172.248 205.661C172.547 187.789 172.547 169.916 172.248 152.044C172.527 135.777 172.524 119.51 172.241 103.244C172.298 101.991 172.403 100.738 172.404 99.4848C172.416 86.4338 172.37 73.3878 172.421 60.3428C172.45 53.1218 175.462 48.5048 181.179 46.5988C183.374 46.0203 185.647 45.8025 187.911 45.9538C228.726 45.9538 269.541 45.9562 310.356 45.9608C311.484 45.9638 312.62 45.9538 313.749 46.0538C316.731 46.294 319.537 47.5774 321.682 49.6828C323.827 51.7881 325.177 54.5833 325.498 57.5858C326.314 64.5348 325.399 71.5168 326.045 78.4628C325.968 79.7088 325.824 80.9568 325.823 82.2038C325.817 102.797 325.823 123.391 325.841 143.986C325.854 155.422 325.912 166.858 325.95 178.292C324.67 179.551 323.106 180.477 321.393 180.992C321.327 180.525 321.261 180.056 321.195 179.585C321.207 170.4 321.218 161.215 321.228 152.031C321.219 147.226 321.209 142.422 321.199 137.618C321.199 120.655 321.196 103.692 321.191 86.7288C321.191 83.7748 321.193 80.8208 321.199 77.8668C321.235 71.5968 321.38 65.3258 321.276 59.0578C321.302 57.9064 321.093 56.7619 320.663 55.695C320.234 54.6281 319.592 53.6614 318.778 52.8546C317.963 52.0479 316.994 51.4182 315.929 51.0044C314.864 50.5906 313.727 50.4015 312.587 50.4488C298.921 50.3488 285.254 50.4838 271.588 50.5248L262.839 50.4818C237.794 50.4452 212.75 50.4118 187.706 50.3818C180.106 50.3718 176.977 53.5338 176.975 61.1878C176.969 93.6772 176.969 126.166 176.975 158.656C176.975 159.681 177.068 160.707 177.117 161.732C177.102 164.69 177.087 167.647 177.071 170.605C177.083 176.128 177.095 181.652 177.107 187.176C177.11 192.406 177.114 197.635 177.118 202.865C177.109 223.049 177.099 243.233 177.09 263.417C177.09 266.377 177.09 269.337 177.09 272.298C177.052 295.615 176.97 318.933 177.01 342.25C177.019 347.31 180.256 350.826 185.272 350.865C200.892 350.989 216.513 350.835 232.13 350.79C234.625 351.077 237.145 351.067 239.638 350.76C253.121 350.834 266.603 350.938 280.086 350.968C285.066 350.979 290.045 350.816 295.025 350.733C296.482 352.961 299.716 352.885 300.955 355.395C299.939 355.44 298.924 355.526 297.908 355.526C261.088 355.532 224.268 355.532 187.45 355.526C177.593 355.528 172.442 350.299 172.412 340.3C172.366 327.04 172.313 313.78 172.253 300.52Z" fill="#2A2D33"/>
<path d="M256.237 191.788C262.703 189.168 268.372 185.088 274.392 181.651C289.82 172.851 305.147 163.88 320.515 154.976C320.592 155.509 320.668 156.042 320.745 156.576C312.581 162.076 303.874 166.654 295.414 171.65C284.385 178.163 273.322 184.626 262.227 191.039C260.383 192.109 258.476 193.571 256.236 191.783" fill="#FEFEFE"/>
<path d="M255.679 320.244C254.787 320.002 254.853 319.256 254.808 318.567C255.583 318.867 255.551 319.599 255.679 320.244Z" fill="#FEFEFE"/>
<path d="M256.43 321.8C255.656 321.505 255.63 320.81 255.557 320.14C256.283 320.46 256.343 321.14 256.43 321.8Z" fill="#FEFEFE"/>
<path d="M320.844 204.191C320.748 190.91 320.651 177.63 320.555 164.349C320.555 163.841 320.558 163.333 320.564 162.825C322.054 161.446 323.868 160.474 325.834 160.001C325.913 173.71 325.993 187.42 326.073 201.132C324.815 202.997 322.64 203.264 320.844 204.191Z" fill="#2A2D33"/>
<path d="M216.718 99.4348L217.499 98.4958L216.718 99.4348Z" fill="#B1DEE5"/>
<path d="M183.549 50.2849C189.358 49.7189 314.29 50.2849 314.29 50.2849C314.29 50.2849 322.093 51.9849 321.631 59.8549C321.168 67.7249 320.904 210.696 320.904 210.696C320.904 210.696 286.521 216.19 266.178 233.834C245.835 251.478 255.003 320.023 255.003 320.023L257.579 322.916C257.579 322.916 281.647 325.229 281.933 330.436C282.219 335.643 288.237 347.21 293.108 351.26C297.979 355.31 182.506 351.26 182.506 351.26L177.922 349.245L176.204 343.172V56.0729C176.745 54.496 177.726 53.1108 179.03 52.0839C180.333 51.057 181.902 50.4323 183.549 50.2849Z" fill="#ECF2FA"/>
<path d="M295.579 116.001H200.477C195.826 116.001 192.056 119.806 192.056 124.501C192.056 129.195 195.826 133.001 200.477 133.001H295.579C300.23 133.001 304 129.195 304 124.501C304 119.806 300.23 116.001 295.579 116.001Z" fill="#D9E2EE"/>
<path d="M295.579 141.001H200.477C195.826 141.001 192.056 144.806 192.056 149.501C192.056 154.195 195.826 158.001 200.477 158.001H295.579C300.23 158.001 304 154.195 304 149.501C304 144.806 300.23 141.001 295.579 141.001Z" fill="#D9E2EE"/>
<path d="M271.804 174.001H224.252C219.602 174.001 215.832 177.806 215.832 182.501C215.832 187.195 219.602 191.001 224.252 191.001H271.804C276.454 191.001 280.224 187.195 280.224 182.501C280.224 177.806 276.454 174.001 271.804 174.001Z" fill="#BDCCE1"/>
<path d="M127.979 153.775C127.681 154.72 128.762 155.697 127.913 156.629C125.04 157.248 122.217 158.043 119.406 158.924C114.391 160.495 109.436 162.292 104.149 162.881C100.539 163.281 96.9227 163.555 93.3028 163.829C87.7551 164.249 82.2501 165.118 76.6697 165.14C75.5641 165.14 74.4774 163.996 73.3639 165.068C72.5903 164.628 71.93 164.011 71.4366 163.266C70.9432 162.521 70.6304 161.67 70.5237 160.78C69.3646 154.822 68.1461 148.88 66.9573 142.926C66.8771 142.069 66.8692 141.198 66.7047 140.357C65.0818 131.868 64.8239 123.17 65.9409 114.598C66.8603 107.168 68.4542 100.058 74.5378 94.8849C76.745 93.0089 79.1503 91.4509 81.5101 89.8089C82.9998 89.2628 84.3724 88.4343 85.5539 87.3679C88.6497 88.6439 91.1452 91.0679 94.3767 92.0829C94.474 92.2409 94.6128 92.3686 94.7778 92.4518C94.9427 92.5349 95.1272 92.5703 95.3109 92.5539L95.4882 92.6639L95.298 92.5639C95.205 92.4019 95.0669 92.2711 94.9007 92.1879C94.7346 92.1046 94.5478 92.0726 94.3638 92.0959C94.0181 90.4959 92.6718 89.7609 91.5711 88.8159C89.7135 87.4153 88.0984 85.714 86.7912 83.7809C86.8357 82.7386 87.1268 81.7223 87.6402 80.8169C92.2864 83.3494 96.6052 86.4508 100.499 90.0509C102.706 92.0509 104.823 94.0929 104.777 97.4709C104.85 98.2554 105.137 99.004 105.608 99.6329C110.641 107.374 114.332 115.811 118.171 124.172L119.771 128.592C119.405 129.284 118.856 129.861 118.186 130.259C114.332 132.946 109.708 134.276 105.03 134.043C103.481 133.987 101.984 133.462 100.733 132.537C99.4831 131.611 98.5372 130.328 98.0183 128.853C96.9907 125.749 96.3823 122.52 96.2094 119.253C95.9383 116.085 94.9092 113.031 93.2107 110.353C93.972 113.978 94.34 117.677 94.3083 121.383C94.216 128.469 93.4621 135.531 92.0566 142.475C91.4869 145.393 91.798 145.625 94.8839 145.775C99.3993 146.001 103.224 143.648 107.332 142.423C112.724 140.815 117.975 138.723 123.282 136.845L124.283 138.303L126.117 144.835L127.979 153.773" fill="#3422F2"/>
<path d="M127.427 162.243C127.568 163.982 127.71 165.72 127.852 167.459C127.697 167.685 127.591 167.941 127.54 168.21C127.488 168.48 127.493 168.757 127.555 169.025C127.852 172.834 128.128 176.644 128.446 180.45C128.965 186.75 129.437 193.05 130.093 199.332C130.232 200.682 129.895 201.152 128.718 201.489C125.727 202.281 122.684 202.86 119.613 203.221C115.368 203.81 111.093 203.447 106.839 203.797C96.56 204.642 86.282 205.515 76.2021 202.287C74.3908 201.54 72.6597 200.609 71.0358 199.507C70.6757 199.213 70.4331 198.797 70.3528 198.336C70.2725 197.875 70.3599 197.401 70.5989 197C72.8438 192.616 73.4639 187.832 73.9394 183C74.4496 177.8 74.3426 172.548 75.4551 167.413C76.838 167.547 78.1997 167.849 79.5109 168.313C81.2251 168.794 83.0157 168.935 84.7831 168.728C88.5169 168.22 92.2715 167.861 96.0162 167.428C100.755 166.883 105.49 166.289 110.235 165.787C116.08 165.169 121.712 163.495 127.427 162.241M123.994 173.125C123.157 173.299 122.494 173.758 122.446 174.625C122.43 174.84 122.458 175.056 122.529 175.26C122.6 175.463 122.712 175.649 122.857 175.807C123.003 175.965 123.179 176.091 123.375 176.177C123.571 176.263 123.782 176.307 123.996 176.307C124.21 176.306 124.421 176.261 124.616 176.175C124.812 176.088 124.988 175.961 125.133 175.803C125.278 175.644 125.389 175.458 125.459 175.254C125.529 175.05 125.556 174.834 125.54 174.619C125.504 174.223 125.328 173.854 125.044 173.578C124.76 173.303 124.387 173.14 123.994 173.119" fill="#3422F2"/>
<path d="M127.648 219.171C127.152 227.146 126.404 235.094 125.182 242.992C125.05 243.84 124.843 244.675 124.672 245.518C124.232 245.191 124.26 244.708 124.276 244.241C124.519 233.686 123.511 223.17 123.357 212.628C123.331 210.828 122.921 210.17 121.015 210.212C115.044 210.342 109.068 210.234 103.094 210.296C99.3125 210.234 95.5364 209.97 91.7821 209.506C86.7988 208.917 81.9028 207.731 77.1977 205.973C76.67 204.808 76.3354 203.563 76.207 202.289C86.2879 205.516 96.566 204.644 106.845 203.799C111.095 203.449 115.374 203.813 119.618 203.223C122.689 202.86 125.73 202.281 128.72 201.488C129.897 201.151 130.234 200.681 130.095 199.332C129.442 193.049 128.967 186.747 128.448 180.45C128.134 176.643 127.854 172.833 127.557 169.025C127.495 168.757 127.49 168.48 127.541 168.21C127.592 167.94 127.699 167.684 127.854 167.458C129.784 175.425 131.474 183.444 132.922 191.515C133.27 193.766 133.138 196.066 132.534 198.262C132.207 199.572 131.67 201.062 130.474 201.54C127.643 202.673 127.925 204.881 127.929 207.222C127.937 211.205 127.754 215.188 127.651 219.171" fill="#DBDBDB"/>
<path d="M155.532 134.849C155.469 135.096 155.345 135.322 155.172 135.507C154.999 135.692 154.782 135.83 154.541 135.907L144.275 138.42L144.315 138.82H149.97C146.922 140.808 145.909 144.336 143.464 146.637C143.144 146.867 142.886 147.174 142.713 147.53C142.54 147.887 142.457 148.281 142.473 148.677C139.28 150.657 135.721 150.503 132.182 150.477C131.532 145.937 130.882 141.397 130.231 136.856C131.993 135.006 134.089 133.513 136.405 132.456C137.941 131.656 139.685 132.716 141.373 132.701C143.129 132.821 144.871 133.096 146.579 133.522C146.91 134.657 147.704 134.277 148.447 134.115C150.317 133.709 152.178 133.24 154.067 132.944C155.502 132.72 156.103 133.394 155.534 134.86" fill="#DBDBDB"/>
<path d="M127.427 162.243C121.711 163.497 116.084 165.172 110.235 165.789C105.491 166.289 100.756 166.889 96.0162 167.43C92.2715 167.861 88.5169 168.219 84.7831 168.73C83.0157 168.937 81.2251 168.796 79.5109 168.315C78.1998 167.851 76.838 167.549 75.4551 167.415L73.3649 165.067C74.4774 163.996 75.5641 165.144 76.6707 165.14C82.251 165.118 87.7591 164.249 93.3038 163.829C96.9236 163.555 100.536 163.283 104.15 162.88C109.438 162.292 114.393 160.495 119.407 158.923C122.218 158.042 125.039 157.247 127.914 156.628C127.764 158.501 128.24 160.428 127.427 162.243Z" fill="#6354FA"/>
<path d="M119.092 124.127C116.949 117.895 114.706 111.701 112.271 105.578C112.195 105.387 110.792 104.304 112.562 104.351C118.871 114.558 124.675 125.003 127.546 136.826L124.288 138.298L123.288 136.84L122.76 135.202C122.598 134.802 122.88 134.249 122.356 133.968L122.388 134.02C121.662 130.607 120.556 127.289 119.092 124.127Z" fill="#DBDBDB"/>
<path d="M124.284 138.304L127.542 136.832L130.23 136.848C130.88 141.389 131.53 145.929 132.18 150.469C132.081 151.119 132.385 151.869 131.7 152.369C129.389 150.198 127.956 147.369 126.117 144.839L124.283 138.307" fill="#FEFEFE"/>
<path d="M155.532 134.849C156.101 133.384 155.5 132.709 154.065 132.933C152.176 133.233 150.315 133.697 148.445 134.104C147.702 134.266 146.908 134.646 146.577 133.511C147.982 132.538 149.293 131.433 150.491 130.211C153.208 126.898 156.561 127.482 160.029 128.211C160.673 128.347 161.218 128.484 161.429 129.218C161.627 129.9 161.191 130.242 160.761 130.575C158.984 131.957 157.502 133.707 155.532 134.846" fill="#FE8C43"/>
<path d="M128.389 65.26C126.487 65.2993 124.605 64.8611 122.913 63.9847C121.22 63.1083 119.77 61.8212 118.692 60.239C117.145 58.045 115.985 58.839 114.647 60.094C113.12 61.524 111.684 63.054 110.208 64.539C109.818 64.932 109.416 65.294 108.793 65.123C109.116 64.007 109.486 62.903 109.749 61.772C110.085 60.301 110.731 59.446 112.43 59.682C113.856 59.882 114.73 58.851 115.336 57.739C116.034 56.459 116.815 56.396 117.912 57.173C119.364 58.198 120.823 59.221 122.341 60.143C124.305 61.4081 126.599 62.0487 128.928 61.982C128.911 62.7733 128.895 63.565 128.878 64.357L128.383 65.257" fill="#DBDBDB"/>
<path d="M142.475 148.67C142.459 148.274 142.541 147.879 142.714 147.523C142.887 147.167 143.146 146.86 143.466 146.63C145.906 144.33 146.923 140.801 149.971 138.813H144.316L144.276 138.413L154.537 135.904C155.907 137.418 155.528 138.567 153.757 139.304C153.33 139.436 152.947 139.68 152.644 140.011C152.342 140.341 152.131 140.747 152.035 141.186C151.524 143.011 149.402 143.186 148.171 144.354C146.532 146.115 144.603 147.575 142.468 148.669" fill="#C9C9C9"/>
<path d="M126.118 144.836C127.957 147.363 129.387 150.196 131.7 152.367C131.8 152.789 132.074 153.24 131.284 153.317C130.179 153.426 129.08 153.617 127.979 153.774L126.118 144.836Z" fill="#D3DFDB"/>
<path d="M111.633 97.3059H106.553C108.553 96.2589 110.266 94.6849 112.571 94.4059L111.634 97.3059" fill="#D3DFDB"/>
<path d="M77.1927 205.973C81.8978 207.732 86.7938 208.918 91.7772 209.507C95.5315 209.971 99.3075 210.235 103.089 210.297C109.063 210.234 115.039 210.343 121.01 210.213C122.915 210.171 123.327 210.833 123.352 212.629C123.506 223.17 124.514 233.687 124.271 244.242C124.26 244.709 124.232 245.192 124.672 245.519C124.694 251.235 124.841 256.955 124.709 262.67C124.419 275.346 123.223 287.97 122.549 300.631C122.046 310.087 121.548 319.543 121.056 329C120.875 332.882 120.67 336.764 120.529 340.648C120.495 341.592 120.5 342.402 119.23 342.248L99.7717 341.728C98.8752 341.303 99.0416 340.478 99.002 339.71C98.816 336.366 98.4366 333.035 97.8657 329.736C96.1618 317.282 94.7422 304.796 93.8298 292.256C93.6951 291.181 93.5158 290.109 93.4335 289.029C92.9382 282.679 92.6113 276.309 91.8723 269.988C91.6741 268.312 92.1942 266.377 90.9351 264.861C91.2301 264.135 91.2867 263.332 91.0966 262.571C90.5022 257.083 89.883 251.598 89.2718 246.112C89.1351 239.798 88.6903 233.535 86.2107 227.618C85.8857 226.844 85.4697 226.109 85.0952 225.356C83.3229 220.444 80.6729 215.933 78.6876 211.118L77.2017 205.977" fill="#DBDBDB"/>
<path d="M46.8689 316.354C45.791 319.954 44.945 323.585 45.3502 327.395C45.4118 329.347 46.0386 331.239 47.1532 332.836C47.4969 333.354 47.7927 333.904 48.0368 334.477C48.6233 336.263 48.8779 338.124 47.2156 339.442C45.6424 340.689 44.2763 339.393 43.0023 338.613C40.9405 337.206 39.2312 335.334 38.0094 333.145C35.5605 328.295 32.7094 323.635 31.2334 318.029C29.9643 319.698 29.2035 319.36 28.624 317.769C28.2535 316.753 27.7037 315.803 27.2371 314.823C27.2419 314.511 27.1957 314.201 27.1004 313.905C24.9704 309.886 26.7863 307.196 30.0208 304.973C31.1275 309.922 32.6961 314.755 34.7056 319.406C36.6544 323.793 39.1994 327.884 42.2673 331.561C42.2797 331.033 42.1677 330.51 41.9404 330.035C40.306 326.238 39.4017 322.162 39.2755 318.024C39.0774 312.688 40.5564 307.481 40.2503 302.155C40.7318 301.938 41.0884 300.606 41.7492 301.922C44.0584 306.513 46.5043 311.062 46.8708 316.356" fill="black"/>
<path d="M120.016 344.582C121.154 345.233 122.348 345.804 123.422 346.551C127.058 349.078 131.177 349.81 135.461 350.019C137.88 350.137 139.131 351.4 139.047 353.899C136.711 353.629 134.448 354.334 132.128 354.406C120.658 354.763 109.305 353.991 98.149 351.078C98.1642 350.77 98.1794 350.462 98.1946 350.154C106.067 350.691 113.163 348.132 120.013 344.583" fill="black"/>
<path d="M120.016 344.581C113.167 348.13 106.07 350.689 98.1977 350.152C98.1442 347.232 98.1283 344.32 99.7698 341.722L119.229 342.242C119.25 343.084 119.524 343.899 120.016 344.58" fill="#E4E4E4"/>
<path d="M98.152 351.076C109.305 353.989 120.658 354.761 132.131 354.404C134.45 354.332 136.714 353.627 139.049 353.897C139.461 355.306 138.341 355.154 137.578 355.371C130.192 357.471 122.737 357.29 115.247 356.071C114.256 355.909 113.249 355.835 112.246 355.756C111.681 355.712 111.069 355.767 111.129 356.556C111.271 358.45 110.057 358.298 108.85 358.124C105.941 357.704 103.041 357.201 100.124 356.836C98.4324 356.624 97.6091 355.971 97.9915 354.111C98.124 353.106 98.177 352.092 98.15 351.078" fill="black"/>
<path d="M45.0282 293.845C49.0958 290.967 53.2021 288.145 57.2231 285.2C64.0121 280.233 71.1002 275.724 78.1259 271.115C81.1088 269.732 83.7647 267.7 86.8912 266.602C86.9601 267.538 86.9492 268.479 86.8585 269.414C84.9697 280.285 81.0414 290.693 75.2847 300.077C74.4546 301.425 73.0924 302.531 73.0003 304.3C66.0155 307.972 59.0314 311.646 52.0479 315.322C50.4211 316.058 48.6497 316.411 46.8678 316.354C46.4973 311.06 44.0563 306.511 41.7471 301.92C41.0854 300.604 40.7287 301.936 40.2473 302.153L38.8604 299.303L45.0272 293.845" fill="#C9C9C9"/>
<path d="M38.8624 299.303L40.2493 302.153C40.5544 307.479 39.0803 312.687 39.2745 318.023C39.4011 322.161 40.3054 326.237 41.9394 330.035C42.1667 330.51 42.2787 331.033 42.2663 331.561C39.1979 327.884 36.6522 323.794 34.7026 319.408C32.6928 314.757 31.1239 309.925 30.0168 304.975C32.5202 302.375 34.9572 299.675 38.8624 299.306" fill="#E4E4E4"/>
<path d="M122.756 135.208L123.284 136.846C117.972 138.728 112.722 140.817 107.334 142.425C103.225 143.65 99.4013 146.003 94.8859 145.777C91.8 145.623 91.488 145.39 92.0576 142.477C93.4634 135.533 94.2173 128.471 94.3093 121.385C94.3417 117.679 93.9739 113.981 93.2127 110.355C94.911 113.033 95.9401 116.087 96.2114 119.255C96.3838 122.523 96.9923 125.752 98.0203 128.855C98.5392 130.33 99.4851 131.613 100.735 132.539C101.986 133.464 103.483 133.989 105.032 134.045C109.71 134.278 114.334 132.948 118.188 130.261C118.859 129.863 119.407 129.286 119.773 128.594C120.863 130.294 121.048 132.446 122.387 134.029L122.355 133.977L122.759 135.211" fill="#6354FA"/>
<path d="M85.5519 87.3659C85.9647 86.1706 86.3774 84.9756 86.7902 83.7809C88.0969 85.714 89.7118 87.4153 91.5691 88.8159C92.6697 89.7609 94.016 90.4949 94.3618 92.0959L94.3747 92.0809C91.1431 91.0639 88.6477 88.6409 85.5519 87.3659Z" fill="#6354FA"/>
<path d="M122.384 134.025C121.045 132.442 120.859 130.294 119.769 128.59C119.237 127.117 118.704 125.644 118.17 124.17L119.089 124.13C120.552 127.292 121.658 130.611 122.384 134.024" fill="#BCD2AE"/>
<path d="M94.3628 92.0959C94.5469 92.0727 94.7336 92.1047 94.8997 92.1879C95.0659 92.2711 95.204 92.4019 95.297 92.5639L95.3089 92.5519C95.1253 92.5682 94.9408 92.5328 94.7759 92.4497C94.611 92.3665 94.4721 92.2389 94.3747 92.0809L94.3618 92.0959" fill="#74140D"/>
<path d="M95.297 92.5649L95.4868 92.6649L95.3089 92.5549L95.297 92.5679" fill="#74140D"/>
<path d="M123.993 173.127C124.386 173.148 124.759 173.311 125.043 173.586C125.327 173.862 125.503 174.231 125.539 174.627C125.555 174.842 125.528 175.058 125.458 175.262C125.388 175.466 125.277 175.652 125.132 175.811C124.987 175.969 124.811 176.096 124.615 176.183C124.42 176.269 124.209 176.314 123.995 176.315C123.781 176.315 123.57 176.271 123.374 176.185C123.178 176.099 123.002 175.973 122.856 175.815C122.711 175.657 122.599 175.471 122.528 175.267C122.458 175.064 122.429 174.848 122.445 174.633C122.493 173.762 123.156 173.303 123.993 173.133" fill="#540B07"/>
<path d="M108.721 65.2119L108.358 65.6489L108.721 65.2119Z" fill="#BCD2AE"/>
<path d="M96.257 75.1049C93.3058 75.8159 91.1353 74.0049 90.2407 70.0889C92.7837 68.2189 93.177 65.4409 93.3474 62.5749C93.6557 57.5431 95.2236 52.6725 97.9044 48.4189C99.8293 45.3009 102.133 42.8189 106.284 43.1949C107.374 43.2949 108.365 42.3369 109.563 42.2149C113.299 41.826 117.063 42.6066 120.345 44.4509C122.326 45.5289 124.294 46.6269 126.322 47.6049C127.015 47.9688 127.779 48.1723 128.56 48.2007C129.34 48.2291 130.117 48.0816 130.834 47.7689C131.856 47.4273 132.969 47.4964 133.942 47.9621C134.914 48.4277 135.672 49.2539 136.056 50.2689C136.483 51.6036 136.577 53.0238 136.331 54.4039C135.512 58.5659 133.104 61.1489 128.936 61.9789C126.607 62.0454 124.312 61.4043 122.348 60.1389C120.831 59.2169 119.376 58.1939 117.919 57.1689C116.818 56.3919 116.036 56.4549 115.343 57.7349C114.737 58.8459 113.863 59.8749 112.437 59.6779C110.738 59.4419 110.092 60.2969 109.756 61.7679C109.497 62.8989 109.123 64.0029 108.8 65.1179L108.727 65.2079L108.364 65.6439C107.117 66.7439 105.626 66.5439 104.182 66.3659C102.934 66.2099 103.329 64.8809 102.861 64.1469C101.648 62.2469 99.5915 62.0649 98.3492 63.9469C97.6475 64.9341 97.2199 66.0926 97.1107 67.3026C97.0015 68.5126 97.2147 69.73 97.7281 70.8289C98.0659 71.6009 98.6197 72.3189 98.0451 73.2039L96.2619 75.1039" fill="#3B3B3B"/>
<path d="M98.0411 73.2068C98.6127 72.3218 98.0619 71.6068 97.7241 70.8318C97.2105 69.733 96.9971 68.5156 97.1061 67.3056C97.2152 66.0956 97.6426 64.937 98.3443 63.9498C99.5865 62.0718 101.643 62.2568 102.856 64.1498C103.324 64.8828 102.929 66.2118 104.177 66.3688C105.621 66.5498 107.112 66.7428 108.358 65.6468L108.721 65.2098L108.794 65.1208C109.414 65.2918 109.818 64.9308 110.209 64.5368C111.685 63.0518 113.122 61.5218 114.648 60.0918C115.985 58.8398 117.146 58.0428 118.692 60.2358C119.77 61.8182 121.22 63.1055 122.913 63.982C124.605 64.8586 126.487 65.297 128.389 65.2578C128.022 68.381 127.282 71.4479 126.186 74.3918C125.927 75.1358 125.537 75.7918 126.095 76.5398C125.996 77.7918 127.219 79.2248 125.6 80.2698L120.758 78.9828L122.38 81.2248C121.377 84.5918 118.752 86.6168 116.266 88.7558C114.04 89.9348 112.006 88.2658 109.851 88.3238C109.537 87.8862 109.165 87.4936 108.746 87.1568C105.151 84.8808 102.134 81.7861 99.9372 78.1208C98.9803 76.6328 97.9975 75.1088 98.0461 73.2048M116.761 67.9948C119.195 67.8239 121.635 68.2461 123.874 69.2258C124.362 69.4518 124.924 69.7658 125.184 68.9548C125.243 68.829 125.273 68.6915 125.272 68.5524C125.27 68.4133 125.238 68.2763 125.178 68.1514C125.117 68.0266 125.029 67.9171 124.921 67.8312C124.813 67.7452 124.687 67.6849 124.552 67.6548C122.06 66.9308 119.55 65.8428 116.762 67.9918M120.724 70.2318C120.878 70.7428 121.995 70.5758 121.524 71.5658C121.175 72.2978 121.118 73.2328 122.276 73.2508C123.478 73.2698 123.23 71.9828 123.514 71.3108C123.989 70.1818 122.885 70.4728 122.325 70.3778C121.799 70.2888 121.261 70.2778 120.729 70.2318M116.262 82.0668C115.238 81.0668 114.708 79.6578 113.389 78.0188C113.877 80.2688 114.677 81.4508 116.262 82.0668ZM118.869 82.3798C117.913 82.2458 117.393 82.0068 116.775 82.3798C117.315 82.9238 117.822 83.0968 118.869 82.3798Z" fill="#DBDBDB"/>
<path d="M98.0411 73.2059C97.9925 75.1059 98.9753 76.6339 99.9332 78.1219C102.13 81.7871 105.147 84.8819 108.742 87.1579C109.161 87.4946 109.532 87.8872 109.847 88.3249C109.812 88.7735 109.779 89.2222 109.748 89.6709C108.718 90.0239 108.202 89.2369 107.563 88.6899C104.373 85.9659 101.288 83.0959 97.9371 80.5899C95.8567 79.0329 94.7065 77.5989 96.2628 75.1039L98.046 73.2039" fill="#DBDBDB"/>
<path d="M128.884 64.357C128.901 63.5656 128.917 62.7743 128.934 61.983C133.103 61.153 135.51 58.571 136.329 54.408C136.519 60.055 133.923 63.524 128.884 64.357Z" fill="#540B07"/>
<path d="M116.756 67.997C119.544 65.848 122.054 66.936 124.546 67.66C124.681 67.6901 124.807 67.7504 124.915 67.8364C125.023 67.9223 125.111 68.0318 125.172 68.1566C125.232 68.2815 125.264 68.4185 125.266 68.5576C125.267 68.6967 125.237 68.8342 125.178 68.96C124.918 69.771 124.356 69.46 123.868 69.231C121.629 68.2515 119.189 67.8293 116.755 68" fill="#3B3B3B"/>
<path d="M120.718 70.241C121.25 70.287 121.788 70.298 122.314 70.387C122.879 70.487 123.982 70.187 123.503 71.32C123.22 71.992 123.468 73.279 122.264 73.26C121.107 73.242 121.163 72.307 121.513 71.575C121.984 70.585 120.868 70.752 120.713 70.241" fill="#3B3B3B"/>
<path d="M125.595 80.2719C124.689 81.1619 123.296 80.3839 122.375 81.2269L120.753 78.9849L125.594 80.2719" fill="#C9C9C9"/>
<path d="M116.249 82.0729C114.671 81.4569 113.872 80.2729 113.376 78.0249C114.692 79.6629 115.222 81.0689 116.249 82.0729Z" fill="#C9C9C9"/>
<path d="M118.856 82.3859C117.809 83.1029 117.302 82.9289 116.762 82.3859C117.38 82.0139 117.9 82.2529 118.856 82.3859Z" fill="#C9C9C9"/>
<path d="M135.877 249.407C135.324 249.036 135.428 248.556 135.657 248.056C135.73 248.506 135.803 248.956 135.877 249.407Z" fill="#74140D"/>
<path d="M122.754 135.208L122.351 133.974C122.874 134.255 122.594 134.805 122.754 135.208Z" fill="#BCD2AE"/>
<path d="M73.0004 304.301C73.0915 302.531 74.4547 301.425 75.2848 300.078C81.0414 290.693 84.9694 280.285 86.8577 269.413C86.9486 268.479 86.9592 267.538 86.8894 266.602L89.2154 265.323L90.9312 264.857C92.1894 266.374 91.6713 268.308 91.8674 269.985C92.6064 276.306 92.9304 282.675 93.4297 289.025C93.5139 290.105 93.6942 291.177 93.8259 292.252C90.2522 293.951 86.8266 295.95 83.5855 298.23C82.2421 298.856 80.9958 299.676 79.8854 300.663L72.9984 304.3" fill="#C9C9C9"/>
<path d="M338.753 212.105C343.522 211.823 348.136 212.91 352.752 213.957C359.669 215.525 366.69 216.605 373.501 218.657C388.476 223.025 403.068 228.788 417.113 235.879C421.507 238.148 425.891 240.499 430.17 243.04C434.432 245.392 438.884 247.322 443.471 248.805C454.622 252.811 465.882 256.456 477.162 260.039C484.063 262.232 490.976 264.404 497.878 266.605C501.009 267.605 504.277 268.254 507.305 269.534C513.965 272.349 518.086 277.556 519.025 285.363C519.633 290.407 520.057 295.475 520.586 300.524C521.051 305 521.35 309.477 521.679 313.958C522.382 323.534 515.308 332.403 506.406 332.812C500.52 333.083 494.621 333.105 488.728 333.134C485.872 333.148 483.288 332.424 482.164 328.856C480.546 336.743 476.565 343.841 470.833 349.062C471.582 349.459 472.425 349.602 473.251 349.473C489.853 349.484 506.454 349.492 523.055 349.497C523.691 349.497 524.606 349.097 524.916 349.787C525.238 350.515 524.565 351.328 524.07 351.798C522.287 353.487 520.667 355.298 517.884 355.298C409.64 355.246 301.396 355.236 193.152 355.267C191.755 355.295 190.368 355.01 189.08 354.429C187.791 353.849 186.63 352.985 185.669 351.895C185.004 351.221 184.567 350.326 184.43 349.354H238.046C235.788 346.154 232.855 344.022 231.187 340.715C229.472 337.579 228.234 334.17 227.519 330.615C227.282 330.682 227.108 330.673 227.06 330.752C224.608 334.821 221.076 334.328 217.36 333.575C208.94 331.869 200.5 330.283 192.06 328.692C190.664 328.43 189.293 328.929 187.807 328.669C183.479 327.967 179.392 326.081 175.938 323.191C175.385 322.802 174.802 322.463 174.197 322.176C172.31 321.081 172.176 318.93 171.618 317.076C170.582 313.637 169.943 313.144 166.635 313.551C165.913 313.667 165.181 313.686 164.455 313.607C164.164 313.603 163.876 313.536 163.61 313.409C163.344 313.282 163.104 313.097 162.907 312.867C162.709 312.638 162.557 312.367 162.459 312.071C162.362 311.776 162.322 311.463 162.341 311.15C162.387 305.139 162.436 299.129 162.489 293.119C162.501 291.879 163.014 291.188 164.288 291.246C165.623 291.306 166.963 291.246 168.301 291.224C170.787 291.188 171.458 290.366 171.571 287.671C171.857 280.301 172.49 272.952 173.469 265.651C174.977 254.651 182.761 247.568 193.095 247.337C194.676 247.302 196.257 247.357 197.833 247.437C200.026 247.623 202.223 247.138 204.169 246.037C210.324 242.348 216.859 239.521 223.219 236.299C226.949 234.409 230.618 232.222 234.452 230.769C238.408 229.269 242.427 227.869 246.373 226.306C257.721 221.823 269.428 218.712 281.101 215.471C285.586 214.302 290.156 213.555 294.762 213.236C295.125 213.204 295.485 213.142 295.84 213.05C299.204 212.187 299.642 211.638 299.354 207.945C298.95 202.789 298.945 202.985 303.627 203.006C311.891 203.042 320.155 203.048 328.419 203.08C330.289 203.087 330.7 203.72 330.767 206.538C330.73 206.726 330.679 206.916 330.657 207.11C329.996 213.024 330.099 213.162 335.308 213.69C335.964 213.837 336.645 213.764 337.261 213.481C337.877 213.197 338.396 212.717 338.75 212.106M514.205 291.265C514.092 289.65 514.052 288.025 513.854 286.422C513.137 280.622 510.387 276.547 505.024 274.855C501.218 273.655 497.383 272.563 493.56 271.423C480.966 267.31 468.383 263.157 455.774 259.098C445.457 255.776 435.253 252.251 425.615 246.903C397.981 231.573 369.016 220.732 337.851 217.43C325.813 216.135 313.682 216.215 301.66 217.67C290.849 219.077 280.147 221.322 269.637 224.387C249.84 230.135 230.636 238.027 212.319 247.941C205.84 251.388 199.111 253.579 191.727 253.289C183.599 252.97 179.036 261.098 178.537 266.806C178.402 268.344 178.956 268.945 180.384 268.918C183.547 268.858 186.709 268.891 189.872 268.889C190.782 268.889 191.825 268.704 191.778 270.239C191.734 271.657 190.755 271.654 189.818 271.649C186.597 271.632 183.374 271.637 180.154 271.561C178.741 271.528 177.996 272.118 177.87 273.661C177.111 283.018 176.338 292.373 175.552 301.727C175.404 303.467 175.908 304.271 177.648 304.216C180.624 304.122 183.606 304.202 186.586 304.183C187.594 304.176 188.744 304.106 188.703 305.583C188.668 306.815 187.663 306.978 186.665 306.962C183.565 306.915 180.464 306.931 177.363 306.884C175.466 306.855 174.974 307.327 174.961 309.354C175 312.152 175.904 314.855 177.529 317.04C179.155 319.225 181.41 320.766 183.94 321.422C188.675 322.796 193.553 323.438 198.374 324.367C205.106 325.667 211.839 326.952 218.591 328.115C221.441 328.606 221.932 328.095 221.964 324.958C221.986 322.35 222.319 319.755 222.954 317.238C225.119 308.513 230.239 300.974 237.309 296.099C244.379 291.224 252.889 289.366 261.167 290.889C276.214 293.589 287.966 308.122 288.433 324.601C288.557 328.96 289.064 329.484 293.187 329.44C304.007 329.325 314.828 329.206 325.649 329.083C337.078 328.958 348.507 328.835 359.936 328.713C378.601 328.513 397.266 328.318 415.931 328.128C418.793 328.099 419.339 327.605 419.373 324.496C419.452 321.435 419.89 318.397 420.675 315.453C424.452 300.237 441.273 286.178 458.823 289.759C467.775 291.586 475.489 295.982 481.155 303.959C485.499 310.072 487.268 317.159 488.013 324.644C488.232 326.844 488.783 327.484 490.71 327.475C495.695 327.45 500.681 327.475 505.662 327.291C508.48 327.202 511.161 325.97 513.167 323.841C515.172 321.712 516.353 318.845 516.472 315.818C516.54 311.231 515.857 306.718 515.449 302.176C515.294 300.461 514.467 299.848 512.912 299.876C509.021 299.937 505.129 299.9 501.238 299.893C500.355 299.893 499.4 299.817 499.346 298.593C499.285 297.222 500.26 297.125 501.24 297.129C504.037 297.139 506.834 297.139 509.631 297.129C514.798 297.101 515.026 296.799 514.207 291.272M425 323.844L424.554 323.906C424.461 325.1 424.405 326.299 424.261 327.486C423.678 332.286 422.353 333.486 417.876 333.533C409.734 333.619 401.592 333.772 393.449 333.862C375.888 334.057 358.326 334.239 340.764 334.41C324.356 334.571 307.946 334.687 291.537 334.882C288.223 334.921 285.251 334.405 283.409 331.001C283.38 330.948 283.192 330.994 282.944 330.994C281.431 338.332 277.386 344.053 272.072 349.248H436.691C433.517 345.456 430.087 342.327 428.188 337.799C426.372 333.384 425.293 328.66 425.001 323.843M476.824 324.417C476.836 319.486 475.49 314.663 472.954 310.554C470.419 306.446 466.808 303.237 462.577 301.333C458.347 299.43 453.686 298.916 449.185 299.858C444.683 300.799 440.542 303.154 437.283 306.624C434.025 310.094 431.797 314.524 430.879 319.355C429.961 324.186 430.395 329.2 432.126 333.766C433.857 338.332 436.808 342.244 440.605 345.008C444.403 347.773 448.877 349.265 453.463 349.298C459.63 349.329 465.555 346.724 469.936 342.058C474.317 337.392 476.795 331.047 476.824 324.417ZM232.08 324.154C232.063 327.467 232.658 330.75 233.832 333.814C235.006 336.877 236.734 339.659 238.916 341.998C241.098 344.338 243.691 346.188 246.543 347.441C249.396 348.693 252.452 349.324 255.533 349.297C268.06 349.228 278.651 337.866 278.468 324.375C278.448 317.795 276.009 311.49 271.683 306.835C267.358 302.18 261.496 299.551 255.376 299.522C249.255 299.493 243.372 302.065 239.009 306.679C234.645 311.293 232.154 317.574 232.08 324.154ZM319.043 212.408C321.576 212.231 323.815 212.093 326.051 211.913C327.47 211.798 328.51 211.268 328.377 209.413C328.167 206.442 327.749 205.803 325.634 205.834C322.118 205.887 318.603 205.987 315.088 206.134C311.449 206.289 307.823 206.084 304.191 205.907C302.283 205.814 301.537 206.907 301.545 209.413C301.551 211.159 302.476 212.039 304.27 211.978C305.114 211.949 305.958 211.872 306.804 211.852C310.889 211.772 314.975 211.96 319.04 212.413M170.55 299.16H170.692C170.692 298.06 170.759 296.947 170.678 295.85C170.492 293.37 170.072 293.063 167.288 293.183C165.093 293.278 164.776 293.766 164.573 296.097C164.191 300.386 164.802 304.657 164.614 308.937C164.539 310.662 165.47 311.38 166.971 311.446C168.793 311.526 169.714 310.772 169.838 309.07C170.079 305.766 170.316 302.462 170.55 299.157" fill="#474A4C"/>
<path d="M338.753 212.105C338.399 212.716 337.879 213.196 337.264 213.48C336.648 213.763 335.967 213.836 335.311 213.689C330.102 213.161 329.998 213.022 330.66 207.109C330.682 206.915 330.733 206.725 330.77 206.537C330.863 207.501 331.016 208.46 331.03 209.422C331.06 211.367 332.06 212.067 333.72 212.003C335.395 211.772 337.092 211.806 338.758 212.103" fill="#EDB81B"/>
<path d="M514.208 291.264C515.03 296.791 514.799 297.093 509.632 297.121C506.835 297.136 504.038 297.136 501.241 297.121C500.261 297.121 499.287 297.214 499.347 298.585C499.401 299.809 500.356 299.885 501.239 299.885C505.13 299.892 509.023 299.929 512.914 299.868C514.468 299.844 515.296 300.456 515.45 302.168C515.859 306.709 516.541 311.223 516.474 315.81C516.356 318.84 515.174 321.709 513.167 323.839C511.159 325.969 508.475 327.201 505.656 327.288C500.676 327.468 495.688 327.448 490.704 327.472C488.775 327.482 488.225 326.844 488.006 324.641C487.262 317.156 485.495 310.069 481.148 303.956C475.482 295.982 467.768 291.586 458.816 289.756C441.267 286.175 424.447 300.234 420.669 315.45C419.884 318.394 419.446 321.432 419.366 324.493C419.334 327.601 418.787 328.093 415.925 328.125C397.26 328.315 378.595 328.51 359.929 328.71C348.501 328.831 337.072 328.954 325.643 329.079C314.823 329.197 304.002 329.316 293.181 329.436C289.057 329.48 288.55 328.955 288.427 324.597C287.961 308.118 276.208 293.587 261.162 290.885C252.883 289.362 244.374 291.22 237.304 296.095C230.234 300.97 225.113 308.509 222.948 317.234C222.314 319.751 221.981 322.346 221.958 324.954C221.927 328.091 221.435 328.601 218.586 328.111C211.834 326.948 205.099 325.66 198.369 324.362C193.548 323.433 188.669 322.792 183.935 321.417C181.405 320.761 179.149 319.22 177.524 317.035C175.898 314.85 174.994 312.146 174.955 309.349C174.968 307.322 175.459 306.849 177.357 306.879C180.457 306.926 183.557 306.91 186.658 306.957C187.656 306.972 188.662 306.81 188.696 305.578C188.738 304.101 187.587 304.171 186.579 304.178C183.603 304.197 180.619 304.117 177.641 304.211C175.902 304.266 175.398 303.462 175.546 301.723C176.342 292.37 177.115 283.014 177.864 273.657C177.988 272.116 178.734 271.526 180.146 271.557C183.367 271.633 186.588 271.629 189.81 271.645C190.748 271.645 191.727 271.652 191.77 270.235C191.818 268.7 190.774 268.884 189.864 268.885C186.702 268.885 183.539 268.855 180.377 268.914C178.947 268.941 178.395 268.34 178.53 266.802C179.028 261.095 183.591 252.966 191.719 253.285C199.107 253.575 205.833 251.385 212.312 247.937C230.628 238.023 249.833 230.131 269.63 224.383C280.14 221.317 290.842 219.072 301.652 217.665C313.674 216.211 325.806 216.13 337.844 217.426C369.004 220.726 397.973 231.568 425.608 246.899C435.246 252.246 445.45 255.772 455.766 259.093C468.375 263.153 480.958 267.306 493.553 271.419C492.875 273.576 492.602 275.856 492.747 278.128C493.076 280.773 492.999 283.436 493.149 286.085C493.343 289.526 495.606 291.561 498.797 291.661C503.939 291.823 509.055 290.961 514.198 291.261M318.076 252.027C318.146 252.476 318.247 252.922 318.279 253.374C318.572 257.539 318.255 257.91 314.437 257.91C304.407 257.91 294.375 257.91 284.344 257.91C279.972 257.91 275.593 257.869 271.218 257.838C270.184 257.831 269.4 258.097 269.424 259.449C269.448 260.749 270.27 260.839 271.183 260.843C272.272 260.843 273.363 260.903 274.453 260.903C322.541 260.903 370.63 260.903 418.72 260.903C419.69 260.903 420.66 260.803 421.63 260.74C422.44 260.684 423.072 260.357 423.077 259.356C423.082 258.314 422.352 258.072 421.596 257.999C420.75 257.918 419.896 257.921 419.045 257.922C388.04 257.937 357.035 257.954 326.03 257.975C321.007 257.975 320.795 257.734 321.334 252.444C348.872 252.444 376.41 252.441 403.947 252.435C404.613 252.477 405.282 252.444 405.941 252.335C406.579 252.185 407.297 251.9 407.337 251.012C407.377 250.124 407.67 249.139 406.695 248.556C406.17 248.242 405.658 247.917 405.114 247.632C397.143 243.474 388.922 239.975 380.618 236.68C373.009 233.688 365.232 231.216 357.333 229.28C351.803 227.905 346.22 226.897 340.599 226.03C335.806 225.291 330.99 224.884 326.181 224.662C317.831 224.365 309.472 224.842 301.198 226.086C294.719 226.986 288.326 228.337 281.992 229.918C273.447 232.085 265.032 234.805 256.793 238.064C249.219 241.027 241.796 244.387 234.376 247.764C233.567 248.132 232.856 248.552 232.968 249.745C233.085 250.981 233.873 251.377 234.797 251.573C235.398 251.663 236.006 251.69 236.612 251.655C246.49 251.655 256.368 251.655 266.246 251.655C274.239 251.655 282.234 251.778 290.225 251.623C299.519 251.442 308.794 252.159 318.083 252.038M354.831 318.678H405.339C405.825 318.678 406.312 318.688 406.797 318.668C407.623 318.633 408.202 318.295 408.223 317.283C408.245 316.19 407.648 315.773 406.744 315.723C405.84 315.673 404.925 315.641 404.015 315.641C370.886 315.637 337.757 315.639 304.628 315.646C303.839 315.648 303.052 315.719 302.275 315.859C301.965 315.887 301.679 316.046 301.478 316.302C301.278 316.557 301.18 316.887 301.206 317.22C301.193 317.553 301.303 317.878 301.51 318.125C301.718 318.373 302.007 318.523 302.317 318.544C302.978 318.639 303.644 318.682 304.311 318.674C321.148 318.68 337.986 318.682 354.825 318.679M251.391 257.922V257.95C247.622 257.95 243.854 257.95 240.085 257.95C239.155 257.95 238.132 257.872 238.082 259.288C238.025 260.811 239.152 260.888 240.112 260.896C247.591 260.928 255.07 260.93 262.549 260.902C263.572 260.902 264.657 260.657 264.589 259.261C264.527 257.972 263.473 257.922 262.519 257.923C258.81 257.927 255.101 257.927 251.392 257.923M329.316 274.404C330.711 274.404 332.107 274.419 333.502 274.399C334.372 274.386 335.101 274.056 335.143 272.987C335.187 271.844 334.424 271.604 333.555 271.603C330.826 271.597 328.096 271.603 325.369 271.603C324.506 271.603 323.728 271.79 323.734 272.937C323.74 274.002 324.434 274.387 325.316 274.404C326.649 274.43 327.984 274.411 329.315 274.404" fill="#FCFCFC"/>
<path d="M425.003 323.836C425.295 328.653 426.374 333.377 428.191 337.792C430.085 342.32 433.519 345.449 436.694 349.241H272.067C277.382 344.046 281.426 338.325 282.939 330.987C283.191 330.987 283.379 330.94 283.404 330.994C285.247 334.394 288.218 334.914 291.532 334.875C307.941 334.675 324.351 334.564 340.76 334.403C358.322 334.231 375.883 334.048 393.445 333.855C401.587 333.764 409.729 333.611 417.871 333.526C422.349 333.479 423.673 332.276 424.256 327.479C424.4 326.292 424.454 325.093 424.55 323.9L424.995 323.837" fill="#FDFDFE"/>
<path d="M232.082 324.147C232.157 317.568 234.648 311.286 239.011 306.672C243.375 302.058 249.258 299.486 255.379 299.515C261.499 299.544 267.361 302.173 271.686 306.828C276.012 311.483 278.45 317.788 278.471 324.368C278.657 337.859 268.063 349.222 255.536 349.29C252.455 349.318 249.399 348.686 246.546 347.434C243.693 346.181 241.101 344.331 238.919 341.992C236.736 339.652 235.008 336.87 233.835 333.807C232.661 330.743 232.066 327.46 232.082 324.147ZM241.359 324.074C241.435 333.162 246.991 339.412 254.924 339.421C256.796 339.499 258.664 339.172 260.417 338.461C262.17 337.749 263.773 336.668 265.131 335.279C266.489 333.891 267.574 332.224 268.322 330.378C269.071 328.531 269.468 326.542 269.489 324.527C269.511 322.513 269.157 320.514 268.448 318.65C267.74 316.785 266.69 315.092 265.363 313.67C264.035 312.248 262.456 311.127 260.719 310.372C258.982 309.618 257.121 309.245 255.248 309.276C253.42 309.219 251.6 309.561 249.899 310.283C248.198 311.005 246.651 312.091 245.352 313.475C244.053 314.859 243.029 316.512 242.343 318.335C241.656 320.157 241.322 322.11 241.359 324.076" fill="#FBFBFB"/>
<path d="M319.043 212.401C314.978 211.948 310.892 211.76 306.806 211.84C305.962 211.86 305.118 211.94 304.273 211.966C302.482 212.028 301.554 211.147 301.548 209.401C301.54 206.894 302.285 205.801 304.194 205.895C307.821 206.072 311.449 206.277 315.091 206.122C318.605 205.972 322.12 205.872 325.636 205.822C327.752 205.79 328.17 206.43 328.379 209.401C328.511 211.259 327.471 211.79 326.054 211.901C323.822 212.081 321.579 212.219 319.045 212.396" fill="#FAF9F7"/>
<path d="M170.55 299.16C170.313 302.465 170.076 305.769 169.838 309.073C169.715 310.773 168.793 311.529 166.972 311.449C165.471 311.383 164.539 310.665 164.615 308.94C164.801 304.66 164.191 300.389 164.573 296.1C164.78 293.769 165.094 293.28 167.288 293.186C170.072 293.066 170.496 293.373 170.678 295.853C170.759 296.953 170.692 298.059 170.692 299.163H170.55" fill="#FBFAF5"/>
<path d="M318.074 252.027C308.786 252.148 299.51 251.427 290.217 251.612C282.226 251.767 274.231 251.644 266.238 251.644C256.359 251.644 246.481 251.644 236.604 251.644C235.998 251.68 235.39 251.652 234.788 251.562C233.865 251.362 233.076 250.971 232.959 249.734C232.848 248.542 233.558 248.122 234.368 247.754C241.786 244.379 249.208 241.018 256.784 238.054C265.024 234.796 273.439 232.076 281.983 229.908C288.317 228.327 294.711 226.978 301.189 226.076C309.464 224.832 317.823 224.355 326.174 224.651C330.983 224.873 335.797 225.281 340.591 226.019C346.213 226.886 351.795 227.894 357.326 229.269C365.225 231.205 373.002 233.677 380.61 236.669C388.915 239.964 397.136 243.463 405.106 247.621C405.652 247.906 406.165 248.231 406.687 248.546C407.662 249.129 407.365 250.129 407.329 251.002C407.293 251.891 406.576 252.175 405.934 252.325C405.274 252.434 404.606 252.467 403.94 252.425C376.401 252.431 348.863 252.434 321.325 252.434C321.272 245.659 321.218 238.883 321.161 232.107C321.16 231.525 321.108 230.943 321.006 230.371C320.939 230.047 320.759 229.762 320.502 229.576C320.246 229.39 319.933 229.317 319.628 229.371C319.319 229.358 319.016 229.471 318.782 229.687C318.547 229.904 318.398 230.208 318.364 230.538C318.316 231.056 318.305 231.577 318.33 232.097C318.243 238.739 318.156 245.381 318.07 252.022" fill="#EBF1F9"/>
<path d="M318.076 252.027C318.163 245.385 318.25 238.743 318.336 232.102C318.311 231.582 318.322 231.061 318.37 230.543C318.404 230.213 318.554 229.909 318.788 229.692C319.023 229.475 319.325 229.363 319.634 229.376C319.939 229.321 320.252 229.395 320.509 229.581C320.765 229.767 320.945 230.051 321.013 230.376C321.115 230.948 321.166 231.529 321.167 232.112C321.229 238.887 321.284 245.663 321.332 252.439C320.793 257.73 321.005 257.974 326.028 257.97C357.033 257.95 388.038 257.932 419.043 257.917C419.894 257.917 420.748 257.917 421.594 257.995C422.35 258.067 423.082 258.309 423.075 259.352C423.07 260.352 422.438 260.68 421.628 260.736C420.659 260.804 419.688 260.899 418.718 260.9C370.63 260.907 322.541 260.907 274.451 260.9C273.361 260.9 272.271 260.845 271.181 260.84C270.268 260.84 269.446 260.748 269.421 259.446C269.397 258.094 270.181 257.828 271.215 257.836C275.586 257.867 279.966 257.903 284.34 257.908C294.372 257.918 304.403 257.918 314.434 257.908C318.247 257.908 318.569 257.537 318.275 253.372C318.243 252.92 318.141 252.472 318.072 252.025" fill="#4F5254"/>
<path d="M354.826 318.667C337.987 318.667 321.149 318.665 304.312 318.662C303.645 318.67 302.978 318.627 302.317 318.533C302.008 318.512 301.719 318.361 301.511 318.114C301.303 317.866 301.194 317.541 301.207 317.208C301.181 316.875 301.279 316.545 301.479 316.29C301.68 316.035 301.966 315.876 302.276 315.848C303.053 315.709 303.84 315.637 304.629 315.635C337.758 315.625 370.887 315.623 404.016 315.63C404.926 315.63 405.836 315.662 406.745 315.712C407.654 315.762 408.246 316.179 408.224 317.272C408.203 318.283 407.624 318.622 406.798 318.657C406.313 318.678 405.825 318.667 405.34 318.667H354.826Z" fill="#505355"/>
<path d="M251.389 257.91C255.097 257.91 258.806 257.91 262.515 257.91C263.468 257.91 264.522 257.959 264.586 259.248C264.653 260.648 263.562 260.887 262.545 260.889C255.066 260.908 247.588 260.906 240.109 260.883C239.148 260.883 238.021 260.799 238.078 259.276C238.131 257.859 239.149 257.937 240.082 257.938C243.851 257.941 247.62 257.941 251.389 257.938L251.389 257.91Z" fill="#505355"/>
<path d="M329.312 274.392C327.978 274.392 326.644 274.412 325.313 274.387C324.429 274.37 323.731 273.987 323.731 272.92C323.725 271.773 324.504 271.586 325.367 271.586C328.096 271.586 330.825 271.586 333.552 271.586C334.421 271.586 335.185 271.828 335.14 272.97C335.098 274.039 334.37 274.37 333.499 274.382C332.104 274.402 330.709 274.387 329.313 274.389" fill="#46494B"/>
<path d="M241.356 324.074C241.319 322.108 241.653 320.155 242.34 318.332C243.026 316.51 244.05 314.856 245.349 313.472C246.648 312.088 248.195 311.002 249.896 310.281C251.597 309.559 253.417 309.216 255.245 309.274C257.118 309.243 258.979 309.615 260.716 310.37C262.453 311.125 264.032 312.246 265.36 313.668C266.688 315.089 267.737 316.783 268.445 318.647C269.154 320.512 269.508 322.511 269.487 324.525C269.465 326.539 269.068 328.529 268.319 330.375C267.571 332.222 266.486 333.889 265.128 335.277C263.77 336.665 262.168 337.747 260.415 338.459C258.661 339.17 256.794 339.496 254.921 339.419C246.989 339.41 241.434 333.161 241.356 324.073" fill="#3422F2"/>
</g>
<defs>
<clipPath id="clip0_409_733">
<rect width="424" height="374" fill="white"/>
</clipPath>
</defs>
</svg>
