<svg width="20" height="20" viewBox="0 0 20 20" fill="none" xmlns="http://www.w3.org/2000/svg">
<g clip-path="url(#clip0_412_2029)">
<path d="M0.333417 19.1954L0.09775 19.4311C-0.0325833 19.5614 -0.0325833 19.7721 0.09775 19.9024C0.16275 19.9674 0.248083 20.0001 0.333417 20.0001C0.41875 20.0001 0.504083 19.9674 0.569083 19.9024L0.80475 19.6667C0.935084 19.5364 0.935084 19.3257 0.80475 19.1954C0.674417 19.0651 0.46375 19.0651 0.333417 19.1954Z" fill="white"/>
<path d="M4.69222 17.3333C4.50822 17.3333 4.35889 17.4823 4.35889 17.6666C4.35889 17.8509 4.50822 17.9999 4.69222 17.9999H5.29922C5.48322 17.9999 5.63256 17.8509 5.63256 17.6666C5.63256 17.4823 5.48322 17.3333 5.29922 17.3333H4.69222Z" fill="white"/>
<path d="M6.51302 17.3333C6.32902 17.3333 6.17969 17.4823 6.17969 17.6666C6.17969 17.8509 6.32902 17.9999 6.51302 17.9999H7.11969C7.30369 17.9999 7.45302 17.8509 7.45302 17.6666C7.45302 17.4823 7.30369 17.3333 7.11969 17.3333H6.51302Z" fill="white"/>
<path d="M2.87191 17.3333C2.68791 17.3333 2.53857 17.4823 2.53857 17.6666C2.53857 17.8509 2.68791 17.9999 2.87191 17.9999H3.47857C3.66257 17.9999 3.81191 17.8509 3.81191 17.6666C3.81191 17.4823 3.66257 17.3333 3.47857 17.3333H2.87191Z" fill="white"/>
<path d="M2.09183 17.9083C1.9615 17.778 1.75083 17.778 1.6205 17.9083L1.1915 18.3373C1.06117 18.4676 1.06117 18.6783 1.1915 18.8086C1.2565 18.8736 1.34183 18.9063 1.42717 18.9063C1.5125 18.9063 1.59783 18.8736 1.66283 18.8086L2.09183 18.3796C2.22217 18.2493 2.22217 18.0383 2.09183 17.9083Z" fill="white"/>
<path d="M8.33333 17.3333C8.14933 17.3333 8 17.4823 8 17.6666C8 17.8509 8.14933 17.9999 8.33333 17.9999H8.66667C8.85067 17.9999 9 17.8509 9 17.6666C9 17.4823 8.85067 17.3333 8.66667 17.3333H8.33333Z" fill="white"/>
<path d="M0.333262 17.9194C0.418595 17.9194 0.503928 17.8867 0.568928 17.8217L1.86093 16.5297C1.89259 16.4981 1.92726 16.4697 1.97726 16.4391L2.04159 16.4044C2.05326 16.3974 2.06459 16.3904 2.07693 16.3851L2.20159 16.3467C2.24526 16.3384 2.28926 16.3334 2.33326 16.3334H7.33326C7.51726 16.3334 7.66659 16.1844 7.66659 16.0001C7.66659 15.8157 7.51726 15.6667 7.33326 15.6667H2.33326C2.24793 15.6667 2.16026 15.6754 2.06959 15.6931C2.03759 15.7001 2.00693 15.7094 1.97659 15.7194L1.93293 15.7324C1.89559 15.7424 1.85826 15.7537 1.82426 15.7677C1.78459 15.7841 1.74726 15.8041 1.71026 15.8254L1.67859 15.8427C1.65026 15.8571 1.62226 15.8717 1.59293 15.8914C1.51926 15.9404 1.45093 15.9967 1.38926 16.0584L0.0972617 17.3504C-0.0330716 17.4807 -0.0330716 17.6914 0.0972617 17.8217C0.162595 17.8867 0.247928 17.9194 0.333262 17.9194Z" fill="white"/>
<path d="M19.4311 16.2357C19.5164 16.2357 19.6017 16.203 19.6667 16.138L19.9024 15.9023C20.0327 15.772 20.0327 15.5613 19.9024 15.431C19.7721 15.3007 19.5614 15.3007 19.4311 15.431L19.1954 15.6667C19.0651 15.797 19.0651 16.0077 19.1954 16.138C19.2604 16.203 19.3457 16.2357 19.4311 16.2357Z" fill="white"/>
<path d="M18.1885 16.6734L17.6852 17.1768C17.5548 17.3071 17.5548 17.5178 17.6852 17.6481C17.7502 17.7131 17.8355 17.7458 17.9208 17.7458C18.0062 17.7458 18.0915 17.7131 18.1565 17.6481L18.6598 17.1448C18.7902 17.0144 18.7902 16.8038 18.6598 16.6734C18.5295 16.5431 18.3188 16.5431 18.1885 16.6734Z" fill="white"/>
<path d="M13.7567 17.3333C13.5727 17.3333 13.4233 17.4823 13.4233 17.6666C13.4233 17.8509 13.5727 17.9999 13.7567 17.9999H14.4683C14.6523 17.9999 14.8017 17.8509 14.8017 17.6666C14.8017 17.4823 14.6523 17.3333 14.4683 17.3333H13.7567Z" fill="white"/>
<path d="M15.8914 17.3333C15.7071 17.3333 15.5581 17.4823 15.5581 17.6666C15.5581 17.8509 15.7071 17.9999 15.8914 17.9999H16.6031C16.7874 17.9999 16.9364 17.8509 16.9364 17.6666C16.9364 17.4823 16.7874 17.3333 16.6031 17.3333H15.8914Z" fill="white"/>
<path d="M11.9998 17.3333C11.8158 17.3333 11.6665 17.4823 11.6665 17.6666C11.6665 17.8509 11.8158 17.9999 11.9998 17.9999H12.3332C12.5172 17.9999 12.6665 17.8509 12.6665 17.6666C12.6665 17.4823 12.5172 17.3333 12.3332 17.3333H11.9998Z" fill="white"/>
<path d="M19.4311 17.5117L18.1391 18.8037C18.1077 18.835 18.0734 18.863 18.0234 18.894L17.9607 18.928C17.9474 18.9354 17.9344 18.9437 17.9211 18.949C17.9107 18.9534 17.8997 18.9557 17.8887 18.9587L17.7961 18.9867C17.7537 18.9954 17.7104 19 17.6667 19H2.63008L2.12442 19.407C1.98108 19.5227 1.95808 19.7327 2.07375 19.8757C2.13942 19.9574 2.23608 20 2.33342 20C2.40675 20 2.48075 19.976 2.54208 19.9264L2.86508 19.6667H17.6667C17.7534 19.6667 17.8414 19.658 17.9264 19.6407C17.9604 19.634 17.9924 19.6244 18.0247 19.6137L18.0664 19.6014C18.1037 19.591 18.1407 19.58 18.1781 19.5644C18.2171 19.548 18.2537 19.5284 18.2904 19.5074L18.3234 19.4894C18.3521 19.475 18.3801 19.46 18.4057 19.4427C18.4794 19.3937 18.5484 19.3374 18.6104 19.275L19.9024 17.983C20.0327 17.8527 20.0327 17.642 19.9024 17.5117C19.7721 17.3814 19.5614 17.3817 19.4311 17.5117Z" fill="white"/>
<path d="M13 15.9999C13 16.1843 13.1493 16.3333 13.3333 16.3333H17.3907L18.4883 15.2356C18.6187 15.1053 18.6187 14.8946 18.4883 14.7643C18.358 14.6339 18.1473 14.6339 18.017 14.7643L17.1147 15.6666H13.3333C13.1493 15.6666 13 15.8156 13 15.9999Z" fill="white"/>
<path d="M10.3925 18.2523L15.5061 10.8667C17.4241 8.30933 17.1465 4.10667 14.9125 1.87267C13.7051 0.665 12.0998 0 10.3925 0C8.68515 0 7.07982 0.665 5.87248 1.87233C3.63815 4.10633 3.36048 8.30967 5.27115 10.8563L10.3925 18.2523ZM10.4515 4C11.7381 4 12.7848 5.047 12.7848 6.33333C12.7848 7.61967 11.7381 8.66667 10.4515 8.66667C9.16482 8.66667 8.11815 7.61967 8.11815 6.33333C8.11815 5.047 9.16482 4 10.4515 4Z" fill="white"/>
</g>
<defs>
<clipPath id="clip0_412_2029">
<rect width="20" height="20" fill="white"/>
</clipPath>
</defs>
</svg>
