<svg width="24" height="24" viewBox="0 0 24 24" fill="none" xmlns="http://www.w3.org/2000/svg">
<path d="M8.99933 0C6.61332 0.00240858 4.32574 0.927802 2.63857 2.57311C0.951404 4.21843 0.00246985 6.44926 0 8.77608C0 14.861 8.12334 22.8475 8.46856 23.1902C8.60972 23.3268 8.80049 23.4034 8.99933 23.4034C9.19817 23.4034 9.38895 23.3268 9.53011 23.1902C9.53011 23.1902 10.1905 22.5483 11.1245 21.5009C11.1902 21.4286 11.2405 21.3444 11.2727 21.253C11.3048 21.1617 11.3181 21.065 11.3117 20.9686C11.3054 20.8723 11.2795 20.778 11.2357 20.6915C11.1918 20.6049 11.1308 20.5276 11.0562 20.4641C10.9816 20.4006 10.8948 20.3521 10.8009 20.3215C10.7069 20.2908 10.6077 20.2786 10.5089 20.2855C10.4102 20.2924 10.3138 20.3184 10.2253 20.3618C10.1368 20.4052 10.058 20.4653 9.9935 20.5385C9.6006 20.9773 9.2585 21.3473 8.99933 21.6132C7.20796 19.7469 1.50006 13.4244 1.50006 8.77406C1.50006 6.83433 2.29022 4.97406 3.6967 3.60246C5.10318 2.23087 7.01078 1.46032 8.99985 1.46032C10.9889 1.46032 12.8965 2.23087 14.303 3.60246C15.7095 4.97406 16.4996 6.83433 16.4996 8.77406C16.5012 8.99304 16.4846 9.21179 16.4499 9.42814C16.4169 9.61945 16.4632 9.8157 16.5786 9.97372C16.6939 10.1317 16.869 10.2386 17.0651 10.2708C17.2613 10.3029 17.4626 10.2578 17.6246 10.1453C17.7866 10.0328 17.8962 9.86208 17.9292 9.67077C17.9781 9.37429 18.0017 9.07435 17.9997 8.77406C17.9967 6.44741 17.0474 4.21695 15.36 2.57204C13.6727 0.927137 11.3852 0.00214005 8.99933 0Z" fill="#474747"/>
<path d="M9.00036 4.38849C8.11031 4.38849 7.24024 4.64587 6.50019 5.12809C5.76013 5.61031 5.18333 6.29571 4.84273 7.09761C4.50212 7.89951 4.413 8.7819 4.58664 9.6332C4.76028 10.4845 5.18888 11.2665 5.81824 11.8802C6.4476 12.494 7.24946 12.9119 8.12241 13.0812C8.99536 13.2506 9.9002 13.1637 10.7225 12.8315C11.5448 12.4994 12.2476 11.9369 12.7421 11.2152C13.2366 10.4935 13.5005 9.64501 13.5005 8.77703C13.4992 7.61353 13.0246 6.49806 12.1809 5.67534C11.3373 4.85262 10.1935 4.38982 9.00036 4.38849ZM9.00036 11.7017C8.40699 11.7017 7.82694 11.5301 7.33357 11.2087C6.84021 10.8872 6.45567 10.4302 6.2286 9.89564C6.00153 9.36103 5.94212 8.77277 6.05788 8.20524C6.17364 7.63771 6.45937 7.11641 6.87895 6.70724C7.29852 6.29807 7.83309 6.01943 8.41506 5.90654C8.99702 5.79365 9.60025 5.85159 10.1485 6.07303C10.6967 6.29447 11.1652 6.66946 11.4949 7.15059C11.8245 7.63172 12.0005 8.19737 12.0005 8.77602C11.9988 9.55147 11.6822 10.2947 11.1199 10.843C10.5577 11.3914 9.79554 11.7001 9.00036 11.7017Z" fill="#474747"/>
<path d="M17.9998 11.7017C16.813 11.7017 15.6529 12.0449 14.6662 12.6879C13.6795 13.3308 12.9104 14.2447 12.4563 15.3139C12.0021 16.3831 11.8833 17.5596 12.1148 18.6947C12.3463 19.8297 12.9178 20.8723 13.7569 21.6907C14.5961 22.509 15.6652 23.0663 16.8292 23.2921C17.9931 23.5179 19.1995 23.402 20.2959 22.9591C21.3923 22.5162 22.3295 21.7662 22.9888 20.804C23.6481 19.8417 24 18.7104 24 17.5531C23.9986 16.0016 23.366 14.5141 22.2411 13.417C21.1161 12.32 19.5907 11.7031 17.9998 11.7017ZM17.9998 21.9406C17.1097 21.9406 16.2397 21.6833 15.4996 21.2011C14.7596 20.7188 14.1827 20.0334 13.8421 19.2315C13.5015 18.4296 13.4124 17.5472 13.5861 16.696C13.7597 15.8447 14.1883 15.0627 14.8176 14.4489C15.447 13.8352 16.2489 13.4172 17.1218 13.2479C17.9948 13.0786 18.8996 13.1655 19.7219 13.4976C20.5442 13.8298 21.247 14.3923 21.7415 15.114C22.236 15.8357 22.4999 16.6841 22.4999 17.5521C22.4986 18.7156 22.024 19.8311 21.1803 20.6538C20.3367 21.4765 19.1929 21.9393 17.9998 21.9406Z" fill="#474747"/>
<path d="M20.2494 16.8212H18.7493V15.3584C18.7493 15.1644 18.6703 14.9783 18.5296 14.8412C18.389 14.704 18.1982 14.627 17.9993 14.627C17.8004 14.627 17.6096 14.704 17.4689 14.8412C17.3283 14.9783 17.2493 15.1644 17.2493 15.3584V16.8212H15.7492C15.5503 16.8212 15.3595 16.8983 15.2188 17.0354C15.0782 17.1726 14.9992 17.3587 14.9992 17.5526C14.9992 17.7466 15.0782 17.9327 15.2188 18.0698C15.3595 18.207 15.5503 18.2841 15.7492 18.2841H17.2493V19.7469C17.2493 19.9409 17.3283 20.127 17.4689 20.2641C17.6096 20.4013 17.8004 20.4784 17.9993 20.4784C18.1982 20.4784 18.389 20.4013 18.5296 20.2641C18.6703 20.127 18.7493 19.9409 18.7493 19.7469V18.2841H20.2494C20.4483 18.2841 20.6391 18.207 20.7797 18.0698C20.9204 17.9327 20.9994 17.7466 20.9994 17.5526C20.9994 17.3587 20.9204 17.1726 20.7797 17.0354C20.6391 16.8983 20.4483 16.8212 20.2494 16.8212Z" fill="#474747"/>
</svg>
