<svg width="14" height="15" viewBox="0 0 14 15" fill="none" xmlns="http://www.w3.org/2000/svg">
<path d="M10.03 14.6878C9.02445 14.542 8.06858 14.157 7.24266 13.5652C6.28543 12.8986 5.40612 12.1266 4.6213 11.2637C3.63161 10.2545 2.69807 9.19164 1.82491 8.08005C1.12513 7.19051 0.585311 6.18609 0.229567 5.11165C0.00232178 4.41274 -0.0572952 3.67016 0.0555432 2.94395C0.21451 2.10573 0.649329 1.34479 1.29078 0.78228C1.54984 0.550555 1.83119 0.345022 2.13071 0.168684C2.30907 0.0553361 2.51674 -0.00325692 2.72805 0.000139736C2.93936 0.00353639 3.14505 0.068771 3.31968 0.187793C4.15648 0.685758 4.79784 1.45491 5.13732 2.36757C5.19549 2.49613 5.21815 2.63793 5.20294 2.77821C5.18772 2.9185 5.13519 3.05215 5.05082 3.16525C4.84058 3.44891 4.6213 3.72553 4.40905 4.01019C4.22196 4.26167 4.02781 4.51314 3.86184 4.77367C3.77636 4.89433 3.73105 5.03885 3.73231 5.18672C3.73358 5.33459 3.78136 5.47831 3.86889 5.5975C4.28834 6.18594 4.69473 6.79249 5.1504 7.35278C5.97575 8.37445 6.88962 9.32131 7.8814 10.1824C8.10269 10.3725 8.33909 10.5405 8.57447 10.7125C8.67486 10.7904 8.79552 10.838 8.92212 10.8494C9.04872 10.8608 9.17593 10.8356 9.28864 10.7768C9.54112 10.6523 9.7869 10.5147 10.025 10.3644C10.3549 10.1542 10.6788 9.93793 11.0017 9.72971C11.135 9.64428 11.2894 9.59736 11.4478 9.59417C11.6061 9.59097 11.7622 9.63161 11.8989 9.7116C12.7335 10.1254 13.4141 10.795 13.8413 11.6228C13.9613 11.8297 14.0155 12.0682 13.9966 12.3067C13.9778 12.5451 13.8868 12.7722 13.7357 12.9576C13.374 13.4863 12.8917 13.9213 12.3287 14.2269C11.7657 14.5324 11.1381 14.6997 10.4977 14.7149C10.3407 14.7126 10.1839 14.7021 10.028 14.6837L10.03 14.6878Z" fill="white"/>
</svg>
