<svg width="7" height="12" viewBox="0 0 7 12" fill="none" xmlns="http://www.w3.org/2000/svg">
<path d="M1.0291 11.6791C1.13735 11.6797 1.24466 11.659 1.3449 11.6181C1.44513 11.5772 1.53632 11.517 1.61325 11.4408L6.55179 6.50225C6.70513 6.34797 6.7912 6.13929 6.7912 5.92177C6.7912 5.70425 6.70513 5.49556 6.55179 5.34128L1.61325 0.403782C1.45561 0.270427 1.25363 0.201157 1.04734 0.209702C0.841038 0.218246 0.645479 0.30398 0.499414 0.449914C0.353348 0.595848 0.267438 0.79133 0.258708 0.99762C0.249978 1.20391 0.319066 1.40595 0.452279 1.5637L4.80773 5.91811L0.452279 10.2715C0.336859 10.3861 0.257996 10.5324 0.225643 10.6919C0.193291 10.8513 0.208899 11.0168 0.270498 11.1674C0.332097 11.318 0.436925 11.4469 0.571752 11.538C0.70658 11.6291 0.865363 11.6781 1.02806 11.6791H1.0291Z" fill="black" stroke="#ECECEC" stroke-width="0.4"/>
</svg>
