<svg width="25" height="25" viewBox="0 0 25 25" fill="none" xmlns="http://www.w3.org/2000/svg">
<path d="M12.5 0C12.0578 0 11.6337 0.175684 11.321 0.48837C11.0083 0.801056 10.8326 1.22513 10.8326 1.66734V10.8327H1.66734C1.22513 10.8327 0.801056 11.0083 0.48837 11.321C0.175684 11.6337 0 12.0578 0 12.5C0 12.9422 0.175684 13.3663 0.48837 13.679C0.801056 13.9917 1.22513 14.1673 1.66734 14.1673H10.8326V23.3327C10.8326 23.7749 11.0083 24.1989 11.321 24.5116C11.6337 24.8243 12.0578 25 12.5 25C12.9422 25 13.3663 24.8243 13.679 24.5116C13.9917 24.1989 14.1673 23.7749 14.1673 23.3327V14.1673H23.3327C23.7749 14.1673 24.1989 13.9917 24.5116 13.679C24.8243 13.3663 25 12.9422 25 12.5C25 12.0578 24.8243 11.6337 24.5116 11.321C24.1989 11.0083 23.7749 10.8327 23.3327 10.8327H14.1673V1.66734C14.1673 1.22513 13.9917 0.801056 13.679 0.48837C13.3663 0.175684 12.9422 0 12.5 0Z" fill="#3422F2"/>
</svg>
