<svg width="18" height="21" viewBox="0 0 18 21" fill="none" xmlns="http://www.w3.org/2000/svg">
<path d="M15.9143 4.82908C15.8514 4.79176 15.7801 4.77086 15.707 4.7683C15.6339 4.76575 15.5613 4.78163 15.4959 4.81447C15.4305 4.84731 15.3745 4.89606 15.3329 4.95624C15.2913 5.01643 15.2655 5.0861 15.2578 5.15887C15.2425 5.30225 15.2179 5.44564 15.1872 5.5962C14.331 9.48812 12.6103 11.3747 9.92694 11.3747H5.98893C5.88814 11.3748 5.79047 11.4097 5.71246 11.4735C5.63445 11.5374 5.58089 11.6262 5.56082 11.7249L4.24782 17.8773L4.01327 19.4432C3.97734 19.6324 3.98351 19.8272 4.03131 20.0137C4.07911 20.2002 4.16739 20.374 4.28987 20.5226C4.41236 20.6711 4.56603 20.7909 4.74002 20.8735C4.914 20.956 5.10403 20.9992 5.29659 21H7.93079C8.22403 21.0008 8.50902 20.903 8.73993 20.7222C8.97083 20.5415 9.13424 20.2883 9.20387 20.0035L10.268 15.75H12.5509C15.2456 15.75 17.1075 13.5992 17.7937 9.70115C18.0152 8.79431 17.9538 7.84142 17.6178 6.97048C17.2819 6.09955 16.6874 5.35228 15.9143 4.82908Z" fill="#03A9F4"/>
<path d="M15.0907 1.55987C14.6631 1.07509 14.1383 0.685681 13.5503 0.416948C12.9624 0.148216 12.3245 0.00616796 11.6781 3.23549e-05H4.43301C3.90859 -0.00282585 3.40077 0.183771 3.00297 0.525499C2.60516 0.867227 2.34412 1.3411 2.26787 1.85996L0.0146577 16.8674C-0.0136066 17.055 -0.000893102 17.2464 0.0519184 17.4286C0.10473 17.6108 0.196389 17.7794 0.320585 17.9227C0.444782 18.0661 0.598568 18.1809 0.77136 18.2591C0.944152 18.3374 1.13184 18.3773 1.32152 18.376H4.68189C4.78268 18.3759 4.88034 18.341 4.95835 18.2772C5.03637 18.2134 5.08994 18.1245 5.11 18.0258L6.34005 12.2504H9.92471C13.0382 12.2504 15.0948 10.074 16.0401 5.77543C16.078 5.60394 16.1071 5.43063 16.1272 5.25617C16.2365 4.60175 16.2002 3.93129 16.0211 3.29245C15.842 2.65362 15.5243 2.06207 15.0907 1.55987Z" fill="#283593"/>
</svg>
