<svg width="9" height="10" viewBox="0 0 9 10" fill="none" xmlns="http://www.w3.org/2000/svg">
<g clip-path="url(#clip0_412_1612)">
<path fill-rule="evenodd" clip-rule="evenodd" d="M7.32039 3.33318C7.32039 4.0812 7.02324 4.79857 6.49432 5.3275C5.96539 5.85643 5.24801 6.15357 4.5 6.15357C3.75199 6.15357 3.03461 5.85643 2.50568 5.3275C1.97676 4.79857 1.67961 4.0812 1.67961 3.33318C1.67961 2.58517 1.97676 1.8678 2.50568 1.33887C3.03461 0.809945 3.75199 0.512798 4.5 0.512798C5.24801 0.512798 5.96539 0.809945 6.49432 1.33887C7.02324 1.8678 7.32039 2.58517 7.32039 3.33318ZM-0.115179 10.256C-0.115179 8.56372 1.26937 7.17917 2.96161 7.17917H6.03839C7.73063 7.17917 9.11518 8.56372 9.11518 10.256V11.7943H-0.115179V10.256Z" fill="#A5A5A5"/>
</g>
<defs>
<clipPath id="clip0_412_1612">
<rect width="8.77546" height="9.27184" fill="white" transform="scale(1.0256)"/>
</clipPath>
</defs>
</svg>
