<svg width="30" height="21" viewBox="0 0 30 21" fill="none" xmlns="http://www.w3.org/2000/svg">
<path d="M22.5001 1.4998C22.5001 1.10203 22.3421 0.720546 22.0608 0.439279C21.7795 0.158011 21.398 0 21.0003 0H1.4998C1.10203 0 0.720549 0.158011 0.439282 0.439279C0.158014 0.720546 0 1.10203 0 1.4998C0 1.89757 0.158014 2.27905 0.439282 2.56032C0.720549 2.84159 1.10203 2.9996 1.4998 2.9996H21.0003C21.398 2.9996 21.7795 2.84159 22.0608 2.56032C22.3421 2.27905 22.5001 1.89757 22.5001 1.4998ZM1.4998 8.99982H28.5003C28.8981 8.99982 29.2795 9.15783 29.5608 9.4391C29.8421 9.72037 30.0001 10.1019 30.0001 10.4996C30.0001 10.8974 29.8421 11.2789 29.5608 11.5601C29.2795 11.8414 28.8981 11.9994 28.5003 11.9994H1.4998C1.10203 11.9994 0.720549 11.8414 0.439282 11.5601C0.158014 11.2789 0 10.8974 0 10.4996C0 10.1019 0.158014 9.72037 0.439282 9.4391C0.720549 9.15783 1.10203 8.99982 1.4998 8.99982ZM1.4998 17.9996H15C15.3978 17.9996 15.7793 18.1577 16.0606 18.4389C16.3418 18.7202 16.4998 19.1017 16.4998 19.4994C16.4998 19.8972 16.3418 20.2787 16.0606 20.56C15.7793 20.8412 15.3978 20.9993 15 20.9993H1.4998C1.10203 20.9993 0.720549 20.8412 0.439282 20.56C0.158014 20.2787 1.7879e-07 19.8972 1.7879e-07 19.4994C1.7879e-07 19.1017 0.158014 18.7202 0.439282 18.4389C0.720549 18.1577 1.10203 17.9996 1.4998 17.9996Z" fill="black"/>
</svg>
