<svg width="223" height="167" viewBox="0 0 223 167" fill="none" xmlns="http://www.w3.org/2000/svg">
<path d="M103.226 65.5006V50.529H152.352L170.475 32.4058H84.8314L66.7075 50.529L81.6805 65.5006H103.226Z" fill="#F1F2F2"/>
<path d="M120.167 98.4729L134.622 84.0182L122.408 71.8046H79.0679L62.2502 54.9855L44.9149 72.3229V126.175H70.9186V153.755H110.909V134.129L120.167 124.87V98.4729Z" fill="#F1F2F2" stroke="#F1F2F2"/>
<path d="M179.232 32.561L154.961 56.8323H109.529V65.4999H125.018L152.598 93.0802H190.692V45.8009C190.69 42.5858 189.531 39.4788 187.427 37.0478C185.323 34.6168 182.414 33.0241 179.233 32.561" fill="#F1F2F2"/>
<path d="M38.6113 97.0197V69.7097L75.9173 32.4051H26.0034C22.4506 32.4053 19.0435 33.8167 16.5313 36.3288C14.0192 38.841 12.6078 42.2481 12.6076 45.8009V97.0197H38.6113Z" fill="#3422F2"/>
<path d="M149.987 99.3834L139.079 88.4747L126.471 101.083V127.48L117.212 136.739V153.755H177.293C180.845 153.755 184.253 152.343 186.765 149.831C189.277 147.319 190.688 143.912 190.688 140.359V99.3834H149.987Z" fill="#F1F2F2"/>
<path d="M64.6143 132.479H38.6113V103.324H12.6076V140.359C12.6078 143.911 14.0192 147.319 16.5313 149.831C19.0435 152.343 22.4506 153.754 26.0034 153.755H64.6143V132.479Z" fill="#F1F2F2"/>
<path d="M53.9957 22.1796C53.9957 20.2844 53.6224 18.4078 52.8972 16.6569C52.1719 14.906 51.1089 13.3151 49.7688 11.975C48.4287 10.6349 46.8378 9.57192 45.0869 8.84667C43.336 8.12142 41.4594 7.74814 39.5642 7.74814C37.6691 7.74814 35.7925 8.12142 34.0416 8.84667C32.2907 9.57192 30.6997 10.6349 29.3597 11.975C28.0196 13.3151 26.9566 14.906 26.2313 16.6569C25.5061 18.4078 25.1328 20.2844 25.1328 22.1796C25.1328 22.1796 23.0996 37.4651 39.5632 49.6212C56.0303 37.4644 53.9957 22.1796 53.9957 22.1796Z" fill="#FF3939"/>
<path d="M40.1987 29.9887C38.6002 30.1187 37.0003 29.7551 35.6151 28.9469C34.2298 28.1386 33.126 26.9248 32.4527 25.4692C31.7793 24.0136 31.5689 22.3865 31.8498 20.8075C32.1307 19.2285 32.8894 17.7738 34.0234 16.6398C35.1574 15.5057 36.6122 14.747 38.1912 14.4661C39.7701 14.1852 41.3973 14.3957 42.8528 15.069C44.3084 15.7424 45.5223 16.8462 46.3305 18.2314C47.1387 19.6167 47.5024 21.2166 47.3723 22.815C47.2213 24.6672 46.4171 26.4054 45.1031 27.7194C43.7891 29.0334 42.0508 29.8377 40.1987 29.9887Z" fill="white"/>
<path d="M222.212 131.53C222.212 136.128 220.848 140.622 218.294 144.445C215.74 148.268 212.109 151.247 207.862 153.007C203.614 154.766 198.94 155.226 194.431 154.329C189.922 153.432 185.78 151.218 182.529 147.968C179.278 144.717 177.064 140.575 176.167 136.065C175.27 131.556 175.73 126.882 177.49 122.635C179.249 118.387 182.229 114.756 186.051 112.202C189.874 109.648 194.368 108.285 198.966 108.285C205.131 108.285 211.044 110.734 215.403 115.093C219.763 119.453 222.212 125.365 222.212 131.53Z" fill="#B4B4B4"/>
<path d="M215.382 148.534C215.383 150.112 214.915 151.655 214.038 152.967C213.162 154.279 211.916 155.302 210.458 155.906C209 156.51 207.396 156.668 205.848 156.36C204.3 156.052 202.879 155.292 201.763 154.177C200.647 153.061 199.887 151.639 199.579 150.091C199.272 148.544 199.43 146.94 200.034 145.482C200.637 144.024 201.66 142.778 202.972 141.901C204.284 141.025 205.827 140.557 207.405 140.557C209.521 140.557 211.55 141.398 213.046 142.894C214.542 144.39 215.382 146.419 215.382 148.534Z" fill="#B4B4B4"/>
<path d="M214.332 116.752C214.332 119.109 213.633 121.414 212.323 123.374C211.013 125.334 209.152 126.862 206.974 127.764C204.796 128.666 202.399 128.902 200.087 128.442C197.775 127.982 195.651 126.847 193.985 125.18C192.318 123.513 191.182 121.389 190.723 119.077C190.263 116.765 190.499 114.369 191.401 112.191C192.303 110.013 193.831 108.151 195.791 106.842C197.751 105.532 200.055 104.833 202.413 104.833C205.574 104.833 208.605 106.089 210.841 108.324C213.076 110.559 214.332 113.591 214.332 116.752Z" fill="#B4B4B4"/>
<path d="M207.443 148.517L205.461 144.221L200.936 146.311V134.682H196.208V139.217L190.114 136.816L188.382 141.214L196.212 144.298V164.627H200.94V151.523L207.443 148.517Z" fill="#8F5B31"/>
<path d="M37.3886 51.1541L49.3077 63.0732L41.3697 71.016V129.721H64.1546C65.1823 129.721 66.1678 130.129 66.8945 130.856C67.6212 131.583 68.0295 132.568 68.0297 133.596V155.396C68.0296 155.905 68.1297 156.409 68.3244 156.879C68.519 157.349 68.8043 157.776 69.1641 158.136C69.5238 158.495 69.9509 158.781 70.4209 158.975C70.8909 159.17 71.3947 159.27 71.9034 159.27H89.4355" stroke="#63C856" stroke-miterlimit="10"/>
<path d="M151.977 126.91H138.685V123.791C138.685 123.584 138.725 123.378 138.805 123.186C138.884 122.995 139.001 122.82 139.147 122.674C139.294 122.527 139.468 122.41 139.66 122.331C139.852 122.251 140.057 122.211 140.265 122.211H150.396C150.815 122.211 151.217 122.377 151.514 122.674C151.81 122.97 151.977 123.372 151.977 123.791V126.91Z" fill="#F6DE00"/>
<path d="M182.936 148.27H94.433V159.447H182.936V148.27Z" fill="#B4B4B4"/>
<path d="M114.774 159.447C114.774 160.801 114.373 162.125 113.62 163.251C112.868 164.377 111.799 165.254 110.548 165.773C109.297 166.291 107.92 166.426 106.592 166.162C105.264 165.898 104.044 165.246 103.086 164.289C102.129 163.331 101.476 162.111 101.212 160.783C100.948 159.455 101.084 158.078 101.602 156.827C102.12 155.576 102.998 154.507 104.124 153.754C105.25 153.002 106.574 152.601 107.928 152.601C109.744 152.601 111.485 153.322 112.769 154.606C114.052 155.89 114.774 157.631 114.774 159.447Z" fill="#404A69"/>
<path d="M115.478 159.447C115.478 160.941 115.035 162.401 114.205 163.643C113.375 164.885 112.195 165.853 110.815 166.425C109.435 166.997 107.916 167.146 106.451 166.855C104.985 166.563 103.639 165.844 102.583 164.788C101.527 163.731 100.807 162.385 100.516 160.92C100.224 159.455 100.374 157.936 100.946 156.556C101.517 155.176 102.486 153.996 103.728 153.166C104.97 152.336 106.43 151.893 107.924 151.893C109.927 151.893 111.849 152.689 113.265 154.106C114.682 155.522 115.478 157.443 115.478 159.447Z" fill="#404A69"/>
<path d="M112.331 159.447C112.331 160.318 112.073 161.169 111.589 161.894C111.105 162.618 110.417 163.182 109.612 163.516C108.807 163.849 107.921 163.936 107.067 163.766C106.213 163.597 105.428 163.177 104.812 162.561C104.196 161.945 103.776 161.16 103.606 160.306C103.437 159.451 103.524 158.566 103.857 157.761C104.19 156.956 104.755 156.268 105.479 155.784C106.204 155.3 107.055 155.042 107.926 155.042C108.505 155.042 109.078 155.156 109.612 155.377C110.146 155.598 110.632 155.923 111.041 156.332C111.45 156.741 111.774 157.227 111.996 157.761C112.217 158.295 112.331 158.868 112.331 159.447Z" fill="#323253"/>
<path d="M111.6 159.446C111.6 160.172 111.385 160.882 110.981 161.486C110.578 162.09 110.004 162.561 109.333 162.839C108.662 163.117 107.923 163.19 107.211 163.048C106.499 162.906 105.844 162.557 105.331 162.043C104.817 161.529 104.467 160.875 104.325 160.162C104.184 159.45 104.256 158.712 104.534 158.04C104.812 157.369 105.283 156.796 105.887 156.392C106.491 155.989 107.201 155.773 107.928 155.773C108.902 155.773 109.836 156.16 110.525 156.849C111.213 157.538 111.6 158.472 111.6 159.446Z" fill="#F1F2F2"/>
<path d="M187.064 156.829V145.149L185.252 143.941L184.541 141.323H182.333L171.028 127.84C170.641 127.379 170.159 127.007 169.614 126.751C169.069 126.495 168.476 126.36 167.874 126.357C156.513 126.281 131.467 126.388 125.386 126.416C124.467 126.418 123.579 126.743 122.875 127.334C118.787 130.746 108.328 140.72 108.328 140.72C102.615 142.623 94.9589 145.009 91.3749 146.88C90.5049 147.336 89.7444 147.975 89.1461 148.753C88.5478 149.532 88.1261 150.432 87.91 151.389L86.583 157.231L86.9849 159.649H98.6753C98.6753 159.58 98.6642 159.515 98.6642 159.447C98.6642 156.99 99.6402 154.634 101.377 152.897C103.115 151.16 105.471 150.184 107.928 150.184C110.385 150.184 112.741 151.16 114.478 152.897C116.216 154.634 117.191 156.99 117.191 159.447C117.191 159.517 117.182 159.581 117.18 159.649H159.892C159.892 159.58 159.881 159.515 159.881 159.447C159.881 158.231 160.121 157.026 160.586 155.902C161.052 154.778 161.734 153.757 162.594 152.897C163.455 152.037 164.476 151.354 165.6 150.889C166.724 150.423 167.928 150.184 169.145 150.184C170.361 150.184 171.566 150.423 172.69 150.889C173.814 151.354 174.835 152.037 175.695 152.897C176.555 153.757 177.238 154.778 177.703 155.902C178.169 157.026 178.409 158.231 178.409 159.447C178.409 159.517 178.399 159.581 178.397 159.649H188.075L187.994 156.829H187.064Z" fill="#F6DE00"/>
<path d="M144.122 127.883H125.399L114.768 137.429C114.453 137.706 114.2 138.047 114.027 138.43C113.855 138.812 113.765 139.227 113.766 139.646C113.765 139.823 113.8 139.998 113.867 140.161C113.935 140.324 114.034 140.472 114.158 140.597C114.283 140.722 114.431 140.821 114.594 140.888C114.757 140.956 114.932 140.991 115.108 140.991H143.231C143.562 140.988 143.88 140.861 144.122 140.636V127.883Z" fill="white"/>
<path d="M172.706 137.429L164.646 127.883H147.897V140.237C148.006 140.461 148.175 140.651 148.386 140.784C148.597 140.917 148.841 140.988 149.09 140.99H172.364C172.721 140.99 173.063 140.848 173.315 140.596C173.567 140.344 173.708 140.002 173.708 139.646C173.708 139.226 173.619 138.811 173.446 138.429C173.273 138.047 173.021 137.705 172.706 137.428" fill="white"/>
<path d="M114.822 142.683H114.444C114.196 142.683 113.95 142.634 113.722 142.539C113.493 142.444 113.285 142.305 113.109 142.13C112.934 141.954 112.795 141.746 112.701 141.517C112.606 141.288 112.557 141.042 112.557 140.795V139.285C112.557 139.037 112.606 138.792 112.701 138.563C112.795 138.334 112.934 138.126 113.109 137.95C113.285 137.775 113.493 137.636 113.722 137.541C113.95 137.446 114.196 137.397 114.444 137.397H114.822V142.683Z" fill="black"/>
<path d="M104.295 159.9C104.402 160.788 104.83 161.606 105.499 162.2C106.167 162.793 107.031 163.121 107.925 163.121C108.819 163.121 109.682 162.793 110.351 162.2C111.02 161.606 111.448 160.788 111.554 159.9H104.295Z" fill="#D1DBE6"/>
<path d="M115.478 159.447C115.478 160.941 115.035 162.401 114.205 163.643C113.375 164.885 112.195 165.853 110.815 166.425C109.435 166.997 107.916 167.146 106.451 166.855C104.985 166.563 103.639 165.844 102.583 164.788C101.527 163.731 100.807 162.385 100.516 160.92C100.224 159.455 100.374 157.936 100.946 156.556C101.517 155.176 102.486 153.996 103.728 153.166C104.97 152.336 106.43 151.893 107.924 151.893C109.927 151.893 111.849 152.689 113.265 154.106C114.682 155.522 115.478 157.443 115.478 159.447Z" fill="black"/>
<path d="M111.6 159.446C111.6 160.172 111.385 160.882 110.981 161.486C110.578 162.09 110.004 162.561 109.333 162.839C108.662 163.117 107.923 163.19 107.211 163.048C106.499 162.906 105.844 162.557 105.331 162.043C104.817 161.529 104.467 160.875 104.325 160.162C104.184 159.45 104.256 158.712 104.534 158.04C104.812 157.369 105.283 156.796 105.887 156.392C106.491 155.989 107.201 155.773 107.928 155.773C108.902 155.773 109.836 156.16 110.525 156.849C111.213 157.538 111.6 158.472 111.6 159.446Z" fill="#F1F2F2"/>
<path d="M176.895 159.447C176.895 160.941 176.452 162.401 175.622 163.643C174.792 164.885 173.612 165.853 172.232 166.425C170.852 166.997 169.333 167.146 167.868 166.855C166.403 166.563 165.057 165.844 164 164.788C162.944 163.731 162.225 162.385 161.933 160.92C161.642 159.455 161.791 157.936 162.363 156.556C162.935 155.176 163.903 153.996 165.145 153.166C166.387 152.336 167.847 151.893 169.341 151.893C171.345 151.893 173.266 152.689 174.682 154.106C176.099 155.522 176.895 157.443 176.895 159.447Z" fill="black"/>
<path d="M173.019 159.446C173.019 160.172 172.804 160.882 172.4 161.486C171.996 162.09 171.423 162.561 170.752 162.839C170.081 163.117 169.342 163.19 168.63 163.048C167.917 162.906 167.263 162.557 166.749 162.043C166.236 161.529 165.886 160.875 165.744 160.162C165.602 159.45 165.675 158.712 165.953 158.04C166.231 157.369 166.702 156.796 167.306 156.392C167.91 155.989 168.62 155.773 169.346 155.773C170.32 155.773 171.254 156.16 171.943 156.849C172.632 157.538 173.019 158.472 173.019 159.446Z" fill="#F1F2F2"/>
<path d="M193.575 -1.80484e-06L83.0315 24.3264L94.3589 75.7998L204.903 51.4734L193.575 -1.80484e-06Z" fill="#B4B4B4"/>
<path d="M103.539 43.1385L99.7793 45.1162C99.6778 45.1696 99.5634 45.1935 99.449 45.1852C99.3346 45.177 99.2248 45.1369 99.132 45.0694C99.0392 45.002 98.9671 44.91 98.9239 44.8038C98.8807 44.6975 98.8681 44.5813 98.8875 44.4683L99.6061 40.2793C99.6226 40.1811 99.6152 40.0803 99.5844 39.9856C99.5537 39.8909 99.5005 39.805 99.4294 39.7353L96.3858 36.7715C96.3036 36.6914 96.2453 36.5899 96.2177 36.4784C96.1901 36.367 96.1943 36.25 96.2297 36.1408C96.2651 36.0316 96.3303 35.9344 96.418 35.8603C96.5058 35.7863 96.6125 35.7382 96.7261 35.7216L100.931 35.1118C101.03 35.0974 101.124 35.0591 101.204 35.0003C101.285 34.9415 101.351 34.864 101.395 34.7743L103.275 30.963C103.325 30.8601 103.404 30.7734 103.501 30.7128C103.598 30.6522 103.711 30.62 103.826 30.62C103.94 30.62 104.053 30.6522 104.15 30.7128C104.247 30.7734 104.326 30.8601 104.376 30.963L106.257 34.7743C106.301 34.864 106.366 34.9415 106.447 35.0003C106.527 35.0591 106.621 35.0974 106.72 35.1118L110.925 35.7216C111.039 35.7382 111.145 35.7863 111.233 35.8603C111.321 35.9344 111.386 36.0316 111.421 36.1408C111.457 36.25 111.461 36.367 111.433 36.4784C111.406 36.5899 111.348 36.6914 111.265 36.7715L108.222 39.736C108.15 39.8055 108.097 39.8913 108.066 39.9861C108.035 40.0809 108.028 40.1818 108.045 40.28L108.764 44.469C108.783 44.582 108.77 44.698 108.727 44.8041C108.683 44.9102 108.611 45.0021 108.519 45.0694C108.426 45.1368 108.316 45.1769 108.202 45.1853C108.088 45.1937 107.973 45.17 107.872 45.1169L104.112 43.1392C104.024 43.0926 103.925 43.0682 103.826 43.0682C103.726 43.0682 103.628 43.0926 103.539 43.1392" fill="white"/>
<path d="M123.201 43.1385L119.441 45.1162C119.339 45.1696 119.225 45.1935 119.111 45.1852C118.996 45.177 118.886 45.1369 118.794 45.0694C118.701 45.002 118.629 44.91 118.586 44.8038C118.542 44.6975 118.53 44.5813 118.549 44.4683L119.268 40.2793C119.284 40.1811 119.277 40.0803 119.246 39.9856C119.215 39.8909 119.162 39.805 119.091 39.7353L116.047 36.7708C115.965 36.6907 115.907 36.5892 115.879 36.4777C115.852 36.3663 115.856 36.2493 115.891 36.1401C115.927 36.0309 115.992 35.9337 116.08 35.8597C116.167 35.7856 116.274 35.7375 116.388 35.7209L120.593 35.1111C120.692 35.0967 120.785 35.0584 120.866 34.9996C120.947 34.9408 121.012 34.8633 121.056 34.7736L122.936 30.9623C122.987 30.8594 123.065 30.7727 123.163 30.7121C123.26 30.6515 123.373 30.6194 123.487 30.6194C123.602 30.6194 123.714 30.6515 123.812 30.7121C123.909 30.7727 123.987 30.8594 124.038 30.9623L125.918 34.7736C125.962 34.8633 126.028 34.9408 126.108 34.9996C126.189 35.0584 126.283 35.0967 126.382 35.1111L130.587 35.7209C130.7 35.7375 130.807 35.7856 130.895 35.8597C130.982 35.9337 131.048 36.0309 131.083 36.1401C131.119 36.2493 131.123 36.3663 131.095 36.4777C131.067 36.5892 131.009 36.6907 130.927 36.7708L127.883 39.7353C127.812 39.8048 127.759 39.8907 127.728 39.9854C127.697 40.0802 127.69 40.1811 127.707 40.2793L128.425 44.4683C128.445 44.5813 128.432 44.6975 128.389 44.8038C128.346 44.91 128.274 45.002 128.181 45.0694C128.088 45.1369 127.978 45.177 127.864 45.1852C127.749 45.1935 127.635 45.1696 127.533 45.1162L123.773 43.1385C123.685 43.0919 123.587 43.0675 123.487 43.0675C123.387 43.0675 123.289 43.0919 123.201 43.1385Z" fill="white"/>
<path d="M142.864 43.1385L139.104 45.1162C139.003 45.1696 138.888 45.1935 138.774 45.1852C138.659 45.177 138.55 45.1369 138.457 45.0694C138.364 45.002 138.292 44.91 138.249 44.8038C138.205 44.6975 138.193 44.5813 138.212 44.4683L138.931 40.2793C138.947 40.1811 138.939 40.0805 138.909 39.9858C138.878 39.8912 138.825 39.8053 138.754 39.7353L135.711 36.7708C135.628 36.6907 135.57 36.5892 135.542 36.4777C135.515 36.3663 135.519 36.2493 135.554 36.1401C135.59 36.0309 135.655 35.9337 135.743 35.8597C135.831 35.7856 135.937 35.7375 136.051 35.7209L140.256 35.1111C140.355 35.0967 140.448 35.0584 140.529 34.9996C140.61 34.9408 140.675 34.8633 140.719 34.7736L142.599 30.9623C142.65 30.8594 142.728 30.7727 142.826 30.7121C142.923 30.6515 143.036 30.6194 143.15 30.6194C143.265 30.6194 143.377 30.6515 143.475 30.7121C143.572 30.7727 143.651 30.8594 143.701 30.9623L145.581 34.7736C145.625 34.8633 145.691 34.9408 145.771 34.9996C145.852 35.0584 145.946 35.0967 146.045 35.1111L150.25 35.7209C150.363 35.7378 150.47 35.786 150.557 35.8601C150.645 35.9342 150.71 36.0313 150.745 36.1404C150.781 36.2495 150.785 36.3663 150.758 36.4777C150.73 36.5891 150.672 36.6906 150.59 36.7708L147.547 39.7353C147.475 39.8048 147.422 39.8907 147.391 39.9854C147.36 40.0802 147.353 40.1811 147.37 40.2793L148.088 44.4683C148.108 44.5813 148.095 44.6973 148.051 44.8034C148.008 44.9095 147.936 45.0014 147.843 45.0687C147.751 45.1361 147.641 45.1762 147.527 45.1846C147.412 45.193 147.298 45.1693 147.197 45.1162L143.437 43.1385C143.348 43.0919 143.25 43.0675 143.15 43.0675C143.051 43.0675 142.952 43.0919 142.864 43.1385Z" fill="white"/>
<path d="M162.528 43.1385L158.768 45.1162C158.666 45.1694 158.552 45.1932 158.438 45.1849C158.323 45.1765 158.213 45.1364 158.121 45.0691C158.028 45.0018 157.955 44.9098 157.912 44.8037C157.869 44.6976 157.856 44.5814 157.875 44.4683L158.593 40.2793C158.61 40.1813 158.602 40.0807 158.572 39.9861C158.542 39.8915 158.489 39.8055 158.419 39.7353L155.375 36.7708C155.293 36.6909 155.234 36.5895 155.206 36.4781C155.179 36.3666 155.182 36.2496 155.218 36.1404C155.253 36.0311 155.318 35.9338 155.406 35.8597C155.494 35.7856 155.6 35.7375 155.714 35.7209L159.919 35.1111C160.018 35.0963 160.112 35.0578 160.193 34.9991C160.274 34.9404 160.339 34.863 160.384 34.7736L162.263 30.9623C162.313 30.8594 162.392 30.7729 162.49 30.7123C162.587 30.6518 162.699 30.6197 162.814 30.6197C162.929 30.6197 163.041 30.6518 163.139 30.7123C163.236 30.7729 163.315 30.8594 163.366 30.9623L165.246 34.7736C165.29 34.863 165.355 34.9404 165.435 34.9992C165.515 35.0579 165.609 35.0963 165.707 35.1111L169.912 35.7209C170.026 35.7375 170.133 35.7856 170.22 35.8597C170.308 35.9337 170.373 36.0309 170.409 36.1401C170.444 36.2493 170.448 36.3663 170.421 36.4777C170.393 36.5892 170.335 36.6907 170.253 36.7708L167.209 39.7353C167.138 39.8048 167.084 39.8906 167.053 39.9854C167.023 40.0802 167.015 40.1811 167.032 40.2793L167.751 44.4683C167.77 44.5813 167.757 44.6973 167.714 44.8034C167.671 44.9095 167.599 45.0014 167.506 45.0687C167.413 45.1361 167.303 45.1762 167.189 45.1846C167.075 45.193 166.961 45.1693 166.859 45.1162L163.1 43.1385C163.012 43.0919 162.914 43.0675 162.814 43.0675C162.714 43.0675 162.616 43.0919 162.528 43.1385Z" fill="white"/>
<path d="M182.189 43.1385L178.429 45.1162C178.328 45.1696 178.213 45.1935 178.099 45.1852C177.985 45.177 177.875 45.1369 177.782 45.0694C177.689 45.002 177.617 44.91 177.574 44.8038C177.531 44.6975 177.518 44.5813 177.537 44.4683L178.256 40.2793C178.272 40.1811 178.264 40.0805 178.234 39.9858C178.203 39.8912 178.15 39.8053 178.079 39.7353L175.036 36.7708C174.954 36.6907 174.895 36.5892 174.868 36.4777C174.84 36.3663 174.844 36.2493 174.88 36.1401C174.915 36.0309 174.98 35.9337 175.068 35.8597C175.156 35.7856 175.262 35.7375 175.376 35.7209L179.581 35.1111C179.68 35.0967 179.774 35.0584 179.854 34.9996C179.935 34.9408 180 34.8633 180.045 34.7736L181.925 30.9623C181.975 30.8594 182.054 30.7727 182.151 30.7121C182.248 30.6515 182.361 30.6194 182.476 30.6194C182.59 30.6194 182.703 30.6515 182.8 30.7121C182.897 30.7727 182.976 30.8594 183.026 30.9623L184.906 34.7736C184.951 34.8633 185.016 34.9408 185.097 34.9996C185.177 35.0584 185.271 35.0967 185.37 35.1111L189.575 35.7209C189.688 35.7378 189.795 35.786 189.883 35.8601C189.97 35.9342 190.035 36.0313 190.071 36.1404C190.106 36.2495 190.11 36.3663 190.083 36.4777C190.055 36.5891 189.997 36.6906 189.915 36.7708L186.875 39.736C186.803 39.8055 186.75 39.8913 186.719 39.9861C186.688 40.0809 186.681 40.1818 186.698 40.28L187.416 44.469C187.436 44.582 187.423 44.698 187.379 44.8041C187.336 44.9102 187.264 45.0021 187.171 45.0694C187.079 45.1368 186.969 45.1769 186.855 45.1853C186.74 45.1937 186.626 45.17 186.525 45.1169L182.765 43.1392C182.676 43.0926 182.578 43.0682 182.478 43.0682C182.379 43.0682 182.28 43.0926 182.192 43.1392" fill="white"/>
<path d="M202.414 91.8973H198.277C198.108 91.8974 197.942 91.8645 197.787 91.8003C197.631 91.7361 197.49 91.6419 197.371 91.5231C197.252 91.4043 197.158 91.2632 197.093 91.1079C197.029 90.9527 196.995 90.7862 196.995 90.618V86.4796C196.995 86.3114 197.028 86.1449 197.093 85.9895C197.157 85.8341 197.252 85.693 197.371 85.5741C197.49 85.4552 197.631 85.361 197.786 85.2967C197.942 85.2325 198.108 85.1995 198.277 85.1997H202.414C202.753 85.1999 203.079 85.3348 203.318 85.5748C203.558 85.8148 203.693 86.1402 203.694 86.4796V90.618C203.693 90.9574 203.558 91.2829 203.318 91.5229C203.079 91.7629 202.753 91.8978 202.414 91.898" fill="#D4D7DA"/>
<path d="M10.3434 32.2076H6.20636C6.03818 32.2077 5.87164 32.1746 5.71624 32.1103C5.56083 32.0461 5.41961 31.9518 5.30063 31.833C5.18165 31.7141 5.08724 31.573 5.0228 31.4177C4.95836 31.2623 4.92514 31.0958 4.92505 30.9276V26.7899C4.92514 26.6217 4.95836 26.4552 5.0228 26.2999C5.08724 26.1446 5.18165 26.0034 5.30063 25.8846C5.41961 25.7657 5.56083 25.6715 5.71624 25.6072C5.87164 25.5429 6.03818 25.5099 6.20636 25.51H10.3434C10.6825 25.5104 11.0077 25.6454 11.2473 25.8854C11.4869 26.1254 11.6214 26.4508 11.6212 26.7899V30.9283C11.6214 31.2675 11.4869 31.5928 11.2473 31.8328C11.0077 32.0729 10.6825 32.2079 10.3434 32.2083" fill="#F1F2F2"/>
<path d="M209.506 102.532H205.369C205.201 102.532 205.034 102.499 204.879 102.435C204.723 102.371 204.582 102.277 204.463 102.158C204.344 102.039 204.249 101.898 204.185 101.742C204.121 101.587 204.087 101.421 204.087 101.252V97.1174C204.087 96.9492 204.121 96.7827 204.185 96.6273C204.249 96.4719 204.344 96.3308 204.463 96.2119C204.582 96.093 204.723 95.9988 204.879 95.9345C205.034 95.8703 205.201 95.8373 205.369 95.8375H209.506C209.845 95.8377 210.171 95.9726 210.411 96.2126C210.651 96.4526 210.786 96.778 210.786 97.1174V101.256C210.786 101.595 210.651 101.921 210.411 102.161C210.171 102.401 209.845 102.536 209.506 102.536" fill="#F1F2F2"/>
<path d="M5.41834 43.8301H1.2813C0.941783 43.8303 0.616087 43.6956 0.375817 43.4557C0.135546 43.2158 0.000367395 42.8904 0 42.5508L0 38.4124C9.09775e-05 38.2443 0.033305 38.0777 0.0977457 37.9224C0.162186 37.7671 0.256592 37.626 0.375572 37.5071C0.494552 37.3883 0.635776 37.294 0.791181 37.2297C0.946587 37.1655 1.11313 37.1324 1.2813 37.1325H5.41834C5.75749 37.1329 6.08261 37.2679 6.32223 37.5079C6.56185 37.7479 6.69636 38.0733 6.69617 38.4124V42.5508C6.69636 42.89 6.56185 43.2153 6.32223 43.4554C6.08261 43.6954 5.75749 43.8304 5.41834 43.8308" fill="#D4D7DA"/>
</svg>
