<svg width="23" height="22" viewBox="0 0 23 22" fill="none" xmlns="http://www.w3.org/2000/svg">
<path d="M20.1381 9.14928L19.5963 8.60748L18.7831 9.42069L17.9699 8.60748L17.4422 9.13622L16.9145 8.60748L16.1013 9.42069L15.2881 8.60748L14.7604 9.13622L14.2326 8.60748L13.4194 9.42069L12.5992 8.6105L12.0604 9.14928L12.8736 9.96249L12.0604 10.7757L12.6022 11.3175L13.4154 10.5043L14.2286 11.3175L14.7563 10.7888L15.2841 11.3175L16.0973 10.5043L16.9105 11.3175L17.4382 10.7888L17.9659 11.3175L18.7791 10.5043L19.5923 11.3175L20.1341 10.7757L19.3209 9.96249L20.1381 9.14928ZM14.7583 10.7576L13.9542 9.95344L14.7583 9.14928L15.5625 9.95344L14.7583 10.7576ZM17.4412 10.7576L16.637 9.95344L17.4412 9.14928L18.2454 9.95344L17.4412 10.7576Z" fill="#474747"/>
<path d="M21.8479 1.75748e-06H1.14994C0.84496 1.75748e-06 0.552467 0.121156 0.336811 0.336813C0.121155 0.552469 0 0.844962 0 1.14995V13.0324C0 13.3374 0.121155 13.6298 0.336811 13.8455C0.552467 14.0612 0.84496 14.1823 1.14994 14.1823H12.7901C13.4235 14.6816 14.1616 15.0311 14.9493 15.2046V15.7152C14.8477 15.7152 14.7503 15.7556 14.6785 15.8274C14.6066 15.8992 14.5663 15.9966 14.5663 16.0982V19.931C14.5663 20.3377 14.7279 20.7278 15.0154 21.0153C15.303 21.3029 15.693 21.4645 16.0997 21.4645C16.5064 21.4645 16.8964 21.3029 17.184 21.0153C17.4716 20.7278 17.6332 20.3377 17.6332 19.931V16.0982C17.6332 15.9966 17.5928 15.8992 17.521 15.8274C17.4492 15.7556 17.3517 15.7152 17.2502 15.7152V15.2046C18.0378 15.0311 18.776 14.6816 19.4093 14.1823H21.85C22.1549 14.1823 22.4474 14.0612 22.6631 13.8455C22.8787 13.6298 22.9999 13.3374 22.9999 13.0324V1.14995C22.9999 0.998764 22.9701 0.849065 22.9122 0.709417C22.8543 0.569768 22.7694 0.44291 22.6624 0.336101C22.5554 0.229293 22.4284 0.14463 22.2886 0.0869586C22.1489 0.0292868 21.9991 -0.000262547 21.8479 1.75748e-06ZM1.14994 0.766967H21.8479C21.8982 0.766967 21.948 0.776872 21.9945 0.796119C22.041 0.815365 22.0832 0.843576 22.1187 0.879139C22.1543 0.914702 22.1825 0.956921 22.2018 1.00339C22.221 1.04985 22.2309 1.09965 22.2309 1.14995V3.06686H0.766965V1.14995C0.766965 1.09965 0.776871 1.04985 0.796117 1.00339C0.815364 0.956921 0.843574 0.914702 0.879137 0.879139C0.9147 0.843576 0.956919 0.815365 1.00338 0.796119C1.04985 0.776872 1.09965 0.766967 1.14994 0.766967ZM16.0982 14.5653C15.1885 14.5653 14.2991 14.2955 13.5427 13.7901C12.7863 13.2847 12.1967 12.5663 11.8486 11.7258C11.5004 10.8853 11.4093 9.96042 11.5868 9.06815C11.7643 8.17588 12.2024 7.35627 12.8457 6.71298C13.489 6.06969 14.3086 5.63161 15.2008 5.45412C16.0931 5.27664 17.018 5.36773 17.8585 5.71588C18.699 6.06402 19.4174 6.65359 19.9228 7.41002C20.4282 8.16645 20.698 9.05577 20.698 9.96552C20.698 10.5696 20.579 11.1677 20.3479 11.7258C20.1167 12.2838 19.7779 12.7909 19.3508 13.2181C18.9236 13.6452 18.4165 13.984 17.8585 14.2152C17.3004 14.4463 16.7023 14.5653 16.0982 14.5653ZM16.0982 4.59978C15.1288 4.60045 14.1779 4.86562 13.348 5.36674H0.766965V3.83282H22.2309V5.36574H18.8484C18.0185 4.86497 17.0676 4.60014 16.0982 4.59978ZM0.766965 13.0324V6.1317H12.3498C11.3802 7.07539 10.8044 8.35155 10.7383 9.70298C10.6723 11.0544 11.121 12.3806 11.994 13.4143H1.14994C1.04855 13.4143 0.951285 13.3741 0.879492 13.3025C0.807698 13.2309 0.767231 13.1338 0.766965 13.0324ZM16.8652 19.932C16.8689 20.035 16.8519 20.1377 16.815 20.234C16.7782 20.3302 16.7223 20.418 16.6508 20.4922C16.5792 20.5664 16.4935 20.6254 16.3986 20.6657C16.3038 20.706 16.2018 20.7268 16.0987 20.7268C15.9957 20.7268 15.8937 20.706 15.7988 20.6657C15.704 20.6254 15.6182 20.5664 15.5467 20.4922C15.4751 20.418 15.4193 20.3302 15.3824 20.234C15.3456 20.1377 15.3285 20.035 15.3323 19.932V16.4852H16.8652V19.932ZM16.4852 15.7152H15.7183V15.3132C15.8459 15.3222 15.9716 15.3323 16.1012 15.3323C16.2309 15.3323 16.3576 15.3222 16.4842 15.3132L16.4852 15.7152ZM21.851 13.4154H20.2044C21.0775 12.3816 21.5262 11.0554 21.4601 9.70398C21.3941 8.35255 20.8182 7.07639 19.8486 6.1327H22.2329V13.0324C22.2329 13.0828 22.223 13.1328 22.2036 13.1794C22.1842 13.226 22.1558 13.2683 22.12 13.3039C22.0843 13.3395 22.0418 13.3676 21.9951 13.3868C21.9484 13.4059 21.8984 13.4156 21.8479 13.4154H21.851Z" fill="#474747"/>
<path d="M6.51579 8.04956C6.03379 8.04959 5.56412 8.20193 5.17385 8.48481C4.83047 8.23668 4.42523 8.08822 4.00283 8.0558C3.58043 8.02338 3.15727 8.10826 2.78005 8.30108C2.40283 8.4939 2.08619 8.78716 1.86507 9.14852C1.64395 9.50988 1.52694 9.9253 1.52694 10.3489C1.52694 10.7726 1.64395 11.188 1.86507 11.5494C2.08619 11.9107 2.40283 12.204 2.78005 12.3968C3.15727 12.5896 3.58043 12.6745 4.00283 12.6421C4.42523 12.6097 4.83047 12.4612 5.17385 12.2131C5.46798 12.4258 5.80827 12.5658 6.1669 12.6218C6.52554 12.6778 6.89233 12.6481 7.23728 12.5351C7.58223 12.4222 7.89555 12.2292 8.15161 11.9719C8.40768 11.7147 8.59922 11.4004 8.71057 11.055C8.82191 10.7095 8.84991 10.3426 8.79227 9.98421C8.73463 9.62584 8.59298 9.2862 8.37891 8.99307C8.16485 8.69993 7.88444 8.46163 7.56062 8.29765C7.2368 8.13366 6.87876 8.04865 6.51579 8.04956ZM4.98287 10.3494C4.98431 10.0945 5.05037 9.84414 5.17486 9.62168C5.30049 9.8433 5.36654 10.0937 5.36654 10.3484C5.36654 10.6032 5.30049 10.8536 5.17486 11.0752C5.05086 10.8536 4.98482 10.6043 4.98287 10.3505V10.3494ZM2.3 10.3494C2.3 9.94289 2.4615 9.55298 2.74898 9.26551C3.03646 8.97803 3.42636 8.81652 3.83292 8.81652C4.11286 8.81765 4.38703 8.89628 4.62502 9.0437C4.35842 9.42731 4.21554 9.8833 4.21554 10.3505C4.21554 10.8176 4.35842 11.2736 4.62502 11.6572C4.38703 11.8046 4.11286 11.8833 3.83292 11.8844C3.63145 11.8844 3.43195 11.8447 3.24583 11.7675C3.05972 11.6903 2.89064 11.5772 2.74827 11.4347C2.6059 11.2921 2.49303 11.1229 2.41611 10.9367C2.33919 10.7505 2.29973 10.5509 2.3 10.3494ZM6.51579 11.8824C6.23585 11.8812 5.96168 11.8026 5.7237 11.6552C5.99029 11.2716 6.13317 10.8156 6.13317 10.3484C6.13317 9.88129 5.99029 9.4253 5.7237 9.04169C5.96168 8.89427 6.23585 8.81564 6.51579 8.81451C6.92248 8.81451 7.31251 8.97607 7.60009 9.26364C7.88766 9.55122 8.04922 9.94125 8.04922 10.3479C8.04922 10.7546 7.88766 11.1447 7.60009 11.4322C7.31251 11.7198 6.92248 11.8814 6.51579 11.8814V11.8824Z" fill="#474747"/>
</svg>
