<svg width="427" height="388" viewBox="0 0 427 388" fill="none" xmlns="http://www.w3.org/2000/svg">
<path d="M199.726 329.932C199.785 329.147 199.895 328.362 199.895 327.577C199.895 287.883 199.888 248.189 199.872 208.494C199.872 207.708 199.772 206.921 199.717 206.135C199.774 193.947 199.879 181.757 199.877 169.568C199.877 156.135 199.777 142.703 199.715 129.27C199.766 116.353 199.816 103.436 199.864 90.5185C199.785 89.5436 199.875 88.5625 200.129 87.6181C202.509 80.4043 207.254 77.995 214.831 78.004C255.882 78.056 296.934 78.0673 337.984 78.038C348.145 78.038 353.115 83.0636 353.171 93.2478C353.21 100.266 353.317 107.282 353.394 114.3C353.32 115.537 353.183 116.774 353.182 118.011C353.171 137.368 353.171 156.725 353.182 176.083C353.194 187.06 353.261 198.035 353.303 209.009C352.012 210.236 350.45 211.144 348.745 211.659C348.678 211.192 348.611 210.725 348.545 210.258C348.555 201.173 348.566 192.087 348.578 183C348.568 178.244 348.559 173.487 348.549 168.73C348.549 151.944 348.546 135.158 348.541 118.372C348.541 115.447 348.543 112.523 348.548 109.6C348.585 103.399 348.726 97.1892 348.626 90.9865C348.649 89.8474 348.44 88.7154 348.01 87.6603C347.58 86.6052 346.938 85.6493 346.125 84.8514C345.311 84.0536 344.343 83.4306 343.28 83.021C342.217 82.6114 341.081 82.4237 339.943 82.4695C326.286 82.3785 312.628 82.5065 298.971 82.5465L290.232 82.5095C265.206 82.4735 240.18 82.4402 215.154 82.4095C207.56 82.4025 204.441 85.5269 204.439 93.1108C204.431 125.262 204.431 157.413 204.439 189.564C204.439 190.579 204.532 191.593 204.581 192.608L204.536 201.386L204.571 217.788C204.574 222.96 204.578 228.131 204.582 233.304C204.573 253.279 204.563 273.254 204.554 293.229C204.554 296.158 204.554 299.087 204.554 302.016C204.517 325.092 204.436 348.168 204.474 371.242C204.482 376.249 207.702 379.727 212.73 379.768C228.338 379.895 243.948 379.737 259.557 379.69C262.05 379.978 264.568 379.968 267.058 379.661C281.438 379.738 295.818 379.837 310.197 379.876C314.266 379.887 318.335 379.719 322.405 379.634C323.905 381.784 327.07 381.792 328.331 384.247C327.316 384.293 326.302 384.377 325.287 384.377C288.495 384.383 251.704 384.383 214.913 384.377C205.052 384.377 199.911 379.203 199.879 369.307C199.834 356.185 199.781 343.064 199.719 329.942" fill="#2A2D33"/>
<path d="M328.341 384.236C327.081 381.78 323.914 381.772 322.416 379.622C319.911 376.588 317.776 373.268 316.056 369.73C314.434 366.614 315.547 361.981 312.091 360.25C308.979 358.691 305.139 358.573 301.614 357.85C300.072 357.532 298.505 357.337 296.973 356.984C295.347 356.609 293.641 356.368 292.378 355.091C292.301 354.514 292.249 353.925 291.609 353.648L291.721 353.748C291.605 353.185 291.635 352.548 290.949 352.283L291.012 352.342C289.837 343.96 291.127 342.47 299.76 342.241C299.874 342.241 299.987 342.23 300.1 342.229C315.164 342.156 330.229 341.929 345.29 342.058C357.401 342.158 369.532 341.768 381.619 342.912C388.737 343.586 396.097 344.127 401.749 348.983C409.082 355.283 417.49 358.518 426.88 359.731L426.99 360.554C410.031 360.585 393.071 360.671 376.113 360.587C373.628 360.575 372.638 361.241 372.093 363.737C370.906 369.877 367.874 375.508 363.402 379.878C361.965 381.322 360.253 382.463 358.366 383.232C356.48 384.001 354.458 384.383 352.421 384.356C344.395 384.29 336.368 384.276 328.342 384.241M353.152 360.648C349.417 360.648 345.671 360.812 341.951 360.591C339.419 360.44 339.411 361.465 340.051 363.312C341.103 366.668 342.87 369.756 345.23 372.363C350.113 377.484 356.553 377.404 361.247 372.175C363.516 369.496 365.234 366.397 366.305 363.053C367.036 361.003 366.362 360.538 364.359 360.61C360.628 360.743 356.889 360.648 353.157 360.648" fill="#121212"/>
<path d="M159.978 313.998C169.836 313.858 169.685 315.781 169.611 324.2C169.594 326.108 169.695 328.017 169.742 329.925C169.694 344.613 169.647 359.301 169.6 373.989C169.584 379.252 169.249 379.597 164.083 379.602L150.856 379.612C150.821 378.817 150.597 378.041 150.203 377.35C149.81 376.658 149.257 376.07 148.59 375.635C148.097 375.371 147.694 374.965 147.434 374.469C147.175 373.973 147.071 373.41 147.136 372.854C147.209 353.301 147.265 333.747 147.305 314.194L156.642 313.994L159.977 314.003" fill="black"/>
<path d="M87.3421 329.939C86.832 320.967 85.3669 312.065 85.3879 303.054L96.2892 303.025C96.3018 311.993 96.3145 320.961 96.3271 329.928C96.3031 337.72 96.3382 345.512 96.2372 353.303C96.1611 359.278 96.6242 365.264 95.9191 371.228C94.501 370.889 92.7657 372.085 91.6386 370.343C89.5384 366.162 90.1494 361.518 89.6064 357.11C88.4962 348.096 88.0562 338.999 87.3391 329.937" fill="#D2D2D2"/>
<path d="M150.58 381.431C151.713 382.845 153.299 382.266 154.701 382.304C160.68 382.465 166.641 383.014 172.549 383.947C164.234 388.003 68.3708 388.225 55.2623 384.161C66.9367 382.233 78.7331 381.933 90.5464 381.853C90.4394 382.654 89.2993 383.484 90.0634 384.133C90.8515 384.803 91.9756 384.304 92.7737 383.665C93.5348 383.056 94.1959 382.326 94.9019 381.649H101.049C101.114 382.419 101.177 383.191 101.275 384.377C103.703 378.681 103.76 378.622 107.983 382.636C110.142 384.688 112.699 384.609 115.238 384.291C117.645 383.991 115.568 383.103 115.3 382.469C116.208 381.234 117.545 381.669 118.72 381.662C126.342 381.604 133.965 381.596 141.586 381.572C144.918 385.373 147.453 385.337 150.58 381.432" fill="#DAEBEF"/>
<path d="M150.58 381.431C147.453 385.332 144.918 385.376 141.586 381.571C140.775 378.971 141.444 376.871 143.803 375.462C144.242 375.218 144.599 374.849 144.829 374.402C145.058 373.955 145.149 373.45 145.091 372.951C145.001 358.606 144.931 344.261 144.879 329.916C144.946 318.953 144.861 307.986 145.121 297.027C145.449 283.247 143.955 269.506 144.456 255.736C144.503 254.423 143.056 251.896 146.162 251.978C148.906 252.051 147.709 254.331 147.718 255.615C147.83 273.907 146.591 292.184 147.084 310.482C147.117 311.72 147.23 312.955 147.304 314.192C147.254 333.745 147.198 353.299 147.135 372.852C147.07 373.408 147.174 373.971 147.433 374.467C147.693 374.963 148.096 375.369 148.59 375.633C149.257 376.068 149.81 376.656 150.203 377.348C150.597 378.039 150.821 378.815 150.855 379.61C150.763 380.217 150.672 380.825 150.58 381.432" fill="#2A2D33"/>
<path d="M94.902 381.653C94.1969 382.329 93.5348 383.06 92.7747 383.668C91.9746 384.307 90.8515 384.806 90.0634 384.137C89.2993 383.488 90.4395 382.655 90.5465 381.856C91.6196 379.491 91.2646 377.009 91.0986 374.556C90.9986 373.103 90.7885 371.666 91.6416 370.35C92.7697 372.09 94.505 370.895 95.9221 371.234C96.5222 374.8 95.5961 378.216 94.902 381.654" fill="#2A2D33"/>
<path d="M0.743068 0.815975C0.910087 0.715963 0.659077 0.906974 0.375044 1.00399C0.299035 1.02999 0.127015 0.771973 0 0.643958C0.212625 0.437299 0.441742 0.248315 0.685077 0.0788894C1.00411 -0.111133 1.11311 0.00788065 0.743068 0.815975Z" fill="#D9EAEE"/>
<path d="M426.877 359.725C417.487 358.512 409.075 355.278 401.746 348.977C396.094 344.12 388.734 343.576 381.616 342.906C369.529 341.762 357.399 342.153 345.287 342.052C330.225 341.927 315.161 342.152 300.098 342.223C299.984 342.223 299.871 342.231 299.758 342.235C291.125 342.467 289.834 343.957 291.01 352.336C289.391 351.336 289.618 349.68 289.496 348.135C289.123 343.381 291.569 338.943 291.055 334.176C294.812 333.782 298.626 334.792 302.568 333.969C302.211 332.97 301.536 332.116 300.646 331.538C299.756 330.96 298.702 330.689 297.644 330.768C295.284 330.78 292.926 330.776 290.567 330.778C290.159 322.383 289.036 313.958 293.261 306.006C295.375 302.272 296.682 298.136 297.1 293.866C301.731 295.347 306.698 295.42 311.371 294.076C316.044 292.732 320.213 290.031 323.351 286.316C323.691 285.901 324.263 285.555 324.007 284.894C323.737 284.194 323.066 284.401 322.551 284.394C319.73 284.373 316.867 284.703 314.098 284.331C309.36 283.693 304.406 283.288 301.109 279.015C301.693 277.726 301.935 276.309 301.812 274.899C301.69 273.49 301.206 272.135 300.409 270.966C297.317 265.966 294.33 260.876 291.608 255.665C290.329 253.209 289.208 253.019 286.944 254.344C272.581 262.752 258.177 271.089 243.73 279.354C241.804 280.455 241.571 281.601 242.466 283.494C250.389 300.262 255.252 318.035 259.589 335.976C263.069 350.365 265.99 364.85 267.065 379.652C264.575 379.959 262.057 379.968 259.564 379.681C259.303 376.758 259.181 373.812 258.755 370.914C256.464 355.613 253.263 340.462 249.17 325.542C245.791 313.089 242.015 300.76 236.687 288.975C234.719 284.624 234.6 284.662 230.438 287.062C221.809 292.036 213.184 297.017 204.563 302.005C204.563 299.076 204.563 296.147 204.563 293.217C212.301 288.774 219.985 284.233 227.81 279.946C230.11 278.686 230.679 277.673 229.268 275.308C224.523 267.356 219.989 259.28 215.306 251.291C211.776 245.267 208.661 238.99 204.591 233.289C204.587 228.117 204.583 222.945 204.58 217.773C204.809 218.02 205.018 218.284 205.207 218.562C215.499 236.384 225.775 254.214 236.035 272.054C237.036 273.799 237.704 274.176 239.62 273.054C254.151 264.519 268.742 256.089 283.392 247.764C285.613 246.504 285.592 245.414 284.484 243.521C280.826 237.277 277.264 230.976 273.65 224.705C265.066 209.814 256.483 194.922 247.901 180.03C246.908 178.302 245.99 177.65 243.983 178.87C237.702 182.685 231.353 186.389 224.936 189.981C218.144 193.789 211.665 198.158 204.545 201.382C204.56 198.456 204.576 195.53 204.591 192.603C205.915 191.982 207.291 191.456 208.554 190.727C220.889 183.593 233.215 176.441 245.533 169.272C245.963 169.634 246.348 170.047 246.68 170.501C248.06 172.941 249.18 173.001 250.836 170.56C252.858 167.58 255.296 164.882 257.552 162.059L258.246 161.224L258.224 161.254C259.016 161.327 259.809 161.129 260.472 160.692C278.38 150.301 296.298 139.929 314.228 129.575C315.657 128.75 316.165 128.146 315.162 126.457C310.828 119.164 306.599 111.811 302.474 104.397C298.399 97.0962 293.836 90.0723 290.24 82.5074L298.979 82.5455C299.047 82.8758 299.149 83.1979 299.285 83.5066C306.726 96.5594 314.169 109.612 321.614 122.663C322.614 124.429 323.614 124.217 325.156 123.295C332.918 118.667 340.749 114.153 348.559 109.6C348.559 112.523 348.556 115.447 348.552 118.371C342.111 122.104 335.669 125.835 329.224 129.563C327.439 130.591 326.645 131.433 328.024 133.723C335.001 145.312 341.739 157.045 348.56 168.728C348.569 173.484 348.579 178.241 348.589 182.998C347.571 182.272 346.773 181.28 346.281 180.13C338.112 166.042 329.889 151.986 321.792 137.856C320.452 135.52 319.361 135.292 317.037 136.689C308.796 141.638 300.396 146.324 292.07 151.13C280.117 158.03 268.169 164.936 256.225 171.848C254.318 172.948 252.909 173.848 254.525 176.498C258.59 183.156 262.398 189.974 266.22 196.776C267.296 198.691 268.32 198.463 269.979 197.483C277.38 193.107 284.894 188.927 292.289 184.543C294.819 183.043 296.603 183.662 298.02 185.91C299.347 188.01 300.508 190.219 301.733 192.384C303.917 196.248 303.545 197.485 299.743 199.663C292.381 203.878 285.062 208.164 277.682 212.352C276.304 213.132 275.952 213.698 276.897 215.179C278.781 218.132 280.432 221.235 282.136 224.3C285.479 230.312 289.343 236.031 292.228 242.302C289.643 241.902 289.083 239.567 288.055 237.783C276.527 217.79 265.033 197.778 253.571 177.747C252.736 176.291 251.84 174.723 249.954 175.905C248.297 176.943 249.131 178.422 249.912 179.766C252.641 184.459 255.326 189.177 258.024 193.887C267.075 209.689 276.128 225.493 285.182 241.299C288.683 247.4 293.565 248.647 299.738 245.118C301.899 243.883 304.05 242.632 306.21 241.393C320.338 233.286 334.467 225.18 348.597 217.075C348.597 217.519 348.594 217.962 348.589 218.405C341.845 223.206 334.429 226.886 327.326 231.087C318.072 236.559 308.714 241.857 299.368 247.173C297.389 248.299 296.53 249.373 297.946 251.682C301.253 257.083 304.339 262.623 307.499 268.116C308.146 269.241 308.837 270.339 310.354 270.033C314.206 269.259 318.205 269.254 321.823 267.298C330.788 262.45 339.825 257.746 348.841 252.984C350.415 252.178 352.325 251.953 353.424 250.329C355.394 249.904 357.296 249.212 359.078 248.273C363.889 246.167 368.653 243.884 373.78 242.64C375.729 242.167 378.065 241.82 378.68 244.815C363.747 250.592 349.789 258.451 335.187 265.088C340.535 265.188 345.795 264.797 351.06 264.726C373.375 264.426 395.689 264.178 418.005 263.984C421.071 263.953 424.121 263.893 427 262.643C426.949 267.468 426.898 272.292 426.848 277.116C419.247 275.541 411.665 274.947 403.997 276.904C396.31 278.789 388.533 280.282 380.694 281.379C376.221 282.047 371.741 282.679 367.28 283.42C366.006 283.632 363.897 284.147 365.62 285.86C369.727 289.943 373.521 294.508 380.405 294.161C395.892 293.388 411.398 292.995 426.895 292.447L426.885 359.723M341.581 302.069H355.832C363.498 302.069 363.497 302.069 364.443 294.493C364.485 294.159 364.573 293.83 364.643 293.493C365.401 289.559 365.083 289.142 361.098 289.136C350.579 289.121 340.06 289.121 329.542 289.136C321.768 289.136 321.774 289.136 320.769 296.736C320.669 297.515 320.38 298.268 320.243 299.045C319.869 301.158 320.568 302.145 322.924 302.104C329.142 301.988 335.364 302.065 341.586 302.067M372.761 333.896C373.562 334.105 374.378 334.247 375.203 334.318C388.243 334.268 401.282 334.202 414.321 334.118C415.687 334.072 417.018 333.682 418.192 332.983C418.778 332.663 419.561 332.343 419.492 331.566C419.384 330.43 418.336 330.656 417.623 330.658C404.356 330.715 391.089 330.758 377.818 330.938C375.838 330.965 373.761 331.465 372.761 333.896" fill="#FEFEFD"/>
<path d="M378.678 244.813C394.432 240.081 410.682 238.619 426.984 237.473C426.989 245.863 426.995 254.252 427 262.641C424.121 263.892 421.07 263.951 417.999 263.983C395.684 264.211 373.37 264.458 351.055 264.724C345.79 264.795 340.53 265.182 335.181 265.086C349.783 258.449 363.742 250.589 378.674 244.813" fill="#2A2D33"/>
<path d="M355.935 212.65C354.972 213.21 353.841 213.55 353.207 214.586C351.489 215.024 349.905 215.878 348.593 217.071C334.464 225.177 320.335 233.283 306.206 241.389C304.048 242.628 301.896 243.879 299.735 245.114C293.562 248.642 288.681 247.391 285.18 241.295C276.112 225.501 267.059 209.697 258.021 193.883C255.321 189.172 252.637 184.454 249.909 179.762C249.127 178.418 248.293 176.939 249.951 175.901C251.837 174.72 252.733 176.287 253.567 177.744C265.043 197.766 276.538 217.778 288.051 237.779C289.079 239.564 289.641 241.901 292.225 242.299L292.199 242.217C294.007 243.682 295.613 242.625 297.162 241.741C303.649 238.04 310.12 234.311 316.576 230.554C327.314 224.277 338.04 217.976 348.751 211.651C350.457 211.136 352.017 210.229 353.309 209.002" fill="#828282"/>
<path d="M65.6675 227.278C65.5835 223.829 67.2307 220.815 68.1678 217.632C70.8351 208.549 73.6544 199.51 76.4137 190.454C77.198 187.866 78.1187 185.321 79.1721 182.83C80.8282 179.377 83.1905 178.939 86.0009 181.166C87.5626 182.491 89.442 183.387 91.4545 183.766C93.07 186.084 94.6855 188.402 96.3011 190.721C99.7195 195.642 104.502 197.581 110.378 197.295C114.778 197.081 117.109 194.737 117.47 190.294C117.786 186.407 116.529 182.693 116.469 178.857C118.337 178.676 120.22 178.976 121.938 179.729C122.789 180.774 123.723 181.762 124.479 182.871C131.605 193.351 139.371 203.38 147.732 212.903C146.941 215.316 143.332 215.303 143.14 218.227C137.651 213.804 133.332 208.214 128.303 203.333C127.332 202.39 126.432 201.375 125.01 199.881C125.71 204.282 123.635 206.953 120.854 209.108C118.817 210.686 119.162 212.634 119.506 214.638C121.826 228.13 124.163 241.62 126.516 255.107C129.106 270.044 131.653 284.988 134.324 299.912C134.767 302.387 134.061 303.029 131.639 302.912C128.484 302.76 125.308 303.001 122.138 303.073L110.548 303.004L96.2931 303.029L85.3918 303.058C81.9744 303.395 81.2913 301.667 81.2243 298.524C81.0403 289.942 80.6002 281.357 79.9682 272.795C79.0831 260.783 80.0332 249.118 85.3958 238.112C87.12 235.392 88.7472 232.635 88.8112 229.275C94.2348 227.738 99.6244 226.198 105.313 228.25C109.084 229.611 112.396 228.185 115.403 225.95C117.004 224.759 116.631 223.996 114.728 223.811L117.701 218.075C113.411 217.123 109.3 216.102 107.114 221.181C106.114 221.197 104.895 220.845 104.159 221.291C99.3924 224.182 93.9768 223.656 88.8152 224.449C87.5857 215.465 86.3563 206.482 85.1268 197.498L84.5947 197.335L73.7834 225.168C71.2391 226.484 68.0388 225.284 65.6715 227.28" fill="#D2D2D2"/>
<path d="M116.747 329.931C113.742 343.81 110.736 357.689 107.73 371.568C106.014 371.112 104.21 371.101 102.489 371.535C104.043 357.661 106.363 343.873 107.228 329.919C108.791 321.003 109.869 312.027 110.547 303.001L122.137 303.07C121.903 308.697 119.948 313.985 118.918 319.457C118.259 322.958 117.475 326.441 116.747 329.931Z" fill="#D2D2D2"/>
<path d="M147.729 212.901C153.422 209.851 158.299 205.632 163.445 201.814C167.607 198.727 172.039 196 175.846 192.407C176.557 191.68 177.434 191.137 178.402 190.823C179.369 190.509 180.398 190.435 181.4 190.607C180.8 191.155 179.938 191.593 179.944 192.019C179.957 192.987 181.007 193.033 181.736 193.134C184.66 193.539 186.348 191.063 188.899 190.246C187.882 192.808 186.205 195.454 183.507 195.622C178.007 195.964 173.938 198.606 170.278 202.194C166.091 206.295 161.162 209.619 157.526 214.296C155.537 215.952 153.532 217.59 151.562 219.269C148.216 222.12 145.847 221.836 143.141 218.225C143.333 215.297 146.941 215.314 147.732 212.902" fill="#D2D2D2"/>
<path d="M159.977 313.999L156.643 313.99C156.643 312.096 156.693 310.202 156.643 308.311C156.609 307.091 156.949 306.447 158.322 306.478C159.636 306.507 160.074 307.067 160.023 308.321C159.951 310.211 159.987 312.106 159.977 313.999Z" fill="#2A2D33"/>
<path d="M348.558 168.728C341.738 157.045 335 145.312 328.023 133.724C326.644 131.433 327.438 130.59 329.223 129.563C335.677 125.851 342.119 122.12 348.55 118.371C348.55 135.157 348.553 151.943 348.558 168.73" fill="#B1DEE5"/>
<path d="M292.205 242.216C297.906 239.942 302.894 236.356 308.199 233.361C321.696 225.738 335.108 217.967 348.554 210.258C348.62 210.725 348.687 211.192 348.754 211.659C338.03 217.961 327.305 224.262 316.578 230.561C310.13 234.329 303.659 238.058 297.165 241.748C295.616 242.631 294.009 243.689 292.201 242.224" fill="#FEFEFD"/>
<path d="M353.148 360.641C356.883 360.641 360.623 360.741 364.349 360.603C366.35 360.531 367.027 360.996 366.296 363.045C365.225 366.388 363.507 369.488 361.238 372.167C356.543 377.396 350.104 377.476 345.221 372.355C342.861 369.748 341.094 366.661 340.042 363.305C339.4 361.458 339.407 360.433 341.942 360.583C345.665 360.804 349.411 360.64 353.143 360.64" fill="#FEFEFD"/>
<path d="M291.718 353.743C290.985 353.505 291.006 352.869 290.947 352.278C291.632 352.541 291.603 353.178 291.718 353.743Z" fill="#FEFEFD"/>
<path d="M292.375 355.086C291.745 354.804 291.693 354.214 291.606 353.643C292.246 353.919 292.298 354.509 292.375 355.086Z" fill="#FEFEFD"/>
<path d="M101.05 381.644C101.53 378.274 102.01 374.903 102.49 371.531C104.211 371.097 106.015 371.108 107.731 371.563C108.249 376.589 109.715 380.955 115.301 382.464C115.568 383.098 117.645 383.984 115.239 384.286C112.699 384.605 110.138 384.686 107.983 382.63C103.76 378.617 103.704 378.677 101.275 384.373C101.175 383.187 101.114 382.415 101.05 381.643" fill="#2A2D33"/>
<path d="M115.31 146.966C119.249 150.576 120.845 154.728 118.446 159.902C117.736 161.434 119.282 161.713 120.091 162.363C125.358 166.59 126.845 171.738 124.346 177.175C123.835 178.287 123.424 179.526 121.933 179.726C120.215 178.973 118.333 178.673 116.466 178.854C107.165 178.974 107.665 179.566 106.845 173.106C106.932 172.121 107.018 171.136 107.104 170.15C112.197 165.015 112.424 158.77 111.204 152.195C110.963 150.894 110.404 150.194 109.24 151.409C107.14 153.609 104.418 154.109 101.6 154.626C98.2285 155.248 97.3915 156.862 98.0635 160.198C98.8246 163.97 101.185 166.891 103.056 170.079C103.749 171.26 104.042 172.633 103.892 173.994C102.637 181.542 99.6067 184.334 91.4538 183.766C89.4409 183.387 87.5612 182.491 85.9991 181.166C83.1898 178.939 80.8265 179.377 79.1703 182.83C78.1161 185.321 77.1951 187.866 76.411 190.455C69.7842 184.754 70.0753 176.179 77.3371 171.238C79.2993 169.903 80.1284 168.691 79.9964 166.393C79.8825 165.091 80.1525 163.784 80.7732 162.633C81.3938 161.483 82.3379 160.539 83.4888 159.92C85.209 158.849 87.6133 158.319 88.1553 155.819C90.0456 154.439 89.7266 152.203 90.2556 150.311C93.0099 140.41 100.534 138.104 108.168 141.357C109.465 141.837 110.519 142.811 111.1 144.067C111.9 146.067 113.487 146.612 115.312 146.962" fill="black"/>
<path d="M65.6678 227.278C68.0351 225.278 71.2354 226.478 73.7797 225.166C78.8253 225.652 83.7809 224.366 88.8115 224.447C93.9731 223.654 99.3887 224.18 104.155 221.289C104.891 220.842 106.114 221.195 107.112 221.179C106.53 222.965 107.485 223.652 109.056 223.73C110.942 223.823 112.834 223.789 114.725 223.809C116.625 223.994 117.005 224.757 115.4 225.948C112.391 228.181 109.08 229.606 105.309 228.249C99.6227 226.196 94.2331 227.736 88.8075 229.273C82.1067 230.427 75.406 231.546 68.7202 232.76C67.278 233.022 65.6908 233.771 64.7487 232.248C64.3041 231.596 64.0872 230.816 64.1319 230.028C64.1765 229.24 64.4803 228.489 64.9957 227.892C65.4528 227.879 65.6218 227.581 65.6958 227.191L65.6678 227.278Z" fill="#D2D2D2"/>
<path d="M65.6925 227.184C65.6225 227.579 65.4535 227.876 64.9924 227.884C65.1525 227.578 64.9715 226.936 65.6925 227.184Z" fill="#2A2D33"/>
<path d="M290.238 82.5055C293.838 90.0704 298.396 97.0972 302.472 104.395C306.606 111.801 310.835 119.154 315.16 126.455C316.16 128.144 315.66 128.748 314.226 129.573C296.29 139.916 278.372 150.288 260.47 160.69C259.806 161.126 259.014 161.324 258.222 161.251C259.36 158.884 261.188 157.01 262.763 154.96C264.504 152.784 265.703 150.226 266.262 147.496C266.821 144.767 266.724 141.943 265.978 139.258C265.061 135.787 263.124 132.672 260.416 130.315C257.708 127.958 254.355 126.469 250.791 126.04C247.279 125.641 243.728 126.292 240.585 127.909C237.442 129.526 234.848 132.037 233.13 135.126C231.412 138.214 230.647 141.743 230.931 145.266C231.214 148.789 232.535 152.149 234.726 154.923C238.359 159.68 241.932 164.482 245.527 169.265C233.204 176.421 220.878 183.573 208.548 190.72C207.287 191.449 205.909 191.975 204.585 192.596C204.536 191.582 204.444 190.567 204.443 189.553C204.436 157.402 204.436 125.251 204.443 93.0998C204.443 85.5179 207.564 82.3985 215.158 82.3985C240.184 82.4219 265.209 82.4552 290.235 82.4985" fill="#F4F5F6"/>
<path d="M292.227 242.297C289.342 236.029 285.479 230.31 282.136 224.295C280.436 221.229 278.78 218.127 276.897 215.174C275.952 213.692 276.305 213.126 277.682 212.345C285.061 208.163 292.383 203.872 299.742 199.658C303.543 197.482 303.918 196.243 301.732 192.379C300.507 190.213 299.345 188.007 298.019 185.903C296.602 183.656 294.819 183.037 292.288 184.538C284.893 188.922 277.379 193.102 269.979 197.478C268.321 198.459 267.294 198.686 266.218 196.771C262.397 189.97 258.588 183.151 254.523 176.493C252.904 173.841 254.313 172.942 256.223 171.843C268.178 164.95 280.127 158.044 292.067 151.125C300.394 146.319 308.793 141.633 317.034 136.683C319.36 135.282 320.451 135.513 321.79 137.851C329.886 151.98 338.11 166.036 346.28 180.125C346.77 181.274 347.568 182.266 348.586 182.992C348.575 192.079 348.564 201.165 348.553 210.251C335.106 217.962 321.694 225.733 308.198 233.354C302.898 236.354 297.91 239.936 292.204 242.209L292.227 242.297Z" fill="#F4F5F6"/>
<path d="M267.067 379.649C265.996 364.847 263.067 350.363 259.591 335.974C255.254 318.033 250.39 300.26 242.468 283.491C241.573 281.597 241.807 280.455 243.733 279.351C258.174 271.078 272.578 262.741 286.947 254.341C289.211 253.015 290.331 253.206 291.61 255.662C294.329 260.876 297.311 265.963 300.411 270.963C301.209 272.132 301.692 273.487 301.815 274.896C301.937 276.306 301.695 277.723 301.111 279.012C295.832 280.913 293.97 287.808 297.102 293.862C296.684 298.132 295.376 302.267 293.263 306.001C289.037 313.953 290.163 322.378 290.563 330.774C290.214 331.983 289.844 333.193 291.053 334.175C291.568 338.943 289.122 343.376 289.494 348.135C289.615 349.68 289.394 351.336 291.008 352.336L290.945 352.276C291.005 352.868 290.983 353.503 291.716 353.741L291.604 353.641C291.69 354.212 291.743 354.802 292.373 355.084C293.636 356.361 295.342 356.602 296.968 356.977C298.5 357.33 300.068 357.526 301.609 357.844C305.134 358.571 308.974 358.688 312.087 360.244C315.542 361.976 314.429 366.608 316.051 369.724C317.771 373.262 319.906 376.582 322.411 379.616C318.341 379.702 314.273 379.869 310.203 379.858C295.823 379.82 281.444 379.72 267.064 379.643" fill="#F4F5F6"/>
<path d="M204.545 201.377C211.665 198.157 218.146 193.788 224.935 189.976C231.345 186.38 237.695 182.676 243.983 178.865C245.99 177.646 246.909 178.297 247.901 180.025C256.463 194.929 265.045 209.82 273.649 224.7C277.263 230.97 280.826 237.27 284.483 243.515C285.592 245.408 285.612 246.498 283.392 247.758C268.736 256.074 254.146 264.504 239.62 273.047C237.705 274.172 237.037 273.795 236.037 272.047C225.807 254.19 215.531 236.36 205.208 218.556C205.019 218.278 204.809 218.014 204.58 217.767L204.545 201.365" fill="#F4F5F6"/>
<path d="M204.568 302.005C213.192 297.023 221.817 292.043 230.443 287.063C234.606 284.663 234.724 284.624 236.692 288.976C242.02 300.761 245.793 313.089 249.175 325.543C253.268 340.462 256.469 355.611 258.76 370.911C259.186 373.811 259.307 376.755 259.569 379.678C243.96 379.725 228.351 379.878 212.743 379.756C207.715 379.715 204.495 376.238 204.487 371.23C204.448 348.154 204.529 325.08 204.567 302.004" fill="#F4F5F6"/>
<path d="M348.554 109.598C340.747 114.151 332.916 118.666 325.151 123.293C323.605 124.215 322.612 124.427 321.608 122.661C314.188 109.597 306.745 96.5452 299.28 83.5057C299.145 83.1969 299.042 82.8748 298.974 82.5446C312.63 82.5036 326.289 82.3765 339.946 82.4675C341.084 82.4215 342.22 82.6091 343.283 83.0187C344.347 83.4283 345.315 84.0512 346.128 84.8491C346.942 85.647 347.583 86.603 348.013 87.6581C348.443 88.7133 348.653 89.8454 348.629 90.9845C348.729 97.1853 348.588 103.394 348.551 109.599" fill="#F4F5F6"/>
<path d="M204.59 233.291C208.661 238.992 211.775 245.266 215.305 251.293C219.987 259.282 224.522 267.358 229.267 275.31C230.679 277.675 230.111 278.687 227.809 279.948C219.985 284.235 212.3 288.775 204.562 293.22C204.571 273.244 204.581 253.269 204.59 233.294" fill="#F4F5F6"/>
<path d="M348.84 252.982C339.829 257.744 330.787 262.45 321.822 267.297C318.204 269.253 314.206 269.257 310.354 270.032C308.836 270.337 308.145 269.239 307.499 268.114C304.339 262.622 301.253 257.083 297.945 251.679C296.529 249.367 297.388 248.296 299.367 247.171C308.713 241.855 318.069 236.558 327.326 231.085C334.427 226.884 341.845 223.205 348.588 218.402C348.672 229.928 348.757 241.455 348.841 252.983" fill="#F4F5F6"/>
<path d="M245.532 169.267C241.931 164.485 238.359 159.683 234.725 154.925C233.067 152.845 231.893 150.421 231.291 147.83C230.689 145.239 230.673 142.545 231.244 139.947C231.816 137.349 232.96 134.911 234.594 132.812C236.228 130.712 238.31 129.004 240.688 127.812C243.067 126.62 245.681 125.974 248.341 125.922C251.001 125.869 253.639 126.411 256.062 127.508C258.486 128.605 260.634 130.23 262.35 132.263C264.065 134.296 265.305 136.687 265.979 139.26C266.724 141.945 266.822 144.769 266.263 147.499C265.703 150.229 264.504 152.787 262.763 154.962C261.188 157.012 259.362 158.887 258.223 161.253L258.244 161.224L257.55 162.06C255.293 164.88 252.857 167.579 250.834 170.561C249.179 172.999 248.058 172.942 246.678 170.502C246.345 170.048 245.96 169.636 245.531 169.273M258.965 143.978C258.991 142.615 258.744 141.261 258.24 139.995C257.735 138.729 256.983 137.576 256.027 136.605C255.07 135.633 253.93 134.863 252.672 134.338C251.414 133.813 250.064 133.545 248.701 133.55C246.667 133.542 244.677 134.137 242.981 135.259C241.285 136.381 239.959 137.98 239.17 139.854C238.381 141.728 238.165 143.794 238.548 145.791C238.931 147.789 239.897 149.628 241.323 151.077C242.75 152.526 244.573 153.521 246.564 153.935C248.555 154.35 250.624 154.166 252.51 153.407C254.397 152.648 256.016 151.348 257.165 149.67C258.314 147.992 258.94 146.011 258.965 143.978Z" fill="#3422F2"/>
<path d="M341.582 302.069C335.361 302.069 329.139 301.991 322.921 302.107C320.564 302.151 319.865 301.162 320.24 299.048C320.378 298.272 320.663 297.519 320.766 296.74C321.766 289.139 321.766 289.139 329.539 289.139C340.058 289.139 350.576 289.14 361.095 289.144C365.08 289.149 365.396 289.567 364.64 293.501C364.576 293.833 364.485 294.162 364.439 294.501C363.494 302.077 363.495 302.077 355.828 302.077H341.578" fill="#CADFE4"/>
<path d="M348.84 252.982C348.756 241.455 348.672 229.928 348.587 218.402L348.596 217.072C349.906 215.879 351.49 215.026 353.207 214.587C353.278 226.499 353.35 238.413 353.422 250.328C352.322 251.952 350.412 252.177 348.839 252.983" fill="#2A2D33"/>
<path d="M426.887 292.449C411.385 292.996 395.883 293.389 380.396 294.163C373.507 294.507 369.717 289.941 365.611 285.862C363.888 284.149 365.997 283.634 367.271 283.422C371.732 282.68 376.212 282.049 380.684 281.38C388.523 280.284 396.3 278.791 403.987 276.906C411.656 274.949 419.236 275.543 426.839 277.117C426.852 282.229 426.867 287.341 426.883 292.452" fill="#3422F2"/>
<path d="M297.1 293.865C293.968 287.811 295.829 280.917 301.109 279.015C304.409 283.288 309.361 283.694 314.098 284.331C316.868 284.704 319.73 284.374 322.552 284.395C323.066 284.395 323.738 284.195 324.007 284.895C324.264 285.556 323.69 285.902 323.351 286.317C320.214 290.032 316.045 292.733 311.372 294.077C306.699 295.421 301.732 295.349 297.101 293.868" fill="#3422F2"/>
<path d="M372.759 333.898C373.759 331.466 375.836 330.966 377.816 330.94C391.082 330.763 404.349 330.717 417.621 330.66C418.333 330.66 419.382 330.432 419.49 331.568C419.563 332.345 418.78 332.669 418.19 332.985C417.016 333.684 415.685 334.074 414.319 334.12C401.28 334.186 388.24 334.253 375.201 334.32C374.377 334.249 373.56 334.107 372.76 333.898" fill="#3422F2"/>
<path d="M291.055 334.177C289.846 333.196 290.216 331.985 290.565 330.776C292.927 330.776 295.285 330.776 297.644 330.765C298.702 330.687 299.756 330.957 300.646 331.535C301.535 332.113 302.211 332.967 302.568 333.966C298.625 334.789 294.812 333.779 291.054 334.173" fill="#3422F2"/>
<path d="M257.55 162.057L258.243 161.222L257.55 162.057Z" fill="#B1DEE5"/>
<path d="M106.841 173.105C107.661 179.567 107.167 178.975 116.463 178.855C116.524 182.689 117.78 186.404 117.463 190.291C117.102 194.736 114.769 197.082 110.37 197.292C104.495 197.577 99.7127 195.638 96.2943 190.718C94.6815 188.397 93.0656 186.079 91.4467 183.763C99.5997 184.331 102.63 181.539 103.885 173.991L106.839 173.102" fill="white"/>
<path d="M114.723 223.81C112.833 223.79 110.941 223.824 109.055 223.731C107.483 223.653 106.528 222.966 107.11 221.18C109.298 216.101 113.411 217.123 117.696 218.074L114.723 223.81Z" fill="#FEFEFD"/>
<path d="M103.055 170.08C101.183 166.892 98.8224 163.971 98.0633 160.199C97.3912 156.863 98.2263 155.248 101.599 154.626C104.417 154.106 107.14 153.605 109.239 151.409C110.397 150.196 110.961 150.895 111.203 152.195C112.425 158.771 112.197 165.015 107.102 170.15C105.747 170.392 104.418 169.221 103.053 170.079" fill="white"/>
<path d="M103.054 170.079C104.419 169.221 105.748 170.392 107.103 170.15C107.017 171.135 106.93 172.12 106.844 173.105C105.858 173.4 104.873 173.697 103.889 173.994C104.039 172.633 103.746 171.26 103.054 170.079Z" fill="#2ECB70"/>
<path d="M258.967 143.973C258.929 145.986 258.297 147.944 257.151 149.601C256.004 151.257 254.395 152.538 252.524 153.284C250.653 154.029 248.603 154.206 246.632 153.792C244.661 153.378 242.855 152.391 241.443 150.956C240.03 149.52 239.072 147.7 238.689 145.722C238.306 143.745 238.515 141.698 239.291 139.839C240.066 137.98 241.372 136.391 243.047 135.271C244.721 134.152 246.689 133.551 248.703 133.544C250.063 133.548 251.41 133.822 252.664 134.349C253.918 134.877 255.056 135.648 256.01 136.617C256.965 137.587 257.717 138.736 258.225 139.999C258.733 141.261 258.985 142.612 258.967 143.973Z" fill="#FEFEFD"/>
</svg>
