<svg width="102" height="14" viewBox="0 0 102 14" fill="none" xmlns="http://www.w3.org/2000/svg">
<path d="M71 14C74.866 14 78 10.866 78 7C78 3.13401 74.866 0 71 0C67.134 0 64 3.13401 64 7C64 10.866 67.134 14 71 14Z" fill="white"/>
<path d="M71 13.5C74.5899 13.5 77.5 10.5899 77.5 7C77.5 3.41015 74.5899 0.5 71 0.5C67.4101 0.5 64.5 3.41015 64.5 7C64.5 10.5899 67.4101 13.5 71 13.5Z" stroke="#707070"/>
<path d="M95 14C98.866 14 102 10.866 102 7C102 3.13401 98.866 0 95 0C91.134 0 88 3.13401 88 7C88 10.866 91.134 14 95 14Z" fill="white"/>
<path d="M95 13.5C98.5899 13.5 101.5 10.5899 101.5 7C101.5 3.41015 98.5899 0.5 95 0.5C91.4101 0.5 88.5 3.41015 88.5 7C88.5 10.5899 91.4101 13.5 95 13.5Z" stroke="#707070"/>
<path d="M49 0H7C3.13401 0 0 3.13401 0 7C0 10.866 3.13401 14 7 14H49C52.866 14 56 10.866 56 7C56 3.13401 52.866 0 49 0Z" fill="#B5B5B5"/>
<path d="M49 0.5H7C3.41015 0.5 0.5 3.41015 0.5 7C0.5 10.5899 3.41015 13.5 7 13.5H49C52.5899 13.5 55.5 10.5899 55.5 7C55.5 3.41015 52.5899 0.5 49 0.5Z" stroke="#707070"/>
</svg>
