<svg width="12" height="27" viewBox="0 0 12 27" fill="none" xmlns="http://www.w3.org/2000/svg">
<path d="M11.3601 6.39854C11.2767 6.39854 11.1941 6.41497 11.1171 6.44689C11.04 6.4788 10.97 6.5256 10.911 6.58458C10.8521 6.64355 10.8053 6.71357 10.7734 6.79062C10.7415 6.86768 10.725 6.95027 10.725 7.03367V12.7971C10.611 13.9721 10.0637 15.0624 9.18957 15.8558C8.31548 16.6492 7.17731 17.0887 5.99685 17.0887C4.81639 17.0887 3.67823 16.6492 2.80414 15.8558C1.93005 15.0624 1.38265 13.9721 1.26865 12.7971V7.03367C1.27474 6.94674 1.26288 6.8595 1.2338 6.77736C1.20471 6.69521 1.15903 6.61991 1.0996 6.55618C1.04018 6.49245 0.968268 6.44164 0.888358 6.40689C0.808448 6.37215 0.722239 6.35423 0.635102 6.35423C0.547964 6.35423 0.461755 6.37215 0.381845 6.40689C0.301935 6.44164 0.230025 6.49245 0.170598 6.55618C0.111172 6.61991 0.0654908 6.69521 0.0364062 6.77736C0.00732172 6.8595 -0.00453189 6.94674 0.00155038 7.03367V12.7971C0.0586724 14.213 0.638258 15.5575 1.62843 16.5711C2.6186 17.5847 3.94915 18.1956 5.36327 18.2859V24.7443H3.00152C2.71818 24.7443 2.44645 24.8569 2.2461 25.0572C2.04575 25.2576 1.93321 25.5293 1.93321 25.8126C1.93321 26.096 2.04575 26.3677 2.2461 26.5681C2.44645 26.7684 2.71818 26.881 3.00152 26.881H8.99112C9.27445 26.881 9.54619 26.7684 9.74654 26.5681C9.94689 26.3677 10.0595 26.096 10.0595 25.8126C10.0595 25.5293 9.94689 25.2576 9.74654 25.0572C9.54619 24.8569 9.27445 24.7443 8.99112 24.7443H6.63866V18.2859C8.05399 18.199 9.38652 17.5892 10.3774 16.5748C11.3682 15.5605 11.9467 14.2141 12.0004 12.7971V7.03367C12.0004 6.86523 11.9335 6.70368 11.8144 6.58458C11.6953 6.46547 11.5337 6.39854 11.3653 6.39854H11.3601Z" fill="#868686"/>
<path d="M5.99795 15.5988C6.441 15.5988 6.87969 15.5115 7.28897 15.3419C7.69825 15.1722 8.07008 14.9236 8.38321 14.6102C8.69635 14.2967 8.94466 13.9247 9.11393 13.5152C9.28319 13.1058 9.37011 12.667 9.36971 12.224V3.3738C9.36971 2.93075 9.28244 2.49205 9.11289 2.08272C8.94334 1.67339 8.6948 1.30145 8.38151 0.988161C8.06823 0.674874 7.69632 0.426367 7.28699 0.256818C6.87766 0.0872682 6.43896 0 5.9959 0C5.55285 0 5.11411 0.0872682 4.70479 0.256818C4.29546 0.426367 3.92355 0.674874 3.61026 0.988161C3.29697 1.30145 3.04844 1.67339 2.87889 2.08272C2.70934 2.49205 2.62207 2.93075 2.62207 3.3738V12.224C2.62234 13.119 2.97801 13.9772 3.61086 14.61C4.24371 15.2429 5.10193 15.5985 5.99691 15.5988H5.99795Z" fill="#868686"/>
</svg>
