<svg width="51" height="17" viewBox="0 0 51 17" fill="none" xmlns="http://www.w3.org/2000/svg">
<path d="M19.3656 0.28889L12.6896 16.2198H8.33188L5.04825 3.50307C5.01753 3.20526 4.91138 2.92019 4.73982 2.67483C4.56826 2.42947 4.33696 2.23191 4.06779 2.10083C2.77295 1.48426 1.40657 1.03082 0 0.750933L0.100663 0.28889H7.11185C7.57043 0.28822 8.01411 0.451659 8.36268 0.749643C8.71125 1.04763 8.9417 1.46049 9.01236 1.91359L10.7488 11.1343L15.037 0.289904H19.3656V0.28889ZM36.434 11.0156C36.4531 6.81287 30.6197 6.58638 30.661 4.70499C30.672 4.13121 31.2166 3.52421 32.4075 3.37019C33.8013 3.23694 35.2053 3.48247 36.4712 4.08087L37.194 0.704638C35.9613 0.242499 34.6561 0.00388657 33.3396 0C29.2668 0 26.3989 2.16626 26.3747 5.26669C26.3476 7.55878 28.4202 8.83821 29.9835 9.60124C31.5891 10.3824 32.1256 10.8807 32.1196 11.5813C32.1095 12.6503 30.8391 13.1174 29.6543 13.1385C28.1799 13.1706 26.7218 12.824 25.4194 12.1319L24.6735 15.6249C26.1354 16.1908 27.6902 16.4782 29.2577 16.4725C33.5862 16.4725 36.4189 14.3294 36.432 11.0166M47.1878 16.2198H50.9999L47.6781 0.28889H44.1548C43.7792 0.285869 43.4112 0.395506 43.0985 0.603647C42.7857 0.811787 42.5425 1.10888 42.4003 1.45659L36.2206 16.2198H40.5491L41.4078 13.8412H46.6956L47.1878 16.2198ZM42.5895 10.5757L44.7598 4.59426L46.0081 10.5757H42.5895ZM25.2543 0.28889L21.8439 16.2198H17.7227L21.1332 0.28889H25.2543Z" fill="#3422F2"/>
</svg>
