<svg width="36" height="33" viewBox="0 0 36 33" fill="none" xmlns="http://www.w3.org/2000/svg">
<path d="M28.2043 32.4975C28.1238 32.4975 28.0442 32.4768 27.9677 32.436L18.509 27.3928C18.2915 27.2768 18.0463 27.2156 17.7998 27.2156C17.5533 27.2156 17.3081 27.2768 17.0906 27.3928L7.63195 32.436C7.5554 32.4768 7.47577 32.4975 7.39531 32.4975C7.24737 32.4975 7.10078 32.4266 7.00319 32.3079C6.93621 32.2263 6.86439 32.0886 6.90259 31.8952L8.91412 21.717C9.01597 21.2016 8.83769 20.6621 8.44883 20.3089L0.668542 13.2419C0.446958 13.0406 0.504623 12.7896 0.527576 12.7175C0.55053 12.6454 0.648514 12.4073 0.945671 12.3711L11.5886 11.0754C12.0992 11.0133 12.5382 10.6998 12.7627 10.237L17.3477 0.785645C17.4337 0.60834 17.6027 0.502477 17.7998 0.502477C17.9969 0.502477 18.1659 0.60834 18.2519 0.785645L22.837 10.237C23.0615 10.6998 23.5004 11.0133 24.011 11.0754L34.654 12.3711C34.9511 12.4073 35.0491 12.6454 35.072 12.7175C35.095 12.7896 35.1527 13.0406 34.9311 13.2419L27.1508 20.3089C26.762 20.662 26.5837 21.2016 26.6855 21.717L28.697 31.8952C28.7352 32.0885 28.6634 32.2263 28.5964 32.3078C28.4988 32.4266 28.3522 32.4975 28.2043 32.4975Z" fill="#FDF239"/>
<path d="M17.7996 1.00496L13.2145 10.4563C12.9152 11.0734 12.33 11.4913 11.6491 11.5742L1.00617 12.8699C1.00617 12.8699 1.00616 12.8699 1.00616 12.8699C1.00616 12.8699 1.00616 12.8699 1.00616 12.8699L8.78645 19.9369C9.30493 20.4079 9.54264 21.1273 9.40684 21.8144L7.39531 31.9926L16.8539 26.9494C17.1439 26.7948 17.4709 26.7131 17.7996 26.7131C18.1282 26.7131 18.4552 26.7948 18.7452 26.9494L28.2038 31.9926C28.2038 31.9926 28.2038 31.9926 28.2038 31.9926L26.1923 21.8144C26.0565 21.1272 26.2943 20.4078 26.8127 19.9369L34.593 12.8699C34.593 12.8699 34.593 12.8699 34.593 12.8699L23.9501 11.5742C23.2692 11.4913 22.684 11.0734 22.3846 10.4563L17.7996 1.00497C17.7996 1.00497 17.7996 1.00496 17.7996 1.00496ZM17.7996 0C18.1601 0 18.5206 0.188775 18.7038 0.566322L23.2888 10.0177C23.4378 10.3249 23.7326 10.5354 24.0715 10.5766L34.7145 11.8723C35.5685 11.9763 35.9055 13.0354 35.2687 13.6138L27.4884 20.6808C27.2276 20.9177 27.1099 21.2739 27.1782 21.6195L29.1897 31.7978C29.354 32.6291 28.4788 33.2781 27.731 32.8794L18.2724 27.8362C17.9769 27.6786 17.6223 27.6786 17.3268 27.8362L7.86813 32.8794C7.12034 33.2781 6.24512 32.6291 6.40942 31.7978L8.42094 21.6195C8.48926 21.2739 8.37156 20.9177 8.11075 20.6808L0.330465 13.6138C-0.306357 13.0354 0.0307064 11.9763 0.884712 11.8723L11.5276 10.5766C11.8665 10.5354 12.1613 10.3249 12.3103 10.0177L16.8954 0.566322C17.0786 0.188775 17.4391 0 17.7996 0Z" fill="#707070"/>
</svg>
