<svg width="37" height="33" viewBox="0 0 37 33" fill="none" xmlns="http://www.w3.org/2000/svg">
<path d="M28.9055 32.4986C28.827 32.4986 28.749 32.4788 28.6739 32.4397L18.9126 27.3686C18.6993 27.2578 18.4595 27.1993 18.2192 27.1993C17.9788 27.1993 17.739 27.2578 17.5257 27.3686L7.76443 32.4397C7.68928 32.4788 7.61131 32.4986 7.53271 32.4986C7.38483 32.4986 7.23842 32.4275 7.14107 32.3084C7.07417 32.2266 7.00264 32.0884 7.04185 31.8951L9.1032 21.7322C9.20959 21.2077 9.0267 20.6615 8.62591 20.3068L0.671978 13.2673C0.446319 13.0676 0.503 12.8148 0.525744 12.7421C0.548499 12.6694 0.645975 12.4294 0.945232 12.3939L11.8735 11.0976C12.3789 11.0376 12.8161 10.7298 13.0429 10.2742L17.7703 0.779357C17.8569 0.605324 18.0247 0.50142 18.2192 0.50142C18.4136 0.50142 18.5814 0.605324 18.668 0.779357L23.3954 10.2742C23.6222 10.7298 24.0594 11.0376 24.5648 11.0976L35.4931 12.3939C35.7923 12.4294 35.8898 12.6694 35.9126 12.7421C35.9353 12.8148 35.992 13.0676 35.7663 13.2673L27.8124 20.3068C27.4116 20.6615 27.2287 21.2077 27.3351 21.7322L29.3965 31.8951C29.4357 32.0884 29.3641 32.2265 29.2972 32.3084C29.1999 32.4274 29.0534 32.4986 28.9055 32.4986Z" fill="#FDF239"/>
<path d="M18.2189 1.00284C18.2189 1.00284 18.2189 1.00284 18.2189 1.00284L13.4915 10.4977C13.1891 11.1052 12.6062 11.5156 11.9323 11.5955L1.00405 12.8918L8.95798 19.9313C9.49236 20.4043 9.73621 21.1325 9.59436 21.8319L7.53301 31.9948C7.53302 31.9948 7.53302 31.9948 7.53302 31.9948L17.2943 26.9237C17.5787 26.7759 17.8984 26.6978 18.2189 26.6978C18.5394 26.6978 18.8591 26.7759 19.1435 26.9237L28.9047 31.9948C28.9048 31.9948 28.9048 31.9947 28.9048 31.9948L26.8434 21.8319C26.7016 21.1325 26.9454 20.4043 27.4798 19.9313L35.4338 12.8918L24.5055 11.5955C23.8316 11.5156 23.2487 11.1052 22.9463 10.4977L18.2189 1.00284ZM18.2189 0C18.5755 0 18.9321 0.185289 19.1166 0.555876L23.844 10.0508C23.9947 10.3535 24.2878 10.5598 24.6236 10.5997L35.5519 11.896C36.4119 11.998 36.7469 13.0688 36.0984 13.6428L28.1445 20.6823C27.8764 20.9195 27.7551 21.2817 27.8263 21.6326L29.8876 31.7954C30.0552 32.6216 29.1905 33.2733 28.4425 32.8847L18.6812 27.8136C18.3914 27.663 18.0464 27.663 17.7566 27.8136L7.99534 32.8847C7.24728 33.2733 6.38261 32.6216 6.55019 31.7954L8.61154 21.6326C8.6827 21.2817 8.56142 20.9195 8.29333 20.6823L0.339415 13.6428C-0.309131 13.0688 0.0258857 11.998 0.885911 11.896L11.8142 10.5997C12.15 10.5598 12.4431 10.3535 12.5938 10.0508L17.3212 0.555876C17.5057 0.185289 17.8623 0 18.2189 0Z" fill="#707070"/>
</svg>
