<svg width="200" height="205" viewBox="0 0 200 205" fill="none" xmlns="http://www.w3.org/2000/svg">
<path d="M2.79964 204.198H1.11005L7.43646 171.347L8.84656 171.613L2.79964 204.198Z" fill="#B5B5B5"/>
<path d="M126.914 11.8906V45.3647V192.079C126.914 192.485 126.893 192.888 126.85 193.286C126.291 198.888 121.858 203.334 116.281 203.906C115.883 203.94 115.481 203.957 115.074 203.957H27.2031C27.0168 203.957 26.8263 203.953 26.6315 203.944C26.5722 203.944 26.5087 203.94 26.4409 203.931C26.3139 203.923 26.1911 203.914 26.0725 203.906C25.9963 203.898 25.9201 203.889 25.8438 203.881C25.7337 203.872 25.6236 203.859 25.5135 203.842C25.4289 203.826 25.3484 203.813 25.2722 203.804C25.1705 203.787 25.0689 203.771 24.9673 203.754C24.8826 203.737 24.7979 203.72 24.7132 203.703C24.6201 203.677 24.5311 203.656 24.4464 203.639C24.3533 203.614 24.2644 203.588 24.1797 203.563C24.095 203.546 24.0103 203.525 23.9256 203.5C23.6885 203.432 23.4598 203.356 23.2396 203.271C23.2142 203.271 23.193 203.267 23.1761 203.258C18.6155 201.594 15.3633 197.224 15.3633 192.079V158.605V11.8906C15.3633 11.4841 15.3803 11.0818 15.4142 10.6838C15.9477 5.48797 19.8096 1.27036 24.8148 0.241368C25.0096 0.207492 25.2044 0.173617 25.3992 0.139741C25.7888 0.0804571 26.1868 0.042347 26.5934 0.0254088C26.7966 0.00847064 26.9999 0 27.2031 0H115.074C115.26 0 115.451 0.00847064 115.646 0.0254088C115.705 0.0254088 115.769 0.0296441 115.836 0.0381132C115.955 0.0381132 116.078 0.04658 116.205 0.0635182C116.281 0.0719873 116.357 0.0804579 116.433 0.088927C116.544 0.0973961 116.649 0.110098 116.751 0.127036C116.836 0.135505 116.92 0.148211 117.005 0.16515C117.107 0.182088 117.204 0.199025 117.297 0.215963C117.39 0.232901 117.479 0.249839 117.564 0.266777C117.657 0.292184 117.746 0.313357 117.831 0.330295C117.924 0.355702 118.013 0.376875 118.098 0.393813C118.182 0.419221 118.267 0.444629 118.352 0.470036C118.597 0.537789 118.839 0.614009 119.076 0.6987C119.084 0.707169 119.093 0.711404 119.101 0.711404C123.662 2.36288 126.914 6.74563 126.914 11.8906Z" fill="#D3D3D3"/>
<path d="M121.172 187.76H21.1054V16.2098H121.172V187.76Z" fill="#F5F5F5"/>
<path d="M92.5255 10.8109H49.9176C49.854 10.8109 49.8032 10.7728 49.8032 10.7092V8.77829C49.8032 8.71477 49.854 8.66396 49.9176 8.66396H92.5255C92.5763 8.66396 92.6272 8.71477 92.6272 8.77829V10.7092C92.6272 10.7728 92.5763 10.8109 92.5255 10.8109Z" fill="#8E8E8E"/>
<g opacity="0.3">
<path d="M75.9978 196.03C75.9978 198.748 73.8001 200.959 71.0815 200.959C68.363 200.959 66.1652 198.748 66.1652 196.03C66.1652 193.299 68.363 191.088 71.0815 191.088C73.8001 191.088 75.9978 193.299 75.9978 196.03Z" fill="white"/>
</g>
<path d="M43.4893 171.613L44.8994 171.347L50.9972 203.779L49.5871 204.046L43.4893 171.613Z" fill="#B5B5B5"/>
<path d="M33.86 204.198H32.1704L38.4841 171.347L39.8942 171.613L33.86 204.198Z" fill="#B5B5B5"/>
<path d="M12.1624 171.766L13.5725 171.486L19.6449 204.211L18.2602 204.198L12.1624 171.766Z" fill="#B5B5B5"/>
<path d="M45.0899 139.765C48.7485 146.054 47.5925 149.395 55.7863 165.439C61.1091 175.856 50.7303 182.132 50.7303 182.132C33.555 192.498 13.1148 185.575 6.85193 179.972C0.589043 174.37 -3.57775 154.197 4.34932 140.693C11.6031 128.332 18.8315 127.71 24.4211 127.1C36.2735 125.829 41.4185 133.49 45.0899 139.765Z" fill="#E4E4E4"/>
<path d="M4.34932 140.693C9.30373 132.258 14.2327 129.285 18.6536 128.065C16.9386 129.831 15.2109 132.118 13.4832 135.065C5.55616 148.569 9.72296 168.73 15.9858 174.345C21.5373 179.312 38.2426 185.308 53.9316 179.388C52.3182 181.179 50.7303 182.132 50.7303 182.132C33.555 192.498 13.1148 185.575 6.85193 179.972C0.589043 174.37 -3.57775 154.197 4.34932 140.693Z" fill="#D6D6D6"/>
<path d="M42.3457 147.629L43.7812 151.948L39.4112 150.221L42.3457 147.629Z" fill="#F79C8D"/>
<path d="M37.8231 134.926C37.8297 134.925 37.8347 134.924 37.8384 134.923C38.0566 134.938 38.816 135.161 39.9646 137.333C40.6995 138.727 41.6134 141.545 42.3465 144.029C42.7121 145.268 43.0313 146.419 43.2592 147.26C43.3731 147.68 43.4642 148.024 43.5268 148.261C43.5527 148.36 43.5737 148.441 43.5895 148.501L37.3294 150.832L36.5728 149.202L35.2032 135.657L35.5088 135.569C35.7647 135.496 36.1067 135.398 36.4511 135.3C36.7955 135.202 37.1418 135.105 37.4066 135.034C37.5391 134.998 37.6503 134.968 37.7304 134.948C37.7706 134.938 37.8017 134.931 37.8231 134.926Z" fill="#F3F3F3" stroke="black" stroke-width="0.3"/>
<path d="M36.7952 167.891C36.7888 167.851 36.7813 167.805 36.773 167.753C36.7409 167.55 36.6958 167.259 36.6438 166.902C36.5398 166.188 36.4081 165.212 36.2975 164.164C36.1869 163.116 36.0971 161.994 36.0773 160.988C36.0577 159.987 36.1068 159.085 36.282 158.487M36.7952 167.891L36.4261 158.529M36.7952 167.891L17.846 167.642L17.8499 167.612C17.8664 167.483 17.8906 167.294 17.921 167.053C17.9819 166.57 18.068 165.877 18.1686 165.036C18.3697 163.355 18.6291 161.084 18.8618 158.724C19.0946 156.365 19.3009 153.916 19.3958 151.879C19.4432 150.861 19.4628 149.944 19.4438 149.192C19.4248 148.444 19.3675 147.845 19.2547 147.471L19.2546 147.471C19.0435 146.782 18.881 145.652 18.7571 144.334C18.6336 143.019 18.5496 141.529 18.4924 140.125C18.4353 138.721 18.4052 137.405 18.3893 136.44C18.3814 135.957 18.377 135.563 18.3747 135.289C18.3736 135.161 18.3729 135.06 18.3725 134.988M36.7952 167.891L18.3725 134.988M36.282 158.487C36.282 158.487 36.282 158.487 36.2821 158.487L36.4261 158.529M36.282 158.487C36.282 158.487 36.282 158.487 36.282 158.487L36.4261 158.529M36.282 158.487C37.7687 153.375 38.1212 147.453 38.1006 142.802C38.0903 140.478 37.9868 138.475 37.886 137.052C37.8355 136.341 37.7858 135.775 37.7486 135.387C37.7301 135.193 37.7147 135.044 37.7039 134.943C37.7017 134.922 37.6997 134.903 37.6979 134.887M36.4261 158.529C39.4114 148.264 37.8362 134.773 37.8362 134.773M37.6979 134.887C37.7292 134.896 37.76 134.906 37.7903 134.916L37.8362 134.773M37.6979 134.887C36.6402 134.56 35.0136 134.264 33.4096 134.048C31.7591 133.826 30.147 133.691 29.2231 133.691C27.2498 133.691 24.5398 133.919 22.5795 134.26L22.5793 134.26C20.4832 134.622 19.4002 134.81 18.8413 134.907L18.3725 134.988M37.6979 134.887C37.6953 134.863 37.6931 134.844 37.6915 134.829L37.6882 134.8L37.6874 134.793L37.6872 134.791L37.6871 134.79C37.6871 134.79 37.6871 134.79 37.8362 134.773M37.8362 134.773L18.3725 134.988" fill="#F3F3F3" stroke="black" stroke-width="0.3"/>
<path d="M26.9748 193.108C26.9748 193.108 27.4068 198.024 28.1944 199.396C28.982 200.756 28.1563 203.08 28.1055 203.398C28.0674 203.716 26.454 204.173 23.9006 203.893C21.3344 203.627 21.3725 203.03 21.5885 202.077C21.7918 201.124 23.151 199.892 23.24 198.99C23.3162 198.075 22.4523 194.798 22.4523 194.798L26.9748 193.108Z" fill="#F3FCFF"/>
<path d="M34.8003 163.978L34.7931 164.128L34.8009 164.129L34.8086 164.128L34.8003 163.978ZM34.8003 163.978C34.8086 164.128 34.8086 164.128 34.8087 164.128L34.8091 164.128L34.8109 164.128L34.8181 164.128L34.8465 164.126L34.9581 164.121C35.0561 164.116 35.2002 164.109 35.3849 164.1C35.7541 164.084 36.2851 164.062 36.9317 164.042C38.2249 164.001 39.9797 163.965 41.8269 163.986C43.6746 164.006 45.6119 164.083 47.271 164.267C48.1006 164.359 48.8581 164.477 49.4987 164.628C50.1416 164.779 50.6568 164.961 51.0085 165.174C51.7167 165.604 52.0264 166.136 52.1086 166.688C52.192 167.249 52.0438 167.85 51.7969 168.412C51.5507 168.972 51.2126 169.481 50.9343 169.85C50.7954 170.035 50.6722 170.183 50.5839 170.286C50.5398 170.337 50.5044 170.377 50.4802 170.403L50.4643 170.421L50.4625 170.422C50.4418 170.43 50.4106 170.444 50.369 170.461C50.2859 170.495 50.1614 170.546 49.9961 170.611C49.6657 170.741 49.1728 170.929 48.5243 171.157C47.2274 171.614 45.3083 172.235 42.8226 172.888C37.8512 174.194 30.6137 175.631 21.5545 176.151L21.5542 176.151C20.5584 176.21 19.7716 175.597 19.1573 174.566C18.543 173.535 18.1223 172.117 17.8584 170.648C17.595 169.182 17.4901 167.678 17.5007 166.482C17.506 165.884 17.5403 165.367 17.5971 164.971C17.6256 164.774 17.6593 164.609 17.6967 164.482C17.7351 164.353 17.7731 164.277 17.8025 164.241C17.8092 164.234 17.829 164.217 17.8738 164.196C17.918 164.175 17.978 164.153 18.0551 164.131C18.2093 164.088 18.4181 164.049 18.6767 164.015C19.1932 163.948 19.891 163.901 20.7106 163.871C22.3488 163.812 24.4591 163.82 26.5465 163.859C28.6334 163.897 30.6951 163.964 32.2352 164.022C33.0053 164.051 33.6448 164.078 34.0919 164.097C34.3154 164.107 34.4907 164.114 34.6102 164.12L34.7465 164.126L34.7814 164.128L34.7902 164.128L34.7924 164.128L34.793 164.128C34.7931 164.128 34.7931 164.128 34.8003 163.978Z" fill="#B3B3B3" stroke="black" stroke-width="0.3"/>
<path d="M23.5827 204.275C20.9404 203.995 21.2706 202.699 21.4739 201.721C21.6136 201.099 22.3632 200.375 22.8205 199.689C23.0619 199.879 23.443 200.209 24.5863 200.552C25.7677 200.895 27.4065 200.209 28.4482 199.765C28.8166 201.149 28.8293 202.903 28.7912 203.169C28.7531 203.5 26.2124 204.554 23.5827 204.275Z" fill="#101010"/>
<path d="M24.8821 173.526L24.8821 173.526C25.1489 175.539 25.9397 181.558 26.6638 187.073C27.0259 189.83 27.3712 192.462 27.6261 194.404L27.9313 196.73L28.0157 197.373L28.0257 197.449L22.1927 198.177L22.1438 198.006C22.0889 197.813 22.0085 197.53 21.9063 197.169C21.7018 196.446 21.4101 195.408 21.0612 194.15C20.3634 191.635 19.4371 188.239 18.5227 184.719C17.6082 181.199 16.7061 177.555 16.0564 174.542C15.7316 173.035 15.4703 171.688 15.3021 170.593C15.1332 169.494 15.0607 168.664 15.1064 168.185C15.2932 166.223 16.0745 165.179 16.7924 164.623C17.1535 164.343 17.5028 164.184 17.7607 164.095C17.8896 164.05 17.9954 164.023 18.0681 164.007C18.1044 164 18.1324 163.995 18.1508 163.992L18.1709 163.989L18.1753 163.988L18.1757 163.988L18.1758 163.988L18.1847 163.987L18.1848 163.987L18.1849 163.986L18.1851 163.986L18.1868 163.986L18.1961 163.985C18.2049 163.983 18.2187 163.981 18.2372 163.979C18.2741 163.975 18.3298 163.97 18.4019 163.967C18.5463 163.961 18.7561 163.964 19.0133 163.999C19.5272 164.07 20.2307 164.272 20.9795 164.798C22.4746 165.85 24.1802 168.22 24.8821 173.526Z" fill="#B3B3B3" stroke="black" stroke-width="0.3"/>
<path d="M40.377 161.158C40.2118 161.552 38.535 160.028 38.535 160.028M40.377 161.158C40.5195 160.778 39.6964 159.932 39.2978 159.523C39.27 159.494 39.2442 159.467 39.221 159.443C38.9415 159.151 35.6131 157.792 35.4861 157.766C35.1685 157.703 34.5587 157.754 33.8981 157.843L38.535 160.028M40.377 161.158L40.2386 161.1C40.2415 161.093 40.25 161.082 40.263 161.076C40.2678 161.073 40.2707 161.073 40.2706 161.073C40.2705 161.073 40.2674 161.074 40.2601 161.073C40.2551 161.073 40.2494 161.072 40.243 161.071C40.2422 161.085 40.2399 161.097 40.2364 161.106L40.377 161.158ZM38.535 160.028L38.2998 159.895M38.535 160.028L38.2998 159.895M38.2998 159.895C38.1301 159.747 37.9698 159.602 37.8267 159.463L37.7219 159.57L37.6484 159.701L38.2998 159.895ZM35.8546 161.068C35.4958 160.938 35.1483 161.058 34.8605 161.192C34.7872 161.226 34.7155 161.263 34.647 161.298L34.6213 161.311C34.5615 161.341 34.5045 161.37 34.4487 161.397C34.3199 161.459 34.2111 161.503 34.1164 161.518C34.0616 161.526 34.004 161.536 33.9445 161.545C33.8092 161.567 33.6635 161.591 33.5146 161.606C33.2991 161.628 33.1045 161.628 32.9626 161.586L32.9608 161.586L31.2077 161.09L31.1814 161.083L31.1541 161.085C30.8164 161.114 30.6375 161.233 30.474 161.351C30.4668 161.356 30.4597 161.361 30.4526 161.367C30.3085 161.471 30.1752 161.567 29.9167 161.621L29.9153 161.622C29.6245 161.685 29.2552 161.749 28.854 161.818C28.779 161.83 28.7028 161.844 28.6259 161.857C28.1401 161.941 27.6245 162.034 27.1684 162.143L27.1676 162.143C25.7871 162.482 24.658 162.77 23.712 163.012C22.8941 163.221 22.2131 163.395 21.6248 163.536C20.3608 163.839 19.556 163.981 18.7935 163.981C18.2753 163.981 17.7893 163.626 17.3442 162.923C16.9013 162.224 16.521 161.213 16.2079 159.98C15.5823 157.517 15.2348 154.208 15.169 150.843C15.1032 147.479 15.3194 144.068 15.8166 141.403C16.0653 140.069 16.3832 138.929 16.7678 138.075C17.1559 137.214 17.5969 136.679 18.0713 136.501L35.8546 161.068Z" fill="#DCDCDC" stroke="black" stroke-width="0.3"/>
<path d="M21.7096 151.619C19.6933 151.776 16.8499 151.897 14.7329 151.493C14.5719 148.101 14.5094 144.341 14.9531 141.243C15.1775 139.676 15.5303 138.287 16.0597 137.205C16.5888 136.123 17.2873 135.359 18.1981 135.015C18.5035 134.902 18.8948 134.976 19.3242 135.41C19.7566 135.847 20.2091 136.634 20.6051 137.892C21.3913 140.39 21.9392 144.691 21.7096 151.619Z" fill="#F3F3F3" stroke="black" stroke-width="0.3"/>
<path d="M30.2139 163.077L29.8074 163.14L35.6892 148.671H36.083L30.2139 163.077Z" fill="#F79C8D"/>
<path d="M44.8612 197.313C44.8612 197.313 44.3277 199.028 45.2805 200.158C46.2332 201.289 50.1968 202.394 50.7176 203.017C51.2385 203.627 51.2004 204.147 51.2004 204.147L40.0593 203.842L40.1863 200.476L40.6944 198.062L44.8612 197.313Z" fill="#F3FCFF"/>
<path d="M51.2004 202.331C51.518 202.509 52.0896 202.763 52.5724 203.144C53.2838 203.69 52.8391 204.338 51.9626 204.351L39.4368 203.982C39.4368 203.982 39.5893 200.832 39.9831 200.578C40.3896 200.324 40.3388 200.514 41.7235 201.2C43.1082 201.886 45.9665 200.717 45.9665 200.717C45.9665 200.717 50.2222 201.772 51.2004 202.331Z" fill="#101010"/>
<path d="M50.6351 164.524L50.6351 164.524C52.2411 165.187 53.2519 166.327 53.7394 167.714C54.2283 169.105 54.1941 170.755 53.6866 172.434C53.4166 173.319 52.7586 175.321 51.9273 177.851C51.1553 180.199 50.2338 183.003 49.3348 185.789C48.4018 188.681 47.4935 191.553 46.8032 193.876C46.4581 195.037 46.1672 196.061 45.9548 196.882C45.7681 197.604 45.64 198.177 45.591 198.549L40.4353 198.585L40.4364 198.566L40.4683 198.055L40.5839 196.204L40.9509 190.326C41.2288 185.877 41.5368 180.948 41.6575 179.029C41.8979 175.361 43.0882 170.324 44.5651 167.206C44.9907 166.311 45.6799 165.295 46.6733 164.676C47.6578 164.063 48.9565 163.83 50.6351 164.524Z" fill="#B3B3B3" stroke="black" stroke-width="0.3"/>
<path d="M54.3634 150.36L48.7103 162.975C48.3927 163.699 47.6813 164.156 46.8936 164.156H18.3105C18.031 164.156 17.8023 163.928 17.8023 163.648C17.8023 163.369 18.031 163.14 18.3105 163.14H28.359L33.9613 149.42C34.1519 148.963 34.5838 148.671 35.0666 148.671H53.2836C54.1347 148.671 54.7191 149.573 54.3634 150.36Z" fill="#3422F2"/>
<path d="M43.4768 156.661C43.3498 157.284 42.8162 157.69 42.27 157.589C41.7364 157.474 41.4061 156.89 41.5205 156.28C41.6475 155.658 42.1811 155.251 42.7273 155.353C43.2609 155.467 43.5912 156.051 43.4768 156.661Z" fill="white"/>
<path d="M33.4917 128.319C33.4917 128.421 32.1959 125.575 32.1959 125.575C32.1959 125.575 28.461 130.39 28.3594 130.517C28.2578 130.644 23.964 131.495 23.4812 123.772C23.0493 116.95 25.1835 118.017 26.3776 116.708C27.3431 115.667 29.0962 115.552 30.1125 115.717C30.5953 115.794 31.3575 116.124 31.9418 116.403C32.4627 116.658 33.0089 116.861 33.5552 117.051C40.1484 119.275 33.4917 128.218 33.4917 128.319Z" fill="#4E4E4E"/>
<path d="M26.0346 133.692L26.3818 127.106L30.1482 131.156L30.5228 133.866L30.5224 133.866L30.5245 133.876L30.5245 133.876L30.5246 133.877L30.525 133.879L30.5267 133.887L30.5332 133.92C30.5389 133.948 30.5472 133.991 30.5573 134.045C30.5776 134.155 30.6054 134.312 30.6356 134.502C30.6959 134.885 30.7651 135.401 30.8012 135.941C30.8374 136.482 30.8399 137.039 30.7696 137.505C30.6979 137.981 30.5564 138.319 30.3424 138.475C30.269 138.527 30.1594 138.539 29.9853 138.468C29.8108 138.396 29.6021 138.252 29.3686 138.046C28.9035 137.635 28.3755 137.013 27.8752 136.359C27.3761 135.706 26.9097 135.03 26.5677 134.516C26.3968 134.259 26.2572 134.043 26.1604 133.891C26.1119 133.815 26.0742 133.755 26.0487 133.715L26.0346 133.692Z" fill="#DCDCDC" stroke="black" stroke-width="0.3"/>
<path d="M29.9221 131.983L29.9211 131.983C29.5919 131.927 29.1171 131.722 28.5954 131.366C28.0766 131.011 27.5212 130.512 27.0292 129.882C26.0463 128.622 25.3194 126.839 25.6366 124.619L25.6367 124.618C26.0244 121.867 27.8067 119.65 30.098 119.27C32.2651 118.93 34.2156 120.672 34.167 122.841C34.1417 123.827 34.0658 125.053 33.8639 126.366C33.6199 127.936 32.9625 129.412 32.1906 130.462C31.8045 130.987 31.3937 131.399 30.9972 131.664C30.5987 131.93 30.231 132.037 29.9221 131.983Z" fill="#DCDCDC" stroke="black" stroke-width="0.3"/>
<path d="M26.4792 125.144C26.3648 125.842 25.7932 126.325 25.2215 126.223C24.6499 126.134 24.2941 125.487 24.4085 124.775C24.5355 124.076 25.0945 123.594 25.6661 123.695C26.2378 123.784 26.6062 124.445 26.4792 125.144Z" fill="#1B1B1B"/>
<path d="M25.1195 122.336C25.1195 122.336 25.742 120.202 25.8182 119.999C25.8944 119.808 28.0668 118.017 28.0668 118.017C28.0668 118.017 30.887 118.042 31.1156 118.042C31.357 118.042 36.8704 121.472 33.9358 120.469C31.0013 119.478 28.6892 121.891 28.0541 123.009C27.4062 124.127 25.6658 123.695 25.6658 123.695L25.1195 122.336Z" fill="#4E4E4E"/>
<path d="M98.5615 124.278L95.3856 119.666L96.3384 119.018L99.5016 123.63L98.5615 124.278ZM92.2351 115.055L89.0592 110.443L90.012 109.795L93.1752 114.407L92.2351 115.055ZM85.9087 105.832L82.7328 101.221L83.6855 100.573L86.8488 105.184L85.9087 105.832ZM79.5823 96.6091L76.4064 91.9977L77.3591 91.3371L80.5223 95.9485L79.5823 96.6091ZM73.2432 87.3863L70.08 82.7748L71.0327 82.127L74.1959 86.7384L73.2432 87.3863Z" fill="#3422F2"/>
<path d="M32.2232 98.54C30.5463 99.3785 24.0166 102.707 20.9297 95.7579C17.6013 88.3009 25.3632 84.9726 25.3632 84.9726C25.3632 84.9726 33.9001 97.7016 32.2232 98.54Z" fill="#3422F2"/>
<path d="M39.5531 97.0409C43.631 100.789 46.6417 108.982 47.0101 110.647C47.3785 112.298 43.5166 114.432 41.8525 115.029C40.1883 115.639 39.3244 115.042 38.5368 110.342C37.6857 105.298 34.2176 99.4546 34.2176 99.4546C34.2176 99.4546 35.4879 93.2934 39.5531 97.0409Z" fill="#CECECE"/>
<path d="M46.1589 64.1893L48.7378 71.4812L53.9336 83.0796L60.6284 92.6963L61.7463 94.9321L39.5022 96.4185L34.5986 95.453L29.8729 84.9598L31.3846 80.5262C34.9289 76.4102 45.6889 63.0841 45.6889 63.0841L46.1589 64.1893Z" fill="#CECECE"/>
<path d="M31.3844 80.5264C31.3844 80.5264 32.1085 90.2955 39.502 96.4186C39.502 96.4186 39.9848 97.0411 39.4512 97.6509L35.7291 99.747C35.7291 99.747 34.0649 100.89 31.7909 98.6545C29.517 96.4186 25.1596 91.1847 25.0326 84.1596C25.0326 84.1596 24.9437 82.2795 27.0398 81.3648L29.7965 80.0437C29.7965 80.0437 31.0287 79.4974 31.3844 80.5264Z" fill="#F3F3F3"/>
<path d="M45.6887 63.0842C45.6887 63.0842 48.4835 59.5907 50.5161 59.1079C52.536 58.6125 55.2672 60.7467 57.1601 62.5887C59.0529 64.4181 64.7823 72.0657 66.6497 77.7696C68.5298 83.4608 70.6895 91.7182 68.1233 93.4586C65.5572 95.199 61.7461 94.9322 61.7461 94.9322C61.7461 94.9322 56.1311 92.2263 50.1858 80.7168C44.2405 69.2073 45.6887 63.0842 45.6887 63.0842Z" fill="#B1B1B1"/>
<path d="M54.3023 81.1613C44.9906 65.0277 48.8652 60.0097 48.8652 60.0097C48.8652 60.0097 56.1698 60.9625 63.6014 78.2522C68.3272 89.2281 66.2056 94.3223 66.2056 94.3223C66.2056 94.3223 61.9753 94.4493 54.3023 81.1613Z" fill="#CECECE"/>
<path d="M58.4688 76.677C61.0603 80.7676 58.2655 83.4099 56.4362 84.6549C55.7502 83.6132 55.0388 82.4445 54.302 81.1614C52.8156 78.5826 51.6596 76.2959 50.7831 74.2633C52.6251 73.5392 56.0678 72.8786 58.4688 76.677Z" fill="#F3F3F3"/>
<path fill-rule="evenodd" clip-rule="evenodd" d="M41.5349 115.22C41.0014 115.36 40.5949 115.334 40.2519 115.131C39.477 114.674 38.9434 113.289 38.448 110.354C37.7747 106.366 35.488 101.894 34.4971 100.115C33.6206 100.09 32.7313 99.658 31.8421 98.8196C29.06 100.166 26.659 100.496 24.7153 99.7978C23.0639 99.188 21.7681 97.8414 20.8534 95.7961C19.5958 92.9632 19.7482 90.4098 21.3108 88.174C22.5303 86.459 24.2453 85.4427 24.9821 85.0616C24.9652 84.7651 24.9525 84.4687 24.944 84.1723C24.944 84.1469 24.8932 82.2159 27.002 81.2886L29.7587 79.9674C29.7841 79.9547 30.4193 79.6752 30.9401 79.9039C31.1519 79.9886 31.3085 80.141 31.4102 80.3612C34.9926 76.1944 45.5239 63.1605 45.6255 63.0335C45.7399 62.8937 48.4584 59.5019 50.491 59.0191C52.5617 58.5237 55.293 60.6579 57.2239 62.5253C59.1422 64.3928 64.8461 72.0276 66.7262 77.7443C68.7842 83.9945 70.7152 91.8072 68.1618 93.5349C65.6592 95.2372 61.9243 95.0339 61.7464 95.0212L39.6421 96.4948C39.7183 96.6346 39.8073 96.8632 39.7819 97.1427C41.9161 99.188 43.6819 102.364 44.7871 104.676C46.0574 107.331 46.8959 109.757 47.0864 110.634C47.3024 111.587 46.1972 112.603 45.2444 113.302C44.1011 114.115 42.7291 114.801 41.8779 115.106C41.7594 115.148 41.645 115.186 41.5349 115.22ZM31.8675 98.629L31.9183 98.6672C32.7948 99.5183 33.6841 99.9502 34.5479 99.9629H34.5988L34.6242 100.001C35.6024 101.754 37.9271 106.277 38.6131 110.329C39.0958 113.175 39.6167 114.572 40.3408 114.991C40.7092 115.207 41.1538 115.195 41.8271 114.953C43.4151 114.382 47.277 112.247 46.934 110.659C46.7434 109.796 45.905 107.395 44.6473 104.752C43.5421 102.44 41.7763 99.2515 39.6294 97.2316L39.604 97.1935V97.1554C39.6675 96.787 39.4388 96.4821 39.4388 96.4694L39.3372 96.3551L39.4897 96.3424L61.7464 94.8561H61.7591C61.7972 94.8561 65.5575 95.0974 68.0728 93.3951C69.1908 92.6456 69.4829 90.5241 68.9748 87.1068C68.5937 84.6042 67.7807 81.4664 66.5738 77.7951C64.7064 72.1039 59.0152 64.4944 57.1096 62.6397C55.2041 60.7976 52.5236 58.7015 50.5291 59.1843C50.5122 59.1843 50.491 59.1885 50.4656 59.197C48.4965 59.7305 45.7907 63.097 45.7526 63.1351C45.6509 63.2748 34.9418 76.512 31.4483 80.5772L31.3593 80.6788L31.3085 80.5518C31.2238 80.3062 31.0799 80.141 30.8766 80.0563C30.432 79.8531 29.8349 80.1198 29.8222 80.1198L27.0782 81.441C25.0583 82.3176 25.1092 84.0834 25.1092 84.1596C25.1176 84.473 25.1346 84.7863 25.16 85.0997V85.1632L25.1092 85.1886C23.915 85.7984 18.0713 89.1648 20.9932 95.7199C21.8951 97.7398 23.1655 99.061 24.7789 99.6453C26.6844 100.331 29.06 100.001 31.8167 98.6544L31.8675 98.629Z" fill="#1D1D1B"/>
<path d="M31.8041 98.7814C28.3995 95.5547 26.7226 92.0104 25.9223 89.6094C25.0585 87.0051 24.9949 85.1377 24.9949 85.1123H25.1601C25.1601 85.125 25.2236 86.9797 26.0874 89.5713C26.8751 91.9468 28.5392 95.4657 31.9184 98.6671L31.8041 98.7814Z" fill="#1D1D1B"/>
<path d="M39.4384 96.4819C37.6726 94.9448 36.1355 93.1408 34.8905 91.1337C33.8869 89.533 33.0739 87.7926 32.4514 85.9633C31.4097 82.8636 31.3081 80.5515 31.3081 80.5261L31.4732 80.5134C31.4732 80.5388 31.5622 82.8382 32.6039 85.9252C33.5694 88.7708 35.5511 92.8868 39.5528 96.3676L39.4384 96.4819Z" fill="#1D1D1B"/>
<path d="M35.183 99.9755C34.84 100.064 34.5987 100.115 34.5606 100.115L34.5352 99.9628C34.5733 99.9501 38.2954 99.2132 39.6166 97.1171L39.7563 97.2061C38.7146 98.8575 36.3264 99.6706 35.183 99.9755Z" fill="#1D1D1B"/>
<path d="M66.1674 94.4241C65.926 94.4876 65.1511 94.5512 63.6393 93.4078C62.0006 92.1629 59.1041 89.1648 54.6579 81.9365C52.4601 78.3667 50.7833 75.0003 49.6781 71.9133C48.7888 69.4488 48.2552 67.1494 48.1028 65.1041C47.836 61.5979 48.7507 60.0354 48.7888 59.9719L48.9285 60.0608C48.9285 60.0735 48.0012 61.6488 48.2679 65.1169C48.5093 68.3055 49.8432 73.8061 54.7976 81.8602C59.1931 88.987 62.0514 91.985 63.6775 93.23C65.4433 94.5893 66.1547 94.259 66.1674 94.259L66.2436 94.3987C66.2309 94.3987 66.2055 94.4114 66.1674 94.4241Z" fill="#1D1D1B"/>
<path d="M27.9799 86.8781L27.8402 86.7892L29.2757 84.5915L29.4154 84.6804L27.9799 86.8781Z" fill="#1D1D1B"/>
<path d="M26.9129 85.9761L26.7858 85.8872L28.2213 83.6894L28.3611 83.7784L26.9129 85.9761Z" fill="#1D1D1B"/>
<path d="M136.647 40.0524C136.647 44.1684 135.211 47.954 132.836 50.9394C130.092 54.3694 126.065 56.745 121.492 57.342C120.746 57.4437 119.984 57.4945 119.205 57.4945C119.163 57.4945 119.116 57.4945 119.065 57.4945C118.362 57.486 117.668 57.4394 116.982 57.3547C116.804 57.3293 116.622 57.3039 116.435 57.2785C111.964 56.5671 108.051 54.1534 105.396 50.7107C103.122 47.7635 101.763 44.0667 101.763 40.0524C101.763 30.423 109.576 22.623 119.205 22.623C128.834 22.623 136.647 30.423 136.647 40.0524Z" fill="#3422F2"/>
<path d="M115.914 38.3502C115.914 38.3502 116.663 45.045 117.654 45.1212C118.658 45.1847 116.968 53.0356 114.313 49.1864C113.386 47.8398 113.424 39.0235 115.647 37.1433C117.87 35.2505 115.914 38.3502 115.914 38.3502Z" fill="#222222"/>
<path d="M120.119 34.8694C120.119 34.7678 121.402 37.3847 121.402 37.3847L121.25 47.9669L116.778 48.475L116.854 44.7528C115.864 44.7274 115.457 44.1304 115.457 44.1304C114.631 42.9997 115.546 36.6606 115.546 36.6606C115.546 36.6606 120.119 34.9838 120.119 34.8694Z" fill="#FE9F73"/>
<path d="M116.906 41.9454C116.652 41.8692 116.538 41.3992 116.525 41.3738V41.3484L116.538 41.323C116.809 41.1367 116.97 40.8995 117.02 40.6116C117.109 40.1415 116.893 39.6969 116.893 39.6842C116.893 39.6715 116.893 39.6461 116.906 39.6334C116.919 39.6207 116.931 39.6207 116.944 39.6461C116.957 39.6588 117.173 40.1288 117.084 40.6243C117.02 40.9292 116.855 41.1959 116.588 41.3865C116.627 41.4881 116.741 41.8057 116.919 41.8692C116.931 41.8692 116.944 41.8946 116.944 41.92C116.944 41.9327 116.931 41.9454 116.919 41.9454C116.91 41.9454 116.906 41.9454 116.906 41.9454Z" fill="#FB554B"/>
<path d="M116.829 46.0232L116.855 44.7528C116.855 44.7528 118.989 44.6639 120.323 43.8509C120.323 43.8509 118.506 45.5405 116.829 46.0232Z" fill="#FB554B"/>
<path d="M119.814 39.8235C119.776 39.7854 118.887 38.8453 118.036 39.5059C118.01 39.5313 117.96 39.5313 117.921 39.4932C117.896 39.4551 117.909 39.4043 117.934 39.3789C118.9 38.6294 119.916 39.7092 119.929 39.7092C119.967 39.7473 119.954 39.7981 119.929 39.8235C119.912 39.8405 119.891 39.8489 119.865 39.8489C119.848 39.8489 119.831 39.8405 119.814 39.8235Z" fill="#2F0E1B"/>
<path d="M116.486 39.6078C116.486 39.6078 115.851 39.0488 115.495 39.3537C115.47 39.3791 115.419 39.3791 115.381 39.341C115.356 39.3029 115.356 39.2521 115.394 39.2267C115.851 38.8456 116.562 39.468 116.601 39.4935C116.626 39.5189 116.639 39.5697 116.601 39.6078C116.584 39.6247 116.567 39.6332 116.55 39.6332C116.524 39.6332 116.503 39.6247 116.486 39.6078Z" fill="#2F0E1B"/>
<path d="M118.481 40.0524C118.595 40.0524 118.697 40.1668 118.697 40.2811C118.697 40.4081 118.595 40.5098 118.468 40.5098C118.341 40.5098 118.239 40.4081 118.252 40.2811C118.252 40.1541 118.354 40.0524 118.481 40.0524Z" fill="#010103"/>
<path d="M115.838 40.027C115.965 40.027 116.067 40.1286 116.054 40.2557C116.054 40.3827 115.953 40.4843 115.826 40.4716C115.711 40.4716 115.61 40.37 115.61 40.243C115.61 40.1286 115.711 40.027 115.838 40.027Z" fill="#010103"/>
<path d="M117.299 43.0506C116.715 43.1141 116.435 42.5044 116.435 42.5044C116.435 42.5044 117.998 42.3265 118.023 42.3265C118.023 42.3265 117.884 42.9871 117.299 43.0506Z" fill="#FBFDFA"/>
<path d="M116.982 36.4192C116.829 36.3684 118.582 35.2885 118.582 35.2885L117.49 36.7876C117.49 36.7876 117.121 36.47 116.982 36.4192Z" fill="#FC8759"/>
<path d="M120.754 36.076C120.754 36.076 120.437 38.4389 114.784 38.9089C114.784 38.9089 113.462 35.4154 117.578 34.2467C121.682 33.078 122.05 36.2285 121.974 36.203C121.885 36.1776 120.754 36.076 120.754 36.076Z" fill="#222222"/>
<path d="M120.119 34.7931C122.025 33.3194 124.972 35.7712 125.01 38.1976C125.061 42.0595 127.385 49.3514 124.019 49.4022H123.346C119.535 49.9612 121.288 40.0778 121.288 40.0778C120.792 38.9598 119.89 37.3973 119.89 37.3973C119.89 37.3973 118.201 36.2667 120.119 34.7931Z" fill="#222222"/>
<path d="M121.733 40.0394C122.431 40.0394 122.99 40.6238 122.99 41.3225C122.978 42.0212 122.406 42.5675 121.707 42.5675C121.009 42.5548 120.45 41.9831 120.462 41.2844C120.462 40.5857 121.047 40.0267 121.733 40.0394Z" fill="#FE9F73"/>
<path d="M121.796 42.085C121.771 42.085 121.758 42.0596 121.758 42.0342C121.758 42.0215 121.771 41.996 121.796 41.996C122.038 42.0087 122.177 41.8182 122.228 41.6658C122.279 41.5133 122.266 41.2973 122.076 41.1703C121.72 40.9543 121.428 41.2338 121.415 41.2465L121.301 41.3482L121.339 41.2084C121.398 40.9882 121.508 40.8358 121.669 40.7511C121.949 40.5986 122.279 40.713 122.292 40.713C122.317 40.7257 122.33 40.7384 122.317 40.7638C122.317 40.7892 122.292 40.8019 122.266 40.7892C122.266 40.7892 121.961 40.6876 121.707 40.8146C121.597 40.8739 121.517 40.9713 121.466 41.1068C121.593 41.0306 121.847 40.9289 122.114 41.1068C122.304 41.2211 122.381 41.4498 122.304 41.6912C122.254 41.8817 122.063 42.085 121.809 42.085C121.8 42.085 121.796 42.085 121.796 42.085Z" fill="#FB554B"/>
<path d="M115.139 37.7404L113.78 43.6222C113.336 37.6642 115.292 35.5935 115.292 35.5935L115.139 37.7404Z" fill="#222222"/>
<path d="M121.491 57.3422C120.746 57.4438 119.984 57.4947 119.205 57.4947C119.162 57.4947 119.116 57.4947 119.065 57.4947C118.362 57.4862 117.668 57.4396 116.982 57.3549L117.083 56.923L118.646 50.3806L119.065 48.6148L119.167 48.2083L119.332 47.4842H126.763C127.551 47.4842 128.631 48.005 128.682 48.0304C129.685 48.564 131.235 49.593 132.836 50.9396C130.092 54.3696 126.065 56.7451 121.491 57.3422Z" fill="#F3F3F3"/>
<path d="M119.065 47.4842V57.4947C118.362 57.4862 117.668 57.4396 116.982 57.3549C116.804 57.3295 116.622 57.3041 116.436 57.2787C111.964 56.5673 108.051 54.1536 105.396 50.7109C107.086 49.5041 108.699 48.5767 109.728 48.0304C109.766 48.005 110.859 47.4842 111.646 47.4842H119.065Z" fill="#F3F3F3"/>
<path d="M114.771 47.4841H124.159C124.159 47.4841 122.457 50.4313 119.217 50.4186C117.731 50.4059 116.13 49.8596 114.771 47.4841Z" fill="#FE9F73"/>
<path fill-rule="evenodd" clip-rule="evenodd" d="M119.205 58.1044C119.154 58.1044 119.103 58.1044 119.052 58.1044C118.341 58.1044 117.617 58.0536 116.906 57.9647C116.736 57.9392 116.55 57.9096 116.347 57.8757C111.799 57.1516 107.746 54.7506 104.913 51.092C102.462 47.9034 101.153 44.0923 101.153 40.0525C101.153 35.2379 103.033 30.7027 106.438 27.2981C109.855 23.8808 114.378 22.0134 119.205 22.0134C124.02 22.0134 128.555 23.8808 131.972 27.2981C135.377 30.7027 137.257 35.2379 137.257 40.0525C137.257 44.1939 135.885 48.0939 133.306 51.3207C130.371 54.992 126.205 57.3422 121.568 57.952C120.806 58.0536 120.005 58.1044 119.205 58.1044ZM119.205 23.2329C109.931 23.2329 102.373 30.7789 102.373 40.0525C102.373 43.8128 103.592 47.3698 105.879 50.3425C108.521 53.7471 112.307 55.9956 116.537 56.6689C116.728 56.707 116.893 56.7324 117.058 56.7451C117.719 56.834 118.392 56.8721 119.078 56.8849C119.12 56.8849 119.163 56.8849 119.205 56.8849C119.954 56.8849 120.691 56.834 121.415 56.7451C125.735 56.1734 129.622 53.9757 132.353 50.5584C134.754 47.5477 136.037 43.9144 136.037 40.0525C136.037 30.7789 128.479 23.2329 119.205 23.2329Z" fill="white"/>
<path d="M136.037 134.923C136.037 137.616 135.503 140.182 134.538 142.533C134.521 142.583 134.5 142.639 134.474 142.698C134.466 142.706 134.461 142.719 134.461 142.736C133.547 144.896 132.264 146.865 130.688 148.554C130.646 148.605 130.6 148.656 130.549 148.707C130.498 148.757 130.447 148.808 130.396 148.859C126.75 152.632 121.644 154.982 115.978 154.982C112.878 154.982 109.943 154.284 107.327 153.026C106.844 152.797 106.365 152.543 105.891 152.264C105.815 152.221 105.739 152.175 105.662 152.124C105.451 151.997 105.239 151.866 105.027 151.73C104.959 151.688 104.887 151.641 104.811 151.59C103.376 150.625 102.067 149.469 100.911 148.173C100.496 147.699 100.102 147.208 99.7298 146.699C98.9294 145.594 98.2307 144.4 97.6718 143.142C96.5411 140.627 95.9187 137.845 95.9187 134.923C95.9187 123.833 104.9 114.851 115.978 114.851C127.055 114.851 136.037 123.833 136.037 134.923Z" fill="#DCDCDC"/>
<path d="M109.613 125.675C109.613 125.675 108.076 122.143 112.116 119.221C116.168 116.299 116.791 121.305 118.34 121.787C119.903 122.257 122.723 121.724 123.739 124.646C124.756 127.568 124.159 129.702 125.797 130.172C127.424 130.642 132.772 134.859 131.324 140.309C129.875 145.772 124.552 145.403 124.552 145.403C124.552 145.403 103.655 146.051 102.308 140.601C100.949 135.152 102.994 132.827 105.675 131.023C107.314 129.918 110.604 129.016 109.613 125.675Z" fill="#222222"/>
<path d="M120.703 127.631L119.217 143.066L112.573 142.431L113.018 137.718C111.544 137.553 111.011 136.6 111.011 136.6C109.905 134.809 111.76 127.403 111.76 127.403L120.703 127.631Z" fill="#FE9F73"/>
<path d="M113.348 133.513C112.827 133.348 112.624 132.624 112.611 132.586L112.599 132.535L112.65 132.522C113.221 132.293 113.59 131.95 113.742 131.518C113.983 130.845 113.59 130.134 113.577 130.134C113.564 130.096 113.577 130.057 113.602 130.045C113.628 130.032 113.666 130.032 113.691 130.07C113.704 130.096 114.11 130.832 113.856 131.569C113.704 132.014 113.323 132.37 112.738 132.611C112.802 132.776 113.005 133.272 113.386 133.399C113.412 133.411 113.424 133.437 113.424 133.475C113.412 133.5 113.386 133.513 113.361 133.513C113.352 133.513 113.348 133.513 113.348 133.513Z" fill="#FB554B"/>
<path d="M112.84 139.61L113.017 137.718C113.017 137.718 116.244 137.845 118.328 136.79C118.328 136.79 115.418 139.102 112.84 139.61Z" fill="#F07162"/>
<path d="M117.286 130.642C117.235 130.578 116.016 129.054 114.669 129.943C114.618 129.981 114.542 129.969 114.504 129.905C114.466 129.854 114.478 129.778 114.542 129.74C116.066 128.736 117.464 130.464 117.477 130.489C117.527 130.54 117.515 130.616 117.464 130.655C117.438 130.68 117.409 130.688 117.375 130.68C117.341 130.68 117.311 130.667 117.286 130.642Z" fill="#2F0E1B"/>
<path d="M113.12 129.981C113.107 129.968 112.231 129.054 111.659 129.46C111.608 129.498 111.532 129.486 111.494 129.422C111.456 129.371 111.468 129.295 111.519 129.257C112.256 128.736 113.247 129.765 113.298 129.803C113.336 129.854 113.336 129.93 113.285 129.981C113.26 130.007 113.221 130.019 113.196 130.019C113.162 130.011 113.137 129.998 113.12 129.981Z" fill="#2F0E1B"/>
<path d="M112.091 130.515C112.269 130.528 112.408 130.693 112.396 130.883C112.37 131.074 112.205 131.201 112.027 131.188C111.837 131.175 111.697 131.01 111.722 130.82C111.735 130.629 111.9 130.489 112.091 130.515Z" fill="#010103"/>
<path d="M115.445 130.781C115.635 130.807 115.762 130.972 115.749 131.15C115.724 131.34 115.559 131.48 115.381 131.455C115.19 131.442 115.051 131.277 115.076 131.086C115.089 130.909 115.254 130.769 115.445 130.781Z" fill="#010103"/>
<path d="M120.919 131.252C121.961 131.353 122.736 132.281 122.634 133.322C122.532 134.377 121.605 135.139 120.563 135.037C119.509 134.936 118.747 134.008 118.848 132.967C118.95 131.925 119.877 131.15 120.919 131.252Z" fill="#FE9F73"/>
<path d="M120.755 134.326C120.729 134.326 120.704 134.288 120.704 134.262C120.704 134.224 120.742 134.199 120.767 134.199C121.136 134.237 121.364 133.983 121.466 133.754C121.555 133.538 121.555 133.208 121.288 132.992C120.793 132.624 120.297 133.005 120.285 133.03L120.119 133.17L120.183 132.954C120.301 132.632 120.488 132.416 120.742 132.306C121.174 132.128 121.657 132.331 121.669 132.344C121.707 132.357 121.72 132.395 121.707 132.42C121.695 132.446 121.657 132.459 121.618 132.446C121.618 132.446 121.174 132.255 120.793 132.42C120.615 132.497 120.475 132.632 120.373 132.827C120.589 132.725 120.971 132.611 121.352 132.903C121.631 133.106 121.707 133.462 121.58 133.805C121.453 134.097 121.161 134.364 120.767 134.326C120.767 134.326 120.763 134.326 120.755 134.326Z" fill="#FB554B"/>
<path d="M111.76 127.402C111.76 127.402 112.611 124.544 116.536 124.607C120.462 124.658 120.703 127.631 120.703 127.631L116.168 128.101L112.039 127.402H111.76Z" fill="#FE9F73"/>
<path d="M112.814 122.994C112.814 122.994 117.299 123.706 117.566 123.731C117.832 123.756 121.91 125.891 121.91 125.891C121.91 125.891 122.634 131.328 120.348 131.29C118.061 131.239 117.375 127.301 117.375 127.301C114.186 127.542 112.001 124.938 112.001 124.938L112.814 122.994Z" fill="#222222"/>
<path d="M112.675 134.301C112.713 134.288 114.987 134.047 114.987 134.047C114.987 134.047 114.771 135.012 113.933 135.101C113.081 135.19 112.675 134.301 112.675 134.301Z" fill="#FBFDFA"/>
<path d="M131.438 141.542C132.48 141.758 133.509 142.151 134.474 142.698C134.466 142.706 134.462 142.719 134.462 142.736C133.547 144.895 132.264 146.864 130.689 148.554C130.646 148.605 130.6 148.656 130.549 148.707C130.498 148.757 130.447 148.808 130.396 148.859C126.751 152.632 121.644 154.982 115.978 154.982C112.878 154.982 109.944 154.283 107.327 153.026C106.844 152.797 106.365 152.543 105.891 152.264C105.815 152.221 105.739 152.175 105.663 152.124C105.451 151.997 105.239 151.865 105.027 151.73C104.96 151.688 104.888 151.641 104.811 151.59C103.376 150.625 102.067 149.469 100.911 148.173C100.496 147.699 100.103 147.207 99.7299 146.699C98.9296 145.594 98.2309 144.4 97.6719 143.142C98.6628 142.482 100.606 141.986 102.83 141.618C104.545 141.338 106.437 141.135 108.165 140.983C109.982 140.83 111.621 140.741 112.738 140.691C113.666 140.652 114.225 140.64 114.225 140.64C114.225 140.64 116.499 140.64 119.433 140.716C120.767 140.754 122.241 140.805 123.702 140.856C123.702 140.864 123.702 140.868 123.702 140.868C124.832 140.906 125.938 140.97 126.979 141.046C128.529 141.148 129.914 141.288 130.943 141.453C131.019 141.461 131.095 141.474 131.171 141.491C131.18 141.491 131.188 141.491 131.197 141.491C131.256 141.508 131.315 141.52 131.375 141.529C131.4 141.537 131.421 141.542 131.438 141.542Z" fill="#999999"/>
<path d="M134.538 142.533C134.521 142.583 134.5 142.638 134.474 142.698C134.466 142.706 134.462 142.719 134.462 142.736C134.081 142.533 133.699 142.367 133.318 142.24C132.641 142.02 131.819 141.825 130.854 141.656C129.77 141.461 128.512 141.3 127.081 141.173C127.017 141.161 126.979 141.11 126.979 141.059C126.979 141.05 126.979 141.046 126.979 141.046C126.992 140.983 127.043 140.945 127.094 140.957C128.555 141.084 129.838 141.249 130.943 141.453C131.019 141.461 131.095 141.474 131.171 141.491C131.18 141.491 131.188 141.491 131.197 141.491C131.282 141.508 131.362 141.525 131.438 141.542C132.184 141.694 132.831 141.859 133.382 142.037C133.771 142.164 134.157 142.329 134.538 142.533Z" fill="#010103"/>
<path d="M108.165 140.982C108.165 140.982 115.8 148.592 123.714 140.868C123.714 140.868 114.669 139.852 108.165 140.982Z" fill="#FE9F73"/>
<path fill-rule="evenodd" clip-rule="evenodd" d="M115.978 155.008C115.919 155.008 115.859 155.008 115.8 155.008C114.974 154.995 114.149 154.944 113.336 154.842C113.132 154.817 112.916 154.783 112.688 154.741C107.467 153.915 102.792 151.133 99.5395 146.928C96.7066 143.269 95.2075 138.887 95.2075 134.237C95.2075 128.698 97.3672 123.477 101.293 119.552C105.218 115.639 110.426 113.479 115.978 113.479C121.517 113.479 126.738 115.639 130.663 119.552C134.576 123.477 136.736 128.698 136.736 134.237C136.736 139.001 135.173 143.485 132.201 147.195C128.821 151.412 124.032 154.131 118.697 154.83C117.807 154.944 116.893 155.008 115.978 155.008ZM115.978 114.877C105.307 114.877 96.6177 123.566 96.6177 134.237C96.6177 138.569 98.015 142.66 100.657 146.077C103.681 149.99 108.038 152.581 112.904 153.356C113.12 153.394 113.323 153.42 113.513 153.445C114.276 153.547 115.051 153.597 115.826 153.597C115.876 153.597 115.927 153.597 115.978 153.597C116.829 153.597 117.693 153.547 118.519 153.432C123.486 152.784 127.958 150.256 131.108 146.318C133.877 142.863 135.338 138.683 135.338 134.237C135.338 123.566 126.649 114.877 115.978 114.877Z" fill="white"/>
<path d="M168.241 74.4794C177.629 74.4794 185.238 82.0888 185.238 91.4768C185.238 95.199 184.031 98.6544 181.999 101.449C181.685 101.881 181.351 102.3 180.995 102.707C179.496 104.409 177.641 105.819 175.558 106.81C173.348 107.877 170.858 108.474 168.241 108.474C163.452 108.474 159.12 106.48 156.02 103.291C155.978 103.249 155.935 103.202 155.893 103.151C155.859 103.109 155.821 103.067 155.779 103.024C152.971 100.001 151.243 95.9358 151.243 91.4768C151.243 82.0888 158.853 74.4794 168.241 74.4794Z" fill="#DCDCDC"/>
<path d="M175.559 106.81C173.349 107.877 170.859 108.474 168.242 108.474C163.453 108.474 159.121 106.48 156.021 103.291C155.979 103.249 155.936 103.202 155.894 103.151C157.66 101.728 160.15 100.471 163.656 99.861C163.3 100.013 164.189 99.7975 164.456 99.7213C164.507 99.7213 164.532 99.7086 164.532 99.7086C164.532 99.7086 164.647 99.7086 164.85 99.7213C165.841 99.7594 168.953 99.8864 172.04 100.077C172.15 100.077 172.256 100.081 172.358 100.09C174.53 100.229 176.664 100.395 177.998 100.572C179.218 100.738 180.196 101.551 180.996 102.707C179.497 104.409 177.642 105.819 175.559 106.81Z" fill="#999999"/>
<path d="M172.091 84.5916L172.154 93.1411L172.014 95.3516C172.014 95.3516 172.522 99.8613 172.294 100.789C172.065 101.729 170.655 103.571 168.152 103.507C167.365 103.482 166.666 103.329 166.082 103.126C164.9 102.72 164.189 101.513 164.379 100.281L164.875 96.9395C162.69 96.5711 162.855 94.0685 162.855 94.0685L163.058 86.2685L172.091 84.5916Z" fill="#FE9F73"/>
<path d="M170.006 94.9447C170.006 94.9447 169.752 99.1369 164.506 99.4037L164.874 96.9392C164.874 96.9392 168.253 97.7141 170.006 94.9447Z" fill="#F07162"/>
<path d="M168.927 90.486C168.876 90.4225 167.644 89.1013 166.463 90.016C166.412 90.0414 166.348 90.0414 166.31 89.9906C166.272 89.9524 166.285 89.8762 166.336 89.8508C167.67 88.8218 169.067 90.3336 169.08 90.3463C169.118 90.3844 169.118 90.4479 169.08 90.486C169.054 90.5114 169.029 90.5241 169.003 90.5241C168.978 90.5241 168.953 90.5114 168.927 90.486Z" fill="#2D0F28"/>
<path d="M172.623 89.5208L170.362 89.9273L169.943 90.3338C169.943 90.3338 170.235 86.5609 170.68 85.8367C171.124 85.0999 172.623 89.5208 172.623 89.5208Z" fill="#222222"/>
<path d="M164.647 89.7493C164.634 89.7493 163.77 88.9617 163.262 89.3682C163.224 89.4063 163.148 89.4064 163.109 89.3555C163.084 89.3047 163.084 89.2412 163.135 89.2031C163.77 88.6822 164.748 89.5588 164.786 89.5969C164.837 89.635 164.837 89.6985 164.799 89.7493C164.774 89.7748 164.748 89.7875 164.71 89.7875C164.693 89.779 164.672 89.7663 164.647 89.7493Z" fill="#2D0F28"/>
<path d="M167.199 90.5877C167.377 90.5877 167.517 90.7275 167.504 90.9053C167.504 91.0705 167.364 91.2102 167.187 91.2102C167.009 91.1975 166.882 91.0578 166.882 90.8926C166.882 90.7148 167.034 90.575 167.199 90.5877Z" fill="#010103"/>
<path d="M163.884 90.1813C164.049 90.1813 164.189 90.3337 164.189 90.4989C164.176 90.6767 164.037 90.8165 163.859 90.8038C163.694 90.8038 163.554 90.664 163.554 90.4862C163.566 90.3083 163.706 90.1813 163.884 90.1813Z" fill="#010103"/>
<path d="M171.404 89.0124C172.433 89.0379 173.258 89.9017 173.233 90.9434C173.208 91.9851 172.344 92.7981 171.302 92.7727C170.26 92.7473 169.447 91.8835 169.473 90.8418C169.498 89.8128 170.362 88.987 171.404 89.0124Z" fill="#FE9F73"/>
<path d="M171.646 91.947C171.608 91.947 171.595 91.9216 171.595 91.8962C171.595 91.8581 171.62 91.8454 171.646 91.8454C171.646 91.8454 171.65 91.8454 171.659 91.8454C172.014 91.8454 172.23 91.5786 172.306 91.3499C172.383 91.1213 172.357 90.791 172.078 90.6004C171.557 90.2574 171.1 90.6766 171.074 90.702L170.934 90.8291L170.985 90.6512C171.078 90.3209 171.244 90.0965 171.481 89.9779C171.9 89.762 172.383 89.9271 172.408 89.9398C172.433 89.9525 172.446 89.9779 172.434 90.0033C172.421 90.0287 172.395 90.0414 172.37 90.0414C172.37 90.0287 171.913 89.8763 171.532 90.0668C171.362 90.16 171.231 90.3125 171.138 90.5242C171.341 90.3971 171.722 90.2447 172.129 90.5115C172.408 90.6893 172.51 91.0323 172.408 91.3753C172.306 91.6675 172.04 91.9597 171.646 91.947Z" fill="#FB554B"/>
<path d="M165.7 92.9631L164.582 92.5693L164.988 90.0286C165.001 90.0032 165.027 89.9778 165.052 89.9778C165.077 89.9905 165.103 90.0159 165.103 90.0413L164.696 92.4931L165.738 92.8742C165.763 92.8742 165.776 92.9123 165.776 92.9377C165.763 92.9632 165.738 92.9759 165.725 92.9759C165.717 92.9759 165.708 92.9716 165.7 92.9631Z" fill="#FB554B"/>
<path d="M165.434 94.7928C164.672 94.7547 164.443 93.9035 164.443 93.9035C164.443 93.9035 166.476 94.0051 166.501 94.0051C166.501 94.0051 166.184 94.8309 165.434 94.7928Z" fill="#FBFDFA"/>
<path d="M169.004 86.497C165.663 87.4752 160.137 86.3572 160.784 84.0833C161.42 81.8093 163.986 82.7113 163.986 82.7113C163.986 82.7113 163.224 81.8601 164.024 81.1996C164.824 80.539 171.189 83.0924 172.269 84.4771C173.361 85.8745 172.624 89.5204 172.624 89.5204C171.176 87.183 169.004 86.497 169.004 86.497Z" fill="#222222"/>
<path fill-rule="evenodd" clip-rule="evenodd" d="M168.279 109.529C168.228 109.529 168.182 109.529 168.139 109.529C167.428 109.529 166.729 109.478 166.043 109.389C165.874 109.372 165.688 109.347 165.484 109.313C161.063 108.614 157.113 106.264 154.356 102.694C151.955 99.5944 150.685 95.8723 150.685 91.9469C150.685 87.2465 152.514 82.8257 155.842 79.51C159.158 76.1817 163.579 74.3523 168.279 74.3523C172.979 74.3523 177.388 76.1817 180.716 79.51C184.032 82.8257 185.861 87.2465 185.861 91.9469C185.861 95.9866 184.54 99.7723 182.025 102.923C179.166 106.493 175.101 108.792 170.579 109.389C169.829 109.478 169.054 109.529 168.279 109.529ZM168.279 75.5465C159.234 75.5465 151.879 82.9019 151.879 91.9469C151.879 95.6055 153.06 99.0736 155.296 101.97C157.862 105.286 161.559 107.483 165.675 108.144C165.865 108.169 166.031 108.195 166.183 108.208C166.831 108.296 167.492 108.335 168.152 108.347C168.194 108.347 168.237 108.347 168.279 108.347C169.003 108.347 169.727 108.296 170.426 108.208C174.644 107.649 178.429 105.514 181.097 102.173C183.435 99.2514 184.68 95.7071 184.68 91.9469C184.68 82.9019 177.324 75.5465 168.279 75.5465Z" fill="#CFCFCF"/>
<path d="M69.6605 71.3034L69.1016 70.2999L73.9925 67.5813L74.5514 68.5849L69.6605 71.3034ZM79.4296 65.8409L78.8707 64.85L83.7616 62.1187L84.3205 63.1223L79.4296 65.8409ZM89.1987 60.391L88.6398 59.3874L93.518 56.6689L94.0769 57.6597L89.1987 60.391ZM98.9805 54.9412L98.4216 53.9376L103.3 51.219L103.859 52.2226L98.9805 54.9412Z" fill="#3422F2"/>
<path d="M157.913 77.9857L154.915 73.9586L155.842 73.2726L158.828 77.2997L157.913 77.9857ZM151.587 69.4742L148.246 64.9898L149.16 64.3038L152.501 68.7882L151.587 69.4742ZM144.904 60.4928L141.563 56.0084L142.491 55.3224L145.832 59.8068L144.904 60.4928ZM138.222 51.524L134.881 47.0396L135.796 46.3536L139.137 50.838L138.222 51.524Z" fill="#3422F2"/>
<path d="M134.754 125.04L134.004 124.163L138.26 120.53L139.01 121.407L134.754 125.04ZM143.265 117.773L142.516 116.909L146.771 113.276L147.521 114.14L143.265 117.773ZM151.777 110.52L151.027 109.643L155.283 106.01L156.032 106.886L151.777 110.52Z" fill="#3422F2"/>
<path d="M150.761 90.1174L147.928 89.6982L148.093 88.5676L150.939 88.9868L150.761 90.1174ZM142.376 88.8725L136.85 88.0467L137.015 86.9161L142.554 87.7418L142.376 88.8725ZM131.299 87.221L125.773 86.4079L125.938 85.2773L131.477 86.0904L131.299 87.221ZM120.221 85.5822L114.695 84.7565L114.86 83.6258L120.399 84.4516L120.221 85.5822ZM109.144 83.9307L103.618 83.1177L103.783 81.9744L109.321 82.8001L109.144 83.9307ZM98.066 82.292L92.5399 81.4662L92.7051 80.3356L98.2439 81.1486L98.066 82.292ZM86.9885 80.6532L81.4624 79.8402L81.6275 78.6968L87.1663 79.5226L86.9885 80.6532ZM75.9109 79.0144L70.3848 78.1887L70.55 77.0581L76.076 77.8711L75.9109 79.0144Z" fill="#3422F2"/>
<path d="M199.263 148.643C199.263 152.48 197.79 155.96 195.376 158.565C195.342 158.598 195.308 158.632 195.274 158.666C195.241 158.709 195.202 158.747 195.16 158.781C192.518 161.525 188.796 163.24 184.68 163.24C182.431 163.24 180.297 162.731 178.391 161.817C176.6 160.966 175.012 159.759 173.716 158.285C173.42 157.938 173.136 157.578 172.865 157.205C171.112 154.804 170.083 151.844 170.083 148.643C170.083 140.589 176.613 134.047 184.68 134.047C192.734 134.047 199.263 140.589 199.263 148.643Z" fill="#3422F2"/>
<path d="M181.707 155.452C181.707 155.452 181.605 155.656 181.414 156.024C181.338 156.159 181.258 156.312 181.173 156.481C180.855 157.078 180.436 157.879 179.953 158.806C179.911 158.891 179.869 158.971 179.826 159.047C179.382 159.911 178.886 160.851 178.391 161.817C176.6 160.966 175.012 159.759 173.716 158.285C173.42 157.938 173.136 157.578 172.865 157.205C173.043 157.028 173.238 156.879 173.449 156.761C175.609 155.541 179.674 155.44 181.148 155.44C181.503 155.44 181.707 155.452 181.707 155.452Z" fill="#DCF4FF"/>
<path d="M173.716 158.285C174.402 157.294 175.254 156.596 176.308 156.456C177.451 156.304 179.281 156.151 181.148 156.037C181.233 156.037 181.322 156.033 181.415 156.024C184.07 155.859 186.738 155.757 187.589 155.719C187.767 155.719 187.856 155.706 187.856 155.706C187.856 155.706 187.881 155.719 187.932 155.732C188.16 155.783 188.923 155.986 188.618 155.846C191.629 156.367 193.763 157.447 195.275 158.666C195.241 158.709 195.203 158.747 195.16 158.781C192.518 161.525 188.796 163.24 184.68 163.24C182.431 163.24 180.297 162.732 178.391 161.817C176.6 160.966 175.012 159.759 173.716 158.285Z" fill="#DCF4FF"/>
<path d="M184.578 159.479C182.634 159.492 181.071 157.332 181.148 154.715L181.338 150.993L187.487 150.955L187.766 154.741C187.944 157.396 186.572 159.454 184.578 159.479Z" fill="#FE9F73"/>
<path d="M181.339 150.993L187.487 150.955L187.652 153.381C187.157 156.011 182.368 156.252 181.263 153.585L181.339 150.993Z" fill="#F07162"/>
<path d="M189.811 145.302C190.738 145.302 191.501 146.052 191.501 146.979C191.513 147.919 190.751 148.681 189.824 148.681C188.884 148.694 188.134 147.932 188.121 147.004C188.121 146.064 188.871 145.302 189.811 145.302Z" fill="#FE9F73"/>
<path d="M189.938 148.033C189.9 148.033 189.875 148.008 189.887 147.982C189.887 147.957 189.913 147.932 189.938 147.932C190.256 147.932 190.446 147.677 190.51 147.474C190.561 147.271 190.548 146.966 190.281 146.814C189.811 146.521 189.417 146.915 189.392 146.928L189.265 147.068L189.303 146.877C189.379 146.581 189.523 146.373 189.735 146.255C190.103 146.051 190.548 146.191 190.573 146.191C190.599 146.204 190.612 146.229 190.599 146.267C190.599 146.293 190.561 146.305 190.535 146.293C190.535 146.293 190.116 146.166 189.786 146.344C189.642 146.428 189.532 146.564 189.456 146.75C189.646 146.636 189.976 146.496 190.332 146.725C190.599 146.877 190.7 147.182 190.612 147.5C190.535 147.766 190.294 148.033 189.951 148.033C189.942 148.033 189.938 148.033 189.938 148.033Z" fill="#F07162"/>
<path d="M189.367 145.81C190.079 136.753 175.965 132.98 179.471 148.694C181.275 155.49 189.685 154.652 189.367 145.81Z" fill="#FE9F73"/>
<path d="M180.17 147.042C180.17 147.982 179.42 148.732 178.493 148.745C177.553 148.745 176.79 147.995 176.79 147.055C176.778 146.128 177.54 145.366 178.467 145.366C179.407 145.353 180.17 146.115 180.17 147.042Z" fill="#FE9F73"/>
<path d="M178.366 148.096C178.01 148.096 177.769 147.83 177.693 147.563C177.591 147.245 177.693 146.94 177.96 146.788C178.315 146.559 178.646 146.686 178.836 146.801C178.76 146.623 178.646 146.492 178.493 146.407C178.163 146.229 177.756 146.356 177.756 146.369C177.731 146.369 177.693 146.356 177.68 146.331C177.68 146.305 177.693 146.267 177.718 146.267C177.731 146.254 178.176 146.115 178.544 146.318C178.764 146.428 178.912 146.631 178.989 146.928L179.039 147.118L178.9 146.979C178.874 146.966 178.48 146.585 178.01 146.877C177.756 147.042 177.731 147.334 177.795 147.537C177.858 147.741 178.049 147.995 178.366 147.982C178.392 147.982 178.417 148.008 178.43 148.046C178.43 148.071 178.404 148.096 178.366 148.096Z" fill="#F07162"/>
<path d="M182.66 145.95C182.66 146.14 182.507 146.306 182.317 146.306C182.126 146.306 181.961 146.153 181.961 145.963C181.961 145.772 182.113 145.607 182.304 145.607C182.495 145.607 182.66 145.759 182.66 145.95Z" fill="#010103"/>
<path d="M186.559 145.658C186.75 145.658 186.902 145.81 186.902 146.001C186.902 146.191 186.75 146.344 186.559 146.344C186.368 146.344 186.216 146.191 186.216 146.001C186.216 145.81 186.368 145.658 186.559 145.658Z" fill="#010103"/>
<path d="M187.982 145.391C187.919 145.391 187.855 145.378 187.805 145.327C186.991 144.654 185.823 145.035 185.81 145.035C185.658 145.086 185.505 145.01 185.454 144.857C185.404 144.718 185.48 144.553 185.632 144.502C185.683 144.489 187.106 144.006 188.16 144.896C188.287 144.997 188.3 145.175 188.198 145.289C188.147 145.366 188.059 145.391 187.982 145.391Z" fill="#222222"/>
<path d="M180.945 145.404C180.869 145.404 180.78 145.366 180.729 145.302C180.628 145.175 180.653 145.01 180.768 144.909C181.835 144.032 183.245 144.527 183.308 144.553C183.461 144.604 183.537 144.769 183.473 144.909C183.423 145.061 183.27 145.125 183.118 145.074C183.105 145.074 181.949 144.667 181.123 145.34C181.072 145.379 181.009 145.404 180.945 145.404Z" fill="#222222"/>
<path d="M183.46 149.609C183.498 149.596 185.556 149.545 185.556 149.545C185.556 149.545 185.302 150.396 184.527 150.422C183.765 150.447 183.46 149.609 183.46 149.609Z" fill="#FBFDFA"/>
<path d="M189.355 145.518C189.088 145.95 188.465 146.128 188.465 146.128C188.465 146.128 188.465 141.783 188.211 141.199C187.957 140.627 186.484 139.446 185.378 140.398C184.718 140.957 184.261 140.983 184.006 140.894C183.74 140.945 183.321 140.869 182.736 140.36C181.644 139.408 180.157 140.564 179.891 141.135C179.636 141.707 179.586 146.064 179.586 146.064C179.586 146.064 178.976 145.874 178.709 145.442C178.43 144.997 178.379 139.649 178.734 138.988C180.424 135.927 188.224 136.93 189.393 139.065C189.761 139.725 189.634 145.073 189.355 145.518Z" fill="#222222"/>
<path d="M185.175 148.021L184.032 147.741L184.172 145.175C184.172 145.15 184.197 145.124 184.223 145.124C184.248 145.137 184.273 145.15 184.273 145.188L184.134 147.652L185.201 147.919C185.226 147.919 185.252 147.944 185.239 147.982C185.239 147.995 185.214 148.021 185.201 148.021C185.192 148.021 185.184 148.021 185.175 148.021Z" fill="#F07162"/>
<path fill-rule="evenodd" clip-rule="evenodd" d="M184.006 153.623C182.075 153.381 181.123 148.046 183.816 148.173C184.451 148.122 185.188 148.097 185.785 148.262C186.433 148.44 186.865 149.037 186.877 149.697C186.915 151.616 186.928 154.017 184.006 153.623ZM184.298 150.853L184.832 150.828C185.607 152.657 186.242 150.65 186.191 149.634C186.179 149.38 186.001 149.151 185.759 149.075C184.908 148.783 183.244 148.91 183.053 149.304C182.622 149.926 183.587 153.305 184.298 150.853Z" fill="#222222"/>
<path fill-rule="evenodd" clip-rule="evenodd" d="M184.502 164.142C184.459 164.142 184.417 164.142 184.375 164.142C183.752 164.142 183.13 164.091 182.532 164.014C182.38 163.998 182.215 163.976 182.037 163.951C178.15 163.328 174.656 161.258 172.23 158.12C170.121 155.389 169.003 152.111 169.003 148.643C169.003 144.502 170.616 140.614 173.538 137.68C176.473 134.758 180.36 133.145 184.502 133.145C188.643 133.145 192.53 134.758 195.452 137.68C198.387 140.614 200 144.502 200 148.643C200 152.2 198.831 155.541 196.608 158.311C194.093 161.461 190.51 163.494 186.534 164.014C185.874 164.091 185.188 164.142 184.502 164.142ZM184.502 134.199C176.536 134.199 170.045 140.678 170.045 148.643C170.045 151.87 171.087 154.931 173.056 157.472C175.33 160.407 178.569 162.338 182.202 162.909C182.367 162.935 182.52 162.96 182.66 162.973C183.231 163.049 183.803 163.087 184.387 163.087C184.43 163.096 184.468 163.096 184.502 163.087C185.137 163.087 185.772 163.049 186.394 162.973C190.104 162.477 193.445 160.597 195.795 157.663C197.853 155.071 198.946 151.959 198.946 148.643C198.946 140.678 192.467 134.199 184.502 134.199Z" fill="white"/>
<path d="M168.978 149.215L164.875 149.05L164.913 147.906L169.029 148.071L168.978 149.215ZM159.272 148.834L153.683 148.618L153.733 147.462L159.323 147.69L159.272 148.834ZM148.093 148.389L142.503 148.173L142.542 147.017L148.131 147.246L148.093 148.389ZM136.914 147.944L131.324 147.728L131.375 146.585L136.965 146.801L136.914 147.944Z" fill="#3422F2"/>
<path d="M181.402 133.627L180.436 128.597L181.567 128.381L182.532 133.411L181.402 133.627ZM179.382 123.109L178.328 117.608L179.458 117.392L180.513 122.893L179.382 123.109ZM177.273 112.12L176.219 106.62L177.349 106.404L178.404 111.904L177.273 112.12Z" fill="#3422F2"/>
</svg>
