<svg width="20" height="20" viewBox="0 0 20 20" fill="none" xmlns="http://www.w3.org/2000/svg">
<g clip-path="url(#clip0_412_2047)">
<path d="M10 0C4.486 0 0 4.486 0 10C0 15.514 4.486 20 10 20C15.514 20 20 15.514 20 10C20 4.486 15.514 0 10 0ZM10 17.8722C5.65933 17.8722 2.12762 14.3409 2.12762 10C2.12762 5.65912 5.65933 2.12783 10 2.12783C14.3407 2.12783 17.8724 5.65912 17.8724 10C17.8724 14.3409 14.3407 17.8722 10 17.8722Z" fill="white"/>
<path d="M15.2116 9.6912H10.7176V4.28774C10.7176 3.83303 10.3489 3.46436 9.89418 3.46436C9.43947 3.46436 9.0708 3.83303 9.0708 4.28774V10.5146C9.0708 10.9693 9.43947 11.338 9.89418 11.338H15.2116C15.6663 11.338 16.035 10.9693 16.035 10.5146C16.035 10.0599 15.6663 9.6912 15.2116 9.6912Z" fill="white"/>
</g>
<defs>
<clipPath id="clip0_412_2047">
<rect width="20" height="20" fill="white"/>
</clipPath>
</defs>
</svg>
