<svg width="24" height="16" viewBox="0 0 24 16" fill="none" xmlns="http://www.w3.org/2000/svg">
<path d="M21.4989 0H2.49997C1.83719 0.00081741 1.20179 0.264468 0.733127 0.733126C0.264469 1.20178 0.00081741 1.83719 0 2.49997L0 13.4996C0.00081741 14.1624 0.264469 14.7978 0.733127 15.2665C1.20179 15.7351 1.83719 15.9988 2.49997 15.9996H21.4989C22.1617 15.9988 22.7971 15.7351 23.2658 15.2665C23.7344 14.7978 23.9981 14.1624 23.9989 13.4996V2.49997C23.9981 1.83719 23.7344 1.20178 23.2658 0.733126C22.7971 0.264468 22.1617 0.00081741 21.4989 0ZM22.9991 13.4996C22.9983 13.8972 22.8399 14.2782 22.5587 14.5592C22.2776 14.8402 21.8964 14.9982 21.4989 14.9988H2.49997C2.10244 14.9982 1.72133 14.8402 1.44014 14.5592C1.15895 14.2782 1.0006 13.8972 0.999782 13.4996V2.49997C0.999511 2.30269 1.0381 2.10729 1.11335 1.92493C1.18859 1.74257 1.29902 1.5768 1.43832 1.43712C1.57763 1.29743 1.74308 1.18655 1.92524 1.11081C2.1074 1.03506 2.30269 0.995937 2.49997 0.995666H21.4989C21.8966 0.996211 22.2779 1.15444 22.5591 1.43566C22.8403 1.71688 22.9986 2.09815 22.9991 2.49585V13.4996Z" fill="#474747"/>
<path d="M23.4995 3.00044H0.500406C0.36769 3.00044 0.24041 3.05316 0.146565 3.14701C0.0527212 3.24085 0 3.36814 0 3.50085L0 6.50123C0 6.63395 0.0527212 6.76123 0.146565 6.85508C0.24041 6.94892 0.36769 7.00163 0.500406 7.00163H23.4995C23.6322 7.00163 23.7595 6.94892 23.8534 6.85508C23.9472 6.76123 23.9999 6.63395 23.9999 6.50123V3.50085C23.9999 3.36814 23.9472 3.24085 23.8534 3.14701C23.7595 3.05316 23.6322 3.00044 23.4995 3.00044ZM22.9991 6.00082H0.999782V3.99611H22.9991V5.99568V6.00082Z" fill="#474747"/>
<path d="M9.50039 9.99993H3.50067C3.43311 9.99686 3.36563 10.0075 3.30231 10.0313C3.23899 10.055 3.18114 10.0913 3.13225 10.1381C3.08336 10.1848 3.04444 10.2409 3.01786 10.3031C2.99127 10.3653 2.97756 10.4322 2.97756 10.4998C2.97756 10.5674 2.99127 10.6344 3.01786 10.6966C3.04444 10.7587 3.08336 10.8149 3.13225 10.8616C3.18114 10.9083 3.23899 10.9447 3.30231 10.9684C3.36563 10.9921 3.43311 11.0028 3.50067 10.9997H9.50039C9.56795 11.0028 9.63542 10.9921 9.69874 10.9684C9.76206 10.9447 9.81992 10.9083 9.86881 10.8616C9.9177 10.8149 9.95661 10.7587 9.98319 10.6966C10.0098 10.6344 10.0235 10.5674 10.0235 10.4998C10.0235 10.4322 10.0098 10.3653 9.98319 10.3031C9.95661 10.2409 9.9177 10.1848 9.86881 10.1381C9.81992 10.0913 9.76206 10.055 9.69874 10.0313C9.63542 10.0075 9.56795 9.99686 9.50039 9.99993Z" fill="#474747"/>
<path d="M9.5005 11.9995H3.50078C3.37212 12.0053 3.25067 12.0605 3.16169 12.1537C3.07271 12.2468 3.02306 12.3706 3.02306 12.4994C3.02306 12.6282 3.07271 12.752 3.16169 12.8451C3.25067 12.9382 3.37212 12.9934 3.50078 12.9993H9.5005C9.62915 12.9934 9.7506 12.9382 9.83958 12.8451C9.92855 12.752 9.97821 12.6282 9.97821 12.4994C9.97821 12.3706 9.92855 12.2468 9.83958 12.1537C9.7506 12.0605 9.62915 12.0053 9.5005 11.9995Z" fill="#474747"/>
<path d="M19.4994 9.00006H18.4996C18.1019 9.00061 17.7206 9.15881 17.4394 9.44004C17.1582 9.72126 16.9999 10.1025 16.9994 10.5003V11.5C16.9997 11.8978 17.1578 12.2792 17.4391 12.5605C17.7204 12.8418 18.1018 12.9999 18.4996 13.0002H19.4994C19.8971 12.9997 20.2783 12.8414 20.5596 12.5602C20.8408 12.279 20.999 11.8977 20.9996 11.5V10.5003C20.999 10.1025 20.8408 9.72126 20.5596 9.44004C20.2783 9.15881 19.8971 9.00061 19.4994 9.00006ZM19.9998 11.5C19.9998 11.6327 19.9471 11.76 19.8532 11.8539C19.7594 11.9477 19.6321 12.0004 19.4994 12.0004H18.4996C18.3669 12.0004 18.2396 11.9477 18.1457 11.8539C18.0519 11.76 17.9992 11.6327 17.9992 11.5V10.5003C17.9992 10.3675 18.0519 10.2403 18.1457 10.1464C18.2396 10.0526 18.3669 9.99982 18.4996 9.99982H19.4994C19.6321 9.99982 19.7594 10.0526 19.8532 10.1464C19.9471 10.2403 19.9998 10.3675 19.9998 10.5003V11.5Z" fill="#474747"/>
</svg>
