<svg width="16" height="13" viewBox="0 0 16 13" fill="none" xmlns="http://www.w3.org/2000/svg">
<path d="M7.99969 3.33277C8.27421 2.2285 8.95199 1.26692 9.8997 0.637145C10.8799 0.15905 12.0041 0.0671524 13.049 0.37967C13.6183 0.51566 14.1433 0.79553 14.5735 1.19249C15.0038 1.58945 15.3249 2.0902 15.5062 2.64681C15.7139 3.24692 15.8005 3.88227 15.761 4.51608C15.7215 5.1499 15.5566 5.76957 15.2759 6.33921C14.0415 8.02115 12.5259 9.4772 10.7959 10.6432C9.80442 11.1886 8.86799 11.8286 7.99969 12.5542C7.99969 12.5542 2.76031 8.95941 1.80577 7.7665C1.29939 7.15451 0.843269 6.50261 0.441863 5.81717C0.219552 5.12089 0.165996 4.38172 0.285619 3.66066C0.405242 2.9396 0.694611 2.25734 1.12985 1.67014C1.49419 1.15621 1.98839 0.748191 2.562 0.487719C3.1356 0.227247 3.76806 0.123659 4.39478 0.187547C5.18322 0.272777 5.93671 0.558433 6.58347 1.01734C7.18184 1.70442 7.66057 2.48712 7.99969 3.33277Z" fill="white"/>
<path fill-rule="evenodd" clip-rule="evenodd" d="M7.99992 12.3451C8.4274 12.0243 8.92428 11.6783 9.45235 11.3071C12.0856 9.46946 15.6151 7.00819 15.6151 4.39907C15.6439 3.73775 15.5037 3.08 15.2079 2.48783C14.9121 1.89567 14.4703 1.3886 13.9243 1.01444C13.4229 0.686278 12.8519 0.479633 12.2566 0.410941C11.32 0.292481 10.3738 0.540181 9.61544 1.10238C8.85704 1.66457 8.34496 2.49786 8.186 3.42844C8.18066 3.45299 8.17049 3.47623 8.15607 3.4968C8.14165 3.51737 8.12327 3.53486 8.10201 3.54825C8.08076 3.56164 8.05705 3.57066 8.03226 3.57479C8.00748 3.57891 7.98213 3.57806 7.95768 3.57227C7.92158 3.56343 7.88885 3.54426 7.86348 3.51711C7.83812 3.48996 7.82122 3.456 7.81485 3.41938C7.6994 2.79216 7.42525 2.20494 7.01853 1.7137C6.6118 1.22246 6.08605 0.843563 5.49138 0.613113C4.93344 0.40744 4.33433 0.338458 3.74425 0.411946C3.14887 0.480166 2.57773 0.686849 2.07658 1.01545C1.53068 1.38952 1.08901 1.89642 0.793199 2.4884C0.497388 3.08037 0.357175 3.73792 0.385774 4.39907C0.385774 7.0092 3.91423 9.47047 6.54549 11.3071C7.07657 11.6793 7.57345 12.0243 8.00093 12.3451M9.67363 11.6199C9.09528 12.0223 8.55816 12.3974 8.11761 12.7324C8.08417 12.7582 8.04314 12.7721 8.00093 12.7721C7.95871 12.7721 7.91769 12.7582 7.88425 12.7324C7.4437 12.3974 6.90759 12.0283 6.32823 11.6199C3.62455 9.73501 0.00355756 7.20534 0.00355756 4.39907C-0.0260502 3.67425 0.129543 2.95385 0.455649 2.30586C0.781754 1.65787 1.26761 1.10368 1.86736 0.695591C2.41628 0.33403 3.04212 0.105806 3.69492 0.0291394C4.34773 -0.0475277 5.00942 0.0294855 5.62716 0.254031C6.17894 0.462939 6.67775 0.791171 7.08793 1.21526C7.49811 1.63935 7.80953 2.14882 7.99992 2.70726C8.19043 2.14872 8.502 1.63918 8.91236 1.21509C9.32272 0.790991 9.82173 0.462815 10.3737 0.254031C10.9914 0.0293397 11.653 -0.0478403 12.3058 0.0286519C12.9586 0.105144 13.5845 0.33319 14.1335 0.694585C14.7332 1.10288 15.219 1.65728 15.5449 2.30546C15.8708 2.95363 16.0262 3.67418 15.9963 4.39907C15.9963 7.20534 12.3753 9.73601 9.67162 11.6209" fill="#3422F2"/>
</svg>
