<svg width="30" height="21" viewBox="0 0 30 21" fill="none" xmlns="http://www.w3.org/2000/svg">
<path d="M22.5 1.49979C22.5 1.10202 22.342 0.720543 22.0607 0.439277C21.7794 0.158011 21.398 0 21.0002 0H1.4998C1.10202 0 0.720546 0.158011 0.43928 0.439277C0.158014 0.720543 0 1.10202 0 1.49979C0 1.89756 0.158014 2.27904 0.43928 2.56031C0.720546 2.84158 1.10202 2.99959 1.4998 2.99959H21.0002C21.398 2.99959 21.7794 2.84158 22.0607 2.56031C22.342 2.27904 22.5 1.89756 22.5 1.49979ZM1.4998 8.99979H28.5002C28.8979 8.99979 29.2794 9.1578 29.5607 9.43906C29.842 9.72033 30 10.1018 30 10.4996C30 10.8973 29.842 11.2788 29.5607 11.5601C29.2794 11.8414 28.8979 11.9994 28.5002 11.9994H1.4998C1.10202 11.9994 0.720546 11.8414 0.43928 11.5601C0.158014 11.2788 0 10.8973 0 10.4996C0 10.1018 0.158014 9.72033 0.43928 9.43906C0.720546 9.1578 1.10202 8.99979 1.4998 8.99979ZM1.4998 17.9996H15C15.3978 17.9996 15.7792 18.1576 16.0605 18.4389C16.3418 18.7201 16.4998 19.1016 16.4998 19.4994C16.4998 19.8971 16.3418 20.2786 16.0605 20.5599C15.7792 20.8411 15.3978 20.9992 15 20.9992H1.4998C1.10202 20.9992 0.720546 20.8411 0.43928 20.5599C0.158014 20.2786 1.7879e-07 19.8971 1.7879e-07 19.4994C1.7879e-07 19.1016 0.158014 18.7201 0.43928 18.4389C0.720546 18.1576 1.10202 17.9996 1.4998 17.9996Z" fill="white"/>
</svg>
