<svg width="20" height="25" viewBox="0 0 20 25" fill="none" xmlns="http://www.w3.org/2000/svg">
<path d="M16.6998 13.049C16.7045 14.1091 17.0195 15.1447 17.606 16.0279C18.1924 16.9111 19.0246 17.6033 19.9998 18.019C19.6052 19.2595 19.0326 20.4361 18.2998 21.512C17.2758 23.012 16.2138 24.499 14.5398 24.53C12.8948 24.56 12.3658 23.555 10.4858 23.555C8.60581 23.555 8.01881 24.499 6.46181 24.561C4.84581 24.622 3.61581 22.943 2.58381 21.452C0.474812 18.4 -1.13719 12.835 1.02681 9.077C1.535 8.16779 2.27065 7.40619 3.16169 6.86679C4.05274 6.3274 5.06862 6.02871 6.10981 6C7.69681 5.97 9.19381 7.067 10.1638 7.067C11.1338 7.067 12.9528 5.747 14.8638 5.941C15.7499 5.9724 16.6166 6.2087 17.396 6.63136C18.1753 7.05401 18.8462 7.65152 19.3558 8.377C18.554 8.86745 17.8897 9.55333 17.4252 10.3704C16.9607 11.1875 16.7111 12.1092 16.6998 13.049ZM13.6118 3.922C14.5391 2.83475 14.9985 1.42481 14.8898 0C13.4903 0.135923 12.1958 0.802127 11.2718 1.862C10.8112 2.37575 10.4587 2.97695 10.2354 3.6298C10.012 4.28265 9.9224 4.97378 9.97181 5.662C10.672 5.67175 11.365 5.51992 11.997 5.21832C12.629 4.91672 13.183 4.47347 13.6158 3.923" fill="black"/>
</svg>
