<svg width="49" height="49" viewBox="0 0 49 49" fill="none" xmlns="http://www.w3.org/2000/svg">
<g filter="url(#filter0_d_38_10474)">
<path d="M24.5 40C34.7173 40 43 31.7173 43 21.5C43 11.2827 34.7173 3 24.5 3C14.2827 3 6 11.2827 6 21.5C6 31.7173 14.2827 40 24.5 40Z" fill="#3422F2"/>
</g>
<path d="M26.5899 22.6416C26.5899 23.1024 26.4533 23.5528 26.1973 23.9359C25.9413 24.319 25.5775 24.6176 25.1518 24.7939C24.7261 24.9703 24.2577 25.0164 23.8058 24.9265C23.3539 24.8366 22.9388 24.6147 22.613 24.2889C22.2872 23.9631 22.0653 23.548 21.9754 23.0961C21.8855 22.6442 21.9317 22.1758 22.108 21.7501C22.2843 21.3244 22.5829 20.9606 22.966 20.7046C23.3491 20.4486 23.7995 20.312 24.2603 20.312C24.8782 20.312 25.4707 20.5575 25.9076 20.9943C26.3445 21.4312 26.5899 22.0238 26.5899 22.6416Z" fill="white"/>
<path d="M22.0868 15.3732L20.7575 16.8258H18.4553C18.0704 16.8268 17.7015 16.9802 17.4293 17.2524C17.1572 17.5246 17.0038 17.8934 17.0027 18.2784V26.9939C17.0038 27.3788 17.1572 27.7477 17.4293 28.0198C17.7015 28.292 18.0704 28.4454 18.4553 28.4465H30.0774C30.4623 28.4454 30.8312 28.292 31.1033 28.0198C31.3755 27.7477 31.5289 27.3788 31.53 26.9939V18.2784C31.5289 17.8934 31.3755 17.5246 31.1033 17.2524C30.8312 16.9802 30.4623 16.8268 30.0774 16.8258H27.7738L26.4459 15.3732H22.0868ZM24.2656 26.269C23.5474 26.269 22.8453 26.056 22.2481 25.657C21.6509 25.2579 21.1855 24.6908 20.9106 24.0272C20.6357 23.3636 20.5638 22.6335 20.7039 21.929C20.8441 21.2246 21.1899 20.5775 21.6978 20.0697C22.2057 19.5618 22.8527 19.2159 23.5572 19.0758C24.2616 18.9357 24.9918 19.0076 25.6554 19.2825C26.3189 19.5573 26.8861 20.0228 27.2851 20.62C27.6841 21.2172 27.8971 21.9193 27.8971 22.6375C27.8968 23.6005 27.514 24.524 26.8331 25.2049C26.1521 25.8859 25.2287 26.2686 24.2656 26.269Z" fill="white"/>
<defs>
<filter id="filter0_d_38_10474" x="0" y="0" width="49" height="49" filterUnits="userSpaceOnUse" color-interpolation-filters="sRGB">
<feFlood flood-opacity="0" result="BackgroundImageFix"/>
<feColorMatrix in="SourceAlpha" type="matrix" values="0 0 0 0 0 0 0 0 0 0 0 0 0 0 0 0 0 0 127 0" result="hardAlpha"/>
<feOffset dy="3"/>
<feGaussianBlur stdDeviation="3"/>
<feColorMatrix type="matrix" values="0 0 0 0 0 0 0 0 0 0 0 0 0 0 0 0 0 0 0.161 0"/>
<feBlend mode="normal" in2="BackgroundImageFix" result="effect1_dropShadow_38_10474"/>
<feBlend mode="normal" in="SourceGraphic" in2="effect1_dropShadow_38_10474" result="shape"/>
</filter>
</defs>
</svg>
