<svg width="30" height="5" viewBox="0 0 30 5" fill="none" xmlns="http://www.w3.org/2000/svg">
<path d="M2.5 5C3.88071 5 5 3.88071 5 2.5C5 1.11929 3.88071 0 2.5 0C1.11929 0 0 1.11929 0 2.5C0 3.88071 1.11929 5 2.5 5Z" fill="black"/>
<path d="M10.5 5C11.8807 5 13 3.88071 13 2.5C13 1.11929 11.8807 0 10.5 0C9.11929 0 8 1.11929 8 2.5C8 3.88071 9.11929 5 10.5 5Z" fill="black"/>
<path d="M19.5 5C20.8807 5 22 3.88071 22 2.5C22 1.11929 20.8807 0 19.5 0C18.1193 0 17 1.11929 17 2.5C17 3.88071 18.1193 5 19.5 5Z" fill="black"/>
<path d="M27.5 5C28.8807 5 30 3.88071 30 2.5C30 1.11929 28.8807 0 27.5 0C26.1193 0 25 1.11929 25 2.5C25 3.88071 26.1193 5 27.5 5Z" fill="black"/>
</svg>
