<svg width="17" height="16" viewBox="0 0 17 16" fill="none" xmlns="http://www.w3.org/2000/svg">
<g clip-path="url(#clip0_411_1345)">
<path d="M13.8841 1.07812H2.64075C1.46521 1.07812 0.508789 2.00308 0.508789 3.14035V9.79596C0.508789 10.9307 1.46105 11.8542 2.63318 11.8582V14.8784L7.12038 11.8582H13.8841C15.0596 11.8582 16.016 10.933 16.016 9.79596V3.14035C16.016 2.00308 15.0596 1.07812 13.8841 1.07812ZM15.1074 9.79596C15.1074 10.4484 14.5586 10.9793 13.8841 10.9793H6.8353L3.54181 13.1961V10.9793H2.64075C1.96619 10.9793 1.41742 10.4484 1.41742 9.79596V3.14035C1.41742 2.48776 1.96619 1.95703 2.64075 1.95703H13.8841C14.5586 1.95703 15.1074 2.48776 15.1074 3.14035V9.79596Z" fill="#FFAA2A"/>
<path d="M4.65918 4.18372H11.8655V5.06262H4.65918V4.18372Z" fill="#FFAA2A"/>
<path d="M4.65918 6.05872H11.8655V6.93762H4.65918V6.05872Z" fill="#FFAA2A"/>
<path d="M4.65918 7.93372H11.8655V8.81262H4.65918V7.93372Z" fill="#FFAA2A"/>
</g>
<defs>
<clipPath id="clip0_411_1345">
<rect width="16.5411" height="16" fill="white"/>
</clipPath>
</defs>
</svg>
