<svg width="335" height="35" viewBox="0 0 335 35" fill="none" xmlns="http://www.w3.org/2000/svg">
<rect y="9.47314" width="16" height="15.1568" rx="2" fill="#282F62"/>
<rect x="4" y="13.2623" width="8" height="7.57842" rx="1" fill="white"/>
<rect x="205" width="84" height="34.1029" rx="2" fill="white"/>
<rect x="299" width="36" height="34.1029" rx="2" fill="#242E42"/>
<g clip-path="url(#clip0_412_1992)">
<path d="M317 7.57849C311.486 7.57849 307 11.8281 307 17.0515C307 22.2749 311.486 26.5245 317 26.5245C322.514 26.5245 327 22.2749 327 17.0515C327 11.8281 322.514 7.57849 317 7.57849ZM317 24.5088C312.659 24.5088 309.128 21.1636 309.128 17.0515C309.128 12.9394 312.659 9.59419 317 9.59419C321.341 9.59419 324.872 12.9394 324.872 17.0515C324.872 21.1636 321.341 24.5088 317 24.5088Z" fill="white"/>
<path d="M322.212 16.7591H317.718V11.6403C317.718 11.2096 317.349 10.8604 316.894 10.8604C316.439 10.8604 316.071 11.2096 316.071 11.6403V17.539C316.071 17.9698 316.439 18.319 316.894 18.319H322.212C322.666 18.319 323.035 17.9698 323.035 17.539C323.035 17.1083 322.666 16.7591 322.212 16.7591Z" fill="white"/>
</g>
<defs>
<clipPath id="clip0_412_1992">
<rect width="20" height="18.946" fill="white" transform="translate(307 7.57849)"/>
</clipPath>
</defs>
</svg>
