<svg width="18" height="20" viewBox="0 0 18 20" fill="none" xmlns="http://www.w3.org/2000/svg">
<path d="M14.2726 9.82241H15.6665C15.8181 9.82214 15.9635 9.76178 16.0707 9.65457C16.1779 9.54735 16.2382 9.40201 16.2385 9.25039V7.85545C16.2382 7.70382 16.1779 7.55849 16.0707 7.45127C15.9635 7.34406 15.8181 7.2837 15.6665 7.28343H14.2726C14.121 7.2837 13.9756 7.34406 13.8684 7.45127C13.7612 7.55849 13.7008 7.70382 13.7006 7.85545V9.25039C13.7008 9.40201 13.7612 9.54735 13.8684 9.65457C13.9756 9.76178 14.121 9.82214 14.2726 9.82241ZM14.287 7.86887H15.6541V9.23697H14.287V7.86887ZM14.2726 13.5333H15.6665C15.8181 13.533 15.9635 13.4727 16.0707 13.3655C16.1779 13.2582 16.2382 13.1129 16.2385 12.9613V11.5643C16.2382 11.4127 16.1779 11.2673 16.0707 11.1601C15.9635 11.0529 15.8181 10.9925 15.6665 10.9923H14.2726C14.121 10.9925 13.9756 11.0529 13.8684 11.1601C13.7612 11.2673 13.7008 11.4127 13.7006 11.5643V12.9592C13.7004 13.0345 13.7151 13.109 13.7438 13.1786C13.7725 13.2482 13.8146 13.3114 13.8677 13.3647C13.9208 13.418 13.9839 13.4604 14.0534 13.4893C14.1228 13.5182 14.1973 13.5332 14.2726 13.5333ZM14.287 11.5798H15.6541V12.9479H14.287V11.5798ZM10.2922 9.82447H11.6871C11.8388 9.8242 11.9841 9.76385 12.0913 9.65663C12.1985 9.54942 12.2589 9.40408 12.2592 9.25246V7.85545C12.2589 7.70382 12.1985 7.55849 12.0913 7.45127C11.9841 7.34406 11.8388 7.2837 11.6871 7.28343H10.2922C10.1406 7.2837 9.99525 7.34406 9.88803 7.45127C9.78082 7.55849 9.72046 7.70382 9.72019 7.85545V9.25039C9.72046 9.40201 9.78082 9.54735 9.88803 9.65457C9.99525 9.76178 10.1406 9.82214 10.2922 9.82241V9.82447ZM10.3067 7.87094H11.6737V9.23697H10.3056L10.3067 7.87094ZM3.72535 14.5328H2.32937C2.17775 14.5331 2.03241 14.5934 1.9252 14.7006C1.81798 14.8078 1.75763 14.9532 1.75736 15.1048V16.4997C1.75763 16.6514 1.81798 16.7967 1.9252 16.9039C2.03241 17.0111 2.17775 17.0715 2.32937 17.0718H3.72432C3.87594 17.0715 4.02128 17.0111 4.12849 16.9039C4.23571 16.7967 4.29606 16.6514 4.29633 16.4997V15.1038C4.29606 14.9523 4.23585 14.8071 4.12886 14.7C4.02187 14.5928 3.8768 14.5323 3.72535 14.5318V14.5328ZM3.71089 16.4863H2.34693V15.1172H3.71399L3.71089 16.4863ZM3.72535 7.2855H2.32937C2.17775 7.28577 2.03241 7.34612 1.9252 7.45334C1.81798 7.56055 1.75763 7.70589 1.75736 7.85751V9.25039C1.75763 9.40201 1.81798 9.54735 1.9252 9.65457C2.03241 9.76178 2.17775 9.82214 2.32937 9.82241H3.72432C3.87594 9.82214 4.02128 9.76178 4.12849 9.65457C4.23571 9.54735 4.29606 9.40201 4.29633 9.25039V7.85545C4.29606 7.704 4.23585 7.55882 4.12886 7.45164C4.02187 7.34445 3.8768 7.28398 3.72535 7.28343V7.2855ZM3.71089 9.23903H2.34693V7.86887H3.71399L3.71089 9.23903ZM10.2922 13.4486H11.6871C11.8388 13.4484 11.9841 13.388 12.0913 13.2808C12.1985 13.1736 12.2589 13.0282 12.2592 12.8766V11.4796C12.2589 11.328 12.1985 11.1826 12.0913 11.0754C11.9841 10.9682 11.8388 10.9079 11.6871 10.9076H10.2922C10.1406 10.9079 9.99525 10.9682 9.88803 11.0754C9.78082 11.1826 9.72046 11.328 9.72019 11.4796V12.8746C9.72046 13.0262 9.78082 13.1715 9.88803 13.2787C9.99525 13.3859 10.1406 13.4463 10.2922 13.4466V13.4486ZM10.3067 11.4951H11.6737V12.8622H10.3056L10.3067 11.4951ZM16.5307 1.34228H15.2783V0.891069C15.278 0.654827 15.184 0.428338 15.017 0.26129C14.8499 0.0942412 14.6234 0.000273271 14.3872 0L14.253 0C14.0167 0.000273271 13.7902 0.0942412 13.6232 0.26129C13.4561 0.428338 13.3622 0.654827 13.3619 0.891069V1.34228H4.63604V0.891069C4.63576 0.654827 4.54179 0.428338 4.37475 0.26129C4.2077 0.0942412 3.98121 0.000273271 3.74497 0L3.61074 0C3.3745 0.000273271 3.14801 0.0942412 2.98096 0.26129C2.81391 0.428338 2.71994 0.654827 2.71967 0.891069V1.34228H1.46722C1.07817 1.34256 0.705136 1.49722 0.430039 1.77232C0.154941 2.04742 0.000273495 2.42045 0 2.8095V18.5349C0.000273494 18.9234 0.154724 19.2959 0.429434 19.5706C0.704144 19.8453 1.07665 19.9997 1.46515 20H16.5328C16.9213 19.9997 17.2938 19.8453 17.5685 19.5706C17.8432 19.2959 17.9977 18.9234 17.9979 18.5349V2.80537C17.9966 2.41704 17.8414 2.04507 17.5664 1.77086C17.2915 1.49665 16.9191 1.34255 16.5307 1.34228ZM13.9494 0.894166C13.9494 0.812014 13.982 0.733226 14.0401 0.675135C14.0982 0.617044 14.177 0.584409 14.2592 0.584409H14.3934C14.4755 0.584409 14.5543 0.617044 14.6124 0.675135C14.6705 0.733226 14.7032 0.812014 14.7032 0.894166V1.34228H13.9587L13.9494 0.894166ZM3.30614 0.894166C3.30614 0.812014 3.33878 0.733226 3.39687 0.675135C3.45496 0.617044 3.53375 0.584409 3.6159 0.584409H3.75013C3.83228 0.584409 3.91107 0.617044 3.96916 0.675135C4.02725 0.733226 4.05989 0.812014 4.05989 0.894166V1.34228H3.31544V0.891069L3.30614 0.894166ZM17.4125 18.5349C17.4122 18.7678 17.3196 18.9911 17.1548 19.1559C16.9901 19.3206 16.7668 19.4133 16.5338 19.4135H1.46515C1.2322 19.4133 1.00886 19.3206 0.844133 19.1559C0.679408 18.9911 0.586746 18.7678 0.586473 18.5349C0.840039 18.7266 1.1493 18.8303 1.46722 18.8302H13.3413C13.5332 18.8301 13.7232 18.7921 13.9004 18.7184C14.0776 18.6447 14.2384 18.5367 14.3738 18.4006L17.4032 15.3712L17.4125 18.5349ZM14.0836 17.8689C14.107 17.7722 14.1188 17.6731 14.1187 17.5736V15.618C14.1187 15.5301 14.136 15.4431 14.1697 15.3619C14.2033 15.2807 14.2526 15.207 14.3147 15.1449C14.3768 15.0827 14.4506 15.0334 14.5318 14.9998C14.6129 14.9662 14.7 14.9489 14.7878 14.9489H16.7434C16.8429 14.949 16.942 14.9372 17.0387 14.9138L14.0836 17.8689ZM17.4125 5.52504H4.92824C4.85361 5.52947 4.78349 5.56225 4.73222 5.61665C4.68095 5.67106 4.6524 5.743 4.6524 5.81776C4.6524 5.89252 4.68095 5.96446 4.73222 6.01887C4.78349 6.07328 4.85361 6.10605 4.92824 6.11048H17.4115V13.6933C17.4112 13.8707 17.3406 14.0407 17.2152 14.1662C17.0898 14.2916 16.9198 14.3621 16.7424 14.3624H14.7878C14.4553 14.363 14.1365 14.4953 13.9013 14.7305C13.6662 14.9656 13.5338 15.2844 13.5333 15.6169V17.5736C13.5333 17.6614 13.516 17.7484 13.4824 17.8296C13.4487 17.9108 13.3995 17.9845 13.3373 18.0467C13.2752 18.1088 13.2014 18.1581 13.1203 18.1917C13.0391 18.2253 12.9521 18.2426 12.8642 18.2426H1.46722C1.23371 18.2424 1.00985 18.1495 0.844738 17.9844C0.679626 17.8193 0.586746 17.5954 0.586473 17.3619V6.11151H3.75736C3.83199 6.10708 3.9021 6.07431 3.95337 6.0199C4.00465 5.96549 4.0332 5.89355 4.0332 5.81879C4.0332 5.74403 4.00465 5.6721 3.95337 5.61769C3.9021 5.56328 3.83199 5.53051 3.75736 5.52607H0.585441V2.80537C0.585714 2.57187 0.678594 2.348 0.843706 2.18289C1.00882 2.01778 1.23268 1.9249 1.46619 1.92463H2.71864V2.78782C2.71891 3.02406 2.81288 3.25055 2.97993 3.4176C3.14698 3.58464 3.37346 3.67861 3.6097 3.67889C3.68433 3.67445 3.75445 3.64168 3.80572 3.58727C3.857 3.53286 3.88555 3.46093 3.88555 3.38617C3.88555 3.3114 3.857 3.23947 3.80572 3.18506C3.75445 3.13065 3.68433 3.09788 3.6097 3.09344C3.52755 3.09344 3.44876 3.06081 3.39067 3.00272C3.33258 2.94463 3.29995 2.86584 3.29995 2.78369V1.92463H13.3567V2.78782C13.357 3.02406 13.451 3.25055 13.618 3.4176C13.7851 3.58464 14.0116 3.67861 14.2478 3.67889C14.3224 3.67445 14.3926 3.64168 14.4438 3.58727C14.4951 3.53286 14.5237 3.46093 14.5237 3.38617C14.5237 3.3114 14.4951 3.23947 14.4438 3.18506C14.3926 3.13065 14.3224 3.09788 14.2478 3.09344C14.1657 3.09344 14.0869 3.06081 14.0288 3.00272C13.9707 2.94463 13.9381 2.86584 13.9381 2.78369V1.92463H16.5194C16.7529 1.9249 16.9767 2.01778 17.1418 2.18289C17.307 2.348 17.3998 2.57187 17.4001 2.80537L17.4125 5.52504ZM3.72535 10.9076H2.32937C2.17775 10.9079 2.03241 10.9682 1.9252 11.0754C1.81798 11.1826 1.75763 11.328 1.75736 11.4796V12.8746C1.75763 13.0262 1.81798 13.1715 1.9252 13.2787C2.03241 13.3859 2.17775 13.4463 2.32937 13.4466H3.72432C3.87594 13.4463 4.02128 13.3859 4.12849 13.2787C4.23571 13.1715 4.29606 13.0262 4.29633 12.8746V11.4796C4.29606 11.3282 4.23585 11.183 4.12886 11.0758C4.02187 10.9686 3.8768 10.9081 3.72535 10.9076ZM3.71089 12.8611H2.34693V11.493H3.71399L3.71089 12.8611ZM6.31079 9.82344H7.70573C7.85736 9.82317 8.00269 9.76281 8.10991 9.6556C8.21712 9.54838 8.27748 9.40305 8.27775 9.25142V7.85545C8.27748 7.70382 8.21712 7.55849 8.10991 7.45127C8.00269 7.34406 7.85736 7.2837 7.70573 7.28343H6.31079C6.15917 7.2837 6.01383 7.34406 5.90661 7.45127C5.7994 7.55849 5.73904 7.70382 5.73877 7.85545V9.25039C5.73904 9.40201 5.7994 9.54735 5.90661 9.65457C6.01383 9.76178 6.15917 9.82214 6.31079 9.82241V9.82344ZM6.32525 7.8699H7.69231V9.23697H6.32525V7.8699ZM10.3056 16.4853C10.2997 16.4105 10.2654 16.3408 10.2097 16.2906C10.1539 16.2403 10.0811 16.2133 10.0061 16.2152C9.93105 16.217 9.85961 16.2476 9.80643 16.3005C9.75325 16.3534 9.72238 16.4247 9.72019 16.4997C9.72046 16.6514 9.78082 16.7967 9.88803 16.9039C9.99525 17.0111 10.1406 17.0715 10.2922 17.0718H11.6871C11.8388 17.0715 11.9841 17.0111 12.0913 16.9039C12.1985 16.7967 12.2589 16.6514 12.2592 16.4997V15.1038C12.2589 14.9521 12.1985 14.8068 12.0913 14.6996C11.9841 14.5924 11.8388 14.532 11.6871 14.5318H10.2922C10.1406 14.532 9.99525 14.5924 9.88803 14.6996C9.78082 14.8068 9.72046 14.9521 9.72019 15.1038V15.5065C9.71782 15.5464 9.72363 15.5863 9.73727 15.6239C9.75091 15.6615 9.77209 15.6959 9.7995 15.725C9.82691 15.754 9.85998 15.7772 9.89668 15.7931C9.93338 15.8089 9.97294 15.8171 10.0129 15.8171C10.0529 15.8171 10.0924 15.8089 10.1291 15.7931C10.1658 15.7772 10.1989 15.754 10.2263 15.725C10.2537 15.6959 10.2749 15.6615 10.2885 15.6239C10.3022 15.5863 10.308 15.5464 10.3056 15.5065V15.1182H11.6727V16.4853H10.3056ZM6.31079 13.4476H7.70573C7.85736 13.4473 8.00269 13.387 8.10991 13.2798C8.21712 13.1725 8.27748 13.0272 8.27775 12.8756V11.4796C8.27748 11.328 8.21712 11.1826 8.10991 11.0754C8.00269 10.9682 7.85736 10.9079 7.70573 10.9076H6.31079C6.15917 10.9079 6.01383 10.9682 5.90661 11.0754C5.7994 11.1826 5.73904 11.328 5.73877 11.4796V12.8746C5.73904 13.0262 5.7994 13.1715 5.90661 13.2787C6.01383 13.3859 6.15917 13.4463 6.31079 13.4466V13.4476ZM6.32525 11.4941H7.69231V12.8611H6.32525V11.4941ZM6.31079 17.0697H7.70573C7.85736 17.0694 8.00269 17.0091 8.10991 16.9019C8.21712 16.7946 8.27748 16.6493 8.27775 16.4977V15.1038C8.27748 14.9521 8.21712 14.8068 8.10991 14.6996C8.00269 14.5924 7.85736 14.532 7.70573 14.5318H6.31079C6.15917 14.532 6.01383 14.5924 5.90661 14.6996C5.7994 14.8068 5.73904 14.9521 5.73877 15.1038V16.4987C5.73904 16.6503 5.7994 16.7957 5.90661 16.9029C6.01383 17.0101 6.15917 17.0705 6.31079 17.0707V17.0697ZM6.32525 15.1162H7.69231V16.4832H6.32525V15.1162Z" fill="#474747"/>
</svg>
