<svg width="15" height="15" viewBox="0 0 15 15" fill="none" xmlns="http://www.w3.org/2000/svg">
<path d="M13.8199 13.8199C13.566 14.0704 13.2238 14.2108 12.8671 14.2108C12.5105 14.2108 12.1683 14.0704 11.9144 13.8199L7.49808 9.40361L3.08178 13.8199C2.82597 14.0545 2.48948 14.1813 2.14246 14.1739C1.79545 14.1665 1.46467 14.0254 1.2191 13.7801C0.973534 13.5348 0.832121 13.2042 0.824333 12.8572C0.816545 12.5102 0.942987 12.1736 1.1773 11.9175L5.59361 7.50121L1.1773 3.08492C1.05219 2.9598 0.952937 2.81126 0.885224 2.64778C0.81751 2.48431 0.782662 2.3091 0.782662 2.13215C0.782662 1.95521 0.81751 1.78 0.885224 1.61653C0.952937 1.45305 1.05219 1.30451 1.1773 1.17939C1.30242 1.05427 1.45096 0.955023 1.61443 0.88731C1.77791 0.819596 1.95312 0.784748 2.13007 0.784748C2.30701 0.784748 2.48222 0.819596 2.6457 0.88731C2.80917 0.955023 2.9577 1.05427 3.08282 1.17939L7.49912 5.59569L11.9175 1.1773C12.0426 1.05219 12.1912 0.952937 12.3546 0.885224C12.5181 0.81751 12.6933 0.782662 12.8703 0.782662C13.0472 0.782662 13.2224 0.81751 13.3859 0.885224C13.5494 0.952937 13.6979 1.05219 13.823 1.1773C13.9482 1.30242 14.0474 1.45096 14.1151 1.61443C14.1828 1.77791 14.2177 1.95312 14.2177 2.13007C14.2177 2.30701 14.1828 2.48222 14.1151 2.6457C14.0474 2.80917 13.9482 2.9577 13.823 3.08282L9.40674 7.49912L13.8199 11.9175C14.0694 12.1712 14.2092 12.5128 14.2092 12.8687C14.2092 13.2246 14.0694 13.5662 13.8199 13.8199Z" fill="black" stroke="white" stroke-width="1.5"/>
</svg>
