<svg width="78" height="71" viewBox="0 0 78 71" fill="none" xmlns="http://www.w3.org/2000/svg">
<path d="M11.4159 0H66.1999C69.2932 0.0598281 72.2328 1.19313 74.3729 3.1509C76.513 5.10867 77.6785 7.73074 77.6133 10.441V60.559C77.6785 63.2693 76.513 65.8913 74.3729 67.8491C72.2328 69.8069 69.2932 70.9402 66.1999 71H11.4159C8.32269 70.9402 5.38307 69.8069 3.24299 67.8491C1.1029 65.8913 -0.0625922 63.2693 0.00259438 60.559V10.441C-0.0625922 7.73074 1.1029 5.10867 3.24299 3.1509C5.38307 1.19313 8.32269 0.0598281 11.4159 0V0Z" fill="#F4F5F6"/>
<path d="M53.0621 45.4911H24.8906C24.7022 45.4864 24.5146 45.5149 24.339 45.5748C24.1633 45.6347 24.0032 45.7249 23.868 45.84C23.7329 45.9551 23.6254 46.0928 23.5521 46.2449C23.4787 46.397 23.4409 46.5605 23.4409 46.7256C23.4409 46.8907 23.4787 47.0542 23.5521 47.2063C23.6254 47.3584 23.7329 47.4961 23.868 47.6112C24.0032 47.7263 24.1633 47.8165 24.339 47.8764C24.5146 47.9363 24.7022 47.9648 24.8906 47.9601H53.0621C53.4288 47.951 53.7771 47.8169 54.0328 47.5864C54.2885 47.3558 54.4315 47.0471 54.4315 46.7256C54.4315 46.4041 54.2885 46.0954 54.0328 45.8648C53.7771 45.6343 53.4288 45.5002 53.0621 45.4911Z" fill="#3422F2"/>
<path d="M26.6471 42.2821C26.2733 42.2821 25.9147 42.4122 25.6504 42.6438C25.3861 42.8754 25.2375 43.1895 25.2375 43.5171C25.2375 43.8446 25.3861 44.1587 25.6504 44.3904C25.9147 44.622 26.2733 44.7521 26.6471 44.7521H51.2999C51.6737 44.7521 52.0323 44.622 52.2966 44.3904C52.5609 44.1587 52.7094 43.8446 52.7094 43.5171C52.7094 43.1895 52.5609 42.8754 52.2966 42.6438C52.0323 42.4122 51.6737 42.2821 51.2999 42.2821H50.9484V31.1731H51.2999C51.3947 31.1764 51.4893 31.163 51.578 31.1335C51.6667 31.104 51.7476 31.0591 51.8161 31.0016C51.8845 30.944 51.9389 30.8749 51.9761 30.7984C52.0133 30.722 52.0324 30.6397 52.0324 30.5566C52.0324 30.4735 52.0133 30.3912 51.9761 30.3147C51.9389 30.2383 51.8845 30.1692 51.8161 30.1116C51.7476 30.054 51.6667 30.0091 51.578 29.9797C51.4893 29.9502 51.3947 29.9367 51.2999 29.9401H26.6471C26.5523 29.9367 26.4577 29.9502 26.369 29.9797C26.2803 30.0091 26.1993 30.054 26.1309 30.1116C26.0625 30.1692 26.0081 30.2383 25.9709 30.3147C25.9337 30.3912 25.9145 30.4735 25.9145 30.5566C25.9145 30.6397 25.9337 30.722 25.9709 30.7984C26.0081 30.8749 26.0625 30.944 26.1309 31.0016C26.1993 31.0591 26.2803 31.104 26.369 31.1335C26.4577 31.163 26.5523 31.1764 26.6471 31.1731H26.9998V42.2811H26.6471V42.2821ZM48.1327 31.1731V42.2811H43.9098V31.1731H48.1327ZM41.0895 31.1731V42.2811H36.8666V31.1731H41.0895ZM29.8211 31.1731H34.0441V42.2811H29.82L29.8211 31.1731Z" fill="#3422F2"/>
<path d="M24.8894 28.83H53.0804C53.4121 28.8277 53.7323 28.723 53.9846 28.5342C54.2369 28.3455 54.4051 28.0848 54.4596 27.7981C54.5141 27.5114 54.4515 27.217 54.2827 26.9668C54.114 26.7165 53.8499 26.5265 53.5369 26.43L39.5556 20.917C39.3738 20.8456 39.1768 20.8086 38.9775 20.8086C38.7782 20.8086 38.5812 20.8456 38.3994 20.917L24.3119 26.47C24.0177 26.5856 23.7776 26.7862 23.6318 27.0382C23.4861 27.2903 23.4434 27.5785 23.511 27.8547C23.5786 28.131 23.7524 28.3786 24.0033 28.5561C24.2542 28.7336 24.567 28.8303 24.8894 28.83Z" fill="#3422F2"/>
</svg>
