<svg width="55" height="55" viewBox="0 0 55 55" fill="none" xmlns="http://www.w3.org/2000/svg">
<path d="M47.4131 8.53309L44.5672 10.4296L39.8269 9.48136L36.9811 8.53309L33.189 9.48136L30.3432 8.53309L32.2397 4.74102H36.0318L39.7486 2.8831C42.6163 4.30028 45.211 6.21302 47.4131 8.53309Z" fill="#3422F2"/>
<path d="M25.6079 4.74092L24.6596 7.58675L21.8138 8.53502L18.9679 13.2754L14.2317 16.1151L7.59479 17.0634V19.9092L9.49133 21.8067V25.5988L6.6455 23.7023L3.79967 21.8057L2.1501 16.8479C3.55569 13.497 5.61197 10.4582 8.19992 7.90746C10.7879 5.35668 13.8561 3.34455 17.2269 1.98758L19.9233 3.79264L25.6079 4.74092Z" fill="#3422F2"/>
<path d="M27.5044 31.2865L26.5561 36.0268L22.764 39.8189V42.6647L18.9719 45.5105V50.2509L16.1261 49.3026L14.2316 44.5643V35.0836L9.49127 34.1353L7.59472 30.3351V27.4893L9.49127 25.5928L12.3371 22.7469L14.2336 26.539H20.8705L23.7164 31.2793L27.5044 31.2865Z" fill="#3422F2"/>
<path d="M51.4908 14.0601C54.0277 18.5845 55.2317 23.7348 54.9633 28.915C54.6949 34.0952 52.9652 39.0935 49.9744 43.3315L47.4151 40.7713V36.9792L45.5186 33.1871L43.6221 29.3951V25.603L40.7762 23.7065L36.9842 24.6547L30.3473 21.8089L29.399 15.172L32.2448 12.3262H37.9365L39.833 15.172L45.5247 16.1203L51.2163 14.2237L51.4908 14.0601Z" fill="#3422F2"/>
<path d="M33.1931 9.48125L36.9852 8.53298L39.831 9.48125L44.5713 10.4295L47.4172 8.53298C49.0041 10.1953 50.373 12.0529 51.4908 14.061L51.2062 14.2226L45.5145 16.1192L39.8229 15.1709L37.9263 12.3251H32.2347L29.3888 15.1709L30.3371 21.8078L36.974 24.6536L40.7661 23.7053L43.6119 25.6019V29.3939L45.5084 33.186L47.405 36.9781V40.7701L49.9743 43.3324C46.0711 48.8761 40.2571 52.7822 33.6492 54.3001C27.0413 55.818 20.1056 54.8408 14.1743 51.5562C8.24306 48.2716 3.7346 42.9113 1.51503 36.5049C-0.70455 30.0985 -0.478714 23.0979 2.14915 16.8479L3.79872 21.8057L6.64455 23.7023L9.49038 25.5988L7.59587 27.4943V30.3402L9.49241 34.1322L14.2328 35.0805V44.5612L16.1293 49.3015L18.9751 50.2498V45.5074L22.7672 42.6616V39.8158L26.5593 36.0237L27.5075 31.2834H23.7124L20.8666 26.543H14.2297L12.3332 22.751L9.48733 25.5968V21.8057L7.59587 19.9102V17.0644L14.2328 16.1161L18.9731 13.2703L21.8189 8.52993L24.6648 7.58166L25.613 4.73583L19.9214 3.78756L17.228 1.99164C20.8325 0.539614 24.7038 -0.131889 28.5867 0.0214032C32.4696 0.174695 36.276 1.1493 39.7548 2.88096L36.0369 4.74091H32.2448L30.3493 8.53298L33.1931 9.48125Z" fill="#F6F5FF"/>
</svg>
