<svg width="69" height="68" viewBox="0 0 69 68" fill="none" xmlns="http://www.w3.org/2000/svg">
<path d="M34.0897 68C52.9169 68 68.1794 52.7777 68.1794 34C68.1794 15.2223 52.9169 0 34.0897 0C15.2625 0 0 15.2223 0 34C0 52.7777 15.2625 68 34.0897 68Z" fill="white"/>
<path d="M39.1112 22.417H28.6777V22.317L28.8472 20.732L29.0798 18.619C29.108 18.4328 29.203 18.2633 29.3473 18.1418C29.4915 18.0204 29.6751 17.9554 29.8639 17.959H37.9241C38.1158 17.9591 38.3007 18.0298 38.4433 18.1575C38.586 18.2852 38.6763 18.4609 38.6971 18.651L38.9297 20.764L39.0992 22.349L39.1112 22.417Z" fill="#F6C863"/>
<path d="M39.1004 22.317H28.688L28.8574 20.738H38.9309L39.1004 22.317Z" fill="#EAB54E"/>
<path d="M48.3428 28.444H52.1668V30.144H48.3428V28.444Z" fill="#EAB54E"/>
<path d="M53.3783 26.754H52.3045C51.3653 26.754 50.604 27.5131 50.604 28.4495C50.604 29.3859 51.3653 30.145 52.3045 30.145H53.3783C54.3175 30.145 55.0788 29.3859 55.0788 28.4495C55.0788 27.5131 54.3175 26.754 53.3783 26.754Z" fill="#F6C863"/>
<path d="M15.6226 28.444H19.4466V30.144H15.6226V28.444Z" fill="#EAB54E"/>
<path d="M15.4843 26.754H14.4104C13.4713 26.754 12.71 27.5131 12.71 28.4495C12.71 29.3859 13.4713 30.145 14.4104 30.145H15.4843C16.4234 30.145 17.1847 29.3859 17.1847 28.4495C17.1847 27.5131 16.4234 26.754 15.4843 26.754Z" fill="#F6C863"/>
<path d="M52.7115 42.96V49.299C52.7115 49.4018 52.6709 49.5005 52.5984 49.5737C52.526 49.6469 52.4276 49.6887 52.3245 49.69H48.2899C48.1868 49.6887 48.0883 49.6469 48.0159 49.5737C47.9434 49.5005 47.9028 49.4018 47.9028 49.299V42.96H52.7115Z" fill="#414451"/>
<path d="M48.8193 44.571H49.2585V49.671H48.8193V44.571Z" fill="#373A44"/>
<path d="M50.0845 44.571H50.5236V49.671H50.0845V44.571Z" fill="#373A44"/>
<path d="M51.356 44.571H51.7951V49.671H51.356V44.571Z" fill="#373A44"/>
<path d="M19.8858 42.96V49.299C19.8858 49.4018 19.8452 49.5005 19.7728 49.5737C19.7003 49.6469 19.6019 49.6887 19.4988 49.69H15.4642C15.3611 49.6887 15.2626 49.6469 15.1902 49.5737C15.1178 49.5005 15.0771 49.4018 15.0771 49.299V42.96H19.8858Z" fill="#414451"/>
<path d="M15.9937 44.571H16.4328V49.671H15.9937V44.571Z" fill="#373A44"/>
<path d="M17.2593 44.571H17.6984V49.671H17.2593V44.571Z" fill="#373A44"/>
<path d="M18.5308 44.571H18.9699V49.671H18.5308V44.571Z" fill="#373A44"/>
<path d="M52.7112 34.038V43.446C52.7112 43.8579 52.5471 44.2529 52.2551 44.5441C51.9631 44.8354 51.5671 44.999 51.1541 44.999H16.6343C16.2213 44.999 15.8252 44.8354 15.5332 44.5441C15.2412 44.2529 15.0772 43.8579 15.0772 43.446V34.038C15.0759 33.6635 15.2113 33.3012 15.4582 33.019L18.065 30.024L20.8022 22.775C20.9338 22.4105 21.1748 22.0953 21.4923 21.8722C21.8098 21.6491 22.1885 21.5289 22.5769 21.528H45.3077C45.6955 21.5286 46.0736 21.6487 46.3902 21.8719C46.7068 22.0952 46.9465 22.4106 47.0764 22.775L49.7243 30.027L52.3312 33.022C52.5781 33.3042 52.7135 33.6665 52.7122 34.041L52.7112 34.038Z" fill="#F6C863"/>
<path d="M42.7391 35.517L42.3049 38.031C42.2927 38.1018 42.2558 38.1661 42.2008 38.2125C42.1458 38.259 42.0762 38.2846 42.0041 38.285H25.7965C25.7244 38.2846 25.6548 38.259 25.5998 38.2125C25.5448 38.1661 25.5079 38.1018 25.4957 38.031L25.0616 35.531C25.0535 35.4873 25.0553 35.4424 25.0668 35.3996C25.0783 35.3567 25.0992 35.3169 25.128 35.283C25.1567 35.2491 25.1927 35.2221 25.2332 35.2037C25.2737 35.1854 25.3179 35.1763 25.3624 35.177H42.4373C42.4807 35.1766 42.5237 35.1855 42.5633 35.2032C42.6029 35.2209 42.6382 35.2469 42.6668 35.2795C42.6954 35.3121 42.7165 35.3504 42.7288 35.392C42.7412 35.4335 42.7443 35.4772 42.7381 35.52L42.7391 35.517Z" fill="#575B6D"/>
<path d="M49.9832 36.584C49.9841 37.1159 49.8001 37.6316 49.4625 38.0434C49.125 38.4552 48.6548 38.7376 48.132 38.8425C47.6091 38.9474 47.066 38.8683 46.5951 38.6187C46.1242 38.3692 45.7545 37.9645 45.5491 37.4737C45.3436 36.9828 45.3151 36.4362 45.4684 35.9267C45.6216 35.4172 45.9472 34.9765 46.3896 34.6795C46.8321 34.3826 47.364 34.2477 47.8949 34.2979C48.4258 34.3482 48.9229 34.5804 49.3014 34.955C49.517 35.1684 49.6883 35.4221 49.8053 35.7017C49.9223 35.9812 49.9827 36.2811 49.9832 36.584Z" fill="#EEEFEE"/>
<path d="M48.4535 41.903C48.4522 42.1863 48.3525 42.4604 48.1714 42.6786C47.9903 42.8968 47.739 43.0456 47.4602 43.0998C47.1814 43.154 46.8924 43.1101 46.6424 42.9757C46.3924 42.8412 46.1968 42.6245 46.089 42.3625C45.9812 42.1004 45.9678 41.8091 46.051 41.5383C46.1343 41.2675 46.3091 41.0338 46.5457 40.877C46.7823 40.7203 47.066 40.6502 47.3486 40.6786C47.6312 40.707 47.8952 40.8323 48.0956 41.033C48.3256 41.2643 48.4544 41.5772 48.4535 41.903Z" fill="#EEEFEE"/>
<path d="M17.8047 36.584C17.8038 37.1159 17.9878 37.6316 18.3254 38.0434C18.6629 38.4552 19.1331 38.7376 19.656 38.8425C20.1788 38.9474 20.7219 38.8683 21.1928 38.6187C21.6638 38.3692 22.0334 37.9645 22.2389 37.4737C22.4443 36.9828 22.4728 36.4362 22.3195 35.9267C22.1663 35.4172 21.8407 34.9765 21.3983 34.6795C20.9559 34.3826 20.4239 34.2477 19.893 34.2979C19.3621 34.3482 18.865 34.5804 18.4865 34.955C18.2709 35.1684 18.0997 35.4221 17.9827 35.7017C17.8657 35.9812 17.8052 36.2811 17.8047 36.584Z" fill="#EEEFEE"/>
<path d="M19.3355 41.903C19.3367 42.1863 19.4364 42.4604 19.6176 42.6786C19.7987 42.8968 20.05 43.0456 20.3288 43.0998C20.6076 43.154 20.8966 43.1101 21.1466 42.9757C21.3966 42.8412 21.5921 42.6245 21.7 42.3625C21.8078 42.1004 21.8212 41.8091 21.7379 41.5383C21.6547 41.2675 21.4799 41.0338 21.2433 40.877C21.0067 40.7203 20.723 40.6502 20.4404 40.6786C20.1578 40.707 19.8938 40.8323 19.6934 41.033C19.4633 41.2643 19.3346 41.5772 19.3355 41.903Z" fill="#EEEFEE"/>
<path d="M42.946 42.838V44.998H24.8594V42.838C24.8594 42.6322 24.9413 42.4348 25.0873 42.2893C25.2332 42.1438 25.4311 42.062 25.6374 42.062H42.1649C42.2676 42.0612 42.3694 42.0807 42.4645 42.1193C42.5596 42.158 42.6461 42.215 42.719 42.2872C42.7919 42.3593 42.8497 42.4451 42.8892 42.5396C42.9287 42.6342 42.949 42.7356 42.949 42.838H42.946Z" fill="#575B6D"/>
<path d="M48.3372 30.832H19.4521L22.2906 23.321C22.3114 23.2538 22.3528 23.1947 22.4089 23.1521C22.4649 23.1094 22.533 23.0853 22.6034 23.083H45.3343C45.3997 23.0816 45.4639 23.1008 45.5179 23.1377C45.5719 23.1747 45.6128 23.2276 45.6351 23.289L48.3372 30.832Z" fill="#69B0EE"/>
<path opacity="0.5" d="M33.3601 23.083L29.3726 30.832H28.1113L32.0938 23.083H33.3601Z" fill="#EEEFEE"/>
<path opacity="0.5" d="M39.4716 23.083L35.4871 30.832H31.3262L35.3137 23.083H39.4716Z" fill="#EEEFEE"/>
</svg>
