<svg width="12" height="7" viewBox="0 0 12 7" fill="none" xmlns="http://www.w3.org/2000/svg">
<path d="M0.208856 1.02885C0.208224 1.1371 0.228942 1.24441 0.269824 1.34464C0.310706 1.44487 0.37095 1.53606 0.44711 1.61299L5.38566 6.55154C5.53994 6.70488 5.74862 6.79095 5.96614 6.79095C6.18366 6.79095 6.39234 6.70488 6.54662 6.55154L11.4841 1.61299C11.6175 1.45536 11.6868 1.25338 11.6782 1.04708C11.6697 0.840783 11.5839 0.645224 11.438 0.499158C11.2921 0.353093 11.0966 0.267183 10.8903 0.258453C10.684 0.249723 10.482 0.318811 10.3242 0.452024L5.9698 4.80748L1.61644 0.452024C1.50176 0.336604 1.35547 0.257741 1.19602 0.225388C1.03657 0.193036 0.871111 0.208644 0.720523 0.270243C0.569936 0.331842 0.440971 0.43667 0.349907 0.571497C0.258843 0.706324 0.209761 0.865107 0.208856 1.0278V1.02885Z" fill="black" stroke="#ECECEC" stroke-width="0.4"/>
</svg>
