<svg width="28" height="17" viewBox="0 0 28 17" fill="none" xmlns="http://www.w3.org/2000/svg">
<path d="M26.7254 16.5475H1.27289C0.935548 16.5467 0.61226 16.4123 0.373725 16.1738C0.135189 15.9353 0.000819118 15.612 0 15.2746L0 1.27289C0.000819118 0.935549 0.135189 0.612261 0.373725 0.373725C0.61226 0.13519 0.935548 0.000819118 1.27289 0H26.7254C27.0628 0.000819118 27.3861 0.13519 27.6246 0.373725C27.8631 0.612261 27.9975 0.935549 27.9983 1.27289V15.2746C27.9975 15.612 27.8631 15.9353 27.6246 16.1738C27.3861 16.4123 27.0628 16.5467 26.7254 16.5475Z" fill="#0E9347"/>
<path d="M23.5446 11.457C22.8447 11.4482 22.1535 11.612 21.532 11.9339C20.9105 12.2559 20.3779 12.726 19.9814 13.3027C19.3163 12.9421 18.5746 12.7457 17.8182 12.7299C16.7501 12.7339 15.7191 13.1216 14.9132 13.8224C14.1072 14.5232 13.58 15.4904 13.4277 16.5475H26.7274C27.0331 16.5466 27.3286 16.4374 27.5615 16.2395C27.7945 16.0415 27.9499 15.7675 28.0002 15.4659C27.8727 14.3699 27.3498 13.3581 26.5295 12.62C25.7092 11.882 24.648 11.4685 23.5446 11.457Z" fill="#0D8944"/>
<path d="M24.1807 15.2746H3.81861C3.8167 14.6001 3.54788 13.9536 3.07086 13.4766C2.59385 12.9996 1.94744 12.7308 1.27284 12.7289V3.82177C1.94744 3.81986 2.59385 3.55103 3.07086 3.07402C3.54788 2.59701 3.8167 1.95059 3.81861 1.276H24.1807C24.1826 1.95059 24.4514 2.59701 24.9284 3.07402C25.4054 3.55103 26.0518 3.81986 26.7264 3.82177V12.7299C26.052 12.7318 25.4058 13.0005 24.9288 13.4773C24.4518 13.9541 24.1828 14.6002 24.1807 15.2746Z" fill="#3BB54A"/>
<path d="M23.5438 11.457C22.8439 11.4482 22.1526 11.612 21.5311 11.9339C20.9096 12.2559 20.377 12.726 19.9805 13.3027C19.3154 12.9421 18.5737 12.7457 17.8173 12.7299C16.9748 12.7227 16.1482 12.9592 15.4369 13.4108C14.7257 13.8625 14.1602 14.5101 13.8084 15.2757H24.1807C24.1789 14.611 24.4378 13.9721 24.9018 13.4961C25.3658 13.0201 25.9978 12.745 26.6624 12.7299C25.8211 11.9266 24.7068 11.4718 23.5438 11.457Z" fill="#0E9347"/>
<path d="M13.9984 14.0017C16.8098 14.0017 19.0889 11.4379 19.0889 8.27531C19.0889 5.11268 16.8098 2.54887 13.9984 2.54887C11.187 2.54887 8.90787 5.11268 8.90787 8.27531C8.90787 11.4379 11.187 14.0017 13.9984 14.0017Z" fill="#0E9347"/>
<path d="M6.36324 9.54924C7.06624 9.54924 7.63613 8.97935 7.63613 8.27636C7.63613 7.57336 7.06624 7.00347 6.36324 7.00347C5.66025 7.00347 5.09036 7.57336 5.09036 8.27636C5.09036 8.97935 5.66025 9.54924 6.36324 9.54924Z" fill="#0E9347"/>
<path d="M21.6348 9.54924C22.3378 9.54924 22.9077 8.97935 22.9077 8.27636C22.9077 7.57336 22.3378 7.00347 21.6348 7.00347C20.9318 7.00347 20.3619 7.57336 20.3619 8.27636C20.3619 8.97935 20.9318 9.54924 21.6348 9.54924Z" fill="#0E9347"/>
<path d="M14.6358 7.63937H13.3619C13.1931 7.63937 13.0312 7.57232 12.9118 7.45296C12.7925 7.33361 12.7254 7.17172 12.7254 7.00293C12.7254 6.83413 12.7925 6.67226 12.9118 6.5529C13.0312 6.43354 13.1931 6.36648 13.3619 6.36648H15.2707C15.4395 6.36648 15.6014 6.29943 15.7207 6.18007C15.8401 6.06072 15.9071 5.89884 15.9071 5.73005C15.9071 5.56125 15.8401 5.39937 15.7207 5.28001C15.6014 5.16065 15.4395 5.0936 15.2707 5.0936H14.6348C14.6348 4.92481 14.5677 4.76292 14.4483 4.64357C14.329 4.52421 14.1671 4.45716 13.9983 4.45716C13.8295 4.45716 13.6676 4.52421 13.5483 4.64357C13.4289 4.76292 13.3619 4.92481 13.3619 5.0936C13.1112 5.0936 12.863 5.14297 12.6314 5.2389C12.3998 5.33483 12.1894 5.47543 12.0121 5.65268C11.8349 5.82993 11.6943 6.04035 11.5984 6.27194C11.5024 6.50353 11.4531 6.75175 11.4531 7.00241C11.4531 7.25308 11.5024 7.50129 11.5984 7.73288C11.6943 7.96447 11.8349 8.17489 12.0121 8.35214C12.1894 8.52939 12.3998 8.67 12.6314 8.76593C12.863 8.86185 13.1112 8.91123 13.3619 8.91123H14.6348C14.8036 8.91123 14.9654 8.97828 15.0848 9.09764C15.2041 9.21699 15.2712 9.37887 15.2712 9.54766C15.2712 9.71646 15.2041 9.87834 15.0848 9.9977C14.9654 10.1171 14.8036 10.1841 14.6348 10.1841H12.7259C12.5571 10.1841 12.3953 10.2512 12.2759 10.3705C12.1566 10.4899 12.0895 10.6518 12.0895 10.8206C12.0895 10.9893 12.1566 11.1512 12.2759 11.2706C12.3953 11.3899 12.5571 11.457 12.7259 11.457H13.3619C13.3619 11.6258 13.4289 11.7877 13.5483 11.907C13.6676 12.0264 13.8295 12.0934 13.9983 12.0934C14.1671 12.0934 14.329 12.0264 14.4483 11.907C14.5677 11.7877 14.6348 11.6258 14.6348 11.457C15.141 11.457 15.6265 11.2559 15.9845 10.8979C16.3425 10.5399 16.5436 10.0544 16.5436 9.54818C16.5436 9.04194 16.3425 8.55642 15.9845 8.19845C15.6265 7.84048 15.141 7.63937 14.6348 7.63937H14.6358Z" fill="#89C763"/>
</svg>
