<svg width="61" height="18" viewBox="0 0 61 18" fill="none" xmlns="http://www.w3.org/2000/svg">
<path d="M22.289 17.5068L25.3769 0.565181H30.2017L27.2101 17.5068H22.289Z" fill="white"/>
<path d="M22.289 17.5068L26.2446 0.565181H30.2002L27.2087 17.5068H22.289Z" fill="white"/>
<path d="M44.6729 0.753328C43.2536 0.236716 41.7484 -0.0183629 40.2337 0.00102803C35.409 0.00102803 31.9354 2.35344 31.9354 5.74176C31.9354 8.28372 34.347 9.60028 36.2766 10.4481C38.2062 11.2959 38.7847 11.8601 38.7847 12.6182C38.7847 13.7481 37.2407 14.3124 35.8895 14.3124C34.2921 14.3467 32.7078 14.0246 31.2576 13.3705L30.5827 13.0812L29.9108 16.9426C31.6713 17.5757 33.5342 17.8947 35.4104 17.8844C40.5244 17.8844 43.9016 15.532 43.9016 11.9527C43.9016 9.97643 42.6468 8.47036 39.7487 7.2464C38.0119 6.3986 36.95 5.9284 36.95 5.07626C36.95 4.32395 37.8176 3.57018 39.7487 3.57018C41.0049 3.53319 42.2548 3.75759 43.4151 4.22846L43.8971 4.41653L44.6684 0.746109L44.6729 0.753328Z" fill="white"/>
<path d="M44.6729 0.753328C43.2536 0.236716 41.7484 -0.0183629 40.2337 0.00102803C35.409 0.00102803 32.8045 2.35344 32.8045 5.74176C32.7977 6.78402 33.1304 7.80147 33.7547 8.64734C34.379 9.4932 35.2626 10.1238 36.2781 10.4481C38.2062 11.2944 38.7861 11.8601 38.7861 12.6182C38.7861 13.7481 37.2422 14.3124 35.891 14.3124C34.2936 14.3467 32.7093 14.0246 31.259 13.3705L30.5842 13.0812L29.9108 16.9426C31.6713 17.5757 33.5342 17.8947 35.4104 17.8844C40.5244 17.8844 43.9016 15.532 43.9016 11.9527C43.9016 9.97643 42.6468 8.47036 39.7487 7.2464C38.0119 6.3986 36.95 5.9284 36.95 5.07626C36.95 4.32395 37.8176 3.57018 39.7487 3.57018C41.0049 3.53319 42.2548 3.75759 43.4151 4.22846L43.8971 4.41653L44.6684 0.746109L44.6729 0.753328Z" fill="white"/>
<path d="M52.9731 0.565181C51.8148 0.565181 50.9471 0.659233 50.4651 1.78915L43.2272 17.5068H48.4376L49.4031 14.6827H55.579L56.1575 17.5068H60.7894L56.7374 0.565181H52.9731ZM50.7484 11.8601C51.045 11.0137 52.6765 6.87163 52.6765 6.87163C52.6765 6.87163 53.0621 5.83574 53.3513 5.17746L53.6479 6.77759C53.6479 6.77759 54.6135 11.0123 54.8063 11.9541H50.7543L50.7484 11.8601Z" fill="white"/>
<path d="M54.13 0.565181C52.9716 0.565181 52.104 0.659233 51.6219 1.78915L43.2272 17.5068H48.4376L49.4031 14.6827H55.579L56.1575 17.5068H60.7894L56.7374 0.565181H54.13ZM50.7528 11.8601C51.1384 10.9182 52.6809 6.87163 52.6809 6.87163C52.6809 6.87163 53.0665 5.83574 53.3558 5.17746L53.6524 6.77759C53.6524 6.77759 54.6179 11.0123 54.8107 11.9541H50.7587L50.7528 11.8601Z" fill="white"/>
<path d="M13.4123 12.4242L12.9303 9.97772C11.7172 6.75848 9.30573 4.10296 6.17594 2.53991L10.5172 17.5992H15.7276L23.5439 0.659111H18.338L13.4123 12.4242Z" fill="white"/>
<path d="M13.4123 12.4242L12.9303 9.97772C11.7172 6.75848 9.30573 4.10296 6.17594 2.53991L10.5172 17.5992H15.7276L23.5439 0.659111H19.299L13.4123 12.4242Z" fill="white"/>
<path d="M0 0.565014L0.867656 0.7531C7.04359 2.16514 11.2884 5.74153 12.9288 9.97621L11.192 1.97562C10.8954 0.845694 10.0337 0.563579 8.96726 0.563579L0 0.565014Z" fill="white"/>
<path d="M0 0.565181C6.17593 1.97722 11.2884 5.64766 12.9288 9.88233L11.2884 3.19973C11.1694 2.68883 10.8749 2.23298 10.4538 1.90774C10.0327 1.58251 9.51029 1.40742 8.97319 1.41155L0 0.565181Z" fill="white"/>
<path d="M0 0.565181C6.17593 1.97722 11.2884 5.64766 12.9288 9.88233L11.7719 6.20756C11.7149 5.6175 11.4969 5.05311 11.1406 4.57303C10.7843 4.09294 10.3028 3.71465 9.74593 3.47751L0 0.565181Z" fill="white"/>
<path d="M18.2368 11.86L14.9561 8.65976L13.4121 12.2362L13.0265 9.88371C11.8131 6.66501 9.4016 4.01006 6.27209 2.44735L10.6133 17.5067H15.8237L18.2368 11.86Z" fill="white"/>
<path d="M27.2104 17.505L23.0575 13.3644L22.2863 17.505H27.2104Z" fill="white"/>
<path d="M38.3071 11.6705C38.6927 12.0466 38.8855 12.3287 38.7891 12.7064C38.7891 13.8363 37.2451 14.4005 35.894 14.4005C34.2966 14.4348 32.7123 14.1127 31.262 13.4587L30.5872 13.1693L29.9123 17.0351C31.6728 17.6682 33.5356 17.9872 35.4119 17.9769C36.6876 18.0646 37.9684 17.9016 39.1783 17.4976C40.3882 17.0935 41.5026 16.4565 42.4555 15.6245L38.3071 11.6705Z" fill="white"/>
<path d="M43.9032 17.5065H48.4387L49.4043 14.6824H55.5802L56.1586 17.5065H60.7905L59.1502 10.6359L53.3658 5.17723L53.6624 6.68331C53.6624 6.68331 54.628 10.918 54.8208 11.8598H50.7688C51.1544 10.918 52.6969 6.87137 52.6969 6.87137C52.6969 6.87137 53.0825 5.83551 53.3717 5.17723" fill="white"/>
</svg>
