<svg width="22" height="15" viewBox="0 0 22 15" fill="none" xmlns="http://www.w3.org/2000/svg">
<path d="M20.2157 14.9033H1.78636C1.31223 14.9027 0.857712 14.7139 0.522732 14.3784C0.187753 14.0428 -0.0002688 13.588 2.88433e-07 13.1139V1.78636C0.000536956 1.31276 0.188915 0.858698 0.523807 0.523806C0.858699 0.188915 1.31276 0.000536667 1.78636 0L20.2157 0C20.5221 0.00166677 20.8226 0.0834532 21.0876 0.237236C21.2272 0.286341 21.3495 0.375133 21.4394 0.49272C21.6166 0.658363 21.7578 0.85869 21.8542 1.08124C21.9507 1.30379 22.0003 1.54381 22.0001 1.78636V13.1139C22.0003 13.5876 21.8126 14.0422 21.478 14.3777C21.1435 14.7132 20.6895 14.9022 20.2157 14.9033ZM1.53088 2.2365V13.1149C1.53167 13.1824 1.55884 13.2469 1.60658 13.2947C1.65432 13.3424 1.71885 13.3696 1.78636 13.3704H20.2157C20.2832 13.3696 20.3478 13.3424 20.3955 13.2947C20.4432 13.2469 20.4704 13.1824 20.4712 13.1149V2.12093L11.4258 8.15624C11.3006 8.2392 11.1538 8.28345 11.0036 8.28345C10.8534 8.28345 10.7065 8.2392 10.5813 8.15624L1.53088 2.2365ZM3.24425 1.53088L10.9919 6.60002L18.5956 1.53088H3.24425Z" fill="#474747"/>
</svg>
