<svg width="17" height="16" viewBox="0 0 17 16" fill="none" xmlns="http://www.w3.org/2000/svg">
<g clip-path="url(#clip0_411_1339)">
<path d="M15.8277 10.8775C16.1667 10.4592 16.3293 10.0109 16.3085 9.54914C16.2878 9.04057 16.0525 8.64241 15.8588 8.39816C16.0837 7.85613 16.1702 7.00293 15.4195 6.34044C14.8696 5.85529 13.9356 5.63781 12.6419 5.69803C11.7322 5.73818 10.9712 5.90213 10.9401 5.90882H10.9366C10.7637 5.93894 10.5804 5.97574 10.3936 6.01589C10.3797 5.80176 10.4178 5.26976 10.826 4.07194C11.3102 2.64659 11.2825 1.55583 10.736 0.826432C10.1618 0.0602259 9.24518 0 8.97538 0C8.71595 0 8.47728 0.103722 8.30778 0.294437C7.92383 0.726056 7.9688 1.52238 8.01722 1.89042C7.56063 3.07486 6.28079 5.97909 5.19812 6.78545C5.17736 6.79883 5.16007 6.81556 5.14277 6.83229C4.82454 7.15684 4.61008 7.50816 4.46481 7.81598C4.26072 7.70891 4.02897 7.64868 3.77992 7.64868H1.66991C0.874336 7.64868 0.230957 8.27436 0.230957 9.04057V14.4776C0.230957 15.2472 0.877795 15.8695 1.66991 15.8695H3.77992C4.08777 15.8695 4.37487 15.7758 4.61008 15.6152L5.42296 15.7089C5.54748 15.7256 7.76126 15.9967 10.0338 15.9532C10.4455 15.9833 10.8329 16 11.1926 16C11.8118 16 12.3514 15.9532 12.8011 15.8595C13.8595 15.642 14.5825 15.207 14.9491 14.568C15.2293 14.0795 15.2293 13.5943 15.1843 13.2865C15.8727 12.6842 15.9937 12.0184 15.9695 11.55C15.9557 11.279 15.8934 11.0481 15.8277 10.8775ZM1.66991 14.9661C1.38973 14.9661 1.16489 14.7453 1.16489 14.4776V9.03722C1.16489 8.76621 1.39319 8.54872 1.66991 8.54872H3.77992C4.0601 8.54872 4.28494 8.76955 4.28494 9.03722V14.4743C4.28494 14.7453 4.05664 14.9628 3.77992 14.9628H1.66991V14.9661ZM14.9422 10.486C14.7969 10.6332 14.7692 10.8574 14.8799 11.0314C14.8799 11.0347 15.0218 11.2689 15.039 11.5901C15.0633 12.0284 14.8453 12.4166 14.3888 12.7478C14.2262 12.8683 14.1605 13.0757 14.2296 13.2631C14.2296 13.2664 14.3784 13.7081 14.1362 14.1263C13.9045 14.5278 13.3891 14.8156 12.6074 14.9762C11.9813 15.1066 11.1304 15.1301 10.0857 15.0498C10.0719 15.0498 10.0546 15.0498 10.0373 15.0498C7.81314 15.0966 5.56478 14.8156 5.54056 14.8122H5.5371L5.18774 14.7721C5.2085 14.6784 5.21887 14.578 5.21887 14.4776V9.03722C5.21887 8.89335 5.19466 8.75282 5.15315 8.62233C5.21541 8.39816 5.38836 7.89962 5.79653 7.4747C7.34963 6.28356 8.86814 2.26516 8.93387 2.09118C8.96154 2.02091 8.96846 1.94396 8.95462 1.867C8.89582 1.49226 8.91657 1.03388 8.99959 0.896696C9.18292 0.900042 9.67756 0.95023 9.97503 1.34839C10.3279 1.82016 10.314 2.66332 9.93353 3.78084C9.35241 5.4839 9.30398 6.38059 9.76403 6.77541C9.99233 6.97281 10.2967 6.98285 10.5181 6.9059C10.7291 6.85905 10.9297 6.8189 11.12 6.78879C11.1338 6.78545 11.1511 6.7821 11.1649 6.77875C12.2269 6.55458 14.1293 6.4174 14.79 6.99958C15.3504 7.49477 14.9526 8.15056 14.9076 8.22083C14.7796 8.4082 14.8177 8.65245 14.9906 8.80301C14.9941 8.80636 15.3573 9.1376 15.3746 9.5826C15.3884 9.88038 15.2431 10.1849 14.9422 10.486Z" fill="#FFAA2A"/>
</g>
<defs>
<clipPath id="clip0_411_1339">
<rect width="16.5411" height="16" fill="white"/>
</clipPath>
</defs>
</svg>
