<svg width="15" height="14" viewBox="0 0 15 14" fill="none" xmlns="http://www.w3.org/2000/svg">
<path d="M12.8295 0H1.83733C1.31741 0.0381654 0.833451 0.279578 0.490244 0.671979C0.147036 1.06438 -0.0277997 1.57618 0.00360302 2.09655V13.8232C0.00349481 13.8587 0.0141041 13.8934 0.0340394 13.9227C0.0539748 13.9521 0.0822973 13.9747 0.115322 13.9877C0.148347 14.0007 0.184535 14.0034 0.219129 13.9955C0.253724 13.9876 0.285129 13.9695 0.309226 13.9434L3.02822 11.0482H12.7622C13.302 10.9928 13.8003 10.7333 14.1552 10.3228C14.51 9.91227 14.6947 9.38168 14.6713 8.83954V2.09756C14.7027 1.57719 14.5279 1.06541 14.1847 0.673005C13.8415 0.280604 13.3575 0.0391758 12.8376 0.0010104L12.8295 0ZM2.10933 7.93593C2.1096 7.8301 2.15175 7.72867 2.22658 7.65384C2.30141 7.57901 2.40284 7.53685 2.50867 7.53659H6.56832C6.67423 7.53659 6.7758 7.57865 6.85069 7.65354C6.92558 7.72843 6.96766 7.83001 6.96766 7.93593C6.96766 8.04184 6.92558 8.14342 6.85069 8.21831C6.7758 8.2932 6.67423 8.33527 6.56832 8.33527H2.5107C2.45813 8.3354 2.40604 8.32519 2.35742 8.30519C2.30879 8.28519 2.26458 8.25581 2.22731 8.21873C2.19004 8.18165 2.16043 8.13758 2.14018 8.08906C2.11994 8.04053 2.10946 7.9885 2.10933 7.93593ZM2.10933 5.52357C2.1096 5.41774 2.15175 5.31631 2.22658 5.24148C2.30141 5.16665 2.40284 5.1245 2.50867 5.12423H12.1591C12.265 5.12423 12.3666 5.16629 12.4415 5.24119C12.5164 5.31608 12.5585 5.41766 12.5585 5.52357C12.5585 5.62948 12.5164 5.73105 12.4415 5.80594C12.3666 5.88083 12.265 5.92291 12.1591 5.92291H2.50867C2.40284 5.92264 2.30141 5.88048 2.22658 5.80564C2.15175 5.73081 2.1096 5.6294 2.10933 5.52357ZM12.1581 3.51055H2.50764C2.40173 3.51055 2.30017 3.46847 2.22527 3.39358C2.15038 3.31869 2.1083 3.21713 2.1083 3.11121C2.1083 3.0053 2.15038 2.90372 2.22527 2.82883C2.30017 2.75394 2.40173 2.71186 2.50764 2.71186H12.1581C12.264 2.71186 12.3656 2.75394 12.4405 2.82883C12.5154 2.90372 12.5575 3.0053 12.5575 3.11121C12.5575 3.21713 12.5154 3.31869 12.4405 3.39358C12.3656 3.46847 12.264 3.51055 12.1581 3.51055Z" fill="white"/>
</svg>
