<svg width="95" height="106" viewBox="0 0 95 106" fill="none" xmlns="http://www.w3.org/2000/svg">
<g clip-path="url(#clip0_408_655)">
<path d="M48.1777 0H0V106H29.8105V78.2878H48.1777C76.9337 78.2878 95 63.2968 95 39.2194C95 15.1419 76.9337 0 48.1777 0Z" fill="#ED7625"/>
<g filter="url(#filter0_d_408_655)">
<path d="M79.2937 39.06C78.6684 34.6203 76.6261 31.077 72.7305 28.7184C72.4496 28.5481 72.1845 28.1658 72.127 27.843C71.8886 26.514 71.7535 25.1674 71.5434 23.8334C71.1 21.017 70.6006 18.2123 69.4044 15.5938C68.0839 12.7036 65.8673 11.2614 62.677 11.2656C49.5716 11.2816 36.4661 11.2723 23.3607 11.2681C20.4172 11.2673 18.2431 12.5342 16.9276 15.2039C16.5908 15.8864 16.2165 16.5832 16.0598 17.3169C15.3687 20.5542 14.7202 23.8024 14.1291 27.0599C13.9757 27.9042 13.8057 28.549 12.9754 29.0294C11.2456 30.0306 9.91015 31.4853 8.90063 33.2192C6.9266 36.6109 6.21969 40.2557 6.68319 44.1629C7.06499 47.3793 8.16537 50.2687 10.332 52.6843C10.7863 53.1916 10.9514 53.6628 10.9497 54.3176C10.9413 57.2657 10.9605 60.2137 11.0064 63.161C11.0305 64.7431 11.2214 64.8932 12.8362 64.8941C16.0415 64.8941 19.2476 64.8941 22.4529 64.8941V58.9183H63.6173V64.8957C66.9785 64.8957 70.3405 64.8932 73.7017 64.8932C74.3536 64.8932 74.9797 64.8421 75.0497 63.9902C75.1264 63.0528 75.2122 62.1137 75.2222 61.1746C75.2472 58.8747 75.2514 56.5739 75.2164 54.2749C75.2064 53.6108 75.394 53.1278 75.8366 52.6273C76.4552 51.9272 77.0195 51.1558 77.478 50.3408C79.4621 46.8142 79.8497 43.0033 79.2945 39.0609L79.2937 39.06ZM19.2368 46.7798C16.6642 46.7639 14.6051 44.6291 14.5093 42.0601C14.4151 39.5438 16.5083 37.1726 19.2076 37.1693C21.8827 37.1659 23.9509 39.2487 23.9701 41.9888C23.9884 44.583 21.8018 46.7966 19.2368 46.7806V46.7798ZM51.2797 25.5523C51.2038 25.9221 51.1955 26.3061 51.1371 26.8637H17.8671C18.4023 23.9684 18.85 20.9281 19.5527 17.9491C20.0879 15.6802 21.1741 15.0195 23.5016 15.0195C36.5712 15.0178 49.6399 15.0178 62.7095 15.0186C64.8528 15.0186 65.9623 15.7095 66.505 17.7965C67.0569 19.9178 67.3561 22.1062 67.7529 24.2678C67.9213 25.1842 68.0556 26.1065 68.2023 27.0087C68.1423 27.0473 68.1172 27.0783 68.0947 27.0766C66.9699 26.9721 66.2688 26.365 65.9915 25.2555C65.0803 21.609 62.1035 19.3242 58.343 19.3845C54.9935 19.4382 52.0033 22.045 51.2805 25.5531L51.2797 25.5523ZM59.1774 21.9419C61.5724 22.0559 63.6523 24.2845 63.6515 26.7706H53.6797C54.009 23.5987 56.0872 21.7943 59.1774 21.9419ZM66.8793 46.7781C64.2834 46.7546 62.1418 44.6048 62.101 41.9821C62.0601 39.3635 64.2617 37.1642 66.916 37.1718C69.5127 37.1793 71.6443 39.3526 71.6301 41.9779C71.616 44.5897 69.4269 46.8016 66.8785 46.7781H66.8793Z" fill="white"/>
</g>
<path d="M41.7364 79.439H31.2969V84.6786H41.7364V79.439Z" fill="white"/>
<path d="M41.7364 90.739H31.2969V94.8618H41.7364V90.739Z" fill="white"/>
<path d="M41.7364 100.587H31.2969V106.001H41.7364V100.587Z" fill="white"/>
</g>
<defs>
<filter id="filter0_d_408_655" x="3.54626" y="8.26562" width="92.9789" height="73.6301" filterUnits="userSpaceOnUse" color-interpolation-filters="sRGB">
<feFlood flood-opacity="0" result="BackgroundImageFix"/>
<feColorMatrix in="SourceAlpha" type="matrix" values="0 0 0 0 0 0 0 0 0 0 0 0 0 0 0 0 0 0 127 0" result="hardAlpha"/>
<feOffset dx="7" dy="7"/>
<feGaussianBlur stdDeviation="5"/>
<feColorMatrix type="matrix" values="0 0 0 0 0 0 0 0 0 0 0 0 0 0 0 0 0 0 0.75 0"/>
<feBlend mode="normal" in2="BackgroundImageFix" result="effect1_dropShadow_408_655"/>
<feBlend mode="normal" in="SourceGraphic" in2="effect1_dropShadow_408_655" result="shape"/>
</filter>
<clipPath id="clip0_408_655">
<rect width="95" height="106" fill="white"/>
</clipPath>
</defs>
</svg>
