<svg width="78" height="47" viewBox="0 0 78 47" fill="none" xmlns="http://www.w3.org/2000/svg">
<path d="M11.4706 0H66.5294C72.8646 0 77.9999 3.05826 77.9999 6.83411V39.6227C77.9999 43.3956 72.8646 46.4569 66.5294 46.4569H11.4706C5.13538 46.4569 0 43.3986 0 39.6227V6.83411C0 3.05826 5.13538 0 11.4706 0Z" fill="#F8F8FF"/>
<path d="M11.4706 0H17.2059V1.00502H11.4706V0ZM22.9412 0H28.6765V1.00502H22.9412V0ZM34.4117 0H40.147V1.00502H34.4117V0ZM45.8823 0H51.6176V1.00502H45.8823V0ZM57.3529 0H63.0882V1.00502H57.3529V0ZM68.8165 0.135817C70.8625 0.382371 72.7109 0.953209 74.2042 1.75436L73.6052 2.61145C72.2149 1.86554 70.505 1.35377 68.6602 1.13146L68.8165 0.135817ZM77.7912 5.52749C77.8747 5.78471 77.9339 6.04708 77.9675 6.31372L77.9675 6.31374C77.9705 6.33764 77.9733 6.36153 77.9759 6.3855C77.9759 6.38572 77.9759 6.38545 77.9759 6.38567C77.9761 6.38733 77.9763 6.389 77.9764 6.39066L77.9765 6.39082C77.9766 6.3924 77.9768 6.39397 77.977 6.39555C77.977 6.39577 77.977 6.39597 77.977 6.39619C77.9772 6.39766 77.9773 6.39916 77.9775 6.40064C77.9775 6.40086 77.9776 6.40121 77.9776 6.40144C77.9777 6.40289 77.9779 6.40433 77.978 6.40577C77.9781 6.406 77.9781 6.40647 77.9781 6.40669C77.9783 6.40814 77.9784 6.40959 77.9786 6.41104C77.9786 6.41126 77.9786 6.41157 77.9786 6.4118C77.9788 6.41327 77.979 6.41474 77.9791 6.41621C77.9791 6.41667 77.9791 6.41658 77.9792 6.41704C77.9793 6.41851 77.9795 6.41998 77.9796 6.42145C77.9796 6.42168 77.9797 6.42186 77.9797 6.42209C77.9798 6.42362 77.98 6.42519 77.9801 6.42672L77.9802 6.42701C77.9817 6.44227 77.9831 6.45757 77.9844 6.47286L77.9844 6.47328C77.9846 6.47482 77.9847 6.47631 77.9848 6.47784C77.9849 6.47807 77.9849 6.47832 77.9849 6.47855C77.985 6.48 77.9851 6.48144 77.9853 6.48289C77.9853 6.48334 77.9853 6.4834 77.9854 6.48385C77.9855 6.48522 77.9856 6.48661 77.9857 6.48798C77.9857 6.48821 77.9858 6.4889 77.9858 6.48913C77.9859 6.49045 77.986 6.49179 77.9861 6.49311C77.9862 6.49356 77.9862 6.49403 77.9862 6.49448C77.9863 6.49574 77.9864 6.49698 77.9865 6.49824C77.9866 6.4987 77.9866 6.49934 77.9867 6.4998C77.9868 6.50104 77.9869 6.50229 77.987 6.50353C77.987 6.50398 77.987 6.50459 77.9871 6.50504C77.9872 6.50628 77.9873 6.50753 77.9874 6.50876C77.9874 6.50922 77.9875 6.50982 77.9875 6.51027C77.9876 6.51154 77.9877 6.51283 77.9878 6.51409C77.9878 6.51455 77.9879 6.51496 77.9879 6.51541C77.988 6.51673 77.9881 6.51802 77.9882 6.51933C77.9882 6.51979 77.9882 6.52016 77.9883 6.52062C77.9884 6.52196 77.9885 6.52332 77.9886 6.52467C77.9886 6.52512 77.9886 6.52507 77.9887 6.52553C77.9888 6.52698 77.9889 6.5285 77.989 6.52995C77.989 6.53018 77.989 6.53011 77.989 6.53034C77.9896 6.53885 77.9902 6.54734 77.9908 6.55586V6.55587C77.9909 6.55727 77.991 6.55868 77.9911 6.56008C77.9911 6.56053 77.9911 6.56077 77.9911 6.56122C77.9912 6.5626 77.9913 6.56392 77.9914 6.5653C77.9914 6.56575 77.9914 6.56599 77.9915 6.56645C77.9916 6.56771 77.9916 6.56902 77.9917 6.57029C77.9917 6.57075 77.9918 6.57137 77.9918 6.57183C77.9919 6.57299 77.992 6.57412 77.992 6.57528C77.9921 6.57597 77.9921 6.57655 77.9921 6.57723C77.9922 6.57829 77.9923 6.57935 77.9923 6.58041C77.9924 6.58109 77.9924 6.5819 77.9925 6.58258C77.9925 6.58366 77.9926 6.58475 77.9927 6.58583C77.9927 6.58652 77.9927 6.58709 77.9928 6.58777C77.9929 6.5889 77.9929 6.59001 77.993 6.59115C77.993 6.59161 77.9931 6.59261 77.9931 6.59307C77.9932 6.5942 77.9932 6.59538 77.9933 6.59652C77.9933 6.5972 77.9934 6.5976 77.9934 6.59829C77.9935 6.59945 77.9935 6.60057 77.9936 6.60173C77.9936 6.60242 77.9937 6.60301 77.9937 6.6037C77.9938 6.60483 77.9938 6.60593 77.9939 6.60707C77.9939 6.60752 77.9939 6.60841 77.994 6.60886C77.994 6.61002 77.9941 6.61123 77.9942 6.6124C77.9942 6.61285 77.9942 6.61366 77.9942 6.61411C77.9943 6.61533 77.9944 6.61648 77.9944 6.61769C77.9945 6.61838 77.9945 6.61874 77.9945 6.61942C77.9946 6.62059 77.9946 6.62176 77.9947 6.62292C77.9947 6.62361 77.9948 6.62413 77.9948 6.62481C77.9949 6.626 77.9949 6.62713 77.995 6.62832C77.995 6.62855 77.995 6.62918 77.995 6.62941C77.9951 6.63082 77.9952 6.6322 77.9952 6.6336L77.9952 6.63383C77.9955 6.6384 77.9957 6.64298 77.9959 6.64755C77.9959 6.64801 77.9959 6.64887 77.996 6.64932C77.996 6.65035 77.996 6.65144 77.9961 6.65247C77.9961 6.65315 77.9962 6.65397 77.9962 6.65465C77.9962 6.65571 77.9963 6.65671 77.9963 6.65777C77.9964 6.65938 77.9964 6.66112 77.9965 6.66273C77.9966 6.66448 77.9967 6.66625 77.9967 6.66801C77.9968 6.6698 77.9969 6.67161 77.9969 6.67339C77.997 6.67519 77.9971 6.67702 77.9971 6.67883C77.9972 6.68061 77.9973 6.68229 77.9973 6.68407C77.9974 6.68583 77.9975 6.68768 77.9975 6.68944C77.9976 6.69119 77.9976 6.69305 77.9977 6.6948C77.9978 6.69664 77.9978 6.69842 77.9979 6.70026C77.9979 6.70202 77.998 6.70371 77.998 6.70546C77.9981 6.70722 77.9981 6.70917 77.9982 6.71093C77.9983 6.71269 77.9983 6.71448 77.9984 6.71624C77.9984 6.71805 77.9984 6.71987 77.9985 6.72169C77.9985 6.72339 77.9986 6.72523 77.9986 6.72693C77.9987 6.72808 77.9987 6.72914 77.9987 6.73029C77.9987 6.731 77.9988 6.73166 77.9988 6.73236C77.9988 6.7342 77.9988 6.73583 77.9989 6.73767C77.9989 6.73818 77.9989 6.73873 77.9989 6.73925C77.9989 6.74062 77.999 6.74157 77.999 6.74295C77.999 6.74368 77.999 6.74448 77.999 6.74521C77.9991 6.74636 77.9991 6.74731 77.9991 6.74846C77.9991 6.74911 77.9991 6.74971 77.9992 6.75036C77.9992 6.75151 77.9992 6.75261 77.9992 6.75376C77.9992 6.75546 77.9993 6.75745 77.9993 6.75915C77.9993 6.76086 77.9994 6.76276 77.9994 6.76446C77.9994 6.7653 77.9994 6.76614 77.9994 6.76699C77.9995 6.76814 77.9995 6.76871 77.9995 6.76986C77.9995 6.77164 77.9995 6.77335 77.9996 6.77514C77.9996 6.77695 77.9996 6.77875 77.9996 6.78057C77.9997 6.78238 77.9997 6.78407 77.9997 6.78589C77.9997 6.78768 77.9997 6.78958 77.9998 6.79137C77.9998 6.79313 77.9998 6.79496 77.9998 6.79672C77.9998 6.79757 77.9998 6.79842 77.9998 6.79926C77.9998 6.80041 77.9998 6.80109 77.9998 6.80224C77.9999 6.80394 77.9999 6.80593 77.9999 6.80763C77.9999 6.80934 77.9999 6.81141 77.9999 6.81312C77.9999 6.81478 77.9999 6.817 77.9999 6.81864C77.9999 6.81935 77.9999 6.82005 77.9999 6.82076C77.9999 6.82214 77.9999 6.8231 77.9999 6.82448C77.9999 6.82502 77.9999 6.82559 77.9999 6.82614C77.9999 6.82798 77.9999 6.82968 77.9999 6.83153V10.5356H76.8529V6.83153C76.8529 6.48599 76.7974 6.13973 76.6879 5.80237L77.7912 5.52749ZM76.8529 15.5607H77.9999V20.5858H76.8529V15.5607ZM76.8529 25.6108H77.9999V30.6359H76.8529V25.6108ZM76.8529 35.661H77.9999V39.6229C77.9999 39.6245 77.9999 39.6262 77.9999 39.6278C77.9999 39.6283 77.9999 39.6288 77.9999 39.6293C77.9999 39.6307 77.9999 39.6316 77.9999 39.6329C77.9999 39.6335 77.9999 39.634 77.9999 39.6345C77.9999 39.6359 77.9999 39.6376 77.9999 39.639C77.9999 39.6392 77.9999 39.6393 77.9999 39.6395C77.9999 39.6411 77.9999 39.6428 77.9999 39.6445C77.9999 39.645 77.9999 39.6455 77.9999 39.646C77.9999 39.6471 77.9999 39.6484 77.9999 39.6496C77.9999 39.6501 77.9999 39.6506 77.9999 39.6512C77.9998 39.6525 77.9998 39.6539 77.9998 39.6553C77.9998 39.6556 77.9998 39.6559 77.9998 39.6562C77.9998 39.658 77.9998 39.6594 77.9998 39.6612C77.9998 39.6616 77.9998 39.662 77.9998 39.6624C77.9997 39.6637 77.9997 39.6648 77.9997 39.6662C77.9997 39.6667 77.9997 39.6673 77.9997 39.6678C77.9997 39.6692 77.9997 39.6705 77.9997 39.6718C77.9997 39.6722 77.9997 39.6725 77.9997 39.6728C77.9996 39.6746 77.9996 39.676 77.9996 39.6778C77.9996 39.6782 77.9996 39.6785 77.9996 39.6789C77.9996 39.6802 77.9995 39.6815 77.9995 39.6829C77.9995 39.6834 77.9995 39.6838 77.9995 39.6844C77.9995 39.6857 77.9995 39.6869 77.9994 39.6883C77.9994 39.6887 77.9994 39.689 77.9994 39.6894C77.9994 39.6913 77.9994 39.6927 77.9993 39.6945C77.9993 39.6947 77.9993 39.6949 77.9993 39.6951C77.9993 39.6964 77.9993 39.6981 77.9992 39.6995C77.9992 39.7 77.9992 39.7005 77.9992 39.701C77.9992 39.7024 77.9992 39.7034 77.9991 39.7048C77.9991 39.7052 77.9991 39.7056 77.9991 39.706C77.9991 39.7077 77.999 39.7094 77.999 39.711C77.999 39.7113 77.999 39.7115 77.999 39.7118C77.999 39.7131 77.9989 39.7147 77.9989 39.7161C77.9989 39.7166 77.9989 39.717 77.9989 39.7175C77.9988 39.7189 77.9988 39.7199 77.9988 39.7213C77.9988 39.7218 77.9988 39.7222 77.9988 39.7227C77.9987 39.7259 77.9986 39.7295 77.9985 39.7327C77.9985 39.7332 77.9985 39.7336 77.9985 39.7341C77.9984 39.7355 77.9984 39.7365 77.9984 39.7379C77.9983 39.7383 77.9983 39.7388 77.9983 39.7392C77.9983 39.7406 77.9982 39.7425 77.9982 39.7438C77.9982 39.744 77.9982 39.7441 77.9982 39.7443C77.9981 39.7461 77.9981 39.7476 77.998 39.7494C77.998 39.7497 77.998 39.7501 77.998 39.7504C77.9979 39.7518 77.9979 39.7531 77.9979 39.7545C77.9978 39.7549 77.9978 39.7554 77.9978 39.7558C77.9978 39.7574 77.9977 39.7587 77.9977 39.7604C77.9977 39.7605 77.9977 39.7606 77.9977 39.7608C77.9976 39.7626 77.9975 39.7641 77.9975 39.766C77.9975 39.7663 77.9975 39.7665 77.9975 39.7668C77.9974 39.7682 77.9973 39.7696 77.9973 39.771C77.9973 39.7715 77.9973 39.7719 77.9973 39.7724C77.9972 39.7737 77.9972 39.7751 77.9971 39.7765C77.9971 39.7768 77.9971 39.7771 77.9971 39.7774C77.997 39.7793 77.9969 39.7808 77.9969 39.7826C77.9969 39.7827 77.9969 39.7829 77.9969 39.783C77.9968 39.7844 77.9967 39.7862 77.9967 39.7876C77.9967 39.788 77.9966 39.7884 77.9966 39.7888C77.9966 39.7902 77.9965 39.7916 77.9965 39.793C77.9964 39.7933 77.9964 39.7937 77.9964 39.794C77.9963 39.7958 77.9963 39.7972 77.9962 39.799C77.9962 39.7993 77.9962 39.7995 77.9962 39.7997C77.9961 39.8011 77.996 39.8028 77.996 39.8041C77.996 39.8046 77.996 39.8049 77.9959 39.8054C77.9959 39.8068 77.9958 39.8079 77.9958 39.8093C77.9957 39.8098 77.9957 39.8102 77.9957 39.8106C77.9956 39.8122 77.9955 39.814 77.9955 39.8156C77.9955 39.8157 77.9955 39.8157 77.9955 39.8157C77.9954 39.8173 77.9953 39.819 77.9952 39.8206C77.9952 39.8211 77.9952 39.8215 77.9952 39.822C77.9951 39.8233 77.995 39.8245 77.995 39.8258C77.995 39.8263 77.9949 39.8267 77.9949 39.8271C77.9948 39.8303 77.9946 39.8339 77.9944 39.8371C77.9944 39.8376 77.9944 39.838 77.9943 39.8385C77.9943 39.8398 77.9942 39.8409 77.9941 39.8423C77.9941 39.8427 77.9941 39.8432 77.9941 39.8437C77.994 39.8453 77.9939 39.8468 77.9938 39.8484C77.9938 39.8485 77.9938 39.8485 77.9938 39.8486C77.9937 39.8504 77.9936 39.8519 77.9935 39.8538C77.9935 39.8541 77.9935 39.8544 77.9935 39.8547C77.9934 39.8561 77.9933 39.8575 77.9932 39.8589C77.9932 39.8593 77.9932 39.8597 77.9932 39.8601C77.9931 39.8615 77.993 39.8631 77.9929 39.8645C77.9929 39.8647 77.9929 39.8649 77.9929 39.8652C77.9928 39.867 77.9927 39.8685 77.9926 39.8703C77.9925 39.8705 77.9925 39.8708 77.9925 39.871C77.9924 39.8724 77.9923 39.8741 77.9923 39.8754C77.9922 39.8758 77.9922 39.8762 77.9922 39.8765C77.9921 39.8779 77.992 39.8796 77.9919 39.8809C77.9919 39.8812 77.9919 39.8814 77.9919 39.8816C77.9918 39.8835 77.9917 39.885 77.9916 39.8868C77.9915 39.887 77.9915 39.8871 77.9915 39.8873C77.9914 39.8887 77.9913 39.8906 77.9912 39.892C77.9912 39.8923 77.9912 39.8926 77.9911 39.8929C77.9911 39.8943 77.9909 39.896 77.9909 39.8974C77.9908 39.8976 77.9908 39.8979 77.9908 39.8981C77.9906 39.9015 77.9903 39.9049 77.9901 39.9084C77.9901 39.9087 77.9901 39.9091 77.99 39.9095C77.9899 39.9108 77.9898 39.9124 77.9897 39.9137C77.9897 39.914 77.9897 39.9143 77.9897 39.9146C77.9894 39.918 77.9892 39.9215 77.9889 39.9249C77.9889 39.9252 77.9889 39.9255 77.9889 39.9259C77.9888 39.9272 77.9887 39.9287 77.9886 39.93C77.9885 39.9304 77.9885 39.9307 77.9885 39.9311C77.9882 39.9345 77.988 39.9379 77.9877 39.9413C77.9877 39.9416 77.9877 39.9419 77.9876 39.9422C77.9875 39.9436 77.9874 39.9452 77.9873 39.9466C77.9873 39.9469 77.9872 39.9472 77.9872 39.9475C77.9871 39.9491 77.987 39.9509 77.9868 39.9525C77.9868 39.9525 77.9868 39.9525 77.9868 39.9526C77.9867 39.9544 77.9865 39.9561 77.9864 39.9579C77.9864 39.958 77.9864 39.9582 77.9864 39.9584C77.9862 39.9599 77.9861 39.9614 77.986 39.963C77.986 39.9633 77.9859 39.9636 77.9859 39.9639C77.9858 39.9655 77.9856 39.9672 77.9855 39.9688C77.9855 39.9688 77.9855 39.9689 77.9855 39.969C77.9853 39.9708 77.9852 39.9724 77.985 39.9743C77.985 39.9744 77.985 39.9747 77.985 39.9749C77.9849 39.9762 77.9847 39.978 77.9846 39.9793C77.9846 39.9797 77.9845 39.98 77.9845 39.9804C77.9844 39.9818 77.9842 39.9836 77.9841 39.9849C77.9841 39.9851 77.9841 39.9853 77.9841 39.9855C77.9838 39.9889 77.9835 39.9924 77.9831 39.9958C77.9831 39.9961 77.9831 39.9964 77.9831 39.9967C77.9829 39.9983 77.9828 39.9999 77.9826 40.0015C77.9826 40.0016 77.9826 40.0017 77.9826 40.0018C77.9823 40.0054 77.982 40.0088 77.9816 40.0124C77.9816 40.0126 77.9816 40.0127 77.9816 40.0128C77.9814 40.0146 77.9813 40.016 77.9811 40.0178C77.9811 40.0179 77.9811 40.018 77.9811 40.0182C77.9807 40.0218 77.9804 40.0252 77.98 40.0289C77.98 40.0289 77.98 40.029 77.98 40.029C77.9798 40.0308 77.9797 40.0325 77.9795 40.0343C77.9795 40.0343 77.9795 40.0344 77.9795 40.0344C77.9791 40.0381 77.9788 40.0416 77.9784 40.0452C77.9784 40.0453 77.9784 40.0453 77.9784 40.0453C77.9782 40.0471 77.978 40.0488 77.9778 40.0506C77.9778 40.0507 77.9778 40.0507 77.9778 40.0508C77.9773 40.0562 77.9767 40.0615 77.9761 40.067C77.9761 40.067 77.9761 40.067 77.9761 40.0671C77.9539 40.2731 77.9163 40.4766 77.8642 40.6772L76.7458 40.4539C76.8169 40.1807 76.8529 39.9011 76.8529 39.6229V35.661ZM73.8282 43.7197L74.453 44.5625C74.4514 44.5634 74.449 44.5648 74.4473 44.5658C74.446 44.5665 74.4448 44.5672 74.4435 44.5679C74.4413 44.5692 74.4393 44.5703 74.437 44.5716C74.4345 44.573 74.432 44.5744 74.4295 44.5759C74.427 44.5773 74.4244 44.5787 74.422 44.5801C74.4196 44.5814 74.4176 44.5826 74.4153 44.5839C74.4128 44.5853 74.41 44.5869 74.4076 44.5882C74.4048 44.5898 74.4027 44.591 74.3999 44.5925C74.3986 44.5933 74.3972 44.5941 74.3959 44.5948C74.3938 44.596 74.3916 44.5972 74.3895 44.5984C74.3868 44.5999 74.3845 44.6012 74.3819 44.6027C74.3808 44.6033 74.3799 44.6038 74.3788 44.6044C74.3767 44.6055 74.3743 44.6069 74.3722 44.6081C74.3692 44.6097 74.367 44.611 74.364 44.6126C74.3615 44.614 74.3589 44.6155 74.3564 44.6168C74.3553 44.6175 74.3541 44.6182 74.3529 44.6188C74.3508 44.62 74.3482 44.6214 74.3461 44.6226C74.3436 44.624 74.3409 44.6255 74.3383 44.6269C74.3357 44.6284 74.3333 44.6297 74.3307 44.6311C74.33 44.6315 74.3295 44.6318 74.3288 44.6321C74.3257 44.6339 74.3231 44.6353 74.3199 44.6371C74.3173 44.6385 74.315 44.6398 74.3124 44.6412C74.3115 44.6417 74.3106 44.6422 74.3096 44.6427C74.3073 44.644 74.3043 44.6457 74.3019 44.647C74.2992 44.6484 74.2972 44.6496 74.2945 44.651C74.292 44.6524 74.2893 44.6539 74.2868 44.6552C74.2857 44.6558 74.2845 44.6565 74.2835 44.6571C74.2811 44.6584 74.2786 44.6598 74.2762 44.6611C74.2738 44.6624 74.2711 44.6638 74.2687 44.6652C74.2675 44.6658 74.2664 44.6664 74.2652 44.667C74.2628 44.6683 74.2601 44.6698 74.2577 44.6711C74.255 44.6726 74.2529 44.6737 74.2502 44.6752C74.2478 44.6765 74.245 44.678 74.2427 44.6793C74.2416 44.6799 74.2404 44.6805 74.2393 44.6811C74.2366 44.6825 74.2346 44.6837 74.2319 44.6851C74.2295 44.6864 74.2267 44.6879 74.2243 44.6892C74.2216 44.6906 74.2194 44.6918 74.2167 44.6933C74.2157 44.6938 74.2148 44.6943 74.2138 44.6948C74.2112 44.6963 74.2083 44.6978 74.2057 44.6992C74.2031 44.7006 74.2007 44.7019 74.1981 44.7033C74.1972 44.7038 74.1963 44.7042 74.1954 44.7047C74.1901 44.7076 74.1847 44.7104 74.1794 44.7133C74.1767 44.7147 74.1746 44.7158 74.1719 44.7173C74.1714 44.7176 74.1707 44.7179 74.1702 44.7182C74.1669 44.7199 74.1638 44.7216 74.1606 44.7233C74.1583 44.7245 74.1558 44.7258 74.1535 44.7271C74.151 44.7284 74.1485 44.7297 74.146 44.731C74.1455 44.7313 74.1449 44.7316 74.1444 44.7319C74.1411 44.7336 74.138 44.7352 74.1348 44.7369C74.1323 44.7383 74.1299 44.7395 74.1274 44.7408C74.1265 44.7413 74.1256 44.7418 74.1247 44.7423C74.1215 44.744 74.1189 44.7453 74.1156 44.747C74.1133 44.7483 74.1109 44.7495 74.1085 44.7508C74.1059 44.7521 74.1037 44.7533 74.1011 44.7547C74.1005 44.755 74.0998 44.7553 74.0993 44.7556C74.0963 44.7572 74.093 44.7589 74.09 44.7605C74.0874 44.7618 74.085 44.7631 74.0824 44.7644C74.0815 44.7649 74.0806 44.7654 74.0797 44.7658C74.0743 44.7687 74.0692 44.7713 74.0638 44.7741C74.0615 44.7753 74.0586 44.7768 74.0562 44.7781C74.0552 44.7786 74.0543 44.7791 74.0532 44.7796C74.0505 44.781 74.0477 44.7825 74.045 44.7839C74.0426 44.7851 74.0399 44.7865 74.0375 44.7877C74.0349 44.7891 74.0323 44.7904 74.0296 44.7918C74.029 44.7921 74.0283 44.7925 74.0277 44.7928C74.0247 44.7943 74.0216 44.7959 74.0186 44.7975C74.0159 44.7988 74.0136 44.8 74.011 44.8014C74.0099 44.8019 74.0089 44.8024 74.0078 44.803C74.0049 44.8045 74.0016 44.8062 73.9987 44.8077C73.9964 44.8089 73.9942 44.8099 73.9919 44.8111C73.9896 44.8123 73.9868 44.8138 73.9845 44.8149C73.9833 44.8155 73.9824 44.816 73.9813 44.8165C73.9786 44.8179 73.9757 44.8194 73.973 44.8208C73.9704 44.8221 73.968 44.8233 73.9654 44.8246C73.9628 44.8259 73.9603 44.8272 73.9577 44.8285C73.9575 44.8286 73.9574 44.8287 73.9572 44.8288C73.9536 44.8306 73.95 44.8324 73.9465 44.8342C73.9439 44.8355 73.9413 44.8368 73.9387 44.8381C73.9377 44.8386 73.9368 44.8391 73.9358 44.8396C73.9331 44.841 73.9297 44.8427 73.927 44.844C73.9246 44.8452 73.9221 44.8465 73.9197 44.8477C73.9171 44.849 73.9145 44.8503 73.9119 44.8516C73.9113 44.8519 73.9105 44.8523 73.9098 44.8527C73.9065 44.8543 73.9038 44.8557 73.9005 44.8573C73.898 44.8586 73.8954 44.8599 73.8929 44.8611C73.892 44.8616 73.8913 44.8619 73.8903 44.8624C73.8848 44.8651 73.8793 44.8679 73.8738 44.8706C73.8713 44.8719 73.8686 44.8732 73.8661 44.8744C73.8652 44.8749 73.8642 44.8754 73.8633 44.8759C73.8605 44.8772 73.8576 44.8787 73.8548 44.88C73.8524 44.8812 73.8495 44.8827 73.8471 44.8839C73.8444 44.8852 73.8421 44.8863 73.8393 44.8877C73.838 44.8883 73.8368 44.8889 73.8355 44.8896C73.833 44.8908 73.831 44.8918 73.8285 44.893C73.8255 44.8945 73.8233 44.8956 73.8203 44.8971C73.8191 44.8976 73.8179 44.8982 73.8168 44.8988C73.8143 44.9 73.8112 44.9015 73.8087 44.9027C73.806 44.904 73.8038 44.9051 73.8011 44.9065C73.7985 44.9077 73.7956 44.9092 73.793 44.9104C73.792 44.9109 73.791 44.9114 73.7899 44.9119C73.7872 44.9133 73.7843 44.9146 73.7816 44.916C73.7792 44.9171 73.7762 44.9186 73.7738 44.9197C73.771 44.9211 73.7687 44.9222 73.7658 44.9236C73.7655 44.9238 73.7651 44.924 73.7647 44.9242C73.7611 44.9259 73.7579 44.9275 73.7543 44.9292C73.7516 44.9305 73.7492 44.9317 73.7466 44.9329C73.7456 44.9334 73.7448 44.9338 73.7438 44.9343C73.7405 44.9359 73.7373 44.9374 73.734 44.939C73.7317 44.9401 73.7294 44.9412 73.7272 44.9423C73.7248 44.9434 73.7218 44.9449 73.7194 44.946C73.7184 44.9465 73.7173 44.9471 73.7162 44.9476C73.7134 44.9489 73.7105 44.9503 73.7078 44.9516C73.7051 44.9529 73.7026 44.9541 73.6999 44.9553C73.6988 44.9559 73.698 44.9563 73.6969 44.9568C73.6913 44.9594 73.6863 44.9619 73.6807 44.9645C73.6779 44.9658 73.6754 44.967 73.6726 44.9683C73.6716 44.9688 73.6707 44.9693 73.6696 44.9698C73.6668 44.9711 73.6635 44.9727 73.6607 44.974C73.6581 44.9752 73.6557 44.9764 73.6531 44.9776C73.6505 44.9788 73.6478 44.9801 73.6452 44.9813C73.6441 44.9818 73.643 44.9823 73.642 44.9828C73.6394 44.984 73.6362 44.9855 73.6337 44.9867C73.631 44.988 73.6285 44.9892 73.6257 44.9905C73.6227 44.9919 73.6192 44.9935 73.6162 44.995C73.6129 44.9965 73.6098 44.9979 73.6066 44.9995C73.6039 45.0007 73.601 45.0021 73.5983 45.0033C73.5971 45.0039 73.5961 45.0043 73.5949 45.0049C73.5921 45.0062 73.5894 45.0075 73.5866 45.0088C73.5841 45.0099 73.5811 45.0113 73.5786 45.0125C73.5758 45.0138 73.5734 45.0149 73.5706 45.0162C73.5691 45.0169 73.5675 45.0176 73.566 45.0183C73.5637 45.0194 73.5617 45.0203 73.5595 45.0214C73.5568 45.0226 73.5538 45.024 73.5511 45.0252C73.5497 45.0259 73.5486 45.0264 73.5472 45.027C73.545 45.0281 73.5434 45.0288 73.5411 45.0298C73.5379 45.0313 73.5349 45.0327 73.5317 45.0342C73.5289 45.0354 73.5262 45.0367 73.5234 45.038C73.522 45.0386 73.5206 45.0393 73.5193 45.0399C73.517 45.0409 73.5145 45.0421 73.5122 45.0431C73.5094 45.0444 73.5069 45.0455 73.5041 45.0468C73.5011 45.0482 73.4986 45.0493 73.4956 45.0507C73.4933 45.0518 73.4907 45.0529 73.4884 45.054C73.4856 45.0553 73.4831 45.0564 73.4803 45.0577C73.4774 45.059 73.4746 45.0602 73.4717 45.0615C73.4694 45.0626 73.4673 45.0636 73.465 45.0646C73.462 45.066 73.4592 45.0672 73.4562 45.0686C73.4534 45.0698 73.4508 45.071 73.448 45.0723C73.4464 45.073 73.4448 45.0737 73.4432 45.0744C73.4409 45.0755 73.4389 45.0764 73.4366 45.0774C73.4338 45.0787 73.4312 45.0799 73.4283 45.0811C73.4254 45.0824 73.423 45.0835 73.42 45.0848C73.4176 45.086 73.4151 45.0871 73.4126 45.0882C73.41 45.0894 73.407 45.0907 73.4043 45.0919C73.401 45.0934 73.3979 45.0947 73.3946 45.0962C73.3912 45.0977 73.3878 45.0992 73.3844 45.1007C73.3814 45.1021 73.3789 45.1032 73.3759 45.1045C73.3748 45.105 73.3733 45.1057 73.3721 45.1062C73.3696 45.1073 73.3672 45.1084 73.3647 45.1095C73.3618 45.1108 73.3593 45.1119 73.3564 45.1132C73.3538 45.1143 73.3504 45.1158 73.3478 45.117C73.3441 45.1186 73.3401 45.1204 73.3364 45.122C73.3338 45.1231 73.3307 45.1245 73.3281 45.1256C73.3251 45.1269 73.3221 45.1283 73.3191 45.1296C73.3154 45.1312 73.3118 45.1328 73.3082 45.1343C73.3054 45.1356 73.3027 45.1368 73.2998 45.138C73.2984 45.1386 73.297 45.1392 73.2955 45.1399C73.2931 45.1409 73.2908 45.1419 73.2884 45.143C73.2856 45.1442 73.2827 45.1455 73.2798 45.1467C73.2769 45.148 73.274 45.1492 73.2711 45.1505C73.2673 45.1522 73.2637 45.1537 73.2598 45.1554C73.257 45.1566 73.2543 45.1578 73.2514 45.159C73.2481 45.1604 73.2448 45.1618 73.2415 45.1633C73.2382 45.1647 73.2346 45.1663 73.2313 45.1677C73.2283 45.169 73.2255 45.1701 73.2224 45.1715C73.2213 45.172 73.2199 45.1726 73.2187 45.1731C73.2162 45.1741 73.2137 45.1752 73.2112 45.1763C73.2081 45.1776 73.2056 45.1787 73.2026 45.18C73.1991 45.1815 73.1963 45.1826 73.1928 45.1841C73.1893 45.1856 73.1859 45.1871 73.1824 45.1885C73.1795 45.1898 73.1765 45.1911 73.1736 45.1923C73.1724 45.1928 73.1714 45.1932 73.1702 45.1937C73.1676 45.1948 73.165 45.1959 73.1623 45.197C73.1596 45.1982 73.1566 45.1995 73.1538 45.2006C73.1509 45.2019 73.1476 45.2033 73.1447 45.2045C73.1436 45.205 73.1426 45.2054 73.1414 45.2059C73.1389 45.2069 73.1364 45.208 73.1339 45.209C73.1312 45.2102 73.1278 45.2116 73.1251 45.2127C73.1214 45.2143 73.1182 45.2156 73.1144 45.2172C73.1112 45.2185 73.108 45.2199 73.1048 45.2212C73.1019 45.2224 73.0988 45.2237 73.0959 45.2249C73.0947 45.2254 73.0936 45.2259 73.0924 45.2264C73.0898 45.2275 73.0871 45.2286 73.0844 45.2297C73.0818 45.2308 73.0785 45.2321 73.0759 45.2332C73.0727 45.2346 73.0693 45.236 73.0661 45.2373C73.0652 45.2377 73.0643 45.2381 73.0634 45.2384C73.0608 45.2395 73.0582 45.2406 73.0556 45.2417C73.0526 45.2429 73.0498 45.244 73.0468 45.2453C73.0456 45.2458 73.0445 45.2462 73.0433 45.2467C73.0407 45.2478 73.0379 45.2489 73.0352 45.25C73.0323 45.2512 73.0294 45.2524 73.0264 45.2536C73.0234 45.2549 73.0204 45.2561 73.0174 45.2573C73.0162 45.2578 73.0155 45.2581 73.0143 45.2586C73.0116 45.2597 73.0089 45.2608 73.0061 45.2619C73.0032 45.2631 73.0002 45.2644 72.9973 45.2656C72.994 45.2669 72.9902 45.2684 72.9869 45.2698C72.9837 45.2711 72.9805 45.2724 72.9772 45.2737C72.974 45.275 72.971 45.2762 72.9677 45.2776C72.9668 45.2779 72.9659 45.2783 72.965 45.2787C72.9622 45.2798 72.9593 45.281 72.9565 45.2821C72.9535 45.2833 72.9506 45.2845 72.9476 45.2857C72.9443 45.287 72.9411 45.2883 72.9378 45.2896C72.9369 45.29 72.9367 45.2901 72.9358 45.2904C72.933 45.2915 72.93 45.2928 72.9272 45.2939C72.9243 45.2951 72.9212 45.2963 72.9182 45.2975C72.9173 45.2978 72.9163 45.2982 72.9154 45.2986C72.9126 45.2997 72.9097 45.3009 72.9068 45.302C72.9065 45.3022 72.9059 45.3024 72.9056 45.3025C72.903 45.3036 72.9006 45.3045 72.898 45.3055C72.895 45.3068 72.8915 45.3081 72.8884 45.3094C72.8878 45.3096 72.8868 45.31 72.8862 45.3102C72.8833 45.3114 72.8804 45.3125 72.8775 45.3137C72.8746 45.3148 72.8714 45.3161 72.8685 45.3173C72.8651 45.3186 72.8617 45.32 72.8583 45.3213C72.8577 45.3215 72.8573 45.3217 72.8567 45.3219C72.8538 45.3231 72.851 45.3242 72.8481 45.3253C72.845 45.3265 72.8419 45.3277 72.8389 45.3289C72.838 45.3293 72.837 45.3297 72.8361 45.33C72.8332 45.3312 72.8303 45.3323 72.8274 45.3335C72.8243 45.3347 72.8218 45.3356 72.8187 45.3368C72.8153 45.3382 72.8125 45.3393 72.8091 45.3406C72.8085 45.3408 72.8072 45.3413 72.8066 45.3416C72.8037 45.3427 72.8009 45.3438 72.798 45.3449C72.7949 45.3461 72.792 45.3473 72.7889 45.3485C72.788 45.3488 72.787 45.3492 72.7861 45.3496C72.7835 45.3506 72.781 45.3516 72.7784 45.3526C72.7778 45.3528 72.7772 45.353 72.7766 45.3533C72.7738 45.3543 72.7711 45.3554 72.7682 45.3565C72.765 45.3577 72.7619 45.3589 72.7587 45.3602C72.7578 45.3605 72.7575 45.3606 72.7566 45.361C72.7536 45.3621 72.7507 45.3633 72.7476 45.3644C72.7448 45.3655 72.7414 45.3668 72.7386 45.3679C72.7377 45.3683 72.7368 45.3686 72.7359 45.3689C72.7332 45.37 72.7306 45.371 72.7279 45.372C72.7276 45.3721 72.7273 45.3722 72.727 45.3723C72.724 45.3735 72.7208 45.3747 72.7178 45.3759C72.7147 45.3771 72.7115 45.3783 72.7084 45.3795C72.7078 45.3797 72.7069 45.38 72.7063 45.3803C72.7033 45.3814 72.7002 45.3826 72.6971 45.3838C72.6968 45.3839 72.6971 45.3838 72.6968 45.3839C72.6939 45.385 72.6909 45.3861 72.688 45.3872C72.6846 45.3885 72.6817 45.3896 72.6783 45.3909C72.6777 45.3911 72.677 45.3914 72.6764 45.3916C72.6734 45.3928 72.6704 45.3939 72.6673 45.3951C72.6642 45.3962 72.6614 45.3973 72.6582 45.3985C72.6573 45.3988 72.6566 45.3991 72.6557 45.3995C72.6529 45.4005 72.6501 45.4016 72.6474 45.4026C72.6471 45.4027 72.6469 45.4028 72.6466 45.4029C72.6435 45.404 72.6405 45.4052 72.6375 45.4063C72.6345 45.4074 72.6309 45.4088 72.6279 45.4099C72.6273 45.4101 72.6265 45.4104 72.6259 45.4107C72.6228 45.4118 72.6197 45.413 72.6166 45.4141C72.6163 45.4142 72.616 45.4143 72.6157 45.4145C72.6129 45.4155 72.6101 45.4166 72.6072 45.4176C72.6066 45.4178 72.606 45.4181 72.6053 45.4183C72.6024 45.4194 72.5996 45.4205 72.5966 45.4216C72.5963 45.4217 72.5964 45.4217 72.5961 45.4218C72.5928 45.423 72.5897 45.4242 72.5864 45.4254C72.5858 45.4256 72.5859 45.4255 72.5853 45.4258C72.5825 45.4268 72.5799 45.4278 72.5771 45.4288C72.5764 45.4291 72.5757 45.4293 72.5751 45.4295C72.5689 45.4319 72.5626 45.4342 72.5564 45.4365C72.5557 45.4367 72.5553 45.4369 72.5547 45.4371C72.5519 45.4381 72.5492 45.4391 72.5464 45.4401C72.5461 45.4403 72.5454 45.4405 72.5451 45.4406C72.5418 45.4418 72.5387 45.443 72.5354 45.4442L72.5352 45.4442C72.5322 45.4454 72.5291 45.4465 72.526 45.4476C72.5254 45.4479 72.525 45.448 72.5244 45.4482C72.5179 45.4506 72.5117 45.4529 72.5052 45.4552C72.5049 45.4553 72.5043 45.4555 72.504 45.4556C72.5012 45.4567 72.4984 45.4577 72.4955 45.4587C72.4949 45.459 72.4947 45.459 72.4941 45.4593C72.4876 45.4616 72.4811 45.464 72.4746 45.4663C72.4743 45.4664 72.474 45.4665 72.4737 45.4666C72.4639 45.4702 72.4539 45.4738 72.4441 45.4773C72.4438 45.4774 72.4435 45.4776 72.4431 45.4777C72.4365 45.48 72.43 45.4824 72.4234 45.4847C72.4231 45.4848 72.4229 45.4849 72.4226 45.485C72.4196 45.4861 72.4166 45.4872 72.4136 45.4882C72.4133 45.4883 72.4128 45.4885 72.4125 45.4886C72.4059 45.491 72.3995 45.4932 72.393 45.4956C72.3927 45.4957 72.3919 45.4959 72.3916 45.496C72.385 45.4984 72.3786 45.5007 72.372 45.503L72.3714 45.5032C72.3682 45.5043 72.3652 45.5054 72.362 45.5065C72.3617 45.5066 72.3615 45.5067 72.3612 45.5068C72.3546 45.5091 72.348 45.5115 72.3413 45.5138L72.3404 45.5141C72.3374 45.5152 72.3342 45.5163 72.3312 45.5173C72.3309 45.5175 72.3307 45.5175 72.3304 45.5176C72.3239 45.5199 72.3172 45.5222 72.3107 45.5245C72.3101 45.5247 72.31 45.5247 72.3094 45.5249C72.3029 45.5272 72.2962 45.5295 72.2896 45.5318C72.2893 45.5319 72.2892 45.532 72.2889 45.5321C72.2857 45.5332 72.2828 45.5342 72.2795 45.5353L72.2788 45.5356C72.2721 45.5379 72.2653 45.5402 72.2586 45.5425C72.2583 45.5426 72.2584 45.5426 72.2581 45.5427C72.2479 45.5462 72.2377 45.5497 72.2275 45.5532C72.2272 45.5533 72.2274 45.5532 72.2271 45.5533C72.2203 45.5557 72.2134 45.558 72.2066 45.5603C72.2063 45.5604 72.2068 45.5603 72.2064 45.5604C72.1962 45.5639 72.1858 45.5674 72.1755 45.5708C72.1752 45.5709 72.1754 45.5709 72.1751 45.571C72.1649 45.5744 72.1545 45.5779 72.1443 45.5813L72.144 45.5814C72.1267 45.5872 72.1094 45.593 72.092 45.5987L72.0917 45.5988C71.1678 45.9045 70.1657 46.1364 69.1076 46.2811L68.9307 45.2881C70.7751 45.0358 72.4686 44.4935 73.8282 43.7197ZM57.6471 45.4494H63.3824V46.4544H57.6471V45.4494ZM46.1765 45.4494H51.9118V46.4544H46.1765V45.4494ZM34.7059 45.4494H40.4412V46.4544H34.7059V45.4494ZM23.2353 45.4494H28.9706V46.4544H23.2353V45.4494ZM11.7648 45.4494H17.5001V46.4544H11.7648V45.4494ZM2.30825 42.2819C3.26455 43.3157 4.71994 44.1602 6.51708 44.7243L6.13023 45.6704C4.14279 45.0466 2.50011 44.0854 1.41716 42.9148L2.30825 42.2819ZM0 33.1615H1.14706V38.1866H0V33.1615ZM0 23.1113H1.14706V28.1364H0V23.1113ZM0 13.0612H1.14706V18.0862H0V13.0612ZM1.58725 3.36207L2.45308 4.0213C1.59868 4.88275 1.14706 5.85452 1.14706 6.83153V8.03609H0V6.83153C0 6.82991 0 6.82824 0 6.82663C0 6.82616 0 6.82583 8.75136e-06 6.82536C8.75136e-06 6.82375 8.75136e-06 6.82229 1.75027e-05 6.82068C1.75027e-05 6.8206 1.75027e-05 6.8205 1.75027e-05 6.82043C1.75027e-05 6.81882 2.62541e-05 6.81716 3.50054e-05 6.81555C3.50054e-05 6.81516 3.50054e-05 6.81465 3.50054e-05 6.81426C4.37568e-05 6.81288 5.25082e-05 6.81131 5.25082e-05 6.80993C6.12595e-05 6.8097 6.12595e-05 6.80954 6.12595e-05 6.80931C7.00109e-05 6.8077 7.87622e-05 6.8061 8.75136e-05 6.80449C8.75136e-05 6.8041 9.62649e-05 6.80366 9.62649e-05 6.80327C0.000105016 6.80189 0.000113768 6.80025 0.00013127 6.79887C0.00013127 6.79864 0.00013127 6.79848 0.00013127 6.79824C0.000148773 6.79663 0.000157524 6.79507 0.000175027 6.79346C0.000175027 6.793 0.000183779 6.79257 0.000183779 6.7921C0.000201281 6.79072 0.000218784 6.78931 0.000227535 6.78793C0.000227535 6.7877 0.000236287 6.78742 0.000236287 6.78719C0.000253789 6.78558 0.000271292 6.78402 0.000288795 6.78241C0.000297546 6.78195 0.000297546 6.78154 0.000306298 6.78107C0.0003238 6.77969 0.000341303 6.77843 0.000358806 6.77705C0.000358806 6.77674 0.000367557 6.77638 0.000367557 6.77607C0.000393811 6.77446 0.000411314 6.77286 0.000437568 6.77125C0.000446319 6.77086 0.000446319 6.77053 0.000455071 6.77014C0.000472573 6.76876 0.000498827 6.7672 0.00051633 6.76583C0.000525082 6.76559 0.000525082 6.76533 0.000533833 6.7651C0.000560087 6.76349 0.000586341 6.76183 0.000612595 6.76022C0.000621346 6.75983 0.000621346 6.7595 0.000630098 6.75912C0.000656352 6.75774 0.000682606 6.75626 0.00070886 6.75488C0.000717611 6.75457 0.000717611 6.75432 0.000726363 6.75401C0.000752617 6.75241 0.000787622 6.75075 0.000813876 6.74914C0.000822628 6.74883 0.000831379 6.74842 0.00084013 6.74811C0.000866385 6.74673 0.000892639 6.74525 0.000927644 6.74387C0.000927644 6.74364 0.000936395 6.74321 0.000945147 6.74298C0.000980152 6.74138 0.00101516 6.73971 0.00105016 6.7381C0.00105891 6.73772 0.00106767 6.73749 0.00107642 6.73711C0.00110267 6.73573 0.00113768 6.73424 0.00117268 6.73286C0.00118143 6.73255 0.00119018 6.73224 0.00119018 6.73193C0.00124269 6.73009 0.00126895 6.72885 0.0013127 6.72701C0.00132146 6.72671 0.00133021 6.72643 0.00133896 6.72613C0.00137396 6.72475 0.00140897 6.72322 0.00145273 6.72184C0.00146148 6.72153 0.00146148 6.72123 0.00147023 6.72092C0.00152274 6.71909 0.00155774 6.71781 0.00161025 6.71597C0.001619 6.71566 0.001619 6.71552 0.00162775 6.71521C0.00167151 6.71384 0.00171527 6.71209 0.00175902 6.71072C0.00176777 6.71048 0.00177653 6.71015 0.00178528 6.70992C0.00183779 6.70808 0.00187279 6.70676 0.00193405 6.70493C0.00193405 6.7047 0.0019428 6.70439 0.00195155 6.70416C0.00199531 6.70279 0.00204782 6.70127 0.00209157 6.6999C0.00210033 6.69959 0.00210908 6.69914 0.00211783 6.69883C0.00217034 6.69722 0.00222285 6.69558 0.00227535 6.69398C0.0022841 6.69374 0.00230161 6.69334 0.00231036 6.69311C0.00235412 6.69173 0.00240662 6.6901 0.00245913 6.68872C0.00246788 6.68841 0.00247663 6.68819 0.00248539 6.68788C0.00254665 6.68605 0.00259915 6.68473 0.00266041 6.6829C0.00266916 6.68267 0.00267792 6.68239 0.00268667 6.68216C0.00273918 6.68079 0.00279168 6.67925 0.00284419 6.67787C0.00286169 6.67749 0.00287045 6.67718 0.00288795 6.6768C0.00294046 6.67519 0.00301047 6.67349 0.00307173 6.67189C0.00308048 6.67166 0.00308923 6.67146 0.00309798 6.67123C0.00315049 6.66986 0.00321175 6.66819 0.00327301 6.66681C0.00328176 6.66643 0.00329926 6.66616 0.00330801 6.66577C0.00337802 6.66417 0.00343928 6.66253 0.00350929 6.66093C0.00351805 6.66062 0.0035268 6.66036 0.0035443 6.66005C0.00359681 6.65868 0.00365807 6.65734 0.00371058 6.65596C0.00373683 6.6555 0.00374558 6.6552 0.00376308 6.65474C0.00383309 6.65314 0.00390311 6.65152 0.00397312 6.64991C0.00398187 6.64968 0.00399937 6.64938 0.00400812 6.64915C0.00406938 6.64778 0.00413064 6.64636 0.0041919 6.64499C0.00421815 6.64453 0.00423566 6.64412 0.00425316 6.64366C0.00432317 6.64205 0.00440193 6.64049 0.00447194 6.63889C0.0044807 6.63866 0.00448945 6.63844 0.00450695 6.63821C0.00456821 6.63684 0.00463822 6.63536 0.00469948 6.63398C0.00472573 6.6336 0.00474324 6.63308 0.00476949 6.6327C0.0048395 6.6311 0.00491826 6.62955 0.00499703 6.62795C0.00500578 6.62772 0.00502328 6.62741 0.00503203 6.62718C0.00510204 6.6258 0.0051808 6.62428 0.00525082 6.62291C0.00526832 6.62253 0.00528582 6.62213 0.00530332 6.62174C0.00539084 6.62014 0.0054696 6.61848 0.00555711 6.61687C0.00556586 6.61672 0.00557462 6.61654 0.00558337 6.61639C0.00565338 6.61502 0.00574089 6.61338 0.0058109 6.61201C0.00583716 6.61155 0.00585466 6.6112 0.00588091 6.61074C0.00595968 6.60915 0.00605594 6.60748 0.00614345 6.60588C0.00614345 6.6058 0.00615221 6.60562 0.00616096 6.60554C0.00624847 6.60394 0.00632723 6.60253 0.00641475 6.60093C0.00643225 6.60054 0.0064585 6.60016 0.00647601 6.59978C0.00665978 6.59658 0.00685231 6.59313 0.00703609 6.58993C0.00706235 6.58955 0.00707985 6.58924 0.0071061 6.58886C0.00719362 6.58726 0.00729863 6.58548 0.0073949 6.58389C0.00740365 6.58381 0.0073949 6.58393 0.0073949 6.58385C0.00749116 6.58225 0.00759618 6.58058 0.00769244 6.57898C0.0077187 6.5786 0.00774495 6.57817 0.00776246 6.57779C0.00786747 6.57619 0.00795499 6.57467 0.00806 6.57307C0.00806875 6.57292 0.00806875 6.57284 0.0080775 6.57269C0.00818252 6.57109 0.00826128 6.56979 0.0083663 6.5682C0.00839255 6.56774 0.00842756 6.5672 0.00846256 6.56674C0.00855883 6.56514 0.00864634 6.56377 0.00875136 6.56217C0.00876011 6.5621 0.00876011 6.562 0.00876886 6.56193C0.00887388 6.56033 0.00897889 6.55873 0.00908391 6.55713C0.00911892 6.55667 0.00914517 6.55626 0.00917142 6.5558C0.00927644 6.55421 0.00937271 6.55285 0.00947772 6.55125C0.00948647 6.5511 0.00948647 6.55113 0.00949522 6.55097C0.00960899 6.54938 0.00970526 6.54787 0.00981902 6.54628C0.00985403 6.54574 0.00988904 6.54531 0.00992404 6.54478C0.0100203 6.54341 0.0101166 6.54196 0.0102128 6.5406C0.0102303 6.54037 0.0102391 6.54018 0.0102566 6.53995C0.0103704 6.53835 0.0104841 6.53675 0.0105979 6.53516C0.0106241 6.53477 0.0106592 6.53429 0.0106942 6.5339C0.0107904 6.53254 0.0108954 6.53113 0.0109917 6.52976C0.0110092 6.52953 0.0110267 6.52921 0.0110442 6.52898C0.0111667 6.52738 0.0112717 6.52594 0.0113855 6.52434C0.0114205 6.52388 0.0114643 6.52333 0.0114993 6.52287C0.0116043 6.5215 0.0116918 6.52033 0.0117968 6.51897C0.0118143 6.51866 0.0118493 6.51827 0.0118668 6.51797C0.0119894 6.51637 0.0120944 6.515 0.0122169 6.51341C0.0122607 6.51287 0.0122957 6.51236 0.0123394 6.51183C0.0124444 6.51046 0.0125319 6.50932 0.012637 6.50795C0.0126632 6.50765 0.0126807 6.5074 0.012707 6.50709C0.0128295 6.5055 0.012952 6.50403 0.0130745 6.50243C0.0131183 6.5019 0.0131533 6.50148 0.013197 6.50094C0.0133021 6.49957 0.0133896 6.49848 0.0135033 6.49711C0.0135384 6.49673 0.0135559 6.49648 0.0135821 6.4961C0.0137134 6.4945 0.0138359 6.49301 0.0139672 6.49142C0.0140022 6.49096 0.0140459 6.49051 0.0140809 6.49005C0.0141947 6.48869 0.0142822 6.48757 0.014396 6.48621C0.014431 6.48583 0.0144572 6.48554 0.0144922 6.48516C0.0146235 6.48356 0.014746 6.48207 0.0148861 6.48048C0.0149211 6.48002 0.0149561 6.47967 0.0149911 6.47921C0.0151048 6.47784 0.0152186 6.47655 0.0153324 6.47518C0.0153586 6.47488 0.0153936 6.47454 0.0154199 6.47424C0.0155599 6.47265 0.0156912 6.47107 0.0158312 6.46948C0.0158662 6.4691 0.0159012 6.46869 0.0159362 6.46831C0.0160587 6.46694 0.0161725 6.46563 0.016295 6.46427C0.0163213 6.46396 0.0163475 6.46365 0.0163738 6.46334C0.0165138 6.46175 0.0166626 6.46017 0.0168026 6.45858C0.0168376 6.4582 0.0168726 6.45781 0.0169076 6.45743C0.0170301 6.45606 0.0171527 6.45469 0.0172839 6.45332C0.0173102 6.45302 0.0173364 6.4527 0.0173627 6.4524C0.017529 6.45058 0.0176427 6.44939 0.017809 6.44757C0.017844 6.44727 0.017879 6.44689 0.0179053 6.44658C0.0180278 6.44522 0.0181678 6.44377 0.0182991 6.44241C0.0183253 6.44211 0.0183516 6.44182 0.0183779 6.44151C0.0185266 6.43992 0.0186841 6.43832 0.0188329 6.43673C0.0188679 6.43635 0.0189029 6.43599 0.0189379 6.43561C0.0190692 6.43425 0.0192005 6.43292 0.0193318 6.43156C0.0193668 6.43126 0.0194018 6.43084 0.019428 6.43053C0.0195855 6.42895 0.0197518 6.4273 0.0199006 6.42571C0.0199356 6.42541 0.0199531 6.42519 0.0199881 6.42489C0.0201194 6.42353 0.0202856 6.42188 0.0204169 6.42052C0.0204519 6.42021 0.0204694 6.42003 0.0204957 6.41973C0.0206795 6.41791 0.020802 6.41669 0.0209858 6.41488C0.021012 6.41457 0.0210558 6.41415 0.0210908 6.41384C0.0212308 6.41248 0.0213621 6.41114 0.0215021 6.40977C0.0215458 6.4094 0.0215721 6.40912 0.0216071 6.40874C0.0217734 6.40715 0.0219484 6.40545 0.0221147 6.40386C0.0221322 6.40363 0.0221584 6.40343 0.0221759 6.40321C0.0223247 6.40185 0.022491 6.40019 0.0226398 6.39883C0.022666 6.39852 0.0227098 6.39815 0.022736 6.39785C0.0229111 6.39626 0.0230773 6.39466 0.0232436 6.39307C0.0232786 6.39277 0.0233136 6.39242 0.0233486 6.39212C0.0234886 6.39075 0.0236462 6.38932 0.0237949 6.38796C0.0238212 6.38766 0.0238737 6.38724 0.0239 6.38693C0.024075 6.38535 0.0242588 6.3836 0.0244338 6.38201C0.0244425 6.38194 0.0244688 6.38171 0.0244775 6.38163C0.0246526 6.38005 0.0248189 6.37854 0.0249939 6.37695C0.0250201 6.37672 0.0250551 6.37638 0.0250814 6.37615C0.0252827 6.37434 0.0254402 6.37291 0.0256415 6.3711C0.0256502 6.37102 0.025659 6.37096 0.0256677 6.37088C0.0258428 6.36929 0.0260265 6.36766 0.0262016 6.36608C0.0262278 6.36585 0.0262716 6.36547 0.0262978 6.36524C0.0264816 6.36366 0.0266916 6.36176 0.0268754 6.36018C0.0268842 6.3601 0.0268667 6.36024 0.0268754 6.36016C0.0270592 6.35858 0.0272605 6.35681 0.0274443 6.35522C0.0274793 6.35492 0.0275143 6.35466 0.0275493 6.35436C0.0277331 6.35278 0.0279431 6.35094 0.0281269 6.34936C0.0281356 6.34928 0.0281444 6.34922 0.0281531 6.34915C0.0283369 6.34756 0.0285207 6.34598 0.0287132 6.3444C0.0287482 6.34409 0.028792 6.34374 0.028827 6.34344C0.0290108 6.34185 0.0292295 6.34007 0.0294133 6.33849L0.0294396 6.33832C0.0296233 6.33673 0.0298246 6.33507 0.0300172 6.33349C0.0300434 6.33326 0.0300959 6.33285 0.0301222 6.33262C0.0305072 6.32946 0.0309448 6.32589 0.0313299 6.32273C0.0313824 6.32235 0.0314174 6.32201 0.0314699 6.32163C0.0318637 6.31847 0.0323013 6.31498 0.0326951 6.31182C0.0327388 6.31151 0.0327826 6.31113 0.0328263 6.31082C0.0330189 6.30924 0.0332114 6.30772 0.0334214 6.30614C0.0334302 6.30607 0.0334477 6.30588 0.0334564 6.3058C0.0336577 6.30422 0.0338765 6.30254 0.0340865 6.30096C0.0341215 6.30066 0.0341741 6.30028 0.0342091 6.29998C0.0344103 6.2984 0.0346379 6.29668 0.0348392 6.2951C0.0348479 6.29503 0.0348392 6.29513 0.0348479 6.29505C0.0350579 6.29348 0.0352855 6.29169 0.0354955 6.29011C0.035548 6.28973 0.0355743 6.28952 0.0356268 6.28914C0.0358281 6.28756 0.0360293 6.28607 0.0362394 6.28449C0.0362481 6.28442 0.0362744 6.28424 0.0362831 6.28416C0.0364932 6.28258 0.0367295 6.28085 0.0369395 6.27927C0.0369745 6.27897 0.037027 6.27859 0.0370708 6.27829C0.0374908 6.27513 0.0379896 6.27152 0.0384185 6.26836C0.0384622 6.26805 0.0384972 6.2678 0.0385322 6.2675C0.0387248 6.26615 0.038961 6.26438 0.0391536 6.26303C0.0391798 6.2628 0.0392061 6.26266 0.0392323 6.26243C0.0394511 6.26085 0.0396874 6.25914 0.0399149 6.25756C0.03995 6.25726 0.0400025 6.25693 0.0400462 6.25663C0.040265 6.25505 0.040475 6.25357 0.0406938 6.25199C0.0407026 6.25191 0.0407288 6.25176 0.0407376 6.25168C0.0409914 6.24988 0.0411926 6.24847 0.0414464 6.24667C0.0414814 6.24644 0.0415252 6.24614 0.0415602 6.24591C0.0417527 6.24456 0.042024 6.24263 0.0422166 6.24128C0.0422428 6.24113 0.0422691 6.24096 0.0422866 6.24081C0.0425141 6.23923 0.0427679 6.23749 0.0429954 6.23592C0.0430392 6.23562 0.0430917 6.23525 0.0431354 6.23495C0.043328 6.23359 0.0435555 6.23203 0.0437568 6.23068C0.0437918 6.23045 0.0438356 6.23014 0.0438706 6.22992C0.0440981 6.22834 0.0443344 6.22671 0.0445707 6.22514C0.0446232 6.22476 0.0446757 6.22442 0.0447282 6.22404C0.0449295 6.2227 0.0451133 6.22147 0.0453145 6.22012C0.045367 6.21975 0.0454283 6.21936 0.0454808 6.21899C0.0457521 6.21719 0.0459184 6.21604 0.0461897 6.21425C0.0462247 6.21402 0.0462947 6.21357 0.0463297 6.21335C0.046531 6.212 0.0467585 6.21051 0.0469598 6.20916C0.0470035 6.20886 0.0470561 6.20854 0.0470998 6.20824C0.0473361 6.20667 0.0475899 6.20503 0.0478262 6.20346C0.0478787 6.20315 0.0479224 6.20283 0.0479749 6.20253C0.0481762 6.20118 0.0484038 6.19972 0.0486138 6.19837C0.0486576 6.19807 0.0487101 6.19771 0.0487626 6.19741C0.0490339 6.19561 0.0492176 6.19442 0.0495064 6.19263C0.0495502 6.19232 0.0495939 6.19207 0.0496377 6.19176C0.0498477 6.19041 0.0501103 6.18874 0.0503203 6.18739C0.0503553 6.18716 0.0503903 6.18694 0.0504253 6.18672C0.0507054 6.18492 0.0509242 6.18355 0.0512129 6.18175C0.051248 6.18153 0.051283 6.18131 0.051318 6.18109C0.051528 6.17974 0.0517818 6.17814 0.0520006 6.17679C0.0520443 6.17649 0.0521143 6.17609 0.0521581 6.17578C0.0524119 6.17421 0.0526832 6.17253 0.052937 6.17096C0.052972 6.17074 0.053007 6.1705 0.053042 6.17027C0.0532608 6.16892 0.0535233 6.16732 0.0537421 6.16598C0.0537859 6.16567 0.0538471 6.16533 0.0538909 6.16503C0.0541884 6.16323 0.0543984 6.16194 0.0546872 6.16015C0.054731 6.15992 0.0547485 6.15979 0.0547835 6.15956C0.055011 6.15822 0.0552823 6.15655 0.0555011 6.1552C0.0555711 6.15482 0.0556061 6.15458 0.0556674 6.1542C0.0559299 6.15263 0.05621 6.15093 0.0564725 6.14936C0.0565075 6.14914 0.0565338 6.14899 0.0565688 6.14877C0.0567963 6.14742 0.0570764 6.14576 0.0572951 6.14442C0.0573477 6.14411 0.0574089 6.14374 0.0574614 6.14344C0.057724 6.14187 0.0580128 6.14019 0.0582753 6.13862C0.0583103 6.13839 0.0583541 6.13813 0.0583978 6.13791C0.0586254 6.13656 0.0588704 6.1351 0.0590979 6.13375C0.0591679 6.13337 0.0592379 6.13295 0.0592992 6.13258C0.0595705 6.13101 0.0598593 6.12931 0.0601306 6.12774C0.0601393 6.12767 0.0601743 6.12747 0.0601918 6.1274C0.0604544 6.12583 0.0606907 6.12446 0.060962 6.12289C0.061032 6.12252 0.0610845 6.12222 0.0611457 6.12185C0.061417 6.12027 0.0617058 6.11864 0.0619771 6.11707C0.0620121 6.11684 0.0620559 6.11662 0.0620996 6.11639C0.0623272 6.11505 0.0625985 6.11353 0.0628348 6.11218C0.062896 6.11181 0.0629748 6.1114 0.063036 6.11102C0.0633161 6.10945 0.0635961 6.10785 0.0638762 6.10627C0.0639024 6.10612 0.0639462 6.10587 0.0639724 6.10572C0.0642087 6.10437 0.064515 6.10268 0.0647513 6.10134C0.0648038 6.10104 0.0648738 6.10065 0.0649263 6.10035C0.0652064 6.09879 0.0655302 6.09701 0.0658102 6.09544C0.065819 6.09537 0.0658365 6.0953 0.0658452 6.09522C0.066134 6.09366 0.0663966 6.09218 0.0666766 6.09062C0.0667466 6.09024 0.0668166 6.08988 0.0668779 6.0895C0.0674467 6.08637 0.0680943 6.08285 0.0686719 6.07972C0.0687069 6.07949 0.0687769 6.07912 0.0688207 6.0789C0.0693983 6.07576 0.0700809 6.07206 0.0706672 6.06893C0.070711 6.0687 0.0707635 6.06838 0.0708072 6.06816C0.0713936 6.06503 0.0720762 6.06139 0.0726713 6.05825C0.0727238 6.05796 0.0727851 6.05767 0.0728376 6.05737C0.0734326 6.05424 0.0740977 6.05074 0.0747016 6.04761C0.0747716 6.04724 0.0748416 6.04688 0.0749116 6.0465C0.0755155 6.04338 0.0761806 6.03991 0.0767932 6.03678C0.0768369 6.03656 0.0769157 6.03612 0.0769595 6.0359C0.077572 6.03277 0.0782897 6.02913 0.0789023 6.026C0.0789635 6.0257 0.0789985 6.02551 0.0790598 6.02521C0.0797161 6.02186 0.08039 6.01851 0.0810551 6.01516C0.0810813 6.01501 0.0811251 6.01481 0.0811513 6.01466C0.081869 6.01109 0.0824728 6.00811 0.0831904 6.00454C0.0832342 6.00431 0.0832954 6.00401 0.0833479 6.00379C0.0840218 6.00044 0.0846956 5.99716 0.0853783 5.99382C0.085422 5.9936 0.0854833 5.99332 0.085527 5.9931C0.0858508 5.99154 0.0862184 5.98974 0.0865422 5.98818V5.98816C0.0869097 5.98638 0.0872335 5.98483 0.0876011 5.98305C0.0876361 5.9829 0.0876974 5.98262 0.0877236 5.98247C0.0884237 5.97913 0.0891501 5.97565 0.0898502 5.97231C0.0898852 5.97216 0.0899202 5.97199 0.0899552 5.97184C0.0903315 5.97006 0.0906116 5.96871 0.0909879 5.96693L0.0910316 5.96672C0.0914079 5.96494 0.0917142 5.96351 0.0920993 5.96173C0.0921431 5.9615 0.0922131 5.96119 0.0922568 5.96097C0.0925894 5.95941 0.0929569 5.95772 0.0932895 5.95616L0.093307 5.95608C0.093692 5.95429 0.0940158 5.95276 0.0944009 5.95098C0.0944359 5.95083 0.0944972 5.95053 0.0945322 5.95038C0.0948735 5.94883 0.0952235 5.94721 0.0955561 5.94565C0.0955911 5.9455 0.0955998 5.94546 0.0956349 5.94531C0.0960199 5.94353 0.0963437 5.94203 0.0967375 5.94025C0.0967725 5.9401 0.0968163 5.9399 0.0968425 5.93975C0.0972363 5.93797 0.0975076 5.93672 0.0979014 5.93494C0.0979365 5.93479 0.0979365 5.9348 0.0979627 5.93465C0.0983565 5.93287 0.0987066 5.93131 0.0991004 5.92953C0.0991266 5.92938 0.0991441 5.92933 0.0991704 5.92918C0.0995642 5.92741 0.0998793 5.92599 0.100282 5.92421C0.100291 5.92414 0.100308 5.92407 0.100326 5.924C0.100719 5.92222 0.101078 5.92062 0.101481 5.91884C0.101516 5.91869 0.101516 5.91869 0.101542 5.91854C0.101945 5.91676 0.102286 5.91524 0.102688 5.91346C0.102706 5.91339 0.102688 5.91346 0.102706 5.91339C0.103109 5.91161 0.103494 5.90988 0.103905 5.9081C0.103914 5.90803 0.103896 5.90811 0.103914 5.90804C0.104316 5.90626 0.10471 5.90455 0.105113 5.90278L0.105121 5.90274C0.105935 5.89918 0.106714 5.89577 0.107537 5.89222C0.107554 5.89214 0.107563 5.8921 0.10758 5.89203C0.108403 5.88848 0.109156 5.88524 0.109978 5.88169C0.110013 5.88154 0.11004 5.88143 0.110075 5.88128C0.110495 5.87951 0.110862 5.87792 0.111282 5.87615C0.1113 5.87607 0.111282 5.87614 0.1113 5.87607C0.111711 5.8743 0.112096 5.87267 0.112516 5.87089L0.112551 5.87075C0.113391 5.86721 0.114179 5.86386 0.115028 5.86032C0.115045 5.86024 0.11508 5.86013 0.115098 5.86005C0.115938 5.85651 0.116708 5.85331 0.117566 5.84977C0.117601 5.84962 0.117627 5.8495 0.117671 5.84935C0.11852 5.84581 0.119299 5.84262 0.120165 5.83908C0.1202 5.83893 0.120209 5.83891 0.120244 5.83876C0.12111 5.83521 0.12188 5.83208 0.122755 5.82854C0.12279 5.82839 0.122825 5.82823 0.122869 5.82808C0.123744 5.82454 0.124532 5.82137 0.125416 5.81783C0.125433 5.81775 0.125468 5.8176 0.125486 5.81753C0.12637 5.81399 0.127166 5.81084 0.128059 5.8073C0.128094 5.80715 0.128137 5.80697 0.128181 5.80682C0.129074 5.80329 0.129844 5.80024 0.130745 5.7967C0.13078 5.79656 0.130842 5.79633 0.130877 5.79618C0.131787 5.79264 0.132583 5.78952 0.133493 5.78598C0.133511 5.78591 0.133546 5.78579 0.133563 5.78572C0.134473 5.78218 0.135314 5.77894 0.136241 5.77541C0.136276 5.77526 0.136285 5.77522 0.136329 5.77507C0.137248 5.77154 0.138079 5.76837 0.139007 5.76484C0.139042 5.76469 0.139068 5.76461 0.139103 5.76446C0.14003 5.76093 0.140888 5.75771 0.141825 5.75417C0.141851 5.7541 0.141868 5.75402 0.141886 5.75395C0.142831 5.75042 0.143706 5.74714 0.144651 5.74362C0.144669 5.74354 0.144704 5.74343 0.144721 5.74336C0.145666 5.73983 0.146576 5.73645 0.147539 5.73293V5.73293C0.157577 5.69593 0.16807 5.6592 0.179105 5.6224C0.179149 5.62225 0.179149 5.62227 0.179193 5.62212C0.422778 4.80994 0.907306 4.04763 1.58726 3.36207L1.58725 3.36207ZM11.4706 0V1.00502C9.80759 1.00502 8.21819 1.22547 6.74654 1.66024L6.38004 0.707894C6.66292 0.624336 6.95264 0.547444 7.24815 0.47773C7.24834 0.477684 7.24837 0.47768 7.24856 0.477634C7.26449 0.473877 7.28055 0.470112 7.29652 0.466397C7.2992 0.465749 7.30212 0.465094 7.30479 0.464472C7.30759 0.463836 7.31018 0.463219 7.31295 0.462579C7.31582 0.461927 7.31863 0.461267 7.3215 0.4606C7.3217 0.460554 7.32204 0.460478 7.32224 0.460432C7.33244 0.458074 7.34353 0.45552 7.35374 0.453182C7.35648 0.452557 7.3585 0.452093 7.36117 0.451483C7.36389 0.450862 7.36692 0.450172 7.36965 0.449544C7.37248 0.448915 7.37541 0.448229 7.37824 0.447588C7.38144 0.446864 7.38368 0.446354 7.38685 0.445633C7.38724 0.445545 7.38784 0.445407 7.38823 0.445319C7.39574 0.443616 7.40293 0.441991 7.41044 0.440296C7.41298 0.439721 7.41554 0.439146 7.41808 0.438575C7.4207 0.437992 7.42362 0.437329 7.42621 0.43675C7.42901 0.436121 7.43218 0.435412 7.43497 0.434787C7.43787 0.434139 7.44074 0.433495 7.44363 0.432851C7.44652 0.432199 7.44951 0.431532 7.45241 0.430892C7.4562 0.430049 7.45975 0.429259 7.46352 0.428419C7.46721 0.427606 7.47016 0.426947 7.47385 0.42613C7.47703 0.425417 7.47976 0.424819 7.48295 0.424118C7.48571 0.423508 7.48897 0.422791 7.49172 0.422181C7.49491 0.42148 7.4974 0.420935 7.50059 0.42023C7.50355 0.419582 7.50637 0.418973 7.50933 0.418313C7.51243 0.417635 7.51509 0.417048 7.51821 0.416369C7.5222 0.415499 7.52595 0.414694 7.52995 0.413808C7.53297 0.413149 7.5364 0.412405 7.5394 0.411753C7.54232 0.411121 7.5458 0.410369 7.54871 0.409733C7.55177 0.409062 7.55464 0.408449 7.5577 0.407785C7.56077 0.407126 7.56371 0.40649 7.56677 0.40583C7.56993 0.405148 7.5724 0.404619 7.57557 0.403936C7.57908 0.403181 7.58292 0.402353 7.58645 0.401598C7.58942 0.400965 7.59305 0.400183 7.59602 0.399554C7.59949 0.39881 7.60232 0.398212 7.60578 0.397469C7.60904 0.396771 7.61166 0.396219 7.61493 0.395521C7.61785 0.3949 7.62097 0.394237 7.62388 0.393623C7.627 0.392964 7.62975 0.392377 7.63286 0.391722C7.63589 0.391081 7.63884 0.390468 7.64187 0.38982C7.64506 0.389145 7.64801 0.388524 7.6512 0.387857L7.65179 0.387731C7.65491 0.387075 7.65897 0.386224 7.66209 0.385568C7.66562 0.384832 7.66829 0.384273 7.67182 0.383533C7.67505 0.382858 7.6779 0.382256 7.68114 0.381589C7.68388 0.381018 7.68732 0.380308 7.69007 0.379729C7.69286 0.379151 7.69588 0.378522 7.69868 0.377943L7.69924 0.377828C7.70553 0.376524 7.71165 0.375259 7.71795 0.37396C7.72123 0.373285 7.72399 0.37271 7.72729 0.372039C7.73037 0.371406 7.73329 0.370808 7.73638 0.370176C7.73945 0.369531 7.74288 0.368838 7.74599 0.368209C7.74946 0.367488 7.75263 0.366852 7.75612 0.366139C7.75647 0.36607 7.75649 0.366066 7.75683 0.365993C7.76943 0.363428 7.78203 0.360875 7.79465 0.358333C7.79786 0.357708 7.8011 0.357037 7.80425 0.356404C7.80756 0.35576 7.81068 0.35512 7.81403 0.354445L7.81448 0.354353C7.82721 0.351808 7.83976 0.349308 7.85251 0.346789C7.85571 0.34613 7.85883 0.345539 7.86209 0.344895L7.86293 0.34473C7.86619 0.344086 7.86924 0.343515 7.87251 0.342844C8.57334 0.205072 9.30397 0.106465 10.0573 0.0513427C10.061 0.0510973 10.0638 0.0508673 10.0675 0.0505989L10.0679 0.0505682C10.0713 0.0503267 10.0746 0.0500852 10.0779 0.0498436L10.0781 0.0498283C10.0953 0.04859 10.1125 0.0473708 10.1298 0.0461785L10.1303 0.046144C10.1339 0.045891 10.137 0.0456648 10.1406 0.0454271C10.1578 0.0442424 10.175 0.0430846 10.1923 0.0419459C10.1959 0.0417006 10.1986 0.0415319 10.2022 0.0412904C10.2057 0.0410757 10.2094 0.0408188 10.213 0.0405926L10.2133 0.0405696C10.2305 0.0394501 10.2478 0.0383536 10.265 0.0372802L10.2655 0.0372495C10.2692 0.0370233 10.2723 0.0368354 10.276 0.0366016C10.2796 0.0363792 10.2825 0.0361952 10.2862 0.0359767C10.3005 0.0351026 10.3137 0.0342131 10.3281 0.0334655C10.3313 0.0332738 10.3348 0.0330706 10.338 0.0328789L10.3386 0.0328483C10.3418 0.0326566 10.3451 0.0324725 10.3483 0.0322809L10.349 0.0322425C10.3627 0.0314489 10.3766 0.030663 10.3904 0.0298962L10.391 0.0298617C10.3945 0.0296624 10.3981 0.0294668 10.4017 0.0292713C10.4051 0.0290834 10.4086 0.0288764 10.4121 0.0287039C10.4155 0.028516 10.4187 0.0283665 10.4222 0.0281518C10.4329 0.0275767 10.4431 0.0270285 10.4538 0.0264726C10.4577 0.0262694 10.4609 0.0261199 10.4648 0.0259014C10.4684 0.0257135 10.4716 0.0255487 10.4752 0.0253685C10.4788 0.0251844 10.4818 0.0250196 10.4854 0.0248471C10.4888 0.0246745 10.4921 0.0244943 10.4955 0.0243372C10.5062 0.0238043 10.5173 0.0233634 10.5278 0.0227461C10.5314 0.0225736 10.5349 0.0223972 10.5385 0.0222286C10.5416 0.022079 10.5454 0.0219142 10.5486 0.0217493C10.5518 0.021596 10.5554 0.0214541 10.5587 0.0212739C10.5694 0.0207679 10.5788 0.0203845 10.5898 0.0198401C10.5938 0.0196637 10.5975 0.0195027 10.6015 0.0193148C10.6049 0.0191615 10.6087 0.0189813 10.6121 0.0188471C10.6154 0.0186976 10.619 0.0185404 10.6223 0.0183986C10.6258 0.018249 10.6287 0.018134 10.6322 0.0179692C10.6391 0.017674 10.6458 0.0173903 10.6527 0.0170989L10.6533 0.0170721C10.6568 0.0169264 10.6614 0.0167423 10.6648 0.0165967C10.6685 0.0164433 10.6718 0.0163091 10.6755 0.0161596C10.679 0.0160139 10.6822 0.0158874 10.6858 0.0157417C10.6889 0.0156114 10.6925 0.0154695 10.6957 0.015343C10.6988 0.0152165 10.7027 0.015067 10.7058 0.0149443C10.7133 0.0146491 10.7207 0.0143539 10.7282 0.0140817C10.7316 0.0139513 10.7354 0.0137941 10.7388 0.0136791C10.742 0.0135564 10.7462 0.0133954 10.7493 0.0132881C10.7527 0.0131615 10.7561 0.0130389 10.7595 0.0129162C10.7627 0.0128012 10.7661 0.0126631 10.7693 0.0125596C10.7725 0.0124446 10.7759 0.0123219 10.7791 0.0122108L10.7793 0.0122031C10.7835 0.0120536 10.7877 0.011904 10.7919 0.0117622C10.7956 0.0116318 10.7986 0.0115245 10.8022 0.0114056C10.8058 0.0112791 10.8091 0.0111718 10.8127 0.0110491C10.8162 0.0109303 10.8192 0.0108229 10.8227 0.0107156C10.8263 0.0106005 10.8294 0.0104932 10.833 0.0103782C10.836 0.0102785 10.8392 0.010175 10.8422 0.0100791L10.8427 0.01006C10.8466 0.00993729 10.8499 0.00982611 10.8538 0.00970726C10.8577 0.00958458 10.8618 0.00944273 10.8657 0.00933921C10.8692 0.0092242 10.8728 0.00911302 10.8764 0.0090095C10.8795 0.00891366 10.8832 0.00879864 10.8864 0.00870663C10.8896 0.00861078 10.8934 0.00849577 10.8966 0.00840376C10.8999 0.00830791 10.9034 0.0082159 10.9067 0.00811239C10.9138 0.00790536 10.9218 0.00761782 10.929 0.00748364C10.9328 0.00737246 10.9362 0.00727661 10.94 0.00718077C10.9436 0.00708109 10.9467 0.00700058 10.9502 0.00690473C10.9537 0.00681272 10.9572 0.00672071 10.9607 0.00662869C10.9641 0.00653668 10.9673 0.00645234 10.9706 0.00637566C10.9743 0.00627982 10.977 0.00621464 10.9807 0.00611879C10.9845 0.00602295 10.9876 0.00594627 10.9915 0.00585426C10.9956 0.00575458 11 0.0056434 11.0041 0.00554755C11.0075 0.00546704 11.0109 0.00538653 11.0142 0.00530986C11.0173 0.00523701 11.0211 0.005145 11.0242 0.00507983C11.0273 0.00500698 11.0313 0.00491114 11.0344 0.0048498C11.0376 0.00477695 11.0414 0.00469261 11.0446 0.00462743C11.0521 0.00446258 11.0594 0.00431689 11.0669 0.00415204C11.0707 0.00407153 11.0742 0.00400252 11.0781 0.00392584C11.0814 0.0038645 11.0852 0.00378783 11.0885 0.00371882C11.0919 0.00365364 11.0951 0.00358463 11.0984 0.00353096C11.1019 0.00346195 11.1052 0.00340061 11.1087 0.00333543C11.1124 0.00327026 11.115 0.00321658 11.1187 0.00315524C11.1232 0.00307473 11.1269 0.00300189 11.1313 0.00293288C11.135 0.00286387 11.1385 0.0028102 11.1422 0.00274886C11.1455 0.00268752 11.1494 0.00262617 11.1527 0.0025725C11.156 0.00252649 11.1594 0.00246899 11.1627 0.00241531C11.1661 0.00236164 11.1693 0.0023118 11.1727 0.00225813C11.1758 0.00221212 11.1798 0.00214695 11.1829 0.00210861C11.1862 0.0020626 11.1897 0.00200126 11.1929 0.00196292C11.197 0.00190925 11.2021 0.00183257 11.2061 0.00178273C11.2099 0.00172906 11.213 0.00168689 11.2168 0.00164088C11.2199 0.00160254 11.2238 0.00155654 11.227 0.00151053C11.2301 0.00147602 11.2339 0.00143385 11.2371 0.00138785C11.2404 0.00134951 11.2436 0.00131117 11.247 0.00127283C11.2506 0.00123449 11.2536 0.00121149 11.2572 0.00115782C11.2613 0.00111564 11.2648 0.00108497 11.269 0.00103513C11.2729 0.000992962 11.2767 0.000962292 11.2807 0.000920119C11.2839 0.000885615 11.288 0.000839609 11.2913 0.00082044C11.2947 0.000785935 11.298 0.000762932 11.3015 0.000728428C11.305 0.000697757 11.3079 0.000678588 11.3115 0.000644084C11.3146 0.000617247 11.3183 0.000575075 11.3214 0.000567407C11.3246 0.000544404 11.328 0.000517567 11.3312 0.000494564L11.3315 0.00049073C11.3356 0.000463894 11.3408 0.000444724 11.3449 0.000402552C11.3486 0.000387217 11.3516 0.000368048 11.3554 0.000337377C11.359 0.000314374 11.3622 0.000291371 11.3658 0.00027987C11.3689 0.000264534 11.3729 0.000237698 11.376 0.00023003C11.3795 0.000210861 11.3825 0.000195525 11.3861 0.000184024C11.3894 0.000164855 11.3926 0.000161021 11.3959 0.000141852C11.4004 0.000126516 11.4043 0.000111181 11.4088 9.96796e-05C11.4124 8.81781e-05 11.416 6.9009e-05 11.4196 6.9009e-05C11.4229 5.75075e-05 11.4268 5.36736e-05 11.4301 4.21721e-05C11.4333 3.45045e-05 11.437 3.83383e-05 11.4403 2.3003e-05C11.444 2.3003e-05 11.4468 1.15015e-05 11.4505 1.15015e-05C11.4539 3.83383e-06 11.4572 0 11.4606 3.83383e-06C11.4639 3.83383e-06 11.4672 0 11.4706 0Z" fill="#3422F2"/>
</svg>
