<svg width="14" height="14" viewBox="0 0 14 14" fill="none" xmlns="http://www.w3.org/2000/svg">
<path d="M10.0436 13.996C9.58802 13.995 9.13615 13.914 8.7085 13.7567C6.76594 13.0447 5.00153 11.9172 3.53804 10.4527C2.07625 8.98646 0.950894 7.21869 0.240294 5.27242C0.0158765 4.66506 -0.0528429 4.01099 0.040431 3.37012C0.132348 2.76056 0.364696 2.18082 0.719064 1.67685C1.07343 1.17288 1.54008 0.758514 2.08204 0.4666C2.65397 0.157718 3.29403 -0.00268683 3.94376 3.4046e-05C4.04358 8.11997e-05 4.14037 0.0343863 4.21801 0.0972364C4.29565 0.160087 4.34946 0.247688 4.37047 0.345453L5.056 3.54934C5.07121 3.62065 5.0684 3.69464 5.0478 3.76458C5.02721 3.83452 4.98949 3.8982 4.93808 3.94982L3.76688 5.12324C4.87525 7.32882 6.662 9.11896 8.8634 10.2294L10.0346 9.05601C10.0861 9.0045 10.1497 8.96672 10.2195 8.94608C10.2893 8.92545 10.3631 8.92262 10.4343 8.93787L13.6321 9.6247C13.7297 9.64575 13.8172 9.69966 13.8799 9.77745C13.9426 9.85524 13.9769 9.95221 13.9769 10.0522C13.9798 10.7035 13.8197 11.3452 13.5112 11.9185C13.2193 12.4605 12.8054 12.9271 12.3025 13.2812C11.7995 13.6354 11.2211 13.8674 10.6132 13.959C10.4266 13.9863 10.2382 14.0001 10.0496 14L10.0436 13.996ZM3.595 0.894118C3.13653 0.946446 2.69582 1.10201 2.30587 1.34918C1.91592 1.59634 1.58683 1.92868 1.34325 2.32133C1.09967 2.71398 0.947903 3.15675 0.899324 3.61649C0.850745 4.07623 0.906609 4.54102 1.06273 4.97606C1.72344 6.80499 2.77751 8.46598 4.15026 9.84133C5.523 11.2167 7.18084 12.2727 9.0063 12.9347C9.44052 13.0911 9.90443 13.1471 10.3633 13.0984C10.8222 13.0498 11.2641 12.8977 11.656 12.6537C12.0479 12.4096 12.3796 12.0799 12.6263 11.6892C12.873 11.2985 13.0283 10.857 13.0805 10.3976L10.4823 9.83896L9.25713 11.0644C9.19353 11.128 9.11191 11.1704 9.02338 11.1858C8.93486 11.2012 8.84375 11.1889 8.76247 11.1505C6.16114 9.92368 4.06806 7.82663 2.84351 5.22036C2.80521 5.13893 2.79291 5.04764 2.80829 4.95895C2.82367 4.87026 2.86598 4.78848 2.92946 4.72476L4.15262 3.50428L3.595 0.894118Z" fill="#3422F2"/>
</svg>
