<svg width="209" height="209" viewBox="0 0 209 209" fill="none" xmlns="http://www.w3.org/2000/svg">
<path d="M209 104.501C209 125.169 202.871 145.373 191.388 162.558C179.905 179.742 163.584 193.136 144.49 201.045C125.395 208.955 104.383 211.024 84.1124 206.992C63.8415 202.959 45.2215 193.007 30.607 178.392C15.9925 163.777 6.03998 145.157 2.00791 124.886C-2.02416 104.615 0.0453448 83.6041 7.95472 64.5093C15.8641 45.4145 29.2581 29.0939 46.443 17.6113C63.6279 6.12878 83.8318 5.78179e-09 104.5 4.8272e-09C118.223 -0.000131895 131.812 2.70278 144.491 7.95441C157.169 13.206 168.689 20.9035 178.393 30.6074C188.097 40.3112 195.794 51.8313 201.046 64.51C206.297 77.1887 209 90.7776 209 104.501Z" fill="white"/>
<path d="M167.577 84.3674L207.249 85.5305C203.621 65.6029 194.238 47.1736 180.258 32.5162H167.577V84.3674Z" fill="#1139BC"/>
<path d="M59.0876 131.321L0.902847 118.298C3.3547 136.845 10.7605 154.389 22.341 169.083L48.3429 178.313L59.0876 131.321Z" fill="#FFD143"/>
<path d="M101.07 80.5619C100.884 82.425 102.585 84.1163 104.864 84.3433C107.142 84.5683 109.14 83.2385 109.325 81.3784L112.254 51.81C112.438 49.9479 110.738 48.2536 108.461 48.0286C106.179 47.8036 104.183 49.1334 104 50.9935L101.07 80.5619Z" fill="#F6B968"/>
<path d="M101.188 80.6573L101.175 49.8234C101.276 48.8241 104.843 47.648 105.746 47.1116L102.965 81.1304C102.757 81.8917 102.607 82.6676 102.516 83.4514C102.076 83.1362 101.724 82.7144 101.492 82.2257C101.259 81.737 101.155 81.1974 101.188 80.6573Z" fill="#EEAA59"/>
<path d="M93.2633 85.2241C93.1548 87.0912 94.9195 88.7183 97.2074 88.8509C99.4934 88.9835 101.438 87.5753 101.546 85.7082L103.455 55.5995C103.563 53.7314 101.626 52.5482 99.3367 52.4146C97.0497 52.2821 95.1083 53.6882 94.9978 55.5563L93.2633 85.2241Z" fill="#F6B968"/>
<path d="M93.2721 85.0946L94.9363 54.6885C95.0368 53.6912 96.926 53.6912 97.8309 53.1569L94.5085 86.6965C94.4753 87.098 94.5065 87.5021 94.6009 87.8937C94.1605 87.5779 93.8075 87.1553 93.5751 86.6657C93.3427 86.1761 93.2384 85.6355 93.2721 85.0946Z" fill="#EEAA59"/>
<path d="M84.9128 85.9131C84.8013 87.7823 86.568 89.4083 88.855 89.5419C91.1429 89.6755 93.0883 88.2684 93.1968 86.3983L94.9313 56.7344C95.0448 54.8623 93.2772 53.2382 90.9892 53.1046C88.7043 52.9711 86.7608 54.3782 86.6504 56.2463L84.9128 85.9131Z" fill="#F6B968"/>
<path d="M183.111 77.352C183.403 77.0825 183.753 76.8842 184.134 76.7724L184.28 74.3208C184.284 74.1982 184.312 74.0776 184.362 73.966C184.413 73.8544 184.486 73.7542 184.576 73.6713C184.666 73.5884 184.772 73.5244 184.888 73.4832C185.003 73.4421 185.126 73.4246 185.248 73.4317C185.371 73.4388 185.49 73.4705 185.6 73.5248C185.71 73.5791 185.808 73.6549 185.888 73.7478C185.968 73.8406 186.029 73.9486 186.066 74.0654C186.104 74.1821 186.117 74.3052 186.106 74.4273L185.96 76.8719C186.291 77.0151 186.589 77.2262 186.835 77.4916C187.189 77.8737 187.422 78.3525 187.505 78.8672C187.587 79.382 187.515 79.9096 187.298 80.3834C187.08 80.8572 186.727 81.2559 186.283 81.529C185.839 81.8021 185.324 81.9373 184.803 81.9177C184.282 81.898 183.779 81.7243 183.357 81.4184C182.934 81.1126 182.612 80.6885 182.431 80.1996C182.25 79.7108 182.218 79.1792 182.339 78.6721C182.46 78.165 182.729 77.7053 183.111 77.3509V77.352Z" fill="#E2E2E2"/>
<path d="M191.943 76.6549L192.086 74.1993C192.107 73.9624 192.22 73.7431 192.4 73.5879C192.58 73.4326 192.814 73.3536 193.051 73.3676C193.289 73.3815 193.511 73.4874 193.672 73.6627C193.833 73.838 193.919 74.069 193.912 74.3067L193.768 76.7534C194.099 76.897 194.397 77.1077 194.642 77.372C194.996 77.7542 195.229 78.2326 195.311 78.747C195.393 79.2613 195.321 79.7885 195.103 80.2618C194.886 80.7351 194.533 81.1333 194.09 81.4062C193.646 81.6791 193.131 81.8143 192.611 81.7948C192.09 81.7753 191.587 81.6019 191.165 81.2966C190.743 80.9913 190.421 80.5678 190.24 80.0796C190.059 79.5913 190.026 79.0602 190.146 78.5535C190.267 78.0467 190.535 77.587 190.916 77.2324C191.209 76.9638 191.561 76.7663 191.943 76.6549Z" fill="#E2E2E2"/>
<path d="M199.857 76.5003L200.001 74.0466C200.004 73.9241 200.032 73.8036 200.083 73.6922C200.134 73.5807 200.207 73.4807 200.297 73.3979C200.388 73.3151 200.494 73.2513 200.609 73.2103C200.724 73.1692 200.847 73.1518 200.969 73.159C201.092 73.1662 201.211 73.1979 201.321 73.2522C201.431 73.3064 201.529 73.3823 201.609 73.4751C201.689 73.5679 201.749 73.6758 201.787 73.7924C201.824 73.9091 201.838 74.032 201.827 74.1541L201.684 76.5987C202.086 76.7734 202.437 77.0455 202.707 77.3904C202.976 77.7353 203.156 78.142 203.228 78.5737C203.301 79.0054 203.265 79.4484 203.123 79.8626C202.981 80.2768 202.738 80.649 202.416 80.9456C202.162 81.1809 201.865 81.364 201.54 81.4842C201.215 81.6045 200.87 81.6596 200.524 81.6465C200.178 81.6333 199.838 81.5521 199.523 81.4076C199.209 81.263 198.926 81.0579 198.69 80.8039C198.455 80.55 198.272 80.2521 198.151 79.9274C198.031 79.6027 197.976 79.2575 197.989 78.9115C198.002 78.5655 198.084 78.2255 198.228 77.9108C198.373 77.5962 198.578 77.3131 198.832 77.0778C199.125 76.809 199.476 76.6114 199.857 76.5003Z" fill="#E2E2E2"/>
<path d="M194.323 77.6533C194.676 78.0312 194.908 78.5053 194.992 79.0156C195.075 79.526 195.004 80.0495 194.79 80.5198C194.575 80.9902 194.226 81.3862 193.786 81.6578C193.345 81.9293 192.835 82.0641 192.318 82.045C191.801 82.026 191.302 81.854 190.883 81.5508C190.464 81.2477 190.145 80.827 189.965 80.3421C189.786 79.8573 189.754 79.33 189.875 78.8272C189.995 78.3244 190.262 77.8686 190.642 77.5177C190.892 77.2848 191.186 77.1037 191.507 76.9845C191.828 76.8653 192.169 76.8104 192.51 76.823C192.852 76.8356 193.188 76.9154 193.499 77.0578C193.81 77.2003 194.09 77.4026 194.323 77.6533Z" fill="white"/>
<path d="M202.172 77.5589C202.525 77.9368 202.758 78.411 202.841 78.9214C202.924 79.4319 202.854 79.9555 202.639 80.426C202.424 80.8964 202.075 81.2925 201.635 81.564C201.195 81.8355 200.684 81.9702 200.167 81.9511C199.65 81.9319 199.151 81.7596 198.732 81.4562C198.313 81.1528 197.994 80.7319 197.814 80.2468C197.635 79.7617 197.604 79.2343 197.725 78.7315C197.845 78.2286 198.113 77.773 198.493 77.4223C199 76.9545 199.671 76.7064 200.361 76.732C201.05 76.7576 201.701 77.0548 202.172 77.5589Z" fill="white"/>
<path d="M186.539 77.7527C186.89 78.1302 187.121 78.6033 187.202 79.112C187.284 79.6207 187.213 80.1423 186.999 80.6108C186.784 81.0793 186.436 81.4736 185.997 81.7439C185.558 82.0142 185.049 82.1484 184.534 82.1294C184.019 82.1105 183.522 81.9392 183.104 81.6374C182.686 81.3355 182.368 80.9166 182.188 80.4336C182.009 79.9506 181.976 79.4253 182.095 78.9239C182.214 78.4226 182.48 77.9678 182.857 77.6171C183.107 77.3835 183.401 77.2017 183.722 77.082C184.043 76.9623 184.384 76.9072 184.726 76.9198C185.068 76.9324 185.405 77.0125 185.716 77.1554C186.027 77.2984 186.307 77.5013 186.539 77.7527Z" fill="white"/>
<path d="M112.877 38.6951C110.567 39.5116 83.4356 54.1401 82.6834 58.0521C82.0426 61.3755 82.2816 82.0313 82.4564 87.7129C82.4564 87.8927 82.4564 88.425 82.4564 88.425C82.5985 89.551 83.1465 90.5865 83.9978 91.3371C84.8491 92.0877 85.945 92.5019 87.08 92.5019C88.2149 92.5019 89.3108 92.0877 90.1621 91.3371C91.0134 90.5865 91.5615 89.551 91.7035 88.425V64.697C91.8497 64.1414 92.1127 63.6233 92.4749 63.1774C94.0527 61.8235 107.246 55.6386 113.566 55.2168L121.437 46.4497L113.159 38.6358C113.064 38.648 112.969 38.6678 112.877 38.6951Z" fill="#FFCC90"/>
<path d="M85.5926 88.9061C85.1469 89.1059 84.6649 89.2122 84.1765 89.2185C84.1765 89.2185 84.1765 89.2185 84.1705 89.2185C84.1644 89.2185 84.1654 89.2185 84.1624 89.2185C83.6677 89.2172 83.178 89.1189 82.7212 88.9292C82.6318 87.0059 82.4801 84.1284 82.9823 83.0095C83.0384 82.8236 83.1529 82.6607 83.3088 82.5449C83.4648 82.4291 83.6538 82.3667 83.8481 82.3667C83.8481 82.3667 83.8551 82.3667 83.8571 82.3667V82.3717C84.0567 82.3716 84.2517 82.4315 84.4169 82.5436C84.582 82.6557 84.7096 82.8149 84.7831 83.0005C85.3948 84.1013 85.5042 86.9818 85.5926 88.9061Z" fill="#FFE0BC"/>
<path d="M83.4836 57.1602C83.442 57.2311 83.4292 57.3152 83.4479 57.3952C83.4666 57.4752 83.5154 57.545 83.584 57.5901L85.2332 58.715C85.2991 58.7601 85.3803 58.7773 85.4588 58.7626C85.5374 58.7479 85.6068 58.7026 85.652 58.6367C85.6941 58.5659 85.7071 58.4816 85.6884 58.4015C85.6696 58.3213 85.6206 58.2516 85.5516 58.2068L83.9084 57.0819C83.8761 57.0584 83.8394 57.0417 83.8005 57.0329C83.7615 57.024 83.7212 57.0232 83.6819 57.0304C83.6426 57.0376 83.6052 57.0528 83.572 57.0749C83.5388 57.0971 83.5104 57.1258 83.4886 57.1592L83.4836 57.1602Z" fill="#FFE0BC"/>
<path d="M82.8189 58.2148C82.7772 58.2857 82.7636 58.3696 82.7809 58.45C82.7982 58.5304 82.8451 58.6013 82.9123 58.6487L84.5595 59.7726C84.5922 59.7951 84.629 59.8109 84.6678 59.8192C84.7066 59.8274 84.7467 59.8279 84.7857 59.8206C84.8247 59.8134 84.8619 59.7985 84.8951 59.7768C84.9283 59.7551 84.9569 59.727 84.9793 59.6943C85.0208 59.6235 85.0335 59.5396 85.0148 59.4597C84.9961 59.3799 84.9475 59.3103 84.8789 59.2654L83.2337 58.1385C83.2018 58.1152 83.1654 58.0986 83.1268 58.0898C83.0883 58.081 83.0483 58.0801 83.0094 58.0873C82.9705 58.0944 82.9335 58.1094 82.9005 58.1313C82.8676 58.1533 82.8395 58.1817 82.8179 58.2148H82.8189Z" fill="#FFE0BC"/>
<path d="M58.7867 62.7427L51.6653 102.046L137.933 117.677L145.055 78.3736L58.7867 62.7427Z" fill="#C1E4EA"/>
<path d="M134.807 114.048L55.8637 99.7462L61.911 66.3713L140.854 80.6744L134.807 114.048ZM59.4071 97.2905L132.351 110.507L137.313 83.128L64.3667 69.9106L59.4071 97.2905Z" fill="#2A7B6D"/>
<path d="M78.553 86.6212C78.3716 87.6176 77.8989 88.5379 77.1947 89.2658C76.4904 89.9937 75.5862 90.4964 74.5963 90.7105C73.6064 90.9246 72.5752 90.8404 71.6332 90.4686C70.6911 90.0968 69.8803 89.4541 69.3035 88.6217C68.7266 87.7892 68.4094 86.8045 68.392 85.7918C68.3747 84.7792 68.6579 83.7841 69.2059 82.9324C69.7539 82.0807 70.5421 81.4105 71.4709 81.0066C72.3997 80.6028 73.4274 80.4833 74.4241 80.6633C75.0866 80.783 75.719 81.0321 76.2851 81.3964C76.8513 81.7607 77.3401 82.233 77.7236 82.7863C78.1071 83.3397 78.3777 83.9632 78.52 84.6212C78.6623 85.2792 78.6735 85.9589 78.553 86.6212Z" fill="#2A7B6D"/>
<path d="M128.254 95.6273C128.072 96.6235 127.599 97.5435 126.895 98.2711C126.191 98.9987 125.287 99.5012 124.297 99.7151C123.307 99.9291 122.276 99.8449 121.334 99.4731C120.392 99.1013 119.582 98.4587 119.005 97.6265C118.428 96.7942 118.111 95.8097 118.093 94.7972C118.076 93.7847 118.359 92.7898 118.906 91.938C119.454 91.0863 120.242 90.416 121.17 90.0119C122.099 89.6078 123.126 89.4879 124.123 89.6674C124.786 89.7869 125.419 90.0359 125.985 90.4002C126.552 90.7645 127.041 91.237 127.425 91.7906C127.808 92.3442 128.079 92.968 128.221 93.6264C128.364 94.2847 128.375 94.9647 128.254 95.6273Z" fill="#2A7B6D"/>
<path d="M110.13 92.3411C109.709 94.6688 108.607 96.8193 106.963 98.5207C105.32 100.222 103.209 101.398 100.897 101.9C98.5855 102.401 96.1769 102.206 93.976 101.339C91.7751 100.472 89.8808 98.9717 88.5325 97.028C87.1843 95.0843 86.4427 92.7844 86.4015 90.4192C86.3603 88.054 87.0213 85.7297 88.301 83.7402C89.5807 81.7507 91.4216 80.1853 93.591 79.242C95.7603 78.2987 98.1606 78.0199 100.488 78.4407C102.034 78.7202 103.51 79.3014 104.831 80.1513C106.152 81.0011 107.293 82.1029 108.189 83.3937C109.084 84.6845 109.716 86.139 110.049 87.6742C110.383 89.2094 110.41 90.7952 110.13 92.3411Z" fill="#2A7B6D"/>
<path d="M113.161 38.6348L113.57 55.2148C114.57 55.035 115.6 55.2383 116.457 55.7843C120.693 59.6209 120.232 62.7596 117.182 67.6629C115.402 70.5263 112.991 73.3506 110.105 78.74C103.742 90.6387 108.072 91.0936 110.291 92.4997C114.279 95.0388 120.929 80.2465 126.431 76.1799C133.873 70.68 143.749 63.8513 143.749 63.8513H167.576V38.695C167.576 38.695 117.865 37.9207 113.161 38.6348Z" fill="#FFCC90"/>
<path d="M113.167 90.2108C112.297 89.7953 111.473 89.2904 110.708 88.7043C110.701 88.7043 110.701 88.6982 110.696 88.6952C110.691 88.6922 110.688 88.6952 110.686 88.6852C109.921 88.0988 109.22 87.434 108.594 86.7016C109.764 85.1709 111.486 82.8599 113.046 82.651C113.373 82.621 113.702 82.6579 114.014 82.7592C114.325 82.8606 114.613 83.0244 114.86 83.2405H114.865C114.87 83.2405 114.87 83.2405 114.873 83.2486C114.876 83.2566 114.882 83.2556 114.887 83.2556C115.16 83.4379 115.393 83.6738 115.572 83.9491C115.751 84.2243 115.872 84.5331 115.928 84.8566C116.129 86.4193 114.339 88.6822 113.167 90.2108Z" fill="#FFE0BC"/>
<path d="M117.682 73.8377C117.594 73.9783 117.754 74.2394 118.047 74.4313L121.407 76.6057C121.698 76.7935 122.01 76.8317 122.095 76.6961C122.189 76.5565 122.023 76.2944 121.73 76.1025L118.376 73.9281C118.085 73.7372 117.774 73.6991 117.682 73.8387V73.8377Z" fill="#FFE0BC"/>
<path d="M117.006 74.8862C116.914 75.0279 117.079 75.293 117.365 75.4808L120.723 77.6553C121.016 77.8431 121.325 77.8843 121.416 77.7477C121.505 77.6061 121.341 77.3399 121.05 77.1501L117.693 74.9746C117.402 74.7878 117.091 74.7476 117.006 74.8862Z" fill="#FFE0BC"/>
<path d="M167.577 33.9133H154.526V73.687H167.577V33.9133Z" fill="#F2EBEC"/>
<path d="M113.935 150.505C113.462 151.285 112.698 151.845 111.812 152.062C110.926 152.28 109.99 152.136 109.209 151.664C108.429 151.19 107.868 150.425 107.651 149.539C107.434 148.652 107.578 147.715 108.052 146.934L114.835 135.757C115.069 135.37 115.377 135.034 115.741 134.766C116.106 134.499 116.519 134.306 116.958 134.198C117.397 134.09 117.853 134.07 118.299 134.139C118.746 134.207 119.175 134.363 119.561 134.598C120.34 135.071 120.899 135.833 121.116 136.719C121.333 137.604 121.19 138.538 120.718 139.318L113.935 150.505Z" fill="#F6B968"/>
<path d="M99.8487 157.347C98.0981 158.09 91.6501 159.114 90.9098 157.36L89.3862 155.737C88.644 153.99 86.2516 148.324 87.8134 149.41C95.7569 154.921 109.213 145.92 109.213 145.92C109.629 145.744 110.076 145.652 110.528 145.649C110.98 145.646 111.427 145.732 111.846 145.902C112.264 146.072 112.645 146.322 112.967 146.64C113.288 146.957 113.544 147.335 113.72 147.751C114.075 148.59 114.081 149.536 113.739 150.381C113.396 151.226 112.732 151.899 111.892 152.254L99.8487 157.347Z" fill="#F6B968"/>
<path d="M103.683 154.297L115.015 148.03C115.387 147.827 115.717 147.554 115.986 147.226C116.345 146.926 116.636 146.552 116.836 146.129L120.819 136.039C121.092 135.469 115.194 145.216 115.194 145.216L97.7576 155.941C99.8066 155.706 101.806 155.151 103.683 154.297Z" fill="#EEAA59"/>
<path d="M122.402 149.201C122.024 150.032 121.332 150.678 120.477 150.998C119.622 151.319 118.676 151.286 117.845 150.908C117.014 150.53 116.368 149.838 116.047 148.983C115.727 148.128 115.76 147.181 116.138 146.351L121.548 134.446C121.926 133.616 122.618 132.97 123.472 132.65C124.326 132.33 125.272 132.362 126.103 132.739C126.933 133.117 127.58 133.809 127.9 134.664C128.22 135.519 128.188 136.465 127.81 137.296L122.402 149.201Z" fill="#F6B968"/>
<path d="M109.222 157.664C107.57 158.607 101.287 160.388 100.35 158.737L98.6427 157.304C97.7016 155.653 99.3558 155.222 101.005 154.276L117.167 145.206C117.559 144.981 117.992 144.836 118.441 144.779C118.889 144.722 119.344 144.754 119.78 144.873C120.216 144.993 120.625 145.196 120.982 145.474C121.339 145.751 121.638 146.095 121.862 146.488C122.086 146.881 122.23 147.313 122.287 147.762C122.344 148.21 122.312 148.665 122.193 149.101C122.074 149.537 121.871 149.945 121.594 150.302C121.317 150.659 120.972 150.959 120.58 151.183L109.222 157.664Z" fill="#F6B968"/>
<path d="M109.322 154.664L120.654 148.401C121.025 148.195 121.355 147.923 121.626 147.597C121.983 147.292 122.273 146.915 122.477 146.492L127.917 135.065C128.176 134.521 128.274 133.914 128.198 133.317L120.832 145.582L103.387 156.312C105.439 156.077 107.442 155.521 109.322 154.664Z" fill="#EEAA59"/>
<path d="M128.357 149.265C127.978 150.095 127.286 150.741 126.431 151.062C125.577 151.382 124.631 151.35 123.8 150.973C122.97 150.595 122.323 149.902 122.003 149.048C121.683 148.194 121.715 147.248 122.092 146.417L127.504 134.513C127.691 134.102 127.957 133.731 128.287 133.422C128.617 133.114 129.005 132.873 129.428 132.715C129.851 132.556 130.302 132.482 130.754 132.498C131.205 132.514 131.649 132.618 132.061 132.806C132.891 133.184 133.538 133.876 133.858 134.731C134.178 135.586 134.146 136.533 133.768 137.364L128.357 149.265Z" fill="#F6B968"/>
<path d="M115.179 157.728C113.527 158.671 107.245 160.453 106.305 158.801L104.597 157.365C103.655 155.716 105.31 155.281 106.959 154.342L123.122 145.269C123.514 145.045 123.946 144.9 124.394 144.844C124.842 144.787 125.297 144.819 125.733 144.938C126.169 145.057 126.576 145.261 126.933 145.538C127.29 145.815 127.589 146.16 127.812 146.553C128.036 146.945 128.181 147.377 128.238 147.825C128.296 148.273 128.264 148.729 128.145 149.164C128.026 149.6 127.823 150.008 127.546 150.366C127.269 150.723 126.925 151.022 126.532 151.246L115.179 157.728Z" fill="#F6B968"/>
<path d="M125.135 158.717C123.327 160.21 120.422 159.675 118.646 157.524C118.248 157.084 117.943 156.567 117.75 156.006C117.557 155.444 117.48 154.85 117.523 154.257C117.567 153.665 117.73 153.088 118.003 152.561C118.276 152.033 118.653 151.567 119.111 151.19L134.189 139.621C136.442 138.127 139.492 137.094 141.019 139.079C143.003 141.644 140.728 144.395 138.173 146.797L125.135 158.717Z" fill="#FFCC90"/>
<path d="M119.11 151.188C117.167 152.163 99.4801 155.538 97.372 152.393C94.6029 148.275 95.6485 145.732 99.2421 142.239C101.338 140.199 103.963 138.322 107.519 134.387C115.366 125.699 112.02 124.148 110.243 122.758C107.009 120.232 98.7248 130.852 93.235 133.129C85.8178 136.201 76.0714 139.89 76.0714 139.89L59.0887 135.884L54.5058 157.087C54.5058 157.087 94.6943 167.734 96.8125 167.533C98.7208 167.35 119.612 162.58 125.077 158.764L119.586 150.745C119.457 150.921 119.296 151.072 119.11 151.188Z" fill="#FFCC90"/>
<path d="M58.7994 132.589L50.5535 168.638L62.3808 171.344L70.6266 135.294L58.7994 132.589Z" fill="#F2EBEC"/>
<path d="M41.9244 168.237C41.7358 167.919 41.4775 167.647 41.1691 167.443L41.7034 165.225C41.7311 165.116 41.7369 165.002 41.7205 164.891C41.7041 164.78 41.6658 164.673 41.6078 164.576C41.5498 164.48 41.4733 164.396 41.3827 164.329C41.292 164.263 41.1891 164.215 41.0798 164.188C40.9705 164.162 40.8571 164.157 40.746 164.175C40.6349 164.192 40.5284 164.232 40.4326 164.291C40.3369 164.35 40.2538 164.427 40.1881 164.518C40.1225 164.61 40.0756 164.713 40.0502 164.823L39.5159 167.032C39.1123 167.08 38.7269 167.227 38.3943 167.46C38.0618 167.694 37.7925 168.006 37.6108 168.37C37.4291 168.733 37.3406 169.136 37.3534 169.542C37.3661 169.948 37.4797 170.345 37.6839 170.696C38.0154 171.249 38.5509 171.649 39.1748 171.809C39.7986 171.97 40.4606 171.879 41.0177 171.555C41.5747 171.231 41.982 170.701 42.1515 170.08C42.321 169.458 42.239 168.795 41.9234 168.234L41.9244 168.237Z" fill="#A83A48"/>
<path d="M34.2597 165.219L34.7981 162.998C34.848 162.78 34.8099 162.55 34.6921 162.36C34.5743 162.17 34.3863 162.033 34.1687 161.98C33.9511 161.928 33.7214 161.963 33.5294 162.078C33.3375 162.193 33.1986 162.379 33.1429 162.596L32.6086 164.806C32.2756 164.842 31.9542 164.949 31.6655 165.118C31.1984 165.384 30.8308 165.795 30.6184 166.288C30.406 166.782 30.3604 167.331 30.4885 167.853C30.6166 168.375 30.9114 168.841 31.3282 169.18C31.745 169.519 32.2611 169.713 32.7981 169.733C33.3352 169.752 33.8638 169.596 34.304 169.287C34.7441 168.979 35.0717 168.536 35.237 168.024C35.4023 167.513 35.3963 166.962 35.2199 166.454C35.0436 165.946 34.7064 165.51 34.2597 165.212V165.219Z" fill="#A83A48"/>
<path d="M27.2604 162.935L27.7987 160.716C27.8259 160.607 27.8314 160.494 27.8148 160.383C27.7981 160.273 27.7597 160.166 27.7018 160.07C27.6438 159.974 27.5675 159.891 27.4772 159.825C27.3868 159.758 27.2842 159.711 27.1754 159.684C27.0665 159.658 26.9534 159.653 26.8427 159.67C26.732 159.688 26.6258 159.727 26.5303 159.785C26.4348 159.844 26.3518 159.921 26.2861 160.012C26.2204 160.102 26.1733 160.205 26.1476 160.314L25.6112 162.524C25.2773 162.561 24.9547 162.667 24.6641 162.835C24.2447 163.079 23.9069 163.441 23.6934 163.876C23.48 164.312 23.4004 164.801 23.4649 165.281C23.5293 165.762 23.7348 166.213 24.0555 166.577C24.3761 166.94 24.7974 167.201 25.2661 167.325C25.7348 167.45 26.2299 167.432 26.6887 167.275C27.1475 167.118 27.5494 166.829 27.8437 166.443C28.1379 166.058 28.3111 165.593 28.3416 165.109C28.372 164.626 28.2583 164.143 28.0147 163.724C27.8279 163.406 27.5697 163.136 27.2604 162.935Z" fill="#A83A48"/>
<path d="M31.8687 165.464C31.4549 165.705 31.122 166.064 30.912 166.494C30.702 166.925 30.6244 167.408 30.689 167.883C30.7535 168.357 30.9574 168.802 31.2747 169.161C31.592 169.52 32.0086 169.776 32.4718 169.899C32.935 170.021 33.424 170.003 33.877 169.847C34.33 169.691 34.7267 169.405 35.0169 169.024C35.3071 168.642 35.4777 168.184 35.5073 167.706C35.5369 167.228 35.4241 166.751 35.1831 166.337C35.0228 166.062 34.81 165.822 34.5567 165.629C34.3034 165.436 34.0146 165.295 33.7069 165.214C33.3991 165.133 33.0783 165.113 32.7629 165.156C32.4475 165.199 32.1437 165.303 31.8687 165.464Z" fill="#702730"/>
<path d="M24.9152 163.247C24.5012 163.488 24.1678 163.846 23.9572 164.276C23.7466 164.706 23.6682 165.189 23.7319 165.664C23.7957 166.138 23.9987 166.583 24.3153 166.943C24.6319 167.302 25.0479 167.559 25.5107 167.682C25.9736 167.805 26.4625 167.789 26.9157 167.634C27.369 167.479 27.7661 167.193 28.0571 166.813C28.3481 166.433 28.5197 165.975 28.5505 165.497C28.5812 165.019 28.4695 164.542 28.2296 164.128C28.0699 163.852 27.8574 163.611 27.6044 163.418C27.3514 163.224 27.0627 163.083 26.7549 163.001C26.4471 162.919 26.1262 162.899 25.8106 162.941C25.4949 162.983 25.1907 163.087 24.9152 163.247Z" fill="#702730"/>
<path d="M38.7624 167.662C38.348 167.903 38.0143 168.261 37.8034 168.691C37.5926 169.122 37.514 169.605 37.5777 170.08C37.6413 170.555 37.8444 171 38.1611 171.36C38.4779 171.719 38.8941 171.977 39.3572 172.1C39.8204 172.223 40.3096 172.206 40.7631 172.051C41.2165 171.896 41.6139 171.61 41.905 171.23C42.196 170.849 42.3677 170.391 42.3983 169.912C42.4289 169.434 42.317 168.958 42.0768 168.543C41.9174 168.267 41.7052 168.025 41.4522 167.832C41.1992 167.638 40.9104 167.496 40.6025 167.414C40.2946 167.333 39.9735 167.312 39.6577 167.355C39.342 167.397 39.0377 167.502 38.7624 167.662Z" fill="#702730"/>
<path d="M110.613 127.147C110.187 126.533 109.7 125.965 109.157 125.452C109.157 125.452 109.152 125.452 109.15 125.445C109.148 125.438 109.15 125.445 109.138 125.437C108.597 124.925 108.002 124.471 107.365 124.085C106.338 125.168 104.787 126.77 104.816 127.987C104.834 128.24 104.902 128.488 105.019 128.714C105.135 128.94 105.297 129.139 105.493 129.301C105.493 129.307 105.493 129.307 105.498 129.31L105.507 129.32C105.68 129.506 105.889 129.656 106.122 129.76C106.354 129.863 106.605 129.919 106.859 129.922C108.075 129.88 109.589 128.234 110.613 127.147Z" fill="#FFE0BC"/>
<path d="M140.68 143.399C140.457 142.986 140.167 142.612 139.822 142.294C139.822 142.294 139.822 142.294 139.822 142.287C139.822 142.28 139.817 142.287 139.813 142.287C139.464 141.968 139.064 141.709 138.631 141.519C137.598 142.593 136.037 144.19 135.833 145.177C135.789 145.346 135.794 145.524 135.847 145.691C135.9 145.857 136 146.006 136.134 146.118C136.134 146.125 136.134 146.118 136.139 146.125C136.145 146.132 136.139 146.125 136.139 146.131C136.267 146.255 136.426 146.342 136.6 146.383C136.773 146.423 136.954 146.415 137.124 146.36C138.116 146.101 139.647 144.478 140.68 143.399Z" fill="#FFE0BC"/>
<path d="M98.0872 133.002C98.2047 132.901 98.4719 133.008 98.6898 133.247L101.185 136.008C101.401 136.247 101.48 136.525 101.367 136.629C101.254 136.73 100.985 136.623 100.765 136.381L98.271 133.624C98.0531 133.387 97.9697 133.105 98.0852 133.003L98.0872 133.002Z" fill="#FFE0BC"/>
<path d="M98.9507 132.227C99.0682 132.127 99.3364 132.227 99.5533 132.466L102.048 135.227C102.263 135.467 102.349 135.746 102.232 135.849C102.116 135.949 101.847 135.841 101.629 135.601L99.1385 132.84C98.9206 132.604 98.8372 132.324 98.9527 132.226L98.9507 132.227Z" fill="#FFE0BC"/>
<path d="M121.751 155.936C121.88 155.856 122.093 155.953 122.225 156.152L123.737 158.476C123.867 158.677 123.867 158.909 123.737 158.989C123.607 159.076 123.395 158.973 123.263 158.774L121.751 156.453C121.618 156.253 121.621 156.021 121.751 155.937V155.936Z" fill="#FFE0BC"/>
<path d="M122.734 155.32C122.866 155.237 123.079 155.333 123.209 155.532L124.721 157.86C124.852 158.06 124.852 158.292 124.721 158.374C124.59 158.456 124.377 158.36 124.247 158.158L122.734 155.837C122.603 155.636 122.603 155.405 122.734 155.325V155.32Z" fill="#FFE0BC"/>
</svg>
