<svg width="20" height="20" viewBox="0 0 20 20" fill="none" xmlns="http://www.w3.org/2000/svg">
<path d="M14.3733 20C13.7209 19.9989 13.0739 19.8832 12.4615 19.6583C9.68079 18.6416 7.15488 17.0315 5.05947 14.9398C2.96775 12.8444 1.35761 10.3185 0.341039 7.53777C0.0210315 6.66917 -0.0758692 5.73415 0.059216 4.81839C0.189388 3.94743 0.520565 3.11874 1.02652 2.39796C1.53247 1.67718 2.1993 1.0841 2.97419 0.665706C3.79361 0.224667 4.71042 -0.00417449 5.64099 5.76509e-05C5.78402 3.67199e-05 5.92273 0.0491049 6.03393 0.139063C6.14514 0.22902 6.2221 0.354417 6.25196 0.494299L7.23308 5.07182C7.255 5.17388 7.25098 5.27982 7.22141 5.37993C7.19183 5.48005 7.13764 5.57116 7.06377 5.64493L5.38756 7.32114C6.97374 10.4698 9.52951 13.0255 12.6781 14.6117L14.3544 12.9345C14.4285 12.8611 14.5196 12.8072 14.6196 12.7777C14.7196 12.7481 14.8254 12.7438 14.9275 12.7652L19.505 13.7463C19.6449 13.7761 19.7703 13.8531 19.8602 13.9643C19.9502 14.0755 19.9992 14.2142 19.9992 14.3572C20.0035 15.2878 19.7746 16.2046 19.3336 17.024C18.9152 17.7989 18.3221 18.4658 17.6013 18.9717C16.8805 19.4777 16.0519 19.8089 15.1809 19.939C14.9135 19.9783 14.6436 19.9979 14.3733 19.9979V20ZM5.14149 1.27772C4.48501 1.35232 3.85391 1.57452 3.2955 1.92765C2.73708 2.28079 2.26582 2.75572 1.91702 3.31686C1.56822 3.87799 1.35092 4.51079 1.28141 5.16783C1.2119 5.82487 1.29198 6.48913 1.51565 7.11083C2.4616 9.72434 3.97071 12.0979 5.93607 14.0632C7.90143 16.0286 10.2749 17.5377 12.8885 18.4836C13.5099 18.7065 14.1737 18.786 14.8303 18.7161C15.4868 18.6462 16.119 18.4288 16.6796 18.0801C17.2402 17.7313 17.7147 17.2604 18.0676 16.7024C18.4205 16.1444 18.6426 15.5138 18.7174 14.8578L14.9937 14.0596L13.2492 15.8105C13.1583 15.9015 13.0416 15.9623 12.9149 15.9845C12.7883 16.0067 12.6578 15.9893 12.5414 15.9346C8.81642 14.1816 5.81916 11.1848 4.06573 7.45995C4.01105 7.34356 3.99362 7.21313 4.01583 7.08647C4.03804 6.9598 4.0988 6.84308 4.18981 6.75224L5.93964 5.00136L5.14149 1.27772Z" fill="#474747"/>
</svg>
