<svg width="71" height="71" viewBox="0 0 71 71" fill="none" xmlns="http://www.w3.org/2000/svg">
<g filter="url(#filter0_d_412_2436)">
<path d="M60.939 30.2717C60.939 16.3313 49.5496 5.03041 35.4999 5.03041C21.4503 5.03041 10.0608 16.3313 10.0608 30.2717C10.0608 44.212 21.4503 55.5129 35.4999 55.5129C49.5496 55.5129 60.939 44.212 60.939 30.2717Z" fill="white"/>
</g>
<path d="M36.6562 42.8924H34.3435V40.5289C31.9991 40.2678 29.8137 39.2241 28.1455 37.5689C26.4773 35.9137 25.4254 33.7453 25.1623 31.4191H22.7803V29.1244H25.1623C25.424 26.7977 26.4755 24.6285 28.1439 22.973C29.8123 21.3176 31.9986 20.2743 34.3435 20.0146V17.6511H36.6562V20.0146C39.0006 20.2757 41.186 21.3194 42.8542 22.9746C44.5224 24.6298 45.5742 26.7982 45.8374 29.1244H48.2194V31.4191H45.8374C45.5742 33.7453 44.5224 35.9137 42.8542 37.5689C41.186 39.2241 39.0006 40.2678 36.6562 40.5289V42.8924ZM35.4998 22.2405C33.6272 22.2411 31.8128 22.886 30.3656 24.0652C28.9185 25.2445 27.9282 26.8851 27.5635 28.7075C27.1988 30.53 27.4822 32.4216 28.3655 34.0599C29.2487 35.6983 30.6772 36.9821 32.4075 37.6927C34.1378 38.4032 36.0628 38.4964 37.8546 37.9566C39.6465 37.4167 41.1942 36.2771 42.2341 34.7319C43.2741 33.1867 43.7419 31.3315 43.5578 29.4824C43.3738 27.6334 42.5493 25.9048 41.2248 24.5913C40.4746 23.8433 39.5823 23.2504 38.5996 22.8469C37.617 22.4434 36.5634 22.2372 35.4998 22.2405ZM35.4998 34.8611C34.585 34.8611 33.6908 34.5919 32.9302 34.0876C32.1695 33.5834 31.5767 32.8666 31.2266 32.028C30.8766 31.1894 30.785 30.2667 30.9634 29.3764C31.1419 28.4862 31.5824 27.6685 32.2293 27.0266C32.8761 26.3848 33.7003 25.9477 34.5975 25.7706C35.4947 25.5935 36.4247 25.6844 37.2699 26.0318C38.115 26.3791 38.8374 26.9674 39.3456 27.7221C39.8539 28.4768 40.1251 29.3641 40.1251 30.2718C40.1251 31.4889 39.6378 32.6562 38.7704 33.5169C37.903 34.3776 36.7265 34.8611 35.4998 34.8611Z" fill="black"/>
<defs>
<filter id="filter0_d_412_2436" x="0" y="0" width="71" height="70.6041" filterUnits="userSpaceOnUse" color-interpolation-filters="sRGB">
<feFlood flood-opacity="0" result="BackgroundImageFix"/>
<feColorMatrix in="SourceAlpha" type="matrix" values="0 0 0 0 0 0 0 0 0 0 0 0 0 0 0 0 0 0 127 0" result="hardAlpha"/>
<feOffset dy="5"/>
<feGaussianBlur stdDeviation="5"/>
<feColorMatrix type="matrix" values="0 0 0 0 0 0 0 0 0 0 0 0 0 0 0 0 0 0 0.102 0"/>
<feBlend mode="normal" in2="BackgroundImageFix" result="effect1_dropShadow_412_2436"/>
<feBlend mode="normal" in="SourceGraphic" in2="effect1_dropShadow_412_2436" result="shape"/>
</filter>
</defs>
</svg>
