<svg width="41" height="41" viewBox="0 0 41 41" fill="none" xmlns="http://www.w3.org/2000/svg">
<path d="M32 0H9C4.02944 0 0 4.02944 0 9V32C0 36.9706 4.02944 41 9 41H32C36.9706 41 41 36.9706 41 32V9C41 4.02944 36.9706 0 32 0Z" fill="white"/>
<path d="M32 0.5H9C4.30558 0.5 0.5 4.30558 0.5 9V32C0.5 36.6944 4.30558 40.5 9 40.5H32C36.6944 40.5 40.5 36.6944 40.5 32V9C40.5 4.30558 36.6944 0.5 32 0.5Z" stroke="#D1D1D1"/>
<path d="M23.6193 28.17C23.476 28.1708 23.3339 28.1433 23.2013 28.0891C23.0686 28.0349 22.948 27.955 22.8463 27.854L16.3173 21.325C16.1147 21.1212 16.001 20.8454 16.001 20.558C16.001 20.2706 16.1147 19.9948 16.3173 19.791L22.8463 13.262C23.0545 13.084 23.3221 12.991 23.5958 13.0017C23.8695 13.0123 24.1291 13.1258 24.3228 13.3195C24.5165 13.5132 24.63 13.7728 24.6406 14.0465C24.6513 14.3202 24.5583 14.5878 24.3803 14.796L18.6233 20.553L24.3803 26.31C24.5333 26.4615 24.6379 26.655 24.6808 26.866C24.7238 27.077 24.7031 27.296 24.6215 27.4953C24.54 27.6945 24.4011 27.8651 24.2225 27.9854C24.0439 28.1057 23.8336 28.1703 23.6183 28.171L23.6193 28.17Z" fill="#161616"/>
</svg>
