<svg width="234" height="199" viewBox="0 0 234 199" fill="none" xmlns="http://www.w3.org/2000/svg">
<path d="M211.661 128.604C209.182 182.442 161.26 197.768 101.591 198.923C10.5929 200.698 0 171.793 0 117.87C0 63.9476 19.8336 8.27844 72.4319 12.3917C97.421 14.3356 125.791 55.7494 147.033 69.4976C176.361 88.486 213.549 88.1479 211.661 128.604Z" fill="white"/>
<path opacity="0.4" d="M223.015 27.6655V64.2618C223.015 66.8537 220.902 68.9666 218.31 68.9666H211.971L199.35 79.5596C198.166 80.5738 196.363 79.7286 196.363 78.1791V68.9666H157.711C155.119 68.9666 153.034 66.8537 153.034 64.2618V27.6655C153.034 25.0736 155.119 22.9607 157.711 22.9607H218.31C220.902 22.9607 223.015 25.0736 223.015 27.6655Z" fill="#C0C0C0"/>
<path d="M233.665 27.5247C233.665 33.0184 232.087 38.1176 229.383 42.3999C228.951 43.076 228.49 43.7427 228.002 44.4001C223.044 50.8798 215.296 55.0775 206.591 55.0775C202.14 55.0775 197.914 53.9788 194.195 52.0349C185.49 47.4428 179.517 38.2021 179.517 27.5247C179.517 26.2851 179.602 25.0643 179.771 23.8622C181.545 10.3957 192.871 0 206.591 0C221.551 0 233.665 12.3115 233.665 27.5247Z" fill="#3422F2"/>
<path d="M228.002 44.3718C223.043 50.8797 215.296 55.0774 206.591 55.0774C202.139 55.0774 197.913 53.9787 194.195 52.0066C194.702 50.7389 196.251 47.3863 199.012 45.4987C202.449 43.1604 212.901 41.7236 220.142 42.3434C224.424 42.7096 226.79 43.6675 228.002 44.3718Z" fill="#4E4E4E"/>
<path d="M218.085 12.9875L219.832 23.2987C219.832 23.2987 217.494 40.2587 206.309 40.5122C195.125 40.7658 194.674 27.0175 194.674 27.0175L194.392 13.551C205.013 4.28218 218.085 12.9875 218.085 12.9875Z" fill="white"/>
<path d="M216.677 32.9338C216.537 38.0331 217.1 43.8366 217.1 43.8366L208.451 51.7813C208.451 51.7813 204.704 45.8932 205.944 44.1747C207.211 42.4843 206.366 37.2724 206.366 37.2724L216.677 32.9338Z" fill="white"/>
<path d="M194.59 21.8338C194.59 21.8338 190.139 22.1437 189.491 18.3404C188.814 14.5371 191.885 13.7483 191.885 13.7483C190.336 12.7904 189.406 9.04344 192.618 7.29674C195.829 5.55004 199.633 8.45182 199.633 8.45182C204.14 5.83176 208.141 5.71907 214.17 7.29674C220.227 8.87441 219.973 13.382 219.973 13.382C219.973 13.382 223.044 15.2133 222.453 21.2985C221.833 27.3838 216.677 32.9339 216.677 32.9339L215.325 29.2714C215.325 29.2714 218.508 28.5953 219.016 25.8343C219.551 23.0452 218.818 20.9323 216.818 20.9323C214.846 20.9323 213.691 23.7214 213.691 23.7214C213.691 23.7214 211.888 22.9889 211.324 20.1998C210.789 17.4389 212.057 15.2696 212.057 15.2696C212.057 15.2696 210.676 16.1711 208.789 16.1711C206.929 16.1711 205.774 15.6922 205.774 15.6922C205.774 15.6922 204.563 17.0726 201.126 17.3825C197.689 17.6643 194.477 16.6501 194.477 16.6501L194.59 21.8338Z" fill="#4E4E4E"/>
<path d="M206.309 40.5123C206.309 40.5123 214.423 38.3711 215.24 32.9338C215.24 32.9338 217.24 40.794 206.309 43.4704C206.309 43.4704 206.619 41.1321 206.309 40.5123Z" fill="#D9D9D9"/>
<path d="M197.462 167.679C197.424 167.811 197.377 167.914 197.321 167.989C196.25 169.548 195.114 171.06 193.912 172.525L55.7816 188.217V167.679H197.462Z" fill="#D4D4D4"/>
<path d="M111.031 126.65L111.031 126.649C110.22 125.586 109.379 124.354 108.566 123.037C107.531 121.302 106.613 119.407 106.086 117.521L106.086 117.521C105.195 114.331 104.926 109.347 104.884 105.137C104.863 103.037 104.898 101.138 104.938 99.7637C104.959 99.0767 104.98 98.5211 104.997 98.1374C105.002 98.0094 105.007 97.9006 105.011 97.8124C105.069 97.8206 105.135 97.8305 105.208 97.8422C105.493 97.8876 105.883 97.9593 106.302 98.0645C106.721 98.1698 107.165 98.3074 107.561 98.4832C107.96 98.6604 108.292 98.8683 108.504 99.1052L108.504 99.1056C111.291 102.198 114.291 108.226 116.603 113.512C117.756 116.149 118.734 118.591 119.423 120.374C119.768 121.266 120.04 121.992 120.227 122.496C120.32 122.748 120.391 122.943 120.44 123.076L120.461 123.135L113.901 130.072C113.882 130.051 113.861 130.029 113.839 130.005C113.683 129.838 113.456 129.591 113.178 129.276C112.621 128.646 111.858 127.742 111.031 126.65Z" fill="#F3F3F3" stroke="black" stroke-width="0.5"/>
<path d="M95.0273 146.888H45.9787L41.5274 109.193C40.9921 104.882 44.0066 100.966 48.2325 100.403L51.1906 100.037L88.6603 95.1627L95.0273 146.888Z" fill="#999999"/>
<path d="M105.349 128.267L105.349 128.267L105.293 128.329L105.286 128.413L103.672 146.638H71.6876L73.1045 127.58L73.1081 127.531L73.0932 127.485L72.8548 127.561C73.0932 127.485 73.0932 127.485 73.0931 127.485L73.0929 127.484L73.0919 127.481L73.0878 127.468L73.0718 127.418L73.0094 127.222C72.9548 127.051 72.8747 126.799 72.7732 126.479C72.5701 125.837 72.2809 124.919 71.9365 123.813C71.2479 121.601 70.3389 118.638 69.4572 115.634C68.5754 112.629 67.7218 109.586 67.1435 107.214C66.8541 106.027 66.6349 105.013 66.5152 104.257C66.4552 103.878 66.4214 103.571 66.4149 103.343C66.4117 103.228 66.4155 103.14 66.4244 103.075C66.433 103.013 66.444 102.991 66.4438 102.991L66.4452 102.989C66.4684 102.952 66.5423 102.879 66.7024 102.771C66.8545 102.668 67.0598 102.55 67.3143 102.419C67.8227 102.157 68.5085 101.851 69.3143 101.519C70.9246 100.854 72.9957 100.091 75.0441 99.3677C77.0916 98.6447 79.1132 97.963 80.623 97.4619C81.3779 97.2114 82.0047 97.006 82.4428 96.8634C82.6618 96.792 82.8337 96.7364 82.9507 96.6986L83.0842 96.6555L83.0969 96.6514L93.437 96.2871L104.584 97.7568L104.588 97.7693C104.622 97.8766 104.672 98.0348 104.736 98.2385C104.863 98.6459 105.045 99.2352 105.262 99.9622C105.696 101.416 106.273 103.421 106.842 105.621C107.985 110.035 109.087 115.199 108.976 118.312C108.864 121.408 107.955 123.901 107.073 125.619C106.632 126.478 106.199 127.143 105.877 127.592C105.716 127.816 105.582 127.986 105.49 128.1C105.444 128.157 105.408 128.199 105.384 128.227C105.372 128.241 105.363 128.251 105.357 128.258L105.351 128.265L105.35 128.267L105.349 128.267Z" fill="#F3F3F3" stroke="black" stroke-width="0.5"/>
<path d="M98.0418 67.3564C104.183 73.8361 101.31 91.444 101.31 91.444C101.31 91.444 100.183 91.444 94.6047 91.9793C89.0265 92.5146 68.8831 95.1628 68.8831 95.1628C68.8831 95.1628 60.713 77.6113 68.6014 66.4549C76.4897 55.2985 87.6179 60.0879 87.6179 60.0879C87.6179 60.0879 91.9001 60.8767 98.0418 67.3564Z" fill="#4E4E4E"/>
<path d="M91.7595 103.586L82.3498 97.1631C82.3498 97.1631 83.1387 94.7121 82.9414 92.2329C82.8851 91.6976 82.8006 91.1341 82.6597 90.627C82.5658 90.3641 82.4625 90.1105 82.3498 89.8663L91.7595 89.3874C91.7595 89.3874 91.8158 90.1481 91.9849 91.1341C92.1257 91.8948 92.3229 92.7963 92.661 93.5851C92.8864 94.1768 93.1681 94.6839 93.5062 95.0501C94.943 96.4869 91.7595 103.586 91.7595 103.586Z" fill="white"/>
<path d="M92.6601 93.5851C91.4487 93.6414 86.2649 93.6978 82.9405 92.2328C82.8842 91.6975 82.7997 91.1341 82.6588 90.627C82.6588 90.627 88.9695 91.3876 91.984 91.1341C92.1248 91.8947 92.322 92.7963 92.6601 93.5851Z" fill="#D9D9D9"/>
<path d="M97.0283 64.3138L98.6059 77.2451C98.6059 77.2451 100.634 90.5989 89.9006 91.8949C79.1386 93.1626 75.5043 80.7385 75.5043 80.7385L74.2366 67.0184C74.2366 67.0184 85.5902 56.8481 97.0283 64.3138Z" fill="white"/>
<path d="M92.126 65.328C92.126 65.328 90.7174 68.7933 86.0971 71.2443C81.9839 73.4136 78.1242 74.0052 78.1242 74.0052C78.1242 74.0052 77.5044 77.6676 75.4478 79.9496C75.4478 79.9496 71.8417 73.1318 73.3067 67.2438C74.7717 61.3838 82.3501 58.5384 88.9989 59.1582C95.6476 59.7498 98.0423 62.1727 98.9438 66.0605C99.8172 69.9483 98.3522 75.1885 98.3522 75.1885C98.3522 75.1885 96.9435 66.5394 92.126 65.328Z" fill="#4E4E4E"/>
<path d="M72.7154 77.1042C71.9548 71.1034 72.321 63.4123 80.0685 60.0034C87.7878 56.5945 91.7038 59.5244 91.7038 59.5244C91.7038 59.5244 85.4777 58.6229 80.5474 62.0318C72.969 67.2437 74.2368 77.1042 74.2368 77.1042H72.7154Z" fill="white"/>
<path d="M84.7443 89.5001C79.5887 89.5001 75.7854 85.9504 75.6163 85.7814L76.3206 85.0207C76.3488 85.077 80.5184 88.9649 85.7303 88.4296L85.8148 89.472C85.458 89.4908 85.1011 89.5001 84.7443 89.5001Z" fill="#3422F2"/>
<path d="M211.916 167.989H58.093C53.9798 167.989 50.0638 166.299 47.331 163.341L38.8792 154.184C35.6112 150.607 38.2031 145 43.1333 145H193.294C198.477 145 203.464 146.944 207.183 150.438L215.86 158.523C219.55 161.96 217.043 167.989 211.916 167.989Z" fill="#DCDCDC"/>
<path d="M141.638 95.098C141.635 95.1089 141.632 95.1369 141.647 95.1745L141.878 95.0782C141.653 94.5711 140.611 94.8529 139.822 95.2755L141.638 95.098ZM141.638 95.098C141.639 95.0947 141.64 95.0931 141.639 95.0932C141.639 95.0932 141.639 95.0949 141.638 95.098ZM143.244 99.5503C143.269 99.5578 143.287 99.5662 143.3 99.5749C143.277 99.6058 143.243 99.6466 143.194 99.6973C143.058 99.8364 142.849 100.012 142.589 100.211C142.072 100.607 141.389 101.067 140.784 101.461L140.765 101.473L140.749 101.488L136.326 105.629L136.287 105.666L136.266 105.717C136.245 105.767 136.223 105.821 136.199 105.878C135.594 107.346 134.19 110.753 132.551 114.339C130.845 118.071 128.897 121.971 127.337 124.088L127.336 124.09C125.674 126.371 123.973 128.571 121.862 130.238C120.545 131.259 118.743 131.631 117.014 131.398C115.285 131.166 113.663 130.334 112.697 128.993L112.696 128.991C112.347 128.516 112.06 128.096 111.861 127.796C111.77 127.659 111.697 127.546 111.645 127.465L131.144 102.699L131.198 102.631V102.544C131.198 101.939 131.253 100.589 131.775 99.0765C132.131 98.0655 132.735 97.0616 133.33 96.3115C133.628 95.9365 133.918 95.6313 134.168 95.4226C134.293 95.3181 134.403 95.2419 134.494 95.193C134.525 95.1762 134.552 95.1638 134.575 95.1547C134.574 95.1925 134.569 95.2423 134.559 95.3059C134.516 95.5636 134.398 95.9311 134.239 96.3398C133.923 97.1534 133.471 98.0624 133.241 98.4417L132.87 99.0531L133.541 98.8067L135.767 97.9896L135.791 97.9807L135.813 97.967L135.68 97.7546L135.813 97.967L135.813 97.967L135.813 97.9667L135.815 97.9657L135.822 97.9616L135.847 97.9455L135.947 97.8838C136.032 97.8304 136.156 97.7535 136.309 97.6594C136.613 97.4712 137.03 97.2144 137.48 96.9401C138.383 96.3896 139.411 95.7743 139.938 95.497L139.94 95.4961C140.319 95.2931 140.749 95.1298 141.1 95.0756C141.276 95.0484 141.413 95.0518 141.508 95.0774C141.561 95.0918 141.595 95.1112 141.618 95.1338C141.592 95.1747 141.545 95.2321 141.473 95.306C141.313 95.4696 141.066 95.6745 140.763 95.903C140.158 96.3581 139.363 96.882 138.674 97.3177L138.445 97.4626L138.607 97.6795L138.692 97.7922L138.827 97.9728L139.021 97.8566C139.862 97.3517 140.816 96.7907 141.297 96.508C141.672 96.3078 142.106 96.1522 142.458 96.1046C142.636 96.0805 142.774 96.0868 142.867 96.114C142.917 96.1287 142.949 96.1471 142.969 96.1671C142.968 96.1678 142.968 96.1686 142.967 96.1694C142.93 96.2249 142.861 96.3029 142.757 96.4022C142.55 96.5985 142.241 96.8426 141.876 97.1085C141.147 97.6384 140.223 98.2333 139.521 98.6688L139.327 98.7892L139.429 98.9935L139.485 99.1062L139.607 99.3493L139.839 99.2082C140.632 98.727 141.466 98.2264 141.906 98.0067L141.906 98.0068L141.912 98.0035C142.291 97.8005 142.721 97.6371 143.072 97.583C143.248 97.5557 143.385 97.5592 143.48 97.5847C143.53 97.5983 143.563 97.6161 143.586 97.6369C143.553 97.685 143.495 97.7517 143.409 97.8365C143.224 98.0181 142.943 98.2461 142.606 98.4978C141.933 98.9994 141.066 99.5731 140.363 100.023L140.158 100.154L140.283 100.363L140.368 100.504L140.495 100.716L140.709 100.59C140.78 100.549 140.849 100.508 140.917 100.468C141.311 100.236 141.645 100.039 141.878 99.9225L141.878 99.9227L141.888 99.917C142.222 99.7302 142.601 99.5886 142.904 99.5449C143.056 99.5228 143.17 99.5286 143.244 99.5503ZM143.331 99.5241C143.331 99.524 143.33 99.5259 143.328 99.5302C143.329 99.5263 143.33 99.5242 143.331 99.5241Z" fill="white" stroke="black" stroke-width="0.5"/>
<path d="M90.1817 151.057C90.1817 151.057 92.4637 152.748 93.3652 155.03C94.2667 157.34 88.4913 158.805 78.7999 155.509C71.7568 153.142 83.6456 145.789 90.1817 151.057Z" fill="#3422F2"/>
<path d="M86.5192 90.1198H85.2232C84.7725 90.1198 84.4062 89.7536 84.4062 89.2746V88.4858C84.4062 88.0069 84.7725 87.6406 85.2232 87.6406H86.5192C86.9981 87.6406 87.3644 88.0069 87.3644 88.4858V88.8802V89.2746C87.3644 89.7536 86.9981 90.1198 86.5192 90.1198Z" fill="#3422F2"/>
<path d="M79.785 80.0058C80.4893 83.6119 78.6299 87.0208 75.6154 87.6406C72.601 88.2604 69.5583 85.8657 68.854 82.2878C68.1215 78.6817 70.0091 75.2728 73.0236 74.653C76.038 74.0332 79.0525 76.4279 79.785 80.0058Z" fill="#3422F2"/>
<path d="M72.4953 118.194L72.4952 118.195C72.2352 119.769 71.318 121.803 70.066 123.988C68.8178 126.167 67.2512 128.471 65.7151 130.576C64.1794 132.681 62.6768 134.585 61.5579 135.962C60.9985 136.65 60.5352 137.207 60.2119 137.592C60.0502 137.784 59.9236 137.933 59.8374 138.034L59.8263 138.047L51.287 134.276L51.3022 134.238C51.3712 134.066 51.473 133.813 51.6043 133.489C51.8669 132.84 52.2474 131.904 52.7189 130.757C53.6618 128.463 54.9686 125.326 56.4241 121.952C59.3381 115.197 62.838 107.518 65.2064 103.748C65.7276 102.928 66.633 102.411 67.4378 102.098C67.8366 101.943 68.2019 101.841 68.4673 101.778C68.5622 101.756 68.6441 101.738 68.7098 101.725C68.7434 101.797 68.7868 101.891 68.8386 102.005C68.972 102.297 69.1615 102.723 69.3856 103.255C69.834 104.318 70.4204 105.803 70.9724 107.489C72.0805 110.873 73.0337 115.02 72.4953 118.194Z" fill="#F3F3F3" stroke="black" stroke-width="0.5"/>
<path d="M52.9842 134.775C54.3175 134.975 56.3114 135.46 58.9313 136.601L77.1024 148.417L74.694 153.758C74.5733 153.714 74.4044 153.653 74.1926 153.575C73.7312 153.406 73.0661 153.16 72.2522 152.853C70.6241 152.239 68.4009 151.379 66.0197 150.4C61.2444 148.435 55.8748 146.003 53.3702 144.097C50.9155 142.228 50.3718 139.844 50.4402 137.913C50.4745 136.945 50.6632 136.092 50.8439 135.481C50.9341 135.175 51.022 134.931 51.0869 134.765C51.1046 134.719 51.1206 134.68 51.1344 134.646C51.2151 134.642 51.3304 134.639 51.4801 134.641C51.813 134.645 52.3158 134.674 52.9842 134.775Z" fill="white" stroke="black" stroke-width="0.5"/>
<path d="M86.098 150.269L86.2542 150.073L86.0181 149.884L85.8767 150.151L85.6232 150.63L85.513 150.839L85.7141 150.961L85.8444 150.748L85.7141 150.961L85.7142 150.961L85.7147 150.962L85.7167 150.963L85.725 150.968L85.7577 150.988C85.7865 151.006 85.8289 151.032 85.8831 151.066C85.9913 151.133 86.1465 151.231 86.3334 151.351C86.7075 151.591 87.2079 151.92 87.7147 152.276C88.2226 152.634 88.7319 153.015 89.1262 153.36C89.3236 153.533 89.4874 153.693 89.6066 153.833C89.7289 153.976 89.7834 154.074 89.7983 154.129C89.8404 154.331 89.8078 154.41 89.7908 154.434C89.7786 154.451 89.7385 154.49 89.5946 154.494C89.452 154.498 89.2534 154.465 88.9998 154.39C88.7495 154.316 88.4604 154.206 88.1417 154.068L88.1417 154.068L88.1374 154.066C87.5071 153.806 86.7101 153.363 86.0636 152.98C85.7419 152.789 85.4603 152.615 85.2592 152.489C85.1586 152.426 85.0783 152.374 85.0232 152.339L84.9601 152.298L84.944 152.288L84.94 152.285L84.939 152.285L84.9388 152.285L84.9388 152.285L84.7458 152.159L84.6044 152.341L84.4072 152.594L84.2364 152.814L84.4727 152.96L84.6048 152.748L84.4727 152.96L84.4728 152.96L84.4732 152.961L84.4751 152.962L84.4828 152.967L84.5133 152.986C84.5401 153.003 84.5797 153.028 84.63 153.06C84.7308 153.124 84.875 153.217 85.0481 153.331C85.3946 153.559 85.8557 153.872 86.316 154.21C86.7777 154.55 87.2322 154.91 87.569 155.234C87.7378 155.396 87.8705 155.543 87.9593 155.669C88.0542 155.804 88.0733 155.878 88.0733 155.903C88.0733 155.927 88.0699 155.928 88.0663 155.93C88.0656 155.93 88.065 155.931 88.0644 155.931C88.044 155.945 87.9869 155.968 87.8663 155.972C87.6281 155.979 87.2643 155.909 86.8121 155.763C85.9168 155.475 84.7675 154.922 83.783 154.284L83.5722 154.148L83.4364 154.359L83.1828 154.754L83.0327 154.987L83.2804 155.112L83.2804 155.112L83.2804 155.112L83.2806 155.112L83.2818 155.113L83.2866 155.115L83.3063 155.126C83.3237 155.135 83.3494 155.148 83.3825 155.165C83.4485 155.2 83.5435 155.251 83.6581 155.314C83.8878 155.442 84.1952 155.619 84.5076 155.821C84.8214 156.024 85.1339 156.247 85.3774 156.466C85.4991 156.575 85.5991 156.679 85.6725 156.775C85.7461 156.871 85.7837 156.947 85.7975 157.001C85.8115 157.069 85.8044 157.1 85.8013 157.109L85.8011 157.109C85.7999 157.113 85.7984 157.117 85.7847 157.125C85.7369 157.152 85.6124 157.177 85.3742 157.145C84.917 157.083 84.2413 156.843 83.501 156.494C82.3231 155.928 81.1862 155.766 79.8616 155.577C79.4911 155.524 79.1059 155.469 78.7009 155.403L78.7009 155.403L78.6968 155.402C77.7769 155.267 76.7618 154.857 75.966 154.473C75.5704 154.282 75.2337 154.1 74.9962 153.966C74.9222 153.924 74.8578 153.887 74.8044 153.855L77.0564 148.398L77.1684 148.392C77.3421 148.384 77.5927 148.372 77.9005 148.357C78.5161 148.328 79.36 148.29 80.2733 148.251C82.1022 148.173 84.2026 148.096 85.3091 148.096C85.8048 148.096 86.4217 148.303 87.0778 148.657C87.7287 149.008 88.3944 149.491 88.9814 150.012C89.5691 150.534 90.0691 151.087 90.3938 151.574C90.5564 151.818 90.6696 152.037 90.7303 152.222C90.7921 152.41 90.7904 152.533 90.7646 152.606C90.7552 152.632 90.745 152.641 90.7367 152.646C90.7254 152.654 90.6999 152.665 90.6486 152.669C90.5392 152.678 90.37 152.647 90.1407 152.565C89.6889 152.402 89.1088 152.075 88.5254 151.702C87.9459 151.332 87.3779 150.924 86.9539 150.609C86.7422 150.451 86.5668 150.317 86.4446 150.222C86.3835 150.175 86.3357 150.137 86.3033 150.112L86.2664 150.083L86.2571 150.075L86.2548 150.074L86.2543 150.073L86.2542 150.073L86.098 150.269Z" fill="white" stroke="black" stroke-width="0.5"/>
<path d="M190.758 114.63L181.94 158.805H116.692L125.454 114.884C125.623 113.954 126.44 113.306 127.369 113.306H189.659C190.363 113.306 190.871 113.954 190.758 114.63Z" fill="#999999"/>
<path d="M116.691 158.805L98.7736 152.973C98.1257 152.776 97.7031 152.184 97.7031 151.508C97.7031 150.663 98.3792 149.987 99.2244 149.987H118.438L116.691 158.805Z" fill="#999999"/>
<path d="M164.218 138.38C164.218 141.281 161.852 143.648 158.978 143.648C156.076 143.648 153.738 141.281 153.738 138.38C153.738 135.506 156.076 133.139 158.978 133.139C161.852 133.139 164.218 135.506 164.218 138.38Z" fill="#3422F2"/>
<path d="M87.6536 105.449L87.6508 105.449C86.483 105.424 85.5457 104.673 84.7924 103.669C84.0416 102.668 83.5098 101.462 83.1427 100.615C82.7808 99.7469 82.2206 98.8437 81.7562 98.163C81.523 97.8212 81.312 97.5328 81.1592 97.3296C81.1127 97.2678 81.0715 97.2138 81.0368 97.1686L82.8992 94.9434L91.4258 103.605C91.3886 103.65 91.3435 103.702 91.2908 103.761C91.1134 103.956 90.8509 104.217 90.5117 104.475C89.8321 104.993 88.8591 105.489 87.6536 105.449Z" fill="#F3F3F3" stroke="black" stroke-width="0.5"/>
<path d="M93.2371 95.2044C93.2315 95.0028 93.2248 94.827 93.2181 94.6818L95.2675 95.8659L95.2765 95.8948C95.3013 95.974 95.3377 96.0887 95.3837 96.2311C95.4757 96.516 95.6066 96.9124 95.7624 97.3583C96.0728 98.2472 96.4856 99.3447 96.8876 100.149L96.8876 100.149L96.8884 100.15C97.2883 100.936 97.5974 101.63 97.5693 102.233C97.5558 102.522 97.464 102.791 97.2554 103.043C97.0433 103.299 96.7006 103.55 96.1674 103.779L96.1674 103.779L96.1649 103.78C95.1234 104.242 94.0604 104.146 93.2431 103.926C92.8358 103.816 92.4949 103.676 92.2563 103.565C92.1903 103.534 92.1322 103.505 92.0829 103.479C92.8476 101.739 93.1249 99.4715 93.2131 97.6329C93.2593 96.6709 93.254 95.8174 93.2371 95.2044Z" fill="#F3F3F3" stroke="black" stroke-width="0.5"/>
</svg>
