<svg width="21" height="18" viewBox="0 0 21 18" fill="none" xmlns="http://www.w3.org/2000/svg">
<path d="M19.9837 0H1.01538C0.746085 0 0.487819 0.106977 0.297398 0.297398C0.106977 0.487818 0 0.746085 0 1.01538L0 13.2345C0 13.5038 0.106977 13.762 0.297398 13.9525C0.487819 14.1429 0.746085 14.2499 1.01538 14.2499H3.10707C3.18866 14.2499 3.26692 14.2174 3.32462 14.1598C3.38231 14.1021 3.41473 14.0238 3.41473 13.9422C3.41473 13.8606 3.38231 13.7824 3.32462 13.7247C3.26692 13.667 3.18866 13.6345 3.10707 13.6345H1.01538C0.907663 13.6345 0.804357 13.5918 0.728188 13.5156C0.65202 13.4394 0.609229 13.3361 0.609229 13.2284V5.40995H20.3868V13.2284C20.3868 13.3361 20.344 13.4394 20.2679 13.5156C20.1917 13.5918 20.0884 13.6345 19.9807 13.6345H19.7563C20.1623 12.3401 20.0814 10.942 19.5288 9.70298C19.5123 9.66612 19.4887 9.63287 19.4593 9.60513C19.4299 9.5774 19.3953 9.55572 19.3576 9.54134C19.3198 9.52696 19.2796 9.52016 19.2392 9.52133C19.1988 9.52249 19.159 9.5316 19.1222 9.54814C19.0853 9.56467 19.0521 9.58831 19.0243 9.61769C18.9966 9.64708 18.9749 9.68164 18.9605 9.7194C18.9461 9.75716 18.9393 9.79739 18.9405 9.83778C18.9417 9.87817 18.9508 9.91793 18.9673 9.9548C19.3271 10.7605 19.4644 11.648 19.365 12.5248C19.2655 13.4015 18.9329 14.2357 18.4018 14.9403H10.5173C9.72856 13.8988 9.38471 12.5872 9.56108 11.2927C9.73745 9.99814 10.4197 8.82628 11.4583 8.03374C12.4969 7.2412 13.8073 6.89258 15.1025 7.06423C16.3976 7.23589 17.5719 7.91383 18.3682 8.94957C18.4182 9.01407 18.4917 9.05608 18.5727 9.06636C18.6536 9.07664 18.7353 9.05436 18.7998 9.0044C18.8643 8.95445 18.9063 8.88092 18.9166 8.79999C18.9269 8.71906 18.9046 8.63736 18.8546 8.57287C18.0573 7.54195 16.9228 6.82426 15.6497 6.54539C14.3766 6.26652 13.046 6.44422 11.8907 7.04741C10.7354 7.65059 9.82897 8.64084 9.3301 9.84487C8.83122 11.0489 8.77165 12.39 9.16179 13.6335H4.21079C4.12919 13.6335 4.05094 13.6659 3.99324 13.7236C3.93554 13.7813 3.90313 13.8596 3.90313 13.9412C3.90313 14.0228 3.93554 14.101 3.99324 14.1587C4.05094 14.2164 4.12919 14.2488 4.21079 14.2488H9.39634C9.83548 15.2245 10.5471 16.0525 11.4455 16.6334C12.344 17.2143 13.3912 17.5233 14.4611 17.5233C15.531 17.5233 16.5781 17.2143 17.4766 16.6334C18.3751 16.0525 19.0866 15.2245 19.5258 14.2488H19.9847C20.254 14.2488 20.5123 14.1419 20.7027 13.9514C20.8931 13.761 21.0001 13.5028 21.0001 13.2335V1.01843C21.0001 0.749134 20.8931 0.490867 20.7027 0.300446C20.5123 0.110025 20.254 0.00304834 19.9847 0.00304834L19.9837 0ZM11.0677 15.5577H17.8545C16.9385 16.4269 15.7238 16.9115 14.4611 16.9115C13.1983 16.9115 11.9836 16.4269 11.0677 15.5577ZM0.615321 4.80377V3.54267H16.043C16.1246 3.54267 16.2029 3.51025 16.2606 3.45255C16.3183 3.39486 16.3507 3.3166 16.3507 3.23501C16.3507 3.15341 16.3183 3.07516 16.2606 3.01746C16.2029 2.95976 16.1246 2.92734 16.043 2.92734H0.615321V1.01843C0.615321 0.910711 0.658112 0.807403 0.73428 0.731235C0.810449 0.655066 0.913755 0.612276 1.02147 0.612276H19.9837C20.0914 0.612276 20.1947 0.655066 20.2709 0.731235C20.3471 0.807403 20.3899 0.910711 20.3899 1.01843V2.92734H17.1863C17.1047 2.92734 17.0265 2.95976 16.9688 3.01746C16.9111 3.07516 16.8787 3.15341 16.8787 3.23501C16.8787 3.3166 16.9111 3.39486 16.9688 3.45255C17.0265 3.51025 17.1047 3.54267 17.1863 3.54267H20.3868V4.80377H0.615321Z" fill="#474747"/>
<path d="M7.45287 11.8739C8.11389 11.5571 8.47841 11.1093 8.47841 10.6128C8.47841 10.1163 8.11389 9.66848 7.45287 9.35168C6.75986 9.0629 6.01651 8.91421 5.26574 8.91421C4.51496 8.91421 3.77162 9.0629 3.07861 9.35168C2.41759 9.66848 2.05307 10.1163 2.05307 10.6128C2.05307 11.1093 2.41759 11.5571 3.07861 11.8739C3.77162 12.1626 4.51496 12.3113 5.26574 12.3113C6.01651 12.3113 6.75986 12.1626 7.45287 11.8739ZM2.66839 10.6128C2.66839 10.3691 2.91513 10.1122 3.34464 9.90201C4.57621 9.39839 5.95628 9.39839 7.18786 9.90201C7.61736 10.1051 7.8641 10.365 7.8641 10.6128C7.8641 10.8605 7.61736 11.1134 7.18786 11.3235C5.95628 11.8272 4.57621 11.8272 3.34464 11.3235C2.91513 11.1123 2.66839 10.8555 2.66839 10.6128Z" fill="#474747"/>
<path d="M12.3795 10.9672C12.4982 10.9668 12.6142 11.0022 12.7125 11.0687C12.7459 11.0913 12.7833 11.1071 12.8228 11.1152C12.8622 11.1234 12.9029 11.1236 12.9425 11.116C12.982 11.1085 13.0197 11.0931 13.0533 11.071C13.0869 11.0488 13.1159 11.0203 13.1385 10.987C13.1611 10.9536 13.1769 10.9161 13.185 10.8767C13.1931 10.8373 13.1934 10.7966 13.1858 10.7571C13.1782 10.7175 13.163 10.6798 13.1408 10.6462C13.1187 10.6126 13.0901 10.5836 13.0567 10.561C12.8997 10.4551 12.7201 10.3875 12.5322 10.3636C12.3443 10.3397 12.1535 10.3601 11.9749 10.4233C11.7964 10.4865 11.6352 10.5908 11.5043 10.7276C11.3733 10.8644 11.2762 11.03 11.2209 11.2111C11.1655 11.3922 11.1534 11.5838 11.1855 11.7704C11.2175 11.9571 11.293 12.1336 11.4056 12.2858C11.5183 12.4381 11.6651 12.5618 11.8342 12.647C12.0033 12.7322 12.1901 12.7766 12.3795 12.7766C12.5326 12.7803 12.6845 12.7494 12.824 12.6861C12.9634 12.6228 13.0867 12.5287 13.1847 12.411C13.2371 12.3485 13.2625 12.2678 13.2553 12.1866C13.2482 12.1054 13.2091 12.0304 13.1466 11.978C13.0841 11.9256 13.0034 11.9002 12.9222 11.9073C12.841 11.9145 12.7659 11.9536 12.7136 12.016C12.7004 12.0316 12.6862 12.0462 12.6709 12.0597C12.59 12.129 12.4859 12.1653 12.3795 12.1612C12.2992 12.1646 12.2191 12.1516 12.144 12.1232C12.0688 12.0948 12.0002 12.0514 11.9422 11.9958C11.8843 11.9402 11.8381 11.8734 11.8066 11.7995C11.7751 11.7256 11.7589 11.6461 11.7589 11.5657C11.7589 11.4854 11.7751 11.4059 11.8066 11.332C11.8381 11.2581 11.8843 11.1913 11.9422 11.1357C12.0002 11.08 12.0688 11.0367 12.144 11.0083C12.2191 10.9798 12.2992 10.9669 12.3795 10.9702V10.9672Z" fill="#474747"/>
<path d="M14.8814 10.5661L14.5392 11.5957L14.1788 10.559C14.1518 10.482 14.0954 10.4188 14.0219 10.3834C13.9484 10.348 13.8638 10.3432 13.7868 10.3701C13.7098 10.397 13.6466 10.4535 13.6112 10.527C13.5758 10.6005 13.571 10.685 13.598 10.7621L14.2163 12.5441C14.2404 12.6118 14.2849 12.6704 14.3436 12.7118C14.4023 12.7533 14.4724 12.7755 14.5443 12.7756C14.617 12.7749 14.6877 12.7515 14.7465 12.7087C14.8053 12.666 14.8492 12.6059 14.8723 12.5369L15.4622 10.761C15.4749 10.7227 15.48 10.6823 15.4771 10.642C15.4742 10.6017 15.4634 10.5623 15.4453 10.5262C15.4272 10.4901 15.4021 10.4579 15.3716 10.4315C15.3411 10.4051 15.3056 10.3849 15.2673 10.3722C15.2289 10.3594 15.1884 10.3544 15.1481 10.3573C15.1079 10.3602 15.0686 10.371 15.0324 10.3891C14.9963 10.4072 14.9641 10.4322 14.9377 10.4628C14.9113 10.4933 14.8911 10.5288 14.8784 10.5671L14.8814 10.5661Z" fill="#474747"/>
<path d="M17.1529 10.5661L16.8107 11.5957L16.4502 10.559C16.4233 10.482 16.3669 10.4188 16.2934 10.3834C16.2199 10.348 16.1353 10.3432 16.0583 10.3701C15.9813 10.397 15.9181 10.4535 15.8827 10.527C15.8473 10.6005 15.8425 10.685 15.8694 10.7621L16.4878 12.5441C16.5119 12.6118 16.5564 12.6704 16.6151 12.7118C16.6738 12.7533 16.7439 12.7755 16.8158 12.7756C16.8885 12.7749 16.9591 12.7515 17.0179 12.7087C17.0767 12.666 17.1207 12.6059 17.1437 12.5369L17.7337 10.761C17.7464 10.7227 17.7515 10.6823 17.7485 10.642C17.7456 10.6017 17.7348 10.5623 17.7167 10.5262C17.6986 10.4901 17.6736 10.4579 17.643 10.4315C17.6125 10.4051 17.577 10.3849 17.5387 10.3722C17.5004 10.3594 17.4599 10.3544 17.4196 10.3573C17.3793 10.3602 17.34 10.371 17.3039 10.3891C17.2678 10.4072 17.2356 10.4322 17.2092 10.4628C17.1827 10.4933 17.1625 10.5288 17.1498 10.5671L17.1529 10.5661Z" fill="#474747"/>
</svg>
