<svg width="32" height="32" viewBox="0 0 32 32" fill="none" xmlns="http://www.w3.org/2000/svg">
<path d="M16 31.5C24.5604 31.5 31.5 24.5604 31.5 16C31.5 7.43959 24.5604 0.5 16 0.5C7.43959 0.5 0.5 7.43959 0.5 16C0.5 24.5604 7.43959 31.5 16 31.5Z" stroke="#3422F2"/>
<path d="M23.4993 11.9347C23.5029 11.6172 23.4435 11.3022 23.3245 11.0078C23.2055 10.7134 23.0293 10.4455 22.806 10.2194C22.3477 9.76705 21.7319 9.50927 21.0874 9.50002C20.7738 9.49869 20.463 9.55913 20.1728 9.67788C19.8826 9.79663 19.6187 9.97135 19.3962 10.192L22.806 13.6226C23.0323 13.4044 23.2107 13.1418 23.3301 12.8512C23.4494 12.5607 23.507 12.2486 23.4993 11.9347Z" fill="#3422F2"/>
<path d="M22.0309 14.3981L18.6207 10.9944L10.7199 18.8801L14.1301 22.2838L22.0309 14.3981Z" fill="#3422F2"/>
<path d="M10.2766 19.9863L9.5 23.5L13.0204 22.7249L10.2766 19.9863Z" fill="#3422F2"/>
</svg>
