<svg width="137" height="149" viewBox="0 0 137 149" fill="none" xmlns="http://www.w3.org/2000/svg">
<path d="M114.25 85.2272L105.117 148.803L48.1865 148.51L57.2896 84.9345L114.25 85.2272Z" fill="url(#paint0_linear_96_2667)"/>
<path d="M57.2896 84.9345L48.1865 148.51L19.9699 129.952L29.0729 66.3771L57.2896 84.9345Z" fill="url(#paint1_linear_96_2667)"/>
<path fill-rule="evenodd" clip-rule="evenodd" d="M114.25 85.2273L57.2896 84.9345L29.073 66.3771L86.0039 66.6698L114.25 85.2273ZM57.4945 84.3784L112.406 84.6711L85.8576 67.1967L30.9463 66.9332L57.4945 84.3784Z" fill="url(#paint2_linear_96_2667)"/>
<path style="mix-blend-mode:multiply" d="M78.1596 115.639C75.6423 133.348 72.3347 147.544 70.7834 147.31C69.2613 147.076 70.0517 132.557 72.5982 114.849C75.1155 97.1403 78.423 82.9734 79.9743 83.2075C81.4964 83.4124 80.7061 97.9306 78.1596 115.639Z" fill="url(#paint3_radial_96_2667)"/>
<path style="mix-blend-mode:multiply" d="M91.4189 116.986C88.9309 134.402 85.6526 148.334 84.1013 148.129C82.5792 147.895 83.3403 133.611 85.8282 116.195C88.3162 98.7795 91.5945 84.8468 93.1166 85.0809C94.6679 85.2858 93.9069 99.5991 91.4189 116.986Z" fill="url(#paint4_radial_96_2667)"/>
<path style="mix-blend-mode:multiply" d="M35.6881 106.565C33.1416 124.274 29.8633 138.441 28.312 138.236C26.7899 138.002 27.5802 123.484 30.1267 105.775C32.644 88.0665 35.9515 73.8996 37.4736 74.1045C39.0249 74.3387 38.2054 88.8568 35.6881 106.565Z" fill="url(#paint5_radial_96_2667)"/>
<path style="mix-blend-mode:multiply" d="M44.7911 109.288C42.3031 126.703 39.0249 140.636 37.5028 140.402C35.9515 140.197 36.7418 125.913 39.2297 108.497C41.7177 91.0814 44.9667 77.1487 46.5181 77.3828C48.0401 77.5877 47.2791 91.8717 44.7911 109.288Z" fill="url(#paint6_radial_96_2667)"/>
<path d="M78.7449 85.0516L93.8484 85.1395L84.7746 148.686L69.6711 148.627L78.7449 85.0516Z" fill="url(#paint7_linear_96_2667)"/>
<path d="M36.4491 71.236L47.4255 78.4365L38.3224 142.012L27.3753 134.811L36.4491 71.236Z" fill="url(#paint8_linear_96_2667)"/>
<path d="M70.6076 23.9643L105.908 32.4234L48.3035 52.942L12.9741 44.5121L70.6076 23.9643Z" fill="url(#paint9_linear_96_2667)"/>
<path d="M105.908 32.4234L108.805 46.4732L51.2013 66.9917L48.3035 52.9419L105.908 32.4234Z" fill="url(#paint10_linear_96_2667)"/>
<path d="M48.3035 52.9419L51.2013 66.9917L15.8719 58.5618L12.9741 44.512L48.3035 52.9419Z" fill="url(#paint11_linear_96_2667)"/>
<path style="mix-blend-mode:multiply" d="M28.7802 58.8545C32.3512 76.0948 34.0489 90.2909 32.5268 90.6129C31.0047 90.9349 26.8483 77.2363 23.2773 60.0253C19.6771 42.8143 18.0087 28.5889 19.5307 28.2669C21.0528 27.945 25.1799 41.6435 28.7802 58.8545Z" fill="url(#paint12_radial_96_2667)"/>
<path style="mix-blend-mode:multiply" d="M40.0493 57.7716C43.6495 74.9826 45.318 89.2081 43.7959 89.53C42.2739 89.8227 38.1174 76.1242 34.5465 58.9132C30.9462 41.7022 29.2778 27.4768 30.7998 27.184C32.3219 26.8621 36.4783 40.5606 40.0493 57.7716Z" fill="url(#paint13_radial_96_2667)"/>
<path style="mix-blend-mode:multiply" d="M74.7347 52.5321C78.335 69.7724 80.0034 83.9685 78.4813 84.2905C76.9593 84.6125 72.8029 70.9139 69.2319 53.7029C65.6316 36.4627 63.9632 22.2665 65.4853 21.9445C67.0073 21.6226 71.1637 35.3211 74.7347 52.5321Z" fill="url(#paint14_radial_96_2667)"/>
<path style="mix-blend-mode:multiply" d="M87.5845 49.3709C91.1848 66.5819 92.8532 80.8073 91.3311 81.1293C89.8091 81.422 85.6526 67.7235 82.0816 50.5125C78.4814 33.3014 76.813 19.076 78.3351 18.7833C79.8571 18.4614 84.0135 32.1599 87.5845 49.3709Z" fill="url(#paint15_radial_96_2667)"/>
<path d="M22.9846 46.883L35.7465 49.9564L38.6736 64.0062L25.9409 60.9621L22.9846 46.883Z" fill="url(#paint16_linear_96_2667)"/>
<path d="M69.4075 45.4194L83.6329 40.3556L86.5599 54.4054L72.3345 59.4692L69.4075 45.4194Z" fill="url(#paint17_linear_96_2667)"/>
<path d="M83.6329 40.3557L69.4075 45.4195L36.7417 36.053L50.9086 30.9892L83.6329 40.3557Z" fill="url(#paint18_linear_96_2667)"/>
<path d="M91.4188 28.9401L35.7465 49.9563L27.2288 47.9074L22.9846 46.8829L78.6569 25.896L91.4188 28.9401Z" fill="url(#paint19_linear_96_2667)"/>
<path d="M89.7505 10.5291C83.5159 5.72876 59.0458 23.7886 66.0122 39.1556L61.885 35.5553C53.1332 27.5938 76.3446 -0.0667777 85.6234 6.92885L89.7505 10.5291Z" fill="url(#paint20_linear_96_2667)"/>
<path d="M61.885 35.5554C67.7098 39.5069 88.1406 22.3544 87.5845 11.2609C87.4967 9.44615 86.8235 7.98263 85.6234 6.9289L89.7505 10.5292C98.8829 19.6908 75.7592 40.6191 67.4757 39.7118C66.9196 39.6532 66.3342 39.419 66.0122 39.1556L61.885 35.5554Z" fill="url(#paint21_linear_96_2667)"/>
<path d="M76.052 2.12845C68.5295 -0.154639 51.9332 25.3106 63.817 37.2822L58.7239 35.3504C47.7182 30.9598 59.7776 -3.08168 70.9296 0.225876L76.052 2.12845Z" fill="url(#paint22_linear_96_2667)"/>
<path d="M58.724 35.3505C65.544 36.9896 78.6864 13.7782 74.2665 3.59208C73.5348 1.92367 72.4225 0.782121 70.9297 0.225984L76.052 2.12856C87.8187 7.54359 73.4762 35.2334 65.3976 37.2823C64.8414 37.4287 64.2268 37.4287 63.817 37.2823L58.724 35.3505Z" fill="url(#paint23_linear_96_2667)"/>
<path d="M22.3408 20.1591C28.0485 10.0316 60.3924 26.1303 55.5335 36.9311L53.1918 41.8485C53.426 24.9887 23.8043 18.2273 19.9992 25.1058L22.3408 20.1591Z" fill="url(#paint24_linear_96_2667)"/>
<path d="M53.1917 41.8485C53.0161 42.2582 52.5771 42.6973 52.0795 42.9607C44.8497 47.0879 15.2865 37.1652 19.9991 25.1058L22.3407 20.1591C21.6675 21.5933 21.6382 23.2032 22.2822 24.9009C26.1751 35.3212 51.7575 42.8729 55.5334 36.931L53.1917 41.8485Z" fill="url(#paint25_linear_96_2667)"/>
<path d="M31.9413 8.36313C40.898 0.957713 65.3973 27.506 56.9967 35.8773L53.0745 39.6532C59.2798 23.9643 34.0195 7.07523 28.019 12.139L31.9413 8.36313Z" fill="url(#paint26_linear_96_2667)"/>
<path d="M53.0746 39.6532C52.7526 39.9459 52.1672 40.18 51.6111 40.2679C43.3861 41.5557 19.3258 21.7397 28.0191 12.139L31.9414 8.3631C30.7998 9.47538 30.2144 10.9682 30.2144 12.7829C30.1559 23.9057 51.3769 40.0922 56.9969 35.8773L53.0746 39.6532Z" fill="url(#paint27_linear_96_2667)"/>
<path style="mix-blend-mode:multiply" d="M80.062 38.1018C81.3499 44.3657 73.5932 51.2735 62.7046 53.5566C51.816 55.8104 41.9226 52.5907 40.6347 46.3268C39.3175 40.063 47.1035 33.1551 57.9921 30.9013C68.8807 28.6182 78.7448 31.8672 80.062 38.1018Z" fill="url(#paint28_radial_96_2667)"/>
<path d="M40.8981 24.1399C43.5617 20.8909 61.4752 33.9455 59.075 37.4872L55.3577 42.6974C52.0209 36.2871 36.9759 29.555 37.4149 29.0281L40.8981 24.1399Z" fill="url(#paint29_linear_96_2667)"/>
<path d="M55.3578 42.6974C55.27 42.8144 55.0944 42.9608 54.8895 43.0193C52.0502 44.0438 34.9856 33.0089 37.415 29.0281L40.8982 24.1399C38.8786 26.9792 56.4115 37.6921 59.0751 37.4872L55.3578 42.6974Z" fill="url(#paint30_linear_96_2667)"/>
<path d="M58.8996 37.1359C55.592 34.5894 68.0027 16.2369 71.6322 18.52L76.9594 22.0617C70.6662 25.6327 64.4609 40.8826 63.9048 40.4435L58.8996 37.1359Z" fill="url(#paint31_linear_96_2667)"/>
<path d="M76.9594 22.0616C77.1058 22.1494 77.2229 22.3251 77.3107 22.5007C78.423 25.3106 67.9734 42.7558 63.9048 40.4434L58.8996 37.1359C61.8267 39.0677 71.9249 21.1542 71.6322 18.5199L76.9594 22.0616Z" fill="url(#paint32_linear_96_2667)"/>
<path style="mix-blend-mode:multiply" d="M65.5437 36.1407C66.7145 41.7606 61.5044 47.6147 53.8941 49.2245C46.2838 50.8051 39.1418 47.5269 37.971 41.8777C36.8002 36.2577 42.0103 30.4037 49.6206 28.7938C57.2602 27.2132 64.3729 30.4915 65.5437 36.1407Z" fill="url(#paint33_radial_96_2667)"/>
<path style="mix-blend-mode:multiply" d="M81.6426 31.7209C82.8134 37.37 77.574 43.2241 69.9637 44.8047C62.3534 46.3853 55.2407 43.1071 54.0698 37.4579C52.8698 31.8379 58.1092 25.9839 65.7195 24.4033C73.3298 22.8227 80.4425 26.1009 81.6426 31.7209Z" fill="url(#paint34_radial_96_2667)"/>
<path d="M48.567 38.1603C49.2402 37.3993 67.8855 33.8576 68.6465 34.1796L72.4224 37.8384C63.7583 37.0773 46.4303 43.1656 46.7522 42.4924L48.567 38.1603Z" fill="url(#paint35_linear_96_2667)"/>
<path d="M72.4224 37.8385C72.5395 37.9556 72.5981 38.1312 72.5981 38.3068C72.481 40.9412 44.9961 47.7612 46.7523 42.4925L48.5671 38.1605C47.6304 40.4143 67.5343 35.3798 68.6466 34.1797L72.4224 37.8385Z" fill="url(#paint36_linear_96_2667)"/>
<path d="M82.4035 74.0751C82.6669 74.1337 83.106 74.1337 83.428 74.1629C83.4572 74.7776 83.6036 75.363 83.8377 75.8606C83.5645 75.724 83.3206 75.5582 83.106 75.363C82.7547 75.0118 82.5206 74.5435 82.4035 74.0751ZM82.4035 72.8458C82.6962 72.8165 83.0767 72.758 83.428 72.7287C83.3987 73.1677 83.3694 73.6653 83.428 74.1629C83.106 74.1337 82.6669 74.1337 82.4035 74.0751C82.3157 73.6653 82.3157 73.2556 82.4035 72.8458ZM83.106 71.5871C83.3206 71.3725 83.5645 71.1969 83.8377 71.0603C83.6328 71.4701 83.4865 72.0847 83.428 72.7287C83.0767 72.758 82.6962 72.8165 82.4035 72.8458C82.5206 72.3482 82.784 71.9384 83.106 71.5871ZM83.428 74.1629C84.189 74.28 84.9793 74.3093 85.7696 74.28C85.7403 74.924 85.7111 75.5387 85.6525 76.0655C85.0378 76.2119 84.3939 76.1533 83.8377 75.8606C83.6036 75.363 83.4572 74.7776 83.428 74.1629ZM83.428 72.7287C84.2183 72.6702 84.9793 72.6409 85.7403 72.6701C85.7696 73.1677 85.7696 73.7239 85.7696 74.28C84.9793 74.3093 84.189 74.28 83.428 74.1629C83.3694 73.6653 83.3987 73.1677 83.428 72.7287ZM83.8377 71.0603C84.3939 70.7968 85.0378 70.7383 85.6525 70.8847C85.7111 71.353 85.711 72.0262 85.7403 72.6701C84.9793 72.6409 84.2183 72.6702 83.428 72.7287C83.4865 72.0847 83.6328 71.4701 83.8377 71.0603ZM85.7696 74.28C86.3257 74.2215 87.0867 74.1629 87.6136 74.0751C87.4965 74.5435 87.2331 75.0118 86.8819 75.363C86.5599 75.685 86.1208 75.9484 85.6525 76.0655C85.7111 75.5387 85.7403 74.924 85.7696 74.28ZM85.7403 72.6701C86.3647 72.7092 86.9892 72.7677 87.6136 72.8458C87.7014 73.2556 87.7014 73.6653 87.6136 74.0751C87.0867 74.1629 86.3257 74.2215 85.7696 74.28C85.7696 73.7239 85.7696 73.1677 85.7403 72.6701ZM85.6525 70.8847C86.1208 71.0017 86.5599 71.2359 86.8819 71.5871C87.2331 71.9384 87.4965 72.3482 87.6136 72.8458C86.9892 72.7677 86.3647 72.7092 85.7403 72.6701C85.711 72.0262 85.7111 71.353 85.6525 70.8847Z" fill="url(#paint37_linear_96_2667)"/>
<path d="M131.753 84.9052C132.017 84.9638 132.427 84.9638 132.749 84.9931C132.807 85.5785 132.924 86.1931 133.188 86.6907C132.914 86.5541 132.671 86.3785 132.456 86.1639C132.105 85.8126 131.841 85.3736 131.753 84.9052ZM131.753 83.6759C132.046 83.6173 132.397 83.5588 132.778 83.5295C132.719 83.9979 132.719 84.4955 132.749 84.9931C132.427 84.9638 132.017 84.9638 131.753 84.9052C131.636 84.4954 131.636 84.0857 131.753 83.6759ZM132.456 82.388C132.671 82.1928 132.914 82.027 133.188 81.8904C132.983 82.3002 132.836 82.9149 132.778 83.5295C132.397 83.5588 132.046 83.6173 131.753 83.6759C131.87 83.1783 132.105 82.7392 132.456 82.388ZM132.749 84.9931C133.539 85.0809 134.329 85.1394 135.09 85.0809C135.09 85.7248 135.032 86.3688 135.002 86.8664C134.388 87.0127 133.744 86.9542 133.188 86.6907C132.924 86.1931 132.807 85.5785 132.749 84.9931ZM132.778 83.5295C133.539 83.471 134.329 83.471 135.09 83.5003C135.119 83.9979 135.119 84.554 135.09 85.0809C134.329 85.1394 133.539 85.0809 132.749 84.9931C132.719 84.4955 132.719 83.9979 132.778 83.5295ZM133.188 81.8904C133.744 81.6269 134.388 81.5391 135.002 81.6855C135.032 82.1831 135.061 82.8563 135.09 83.5003C134.329 83.471 133.539 83.471 132.778 83.5295C132.836 82.9149 132.983 82.3002 133.188 81.8904ZM135.09 85.0809C135.646 85.0516 136.437 84.993 136.934 84.9052C136.817 85.3736 136.583 85.8126 136.232 86.1639C135.88 86.5151 135.471 86.7493 135.002 86.8664C135.032 86.3688 135.09 85.7248 135.09 85.0809ZM135.09 83.5003C135.695 83.5198 136.31 83.5783 136.934 83.6759C137.022 84.0857 137.022 84.4954 136.934 84.9052C136.437 84.993 135.646 85.0516 135.09 85.0809C135.119 84.554 135.119 83.9979 135.09 83.5003ZM135.002 81.6855C135.471 81.8318 135.88 82.066 136.232 82.388C136.554 82.7392 136.817 83.1783 136.934 83.6759C136.31 83.5783 135.695 83.5198 135.09 83.5003C135.061 82.8563 135.032 82.1831 135.002 81.6855Z" fill="url(#paint38_linear_96_2667)"/>
<path d="M0.0658584 92.1058C0.329292 92.1644 0.768348 92.1643 1.09032 92.1936C1.11959 92.8083 1.26595 93.3937 1.50012 93.8913C1.22693 93.7547 0.983005 93.5888 0.768355 93.3937C0.41711 93.0425 0.18294 92.5741 0.0658584 92.1058ZM0.0658584 90.8764C0.358563 90.8472 0.739078 90.7886 1.09032 90.7594C1.06105 91.1984 1.03178 91.696 1.09032 92.1936C0.768348 92.1643 0.329292 92.1644 0.0658584 92.1058C-0.0219528 91.696 -0.0219528 91.2862 0.0658584 90.8764ZM0.768355 89.6178C0.983005 89.4032 1.22693 89.2276 1.50012 89.091C1.29522 89.5007 1.14886 90.1154 1.09032 90.7594C0.739078 90.7886 0.358563 90.8472 0.0658584 90.8764C0.18294 90.3789 0.446381 89.9691 0.768355 89.6178ZM1.09032 92.1936C1.85135 92.2814 2.64165 92.34 3.43196 92.2814C3.40269 92.9546 3.37341 93.5693 3.31487 94.0962C2.70019 94.2425 2.05625 94.184 1.50012 93.8913C1.26595 93.3937 1.11959 92.8083 1.09032 92.1936ZM1.09032 90.7594C1.88062 90.7008 2.64166 90.6716 3.40269 90.7008C3.43196 91.1984 3.43196 91.7546 3.43196 92.2814C2.64165 92.34 1.85135 92.2814 1.09032 92.1936C1.03178 91.696 1.06105 91.1984 1.09032 90.7594ZM1.50012 89.091C2.05625 88.8275 2.70019 88.769 3.31487 88.9153C3.37341 89.3837 3.37342 90.0569 3.40269 90.7008C2.64166 90.6716 1.88062 90.7008 1.09032 90.7594C1.14886 90.1154 1.29522 89.5007 1.50012 89.091ZM3.43196 92.2814C3.98809 92.2522 4.74913 92.1936 5.24672 92.1058C5.15891 92.5741 4.89547 93.0425 4.54423 93.3937C4.22225 93.7157 3.78319 93.9791 3.31487 94.0962C3.37341 93.5693 3.40269 92.9546 3.43196 92.2814ZM3.40269 90.7008C4.02713 90.7399 4.6418 90.7984 5.24672 90.8764C5.36381 91.2862 5.36381 91.696 5.24672 92.1058C4.74913 92.1936 3.98809 92.2522 3.43196 92.2814C3.43196 91.7546 3.43196 91.1984 3.40269 90.7008ZM3.31487 88.9153C3.78319 89.0324 4.22225 89.2666 4.54423 89.6178C4.89547 89.9691 5.12964 90.3789 5.24672 90.8764C4.6418 90.7984 4.02713 90.7399 3.40269 90.7008C3.37342 90.0569 3.37341 89.3837 3.31487 88.9153Z" fill="url(#paint39_linear_96_2667)"/>
<path d="M115.567 31.3989C115.801 31.4575 116.24 31.4575 116.562 31.4868C116.621 32.1014 116.738 32.6868 116.972 33.1844C116.718 33.0674 116.484 32.9015 116.269 32.6868C115.918 32.3356 115.655 31.8673 115.567 31.3989ZM115.567 30.1696C115.86 30.1403 116.211 30.0818 116.591 30.0525C116.533 30.4916 116.533 30.9892 116.562 31.4868C116.24 31.4575 115.801 31.4575 115.567 31.3989C115.45 30.9892 115.45 30.5794 115.567 30.1696ZM116.269 28.911C116.484 28.6963 116.718 28.5207 116.972 28.3841C116.767 28.8231 116.65 29.4086 116.591 30.0525C116.211 30.0818 115.86 30.1403 115.567 30.1696C115.684 29.7013 115.918 29.2622 116.269 28.911ZM116.562 31.4868C117.352 31.6038 118.143 31.6331 118.904 31.6038C118.904 32.2478 118.845 32.8625 118.787 33.3893C118.201 33.5357 117.557 33.4771 116.972 33.1844C116.738 32.6868 116.621 32.1014 116.562 31.4868ZM116.591 30.0525C117.352 29.994 118.143 29.9647 118.904 29.994C118.904 30.4916 118.933 31.0477 118.904 31.6038C118.143 31.6331 117.352 31.6038 116.562 31.4868C116.533 30.9892 116.533 30.4916 116.591 30.0525ZM116.972 28.3841C117.557 28.1207 118.201 28.0621 118.787 28.2085C118.845 28.6768 118.874 29.35 118.904 29.994C118.143 29.9647 117.352 29.994 116.591 30.0525C116.65 29.4086 116.767 28.8231 116.972 28.3841ZM118.904 31.6038C119.46 31.5453 120.25 31.4867 120.748 31.3989C120.631 31.8673 120.396 32.3356 120.045 32.6868C119.694 33.0088 119.284 33.2722 118.787 33.3893C118.845 32.8625 118.904 32.2478 118.904 31.6038ZM118.904 29.994C119.509 30.033 120.123 30.0915 120.748 30.1696C120.836 30.5794 120.836 30.9892 120.748 31.3989C120.25 31.4867 119.46 31.5453 118.904 31.6038C118.933 31.0477 118.904 30.4916 118.904 29.994ZM118.787 28.2085C119.284 28.3255 119.694 28.5597 120.045 28.911C120.367 29.2622 120.631 29.7013 120.748 30.1696C120.123 30.0915 119.509 30.033 118.904 29.994C118.874 29.35 118.845 28.6768 118.787 28.2085Z" fill="url(#paint40_linear_96_2667)"/>
<path d="M4.22224 41.7021C4.48568 41.7606 4.92472 41.7606 5.21743 41.7899C5.27597 42.4046 5.39305 42.99 5.65648 43.4876C5.38329 43.351 5.13937 43.1851 4.92472 42.99C4.57348 42.6095 4.33933 42.1704 4.22224 41.7021ZM4.22224 40.4727C4.51495 40.4434 4.89546 40.3556 5.24671 40.3556C5.21744 40.7947 5.18816 41.2923 5.21743 41.7899C4.92472 41.7606 4.48568 41.7606 4.22224 41.7021C4.13443 41.2923 4.13443 40.8825 4.22224 40.4727ZM4.92472 39.2141C5.13937 38.9994 5.38329 38.8238 5.65648 38.6872C5.45159 39.097 5.30525 39.7117 5.24671 40.3556C4.89546 40.3556 4.51495 40.4434 4.22224 40.4727C4.33933 39.9751 4.60275 39.5361 4.92472 39.2141ZM5.21743 41.7899C6.00773 41.8777 6.79804 41.9362 7.58834 41.8777C7.55907 42.5509 7.52979 43.1656 7.47125 43.6925C6.85657 43.8388 6.21262 43.751 5.65648 43.4876C5.39305 42.99 5.27597 42.4046 5.21743 41.7899ZM5.24671 40.3556C6.03701 40.2971 6.79803 40.2678 7.55906 40.2971C7.58833 40.7947 7.58834 41.3508 7.58834 41.8777C6.79804 41.9362 6.00773 41.8777 5.21743 41.7899C5.18816 41.2923 5.21744 40.7947 5.24671 40.3556ZM5.65648 38.6872C6.21262 38.4238 6.85657 38.3652 7.47125 38.5116C7.52979 38.9799 7.52979 39.6531 7.55906 40.2971C6.79803 40.2678 6.03701 40.2971 5.24671 40.3556C5.30525 39.7117 5.45159 39.097 5.65648 38.6872ZM7.58834 41.8777C8.14448 41.8484 8.90551 41.7899 9.40311 41.7021C9.3153 42.1704 9.05186 42.6095 8.70061 42.99C8.37864 43.3119 7.93958 43.5461 7.47125 43.6925C7.52979 43.1656 7.55907 42.5509 7.58834 41.8777ZM7.55906 40.2971C8.1835 40.3361 8.79819 40.3947 9.40311 40.4727C9.52019 40.8825 9.52019 41.2923 9.40311 41.7021C8.90551 41.7899 8.14448 41.8484 7.58834 41.8777C7.58834 41.3508 7.58833 40.7947 7.55906 40.2971ZM7.47125 38.5116C7.93958 38.6287 8.37864 38.8628 8.70061 39.2141C9.05186 39.5361 9.28603 39.9751 9.40311 40.4727C8.79819 40.3947 8.1835 40.3361 7.55906 40.2971C7.52979 39.6531 7.52979 38.9799 7.47125 38.5116Z" fill="url(#paint41_linear_96_2667)"/>
<defs>
<linearGradient id="paint0_linear_96_2667" x1="80.5596" y1="38.3653" x2="125.109" y2="97.8135" gradientUnits="userSpaceOnUse">
<stop stop-color="#9BC8EB"/>
<stop offset="1" stop-color="#CFCBFF"/>
</linearGradient>
<linearGradient id="paint1_linear_96_2667" x1="-63.2459" y1="134.138" x2="38.8493" y2="57.5667" gradientUnits="userSpaceOnUse">
<stop stop-color="#CFCBFF"/>
<stop offset="1" stop-color="#9BC8EB"/>
</linearGradient>
<linearGradient id="paint2_linear_96_2667" x1="71.6614" y1="85.2273" x2="71.6614" y2="66.3771" gradientUnits="userSpaceOnUse">
<stop stop-color="#9882BB"/>
<stop offset="1" stop-color="#9BC8EB"/>
</linearGradient>
<radialGradient id="paint3_radial_96_2667" cx="0" cy="0" r="1" gradientUnits="userSpaceOnUse" gradientTransform="translate(75.3789 115.259) scale(2.45872 2.45871)">
<stop stop-color="#582D88"/>
<stop offset="1" stop-color="#FEFEFE"/>
</radialGradient>
<radialGradient id="paint4_radial_96_2667" cx="0" cy="0" r="1" gradientUnits="userSpaceOnUse" gradientTransform="translate(88.6089 116.605) scale(2.45872 2.45871)">
<stop stop-color="#582D88"/>
<stop offset="1" stop-color="#FEFEFE"/>
</radialGradient>
<radialGradient id="paint5_radial_96_2667" cx="0" cy="0" r="1" gradientUnits="userSpaceOnUse" gradientTransform="translate(32.9074 106.156) scale(2.45871)">
<stop stop-color="#582D88"/>
<stop offset="1" stop-color="#FEFEFE"/>
</radialGradient>
<radialGradient id="paint6_radial_96_2667" cx="0" cy="0" r="1" gradientUnits="userSpaceOnUse" gradientTransform="translate(42.0104 108.878) scale(2.45871)">
<stop stop-color="#582D88"/>
<stop offset="1" stop-color="#FEFEFE"/>
</radialGradient>
<linearGradient id="paint7_linear_96_2667" x1="18.7113" y1="128.606" x2="71.7786" y2="88.7983" gradientUnits="userSpaceOnUse">
<stop stop-color="#9BC8EB"/>
<stop offset="1" stop-color="#4E489E"/>
</linearGradient>
<linearGradient id="paint8_linear_96_2667" x1="-25.1944" y1="115.99" x2="26.263" y2="77.412" gradientUnits="userSpaceOnUse">
<stop stop-color="#9BC8EB"/>
<stop offset="1" stop-color="#4E489E"/>
</linearGradient>
<linearGradient id="paint9_linear_96_2667" x1="-28.4728" y1="105.629" x2="65.1047" y2="-37.1524" gradientUnits="userSpaceOnUse">
<stop stop-color="#9BC8EB"/>
<stop offset="1" stop-color="#E8DAFF"/>
</linearGradient>
<linearGradient id="paint10_linear_96_2667" x1="64.1388" y1="3.65056" x2="100.815" y2="27.6816" gradientUnits="userSpaceOnUse">
<stop stop-color="#9BC8EB"/>
<stop offset="1" stop-color="#EFE6FF"/>
</linearGradient>
<linearGradient id="paint11_linear_96_2667" x1="-8.53962" y1="75.1874" x2="19.0916" y2="33.038" gradientUnits="userSpaceOnUse">
<stop stop-color="#9882BB"/>
<stop offset="1" stop-color="#9BC8EB"/>
</linearGradient>
<radialGradient id="paint12_radial_96_2667" cx="0" cy="0" r="1" gradientUnits="userSpaceOnUse" gradientTransform="translate(26.0288 59.4399) scale(2.48799 2.48798)">
<stop stop-color="#582D88"/>
<stop offset="1" stop-color="#FEFEFE"/>
</radialGradient>
<radialGradient id="paint13_radial_96_2667" cx="0" cy="0" r="1" gradientUnits="userSpaceOnUse" gradientTransform="translate(37.2979 58.357) scale(2.48799)">
<stop stop-color="#582D88"/>
<stop offset="1" stop-color="#FEFEFE"/>
</radialGradient>
<radialGradient id="paint14_radial_96_2667" cx="0" cy="0" r="1" gradientUnits="userSpaceOnUse" gradientTransform="translate(71.9833 53.1175) scale(2.48799)">
<stop stop-color="#582D88"/>
<stop offset="1" stop-color="#FEFEFE"/>
</radialGradient>
<radialGradient id="paint15_radial_96_2667" cx="0" cy="0" r="1" gradientUnits="userSpaceOnUse" gradientTransform="translate(84.8331 49.9563) scale(2.48799 2.48799)">
<stop stop-color="#582D88"/>
<stop offset="1" stop-color="#FEFEFE"/>
</radialGradient>
<linearGradient id="paint16_linear_96_2667" x1="-6.54927" y1="89.8813" x2="28.6923" y2="36.0822" gradientUnits="userSpaceOnUse">
<stop stop-color="#9BC8EB"/>
<stop offset="1" stop-color="#4E489E"/>
</linearGradient>
<linearGradient id="paint17_linear_96_2667" x1="36.9466" y1="92.8375" x2="73.3005" y2="37.3408" gradientUnits="userSpaceOnUse">
<stop stop-color="#9BC8EB"/>
<stop offset="1" stop-color="#4E489E"/>
</linearGradient>
<linearGradient id="paint18_linear_96_2667" x1="32.0292" y1="5.14339" x2="68.0026" y2="28.7061" gradientUnits="userSpaceOnUse">
<stop stop-color="#9BC8EB"/>
<stop offset="1" stop-color="#4E489E"/>
</linearGradient>
<linearGradient id="paint19_linear_96_2667" x1="112.084" y1="21.4762" x2="32.0877" y2="55.3128" gradientUnits="userSpaceOnUse">
<stop stop-color="#9BC8EB"/>
<stop offset="1" stop-color="#4E489E"/>
</linearGradient>
<linearGradient id="paint20_linear_96_2667" x1="60.2459" y1="26.8327" x2="78.1301" y2="4.55793" gradientUnits="userSpaceOnUse">
<stop stop-color="#433896"/>
<stop offset="0.5" stop-color="#5F5BA8"/>
<stop offset="1" stop-color="#433896"/>
</linearGradient>
<linearGradient id="paint21_linear_96_2667" x1="97.1559" y1="15.0661" x2="75.2616" y2="48.4929" gradientUnits="userSpaceOnUse">
<stop offset="0.1" stop-color="#5E5EA9"/>
<stop offset="0.3" stop-color="#4E489E"/>
<stop offset="0.5" stop-color="#5E5EA9"/>
<stop offset="0.8" stop-color="#4E489E"/>
<stop offset="1" stop-color="#5E5EA9"/>
</linearGradient>
<linearGradient id="paint22_linear_96_2667" x1="53.3674" y1="28.6182" x2="63.0852" y2="-0.857125" gradientUnits="userSpaceOnUse">
<stop stop-color="#2F2772"/>
<stop offset="0.5" stop-color="#5F5BA8"/>
<stop offset="1" stop-color="#362C82"/>
</linearGradient>
<linearGradient id="paint23_linear_96_2667" x1="83.4867" y1="1.8944" x2="74.4421" y2="41.8778" gradientUnits="userSpaceOnUse">
<stop offset="0.1" stop-color="#5E5EA9"/>
<stop offset="0.3" stop-color="#4E489E"/>
<stop offset="0.5" stop-color="#5E5EA9"/>
<stop offset="0.8" stop-color="#4E489E"/>
<stop offset="1" stop-color="#5E5EA9"/>
</linearGradient>
<linearGradient id="paint24_linear_96_2667" x1="54.2748" y1="28.5597" x2="27.7558" y2="14.627" gradientUnits="userSpaceOnUse">
<stop stop-color="#2F2772"/>
<stop offset="0.5" stop-color="#5F5BA8"/>
<stop offset="1" stop-color="#362C82"/>
</linearGradient>
<linearGradient id="paint25_linear_96_2667" x1="14.3792" y1="32.921" x2="45.1131" y2="53.0883" gradientUnits="userSpaceOnUse">
<stop offset="0.1" stop-color="#5E5EA9"/>
<stop offset="0.3" stop-color="#4E489E"/>
<stop offset="0.5" stop-color="#5E5EA9"/>
<stop offset="0.8" stop-color="#4E489E"/>
<stop offset="1" stop-color="#5E5EA9"/>
</linearGradient>
<linearGradient id="paint26_linear_96_2667" x1="58.1383" y1="26.9791" x2="39.4345" y2="5.78733" gradientUnits="userSpaceOnUse">
<stop stop-color="#433896"/>
<stop offset="0.5" stop-color="#5F5BA8"/>
<stop offset="1" stop-color="#433896"/>
</linearGradient>
<linearGradient id="paint27_linear_96_2667" x1="20.7308" y1="17.2028" x2="43.8837" y2="49.1953" gradientUnits="userSpaceOnUse">
<stop offset="0.1" stop-color="#5E5EA9"/>
<stop offset="0.3" stop-color="#4E489E"/>
<stop offset="0.5" stop-color="#5E5EA9"/>
<stop offset="0.8" stop-color="#4E489E"/>
<stop offset="1" stop-color="#5E5EA9"/>
</linearGradient>
<radialGradient id="paint28_radial_96_2667" cx="0" cy="0" r="1" gradientUnits="userSpaceOnUse" gradientTransform="translate(60.3337 42.229) scale(19.0258 19.0258)">
<stop stop-color="#582D88"/>
<stop offset="1" stop-color="#FEFEFE"/>
</radialGradient>
<linearGradient id="paint29_linear_96_2667" x1="58.6945" y1="33.3894" x2="44.2349" y2="22.1788" gradientUnits="userSpaceOnUse">
<stop stop-color="#2A2369"/>
<stop offset="0.5" stop-color="#5F5BA8"/>
<stop offset="1" stop-color="#312978"/>
</linearGradient>
<linearGradient id="paint30_linear_96_2667" x1="43.0057" y1="23.4374" x2="63.4364" y2="38.0726" gradientUnits="userSpaceOnUse">
<stop offset="0.1" stop-color="#5E5EA9"/>
<stop offset="0.3" stop-color="#4E489E"/>
<stop offset="0.5" stop-color="#5E5EA9"/>
<stop offset="0.8" stop-color="#4E489E"/>
<stop offset="1" stop-color="#5E5EA9"/>
</linearGradient>
<linearGradient id="paint31_linear_96_2667" x1="67.5929" y1="18.9883" x2="56.8213" y2="33.9162" gradientUnits="userSpaceOnUse">
<stop stop-color="#433896"/>
<stop offset="0.5" stop-color="#5F5BA8"/>
<stop offset="1" stop-color="#150D3D"/>
</linearGradient>
<linearGradient id="paint32_linear_96_2667" x1="58.1093" y1="35.1162" x2="72.1298" y2="14.1001" gradientUnits="userSpaceOnUse">
<stop offset="0.1" stop-color="#5E5EA9"/>
<stop offset="0.3" stop-color="#4E489E"/>
<stop offset="0.5" stop-color="#5E5EA9"/>
<stop offset="0.8" stop-color="#4E489E"/>
<stop offset="1" stop-color="#5E5EA9"/>
</linearGradient>
<radialGradient id="paint33_radial_96_2667" cx="0" cy="0" r="1" gradientUnits="userSpaceOnUse" gradientTransform="translate(51.7574 39.0092) scale(13.1424 13.1424)">
<stop stop-color="#582D88"/>
<stop offset="1" stop-color="#FEFEFE"/>
</radialGradient>
<radialGradient id="paint34_radial_96_2667" cx="0" cy="0" r="1" gradientUnits="userSpaceOnUse" gradientTransform="translate(67.8562 34.5894) scale(13.1424 13.1424)">
<stop stop-color="#582D88"/>
<stop offset="1" stop-color="#FEFEFE"/>
</radialGradient>
<linearGradient id="paint35_linear_96_2667" x1="68.9099" y1="32.7746" x2="46.079" y2="36.4919" gradientUnits="userSpaceOnUse">
<stop stop-color="#433896"/>
<stop offset="0.5" stop-color="#5F5BA8"/>
<stop offset="1" stop-color="#433896"/>
</linearGradient>
<linearGradient id="paint36_linear_96_2667" x1="46.9279" y1="37.3702" x2="76.6667" y2="31.3405" gradientUnits="userSpaceOnUse">
<stop offset="0.1" stop-color="#5E5EA9"/>
<stop offset="0.3" stop-color="#4E489E"/>
<stop offset="0.5" stop-color="#5E5EA9"/>
<stop offset="0.8" stop-color="#4E489E"/>
<stop offset="1" stop-color="#5E5EA9"/>
</linearGradient>
<linearGradient id="paint37_linear_96_2667" x1="83.4572" y1="72.7287" x2="85.7696" y2="74.2507" gradientUnits="userSpaceOnUse">
<stop stop-color="#D4FFFF"/>
<stop offset="1" stop-color="#477EFF"/>
</linearGradient>
<linearGradient id="paint38_linear_96_2667" x1="132.778" y1="83.5295" x2="135.09" y2="85.0808" gradientUnits="userSpaceOnUse">
<stop stop-color="#D4FFFF"/>
<stop offset="1" stop-color="#477EFF"/>
</linearGradient>
<linearGradient id="paint39_linear_96_2667" x1="1.11959" y1="90.7594" x2="3.43196" y2="92.2814" gradientUnits="userSpaceOnUse">
<stop stop-color="#D4FFFF"/>
<stop offset="1" stop-color="#477EFF"/>
</linearGradient>
<linearGradient id="paint40_linear_96_2667" x1="116.591" y1="30.0525" x2="118.904" y2="31.5746" gradientUnits="userSpaceOnUse">
<stop stop-color="#D4FFFF"/>
<stop offset="1" stop-color="#477EFF"/>
</linearGradient>
<linearGradient id="paint41_linear_96_2667" x1="5.27598" y1="40.3556" x2="7.58834" y2="41.8777" gradientUnits="userSpaceOnUse">
<stop stop-color="#D4FFFF"/>
<stop offset="1" stop-color="#477EFF"/>
</linearGradient>
</defs>
</svg>
