<svg width="24" height="33" viewBox="0 0 24 33" fill="none" xmlns="http://www.w3.org/2000/svg">
<path d="M12 0C8.81838 0.00317686 5.76797 1.26848 3.51823 3.51823C1.26848 5.76798 0.00317686 8.81838 0 12C0 20.318 10.832 31.246 11.292 31.708C11.3849 31.8011 11.4952 31.875 11.6167 31.9254C11.7382 31.9758 11.8685 32.0018 12 32.0018C12.1315 32.0018 12.2618 31.9758 12.3833 31.9254C12.5048 31.875 12.6151 31.8011 12.708 31.708C13.168 31.246 24 20.318 24 12C23.9968 8.81838 22.7315 5.76798 20.4818 3.51823C18.232 1.26848 15.1816 0.00317686 12 0V0Z" fill="black"/>
<path d="M12 18C15.3137 18 18 15.3137 18 12C18 8.68629 15.3137 6 12 6C8.68629 6 6 8.68629 6 12C6 15.3137 8.68629 18 12 18Z" fill="#FAFAFA"/>
</svg>
