<svg width="43" height="32" viewBox="0 0 43 32" fill="none" xmlns="http://www.w3.org/2000/svg">
<path d="M26.5549 4.49591H16.0607V4.39507L16.2312 2.79664L16.4651 0.665733C16.4935 0.478005 16.5891 0.306985 16.7342 0.184532C16.8793 0.0620791 17.0639 -0.00345551 17.2537 0.000140508H25.3609C25.5537 0.000249888 25.7396 0.0715339 25.8831 0.20032C26.0266 0.329106 26.1175 0.50633 26.1384 0.698005L26.3724 2.82891L26.5428 4.42734L26.5549 4.49591Z" fill="#F6C863"/>
<path d="M26.5441 4.39506H16.0711L16.2415 2.80268H26.3736L26.5441 4.39506Z" fill="#EAB54E"/>
<path d="M35.8402 10.574H39.6865V12.2884H35.8402V10.574Z" fill="#EAB54E"/>
<path d="M40.9046 8.86966H39.8245C38.8799 8.86966 38.1142 9.63519 38.1142 10.5795C38.1142 11.5239 38.8799 12.2894 39.8245 12.2894H40.9046C41.8492 12.2894 42.615 11.5239 42.615 10.5795C42.615 9.63519 41.8492 8.86966 40.9046 8.86966Z" fill="#F6C863"/>
<path d="M2.9294 10.574H6.77571V12.2884H2.9294V10.574Z" fill="#EAB54E"/>
<path d="M2.79044 8.86966H1.71037C0.765759 8.86966 0 9.63519 0 10.5795C0 11.5239 0.765759 12.2894 1.71037 12.2894H2.79044C3.73506 12.2894 4.50082 11.5239 4.50082 10.5795C4.50082 9.63519 3.73506 8.86966 2.79044 8.86966Z" fill="#F6C863"/>
<path d="M40.2341 25.213V31.6057C40.2342 31.7094 40.1933 31.8089 40.1204 31.8827C40.0476 31.9565 39.9486 31.9987 39.8449 32H35.7868C35.6831 31.9987 35.5841 31.9565 35.5112 31.8827C35.4383 31.8089 35.3975 31.7094 35.3975 31.6057V25.213H40.2341Z" fill="#414451"/>
<path d="M36.3193 26.8376H36.761V31.9808H36.3193V26.8376Z" fill="#373A44"/>
<path d="M37.5917 26.8376H38.0334V31.9808H37.5917V26.8376Z" fill="#373A44"/>
<path d="M38.8705 26.8376H39.3122V31.9808H38.8705V26.8376Z" fill="#373A44"/>
<path d="M7.21748 25.213V31.6057C7.21749 31.7094 7.17664 31.8089 7.10378 31.8827C7.03092 31.9565 6.93191 31.9987 6.82821 32H2.77012C2.66641 31.9987 2.56741 31.9565 2.49455 31.8827C2.42169 31.8089 2.38083 31.7094 2.38084 31.6057V25.213H7.21748Z" fill="#414451"/>
<path d="M3.30265 26.8376H3.74436V31.9808H3.30265V26.8376Z" fill="#373A44"/>
<path d="M4.57555 26.8376H5.01726V31.9808H4.57555V26.8376Z" fill="#373A44"/>
<path d="M5.85436 26.8376H6.29607V31.9808H5.85436V26.8376Z" fill="#373A44"/>
<path d="M40.2339 16.2154V25.7031C40.2339 26.1185 40.0689 26.5168 39.7752 26.8105C39.4815 27.1042 39.0831 27.2693 38.6677 27.2693H3.94701C3.53164 27.2693 3.13328 27.1042 2.83957 26.8105C2.54586 26.5168 2.38085 26.1185 2.38085 25.7031V16.2154C2.37955 15.8377 2.51577 15.4724 2.76407 15.1877L5.3861 12.1674L8.13923 4.85695C8.2716 4.48939 8.51393 4.1715 8.83329 3.9465C9.15266 3.7215 9.53357 3.6003 9.92423 3.59938H32.7873C33.1773 3.59994 33.5576 3.72109 33.8761 3.94622C34.1946 4.17136 34.4356 4.48946 34.5663 4.85695L37.2296 12.1704L39.8517 15.1908C40.1 15.4754 40.2362 15.8407 40.2349 16.2184L40.2339 16.2154Z" fill="#F6C863"/>
<path d="M30.2036 17.7069L29.767 20.2422C29.7547 20.3136 29.7176 20.3785 29.6623 20.4253C29.607 20.4721 29.5369 20.498 29.4644 20.4984H13.1625C13.09 20.498 13.0199 20.4721 12.9646 20.4253C12.9093 20.3785 12.8722 20.3136 12.8599 20.2422L12.4233 17.721C12.4152 17.677 12.417 17.6317 12.4285 17.5885C12.4401 17.5452 12.4611 17.5051 12.49 17.4709C12.519 17.4368 12.5551 17.4095 12.5959 17.391C12.6367 17.3725 12.681 17.3633 12.7258 17.364H29.9001C29.9437 17.3636 29.987 17.3726 30.0268 17.3904C30.0667 17.4083 30.1022 17.4345 30.1309 17.4674C30.1597 17.5002 30.181 17.5389 30.1933 17.5808C30.2057 17.6227 30.2089 17.6667 30.2026 17.7099L30.2036 17.7069Z" fill="#575B6D"/>
<path d="M37.4902 18.7829C37.491 19.3193 37.306 19.8395 36.9665 20.2547C36.6269 20.67 36.154 20.9548 35.6281 21.0606C35.1023 21.1664 34.556 21.0866 34.0823 20.8349C33.6086 20.5832 33.2368 20.1752 33.0302 19.6802C32.8236 19.1852 32.7949 18.6338 32.9491 18.1201C33.1032 17.6063 33.4307 17.1618 33.8757 16.8624C34.3207 16.5629 34.8557 16.4269 35.3897 16.4775C35.9237 16.5282 36.4237 16.7623 36.8044 17.1401C37.0213 17.3553 37.1935 17.6112 37.3112 17.8931C37.4289 18.1751 37.4897 18.4774 37.4902 18.7829Z" fill="#EEEFEE"/>
<path d="M35.9513 24.147C35.95 24.4327 35.8497 24.7091 35.6675 24.9291C35.4854 25.1492 35.2326 25.2993 34.9521 25.354C34.6717 25.4086 34.3811 25.3644 34.1296 25.2288C33.8782 25.0932 33.6815 24.8747 33.573 24.6104C33.4645 24.3461 33.451 24.0524 33.5348 23.7792C33.6185 23.5061 33.7944 23.2704 34.0323 23.1124C34.2703 22.9543 34.5557 22.8836 34.8399 22.9122C35.1241 22.9409 35.3896 23.0672 35.5912 23.2696C35.8226 23.5029 35.9521 23.8184 35.9513 24.147Z" fill="#EEEFEE"/>
<path d="M5.12411 18.7829C5.12325 19.3193 5.30833 19.8395 5.64784 20.2547C5.98734 20.67 6.46029 20.9548 6.98615 21.0606C7.51201 21.1664 8.05828 21.0866 8.53196 20.8349C9.00564 20.5832 9.37745 20.1752 9.58408 19.6802C9.79071 19.1852 9.81939 18.6338 9.66524 18.1201C9.51109 17.6063 9.18364 17.1618 8.73863 16.8624C8.29363 16.5629 7.75858 16.4269 7.22458 16.4775C6.69058 16.5282 6.19064 16.7623 5.80987 17.1401C5.59301 17.3553 5.4208 17.6112 5.30312 17.8931C5.18543 18.1751 5.1246 18.4774 5.12411 18.7829Z" fill="#EEEFEE"/>
<path d="M6.6639 24.147C6.6652 24.4327 6.76548 24.7091 6.94764 24.9291C7.12981 25.1492 7.38262 25.2993 7.66302 25.354C7.94343 25.4086 8.23411 25.3644 8.48556 25.2288C8.73702 25.0932 8.93372 24.8747 9.04217 24.6104C9.15062 24.3461 9.16412 24.0524 9.08038 23.7792C8.99663 23.5061 8.82081 23.2704 8.58285 23.1124C8.3449 22.9543 8.05951 22.8836 7.77527 22.9122C7.49103 22.9409 7.22552 23.0672 7.02393 23.2696C6.79254 23.5029 6.66307 23.8184 6.6639 24.147Z" fill="#EEEFEE"/>
<path d="M30.4117 25.0899V27.2683H12.2199V25.0899C12.2199 24.8824 12.3023 24.6833 12.4491 24.5366C12.5958 24.3898 12.7949 24.3074 13.0024 24.3074H29.6261C29.7294 24.3066 29.8318 24.3262 29.9274 24.3652C30.0231 24.4042 30.1101 24.4617 30.1834 24.5344C30.2567 24.6072 30.3149 24.6937 30.3546 24.7891C30.3943 24.8844 30.4147 24.9867 30.4147 25.0899H30.4117Z" fill="#575B6D"/>
<path d="M35.8342 12.9822H6.78109L9.63608 5.40757C9.65703 5.3398 9.69861 5.28025 9.75501 5.23722C9.81141 5.1942 9.87983 5.16985 9.95073 5.16755H32.8138C32.8796 5.16618 32.9442 5.18548 32.9985 5.22275C33.0528 5.26002 33.094 5.31337 33.1164 5.3753L35.8342 12.9822Z" fill="#69B0EE"/>
<path opacity="0.5" d="M20.7703 5.16756L16.7597 12.9822H15.491L19.4966 5.16756H20.7703Z" fill="#EEEFEE"/>
<path opacity="0.5" d="M26.917 5.16756L22.9094 12.9822H18.7242L22.7349 5.16756H26.917Z" fill="#EEEFEE"/>
</svg>
