<svg width="43" height="38" viewBox="0 0 43 38" fill="none" xmlns="http://www.w3.org/2000/svg">
<path d="M32.1706 10.5481C30.8857 10.0303 30.5144 9.71718 30.5144 9.15178C30.5144 8.6993 30.8554 8.17069 31.8166 8.17069C32.6668 8.17069 33.3189 8.50767 33.3247 8.51059C33.3933 8.54739 33.4702 8.567 33.5465 8.567C33.7325 8.567 33.8971 8.45382 33.9653 8.27863L34.1989 7.67851C34.2802 7.45982 34.1568 7.26928 33.9995 7.20094C33.476 6.9719 32.453 6.79464 32.4426 6.79281C32.4261 6.78989 32.3688 6.77759 32.3688 6.71021L32.3655 5.83963C32.3655 5.57746 32.1477 5.36401 31.8804 5.36401H31.4614C31.1942 5.36401 30.9766 5.57733 30.9766 5.83975L30.9777 6.75505C30.9777 6.82522 30.902 6.85568 30.8744 6.86213C29.583 7.17133 28.776 8.1222 28.776 9.3216C28.776 10.8168 30.0055 11.4925 31.3331 11.9996C32.3945 12.4185 32.8274 12.8432 32.8274 13.4661C32.8274 14.1439 32.2143 14.6174 31.3358 14.6174C30.5857 14.6174 29.5706 14.1394 29.5605 14.1346C29.4955 14.1036 29.4267 14.088 29.3559 14.088C29.1627 14.088 28.9945 14.2055 28.9272 14.3873L28.7042 14.9943C28.625 15.2209 28.747 15.4049 28.9032 15.4867C29.5267 15.8131 30.7331 16.0044 30.7868 16.0128C30.8012 16.0149 30.8746 16.0408 30.8746 16.1083V17.0196C30.8746 17.2817 31.0924 17.4952 31.3599 17.4952H31.7928C32.0605 17.4952 32.2782 17.2819 32.2782 17.0196V16.0605C32.2782 15.9709 32.3441 15.963 32.3576 15.9597C33.7333 15.649 34.5808 14.6372 34.5808 13.3668C34.5804 12.0619 33.8595 11.2187 32.1706 10.5481Z" fill="white"/>
<path d="M31.6297 0C25.3497 0 20.2592 5.1174 20.2592 11.4297C20.2592 17.7421 25.3497 22.8596 31.6297 22.8596C37.9095 22.8596 43.0002 17.7421 43.0002 11.4297C43.0002 5.1174 37.9095 0 31.6297 0ZM31.6297 20.2107C26.8051 20.2107 22.8943 16.2792 22.8943 11.4298C22.8943 6.58043 26.8051 2.64903 31.6297 2.64903C36.4542 2.64903 40.3649 6.58043 40.3649 11.4298C40.3649 16.2792 36.4542 20.2107 31.6297 20.2107Z" fill="white"/>
<path d="M40.6899 28.3987C38.272 29.7401 34.9465 30.9804 31.63 31.5033C28.6793 31.9685 23.1282 30.8467 23.1282 29.5218C23.1282 29.0197 27.9967 30.7588 30.9417 29.969C33.2 29.3634 32.8794 27.24 31.6511 26.9599C30.4299 26.6813 23.2753 24.0466 20.2193 23.9557C18.7797 23.913 15.2256 24.459 13.5058 24.7405C12.9166 24.8369 12.5472 24.8263 12.5104 25.393C12.3392 28.027 12.002 33.4132 11.8181 36.2267C11.8142 36.2862 11.8964 37.0856 12.5527 36.523C13.271 35.9073 14.2785 35.2248 15.2104 35.4373C16.6724 35.7707 29.3208 38.1 31.0654 37.6923C33.5613 37.1091 40.6265 32.9003 41.9812 31.5921C44.0808 29.5641 42.4486 27.4229 40.6899 28.3987Z" fill="white"/>
<path d="M9.02033 24.6377L2.39419 24.3095C1.88261 24.2842 1.36012 24.6717 1.23299 25.1704L0.0281562 36.166C-0.0988594 36.6648 0.216013 37.0892 0.727833 37.1091L8.07123 37.1083C8.58317 37.1282 9.03378 36.7244 9.07305 36.2111L9.8795 25.6171C9.91853 25.1039 9.53191 24.6631 9.02033 24.6377ZM5.11945 35.6516C4.10756 35.6516 3.28742 34.8271 3.28742 33.8101C3.28742 32.7929 4.10769 31.9685 5.11945 31.9685C6.13121 31.9685 6.95148 32.793 6.95148 33.8101C6.95148 34.8272 6.13133 35.6516 5.11945 35.6516Z" fill="white"/>
</svg>
