<svg width="29" height="93" viewBox="0 0 29 93" fill="none" xmlns="http://www.w3.org/2000/svg">
<path d="M28.0826 14C28.0826 6.26801 21.7961 0 14.0413 0C6.2865 0 0 6.26801 0 14V26C0 33.732 6.2865 40 14.0413 40C21.7961 40 28.0826 33.732 28.0826 26V14Z" fill="#3422F2"/>
<path d="M27.5811 14C27.5811 6.54416 21.5191 0.5 14.0413 0.5C6.56345 0.5 0.501465 6.54416 0.501465 14V26C0.501465 33.4558 6.56345 39.5 14.0413 39.5C21.5191 39.5 27.5811 33.4558 27.5811 26V14Z" stroke="#3422F2"/>
<path d="M28.0826 67C28.0826 59.268 21.7961 53 14.0413 53C6.2865 53 0 59.268 0 67V79C0 86.732 6.2865 93 14.0413 93C21.7961 93 28.0826 86.732 28.0826 79V67Z" fill="white"/>
<path d="M27.5811 67C27.5811 59.5442 21.5191 53.5 14.0413 53.5C6.56345 53.5 0.501465 59.5442 0.501465 67V79C0.501465 86.4558 6.56345 92.5 14.0413 92.5C21.5191 92.5 27.5811 86.4558 27.5811 79V67Z" stroke="#DCDAE3"/>
<path d="M14.543 42V50.615" stroke="#C8C7CC" stroke-width="2" stroke-miterlimit="10" stroke-linecap="round" stroke-linejoin="round" stroke-dasharray="1 3"/>
<path d="M14.2918 32.75C16.646 32.75 18.5544 30.8472 18.5544 28.5C18.5544 26.1528 16.646 24.25 14.2918 24.25C11.9377 24.25 10.0293 26.1528 10.0293 28.5C10.0293 30.8472 11.9377 32.75 14.2918 32.75Z" fill="white"/>
<path d="M14.2918 68.75C16.646 68.75 18.5544 66.8472 18.5544 64.5C18.5544 62.1528 16.646 60.25 14.2918 60.25C11.9377 60.25 10.0293 62.1528 10.0293 64.5C10.0293 66.8472 11.9377 68.75 14.2918 68.75Z" fill="black"/>
</svg>
