<svg width="22" height="23" viewBox="0 0 22 23" fill="none" xmlns="http://www.w3.org/2000/svg">
<path d="M11 0.00213935C5.05504 -0.115079 0.135738 4.59927 0 10.5438C0.0155117 13.5697 1.3554 16.4372 3.66664 18.3904V21.5437C3.66664 21.7969 3.87186 22.0021 4.12499 22.0021C4.21088 22.0021 4.29506 21.9779 4.36789 21.9324L6.92263 20.3365C8.22424 20.8344 9.60641 21.0882 11 21.0854C16.9449 21.2026 21.8642 16.4883 21.9999 10.5438C21.8642 4.59927 16.9449 -0.115079 11 0.00213935Z" fill="#2196F3"/>
<path d="M18.2416 7.51883C18.1052 7.33604 17.8552 7.28134 17.655 7.39048L12.8883 9.98922L9.92293 7.44638C9.74109 7.29049 9.46987 7.30085 9.30053 7.47023L3.80055 12.9702C3.6221 13.1497 3.62296 13.4399 3.80252 13.6184C3.94608 13.7611 4.16621 13.7927 4.34414 13.6962L9.11078 11.0975L12.0789 13.6412C12.2608 13.7971 12.532 13.7867 12.7013 13.6174L18.2013 8.11738C18.3616 7.9556 18.3788 7.70067 18.2416 7.51883Z" fill="#FAFAFA"/>
</svg>
