<svg width="26" height="24" viewBox="0 0 26 24" fill="none" xmlns="http://www.w3.org/2000/svg">
<path d="M6.31244 5.20507L5.07086 4.14006C4.68899 4.58502 4.34054 5.0576 4.02833 5.55392L5.4187 6.42296C5.68565 5.99517 5.98441 5.58805 6.31244 5.20507Z" fill="#474747"/>
<path d="M8.59447 3.22691L7.71407 1.8469C7.21879 2.16141 6.74754 2.51225 6.30421 2.89653L7.37547 4.12776C7.75908 3.79789 8.16652 3.49678 8.59447 3.22691Z" fill="#474747"/>
<path d="M24.6851 6.54405C23.3152 3.81948 20.9501 1.72596 18.0792 0.696885C15.2084 -0.332186 12.0517 -0.217996 9.26275 1.01582L9.92664 2.51074C11.7565 1.69667 13.7852 1.43766 15.7609 1.76583C17.7367 2.094 19.5726 2.99491 21.041 4.35682C22.5095 5.71873 23.5457 7.48172 24.0213 9.42711C24.4969 11.3725 24.3909 13.4147 23.7165 15.3004C23.0421 17.1861 21.8288 18.8324 20.2273 20.035C18.6258 21.2376 16.7065 21.9436 14.7074 22.0655C12.7082 22.1874 10.7173 21.7198 8.98153 20.7207C7.24574 19.7216 5.84146 18.235 4.94285 16.4452L3.47963 17.1768C4.1678 18.5858 5.12857 19.8444 6.30634 20.8798C7.4841 21.9151 8.8555 22.7067 10.3412 23.2086C11.8269 23.7106 13.3973 23.913 14.9618 23.8041C16.5262 23.6953 18.0535 23.2773 19.4553 22.5744C20.8571 21.8715 22.1057 20.8976 23.1287 19.7091C24.1516 18.5206 24.9288 17.1411 25.4151 15.6503C25.9015 14.1596 26.0874 12.5872 25.9621 11.0241C25.8368 9.46102 25.4027 7.93831 24.6851 6.54405Z" fill="#474747"/>
<path d="M4.90786 9.64785L3.93203 10.6215C4.02577 9.81448 4.21806 9.02195 4.5046 8.26167C4.56719 8.09443 4.63594 7.92822 4.70982 7.76303L3.20965 7.10842C3.12756 7.29721 3.0465 7.48908 2.97775 7.68094C2.60115 8.66965 2.36189 9.70532 2.26666 10.759L1.1595 9.65091L0 10.8042L3.03214 13.8361L6.06427 10.8042L4.90786 9.64785Z" fill="#474747"/>
<path d="M12.849 4.50027V12.6798H17.762V11.0443H14.4898V4.50027H12.849Z" fill="#474747"/>
<path d="M21.0289 11.0442H19.3933V12.6797H21.0289V11.0442Z" fill="#474747"/>
<path d="M14.4846 17.5871H12.849V19.2226H14.4846V17.5871Z" fill="#474747"/>
</svg>
