<svg width="19" height="19" viewBox="0 0 19 19" fill="none" xmlns="http://www.w3.org/2000/svg">
<path d="M9.50008 0C4.26174 0 0 4.17121 0 9.29827C0 14.4253 4.26174 18.5965 9.50008 18.5965C14.7384 18.5965 19.0002 14.4253 19.0002 9.29827C19.0002 4.17121 14.7384 0 9.50008 0ZM9.50008 16.618C5.3764 16.618 2.02126 13.3345 2.02126 9.29827C2.02126 5.262 5.3764 1.97851 9.50008 1.97851C13.6238 1.97851 16.9789 5.262 16.9789 9.29827C16.9789 13.3345 13.6238 16.618 9.50008 16.618Z" fill="#979797"/>
<path d="M14.4512 9.01129H10.1818V3.98701C10.1818 3.5642 9.83156 3.2214 9.39958 3.2214C8.9676 3.2214 8.61736 3.5642 8.61736 3.98701V9.77689C8.61736 10.1997 8.9676 10.5425 9.39958 10.5425H14.4512C14.8831 10.5425 15.2334 10.1997 15.2334 9.77689C15.2334 9.35409 14.8831 9.01129 14.4512 9.01129Z" fill="#979797"/>
</svg>
