<svg width="271" height="297" viewBox="0 0 271 297" fill="none" xmlns="http://www.w3.org/2000/svg">
<g filter="url(#filter0_d_11_2182)">
<path d="M115.837 244.462L115.88 242.573L115.884 242.408C115.844 241.161 115.692 239.919 115.432 238.698C115.046 237.637 113.712 237.128 112.609 236.886C112.459 236.714 112.274 236.576 112.067 236.481C111.859 236.386 111.633 236.337 111.405 236.336L108.436 236.262C108.064 236.248 107.699 236.359 107.399 236.578L106.964 236.567L105.644 236.534L105.171 235.29L104.721 235.278L104.873 236.516L96.9831 236.318C96.6936 236.084 96.3339 235.954 95.9616 235.948L88.7059 235.768C88.2946 235.751 87.8921 235.89 87.5789 236.158C86.697 236.266 85.3501 236.575 85.2365 237.467L85.1174 242.853L84.9984 248.242C85.0683 249.136 86.4048 249.512 87.2794 249.665C87.5799 249.948 87.9758 250.107 88.3885 250.112L95.6442 250.295C96.0157 250.309 96.381 250.197 96.6812 249.978L104.622 250.177L104.436 251.3L104.886 251.312L105.365 250.195L106.66 250.227L107.102 250.246C107.391 250.475 107.747 250.602 108.115 250.607L111.085 250.682C111.459 250.693 111.826 250.578 112.126 250.355C113.267 250.185 114.746 249.755 115.201 248.659C115.514 247.452 115.72 246.219 115.816 244.975L115.828 244.462L115.837 244.462Z" fill="white"/>
</g>
<path d="M87.9025 241.349C87.9025 240.796 87.4541 240.348 86.901 240.348C86.3479 240.348 85.8995 240.796 85.8995 241.349V244.354C85.8995 244.907 86.3479 245.355 86.901 245.355C87.4541 245.355 87.9025 244.907 87.9025 244.354V241.349Z" fill="#242E42"/>
<path d="M87.9025 238.345C87.9025 237.792 87.4541 237.343 86.901 237.343C86.3479 237.343 85.8995 237.792 85.8995 238.345V240.348C85.8995 240.901 86.3479 241.349 86.901 241.349C87.4541 241.349 87.9025 240.901 87.9025 240.348V238.345Z" fill="#F52D56"/>
<path d="M115.944 241.85C115.944 241.573 115.72 241.349 115.443 241.349C115.167 241.349 114.943 241.573 114.943 241.85V245.856C114.943 246.133 115.167 246.357 115.443 246.357C115.72 246.357 115.944 246.133 115.944 245.856V241.85Z" fill="#242E42"/>
<path d="M87.9025 245.355C87.9025 244.802 87.4541 244.354 86.901 244.354C86.3479 244.354 85.8995 244.802 85.8995 245.355V247.358C85.8995 247.911 86.3479 248.36 86.901 248.36C87.4541 248.36 87.9025 247.911 87.9025 247.358V245.355Z" fill="#F52D56"/>
<path d="M108.246 243.909H108.238C108.188 245.306 107.891 246.683 107.361 247.976C107.252 248.282 107.08 248.562 106.856 248.797C106.631 249.032 106.36 249.218 106.059 249.341H106.043C105.976 249.361 105.908 249.376 105.838 249.384C105.69 249.406 105.539 249.395 105.396 249.351L100.922 247.464C101.564 247.058 101.906 244.224 102.015 243.152C102.015 242.075 101.972 239.223 101.376 238.745L106.019 237.36C106.166 237.333 106.318 237.338 106.462 237.376C106.53 237.392 106.597 237.413 106.662 237.44L106.678 237.443C106.965 237.6 107.215 237.814 107.414 238.073C107.612 238.331 107.755 238.629 107.832 238.946C108.223 240.288 108.374 241.69 108.279 243.085H108.287C108.28 243.224 108.273 243.36 108.265 243.494C108.257 243.629 108.252 243.765 108.244 243.904L108.246 243.909Z" fill="#242E42"/>
<path d="M94.6084 238.696L94.315 244.32L94.1417 247.72L94.1307 247.933C93.2063 249.035 91.1172 248.978 89.7392 248.794L90.3361 237.279C91.7251 237.252 93.8082 237.423 94.6124 238.621L94.6084 238.696Z" fill="#242E42"/>
<path d="M94.1017 236.342H103.926C103.926 236.342 99.689 238.345 98.5393 238.345C97.3896 238.345 92.947 236.342 94.1017 236.342Z" fill="#242E42"/>
<path d="M94.1065 250.363H103.931C103.931 250.363 99.5496 248.36 98.3999 248.36C97.2502 248.36 92.9518 250.363 94.1065 250.363Z" fill="#242E42"/>
<g filter="url(#filter1_d_11_2182)">
<path d="M32.7247 91.3038L33.7271 89.6923L33.8146 89.552C34.4165 88.4519 34.9198 87.3006 35.3185 86.1117C35.5259 84.9964 34.6326 83.8749 33.802 83.1026C33.7602 82.8771 33.6707 82.6631 33.5395 82.4749C33.4083 82.2867 33.2385 82.1288 33.0413 82.0116L30.5107 80.4308C30.1965 80.2292 29.8235 80.1392 29.4519 80.1752L29.0818 79.9438L27.957 79.2405L28.1828 77.9229L27.8 77.6833L27.299 78.831L20.5751 74.6308C20.4443 74.2803 20.1998 73.9838 19.8806 73.7887L13.6964 69.9271C13.3491 69.7026 12.9299 69.6174 12.5225 69.6885C11.7042 69.3321 10.3812 68.9115 9.82763 69.6247L6.97362 74.2232L4.11864 78.8234C3.72251 79.6325 4.68607 80.6411 5.36492 81.2194C5.48029 81.6176 5.74128 81.9578 6.096 82.1724L12.2787 86.0367C12.5929 86.2384 12.9659 86.3285 13.3375 86.2923L20.1049 90.5199L19.3705 91.3966L19.7533 91.6362L20.7388 90.9149L21.8425 91.6043L22.2149 91.8461C22.3476 92.1916 22.5909 92.4835 22.9067 92.6764L25.4372 94.2572C25.7549 94.4585 26.1314 94.5463 26.5053 94.5064C27.5786 94.9423 29.0774 95.3253 30.0311 94.6095C30.9189 93.7255 31.7265 92.7645 32.4444 91.7378L32.7168 91.2995L32.7247 91.3038Z" fill="white"/>
</g>
<path d="M8.87947 73.1599C9.16434 72.6858 9.01094 72.0705 8.53683 71.7857C8.06273 71.5008 7.44746 71.6542 7.16259 72.1283L5.61518 74.7036C5.33031 75.1777 5.48371 75.793 5.95781 76.0779C6.43192 76.3628 7.04719 76.2094 7.33206 75.7352L8.87947 73.1599Z" fill="#242E42"/>
<path d="M10.4272 70.5846C10.7121 70.1105 10.5586 69.4952 10.0845 69.2103C9.61044 68.9255 8.99517 69.0789 8.7103 69.553L7.67869 71.2698C7.39382 71.7439 7.54722 72.3592 8.02133 72.6441C8.49543 72.929 9.1107 72.7756 9.39557 72.3015L10.4272 70.5846Z" fill="#F52D56"/>
<path d="M32.6579 88.0316C32.8003 87.7945 32.7236 87.4869 32.4866 87.3445C32.2495 87.202 31.9419 87.2787 31.7995 87.5158L29.7362 90.9496C29.5938 91.1866 29.6705 91.4942 29.9076 91.6367C30.1446 91.7791 30.4522 91.7024 30.5947 91.4654L32.6579 88.0316Z" fill="#242E42"/>
<path d="M6.81635 76.5937C7.10122 76.1196 6.94782 75.5044 6.47371 75.2195C5.99961 74.9346 5.38434 75.088 5.09947 75.5621L4.06786 77.279C3.78299 77.7531 3.93639 78.3684 4.4105 78.6533C4.8846 78.9381 5.49987 78.7847 5.78474 78.3106L6.81635 76.5937Z" fill="#F52D56"/>
<path d="M24.9986 85.8317L24.9917 85.8276C24.2298 86.9993 23.2663 88.0267 22.1459 88.8624C21.8948 89.0686 21.603 89.2197 21.2896 89.3058C20.9762 89.3918 20.6482 89.411 20.3269 89.3619L20.3132 89.3536C20.2452 89.3365 20.1789 89.3135 20.115 89.2848C19.9769 89.2276 19.8534 89.1402 19.7535 89.029L16.8897 85.1071C17.6494 85.0892 19.4022 82.8371 20.0482 81.9739C20.6027 81.0511 22.0348 78.5841 21.77 77.8677L26.4631 79.0717C26.6034 79.1236 26.7302 79.2062 26.8343 79.3134C26.8849 79.3622 26.9313 79.4151 26.973 79.4715L26.9852 79.4824C27.1501 79.7638 27.2544 80.0765 27.2915 80.4006C27.3285 80.7246 27.2975 81.0529 27.2004 81.3642C26.8441 82.7166 26.2521 83.9956 25.4514 85.1422L25.4583 85.1464C25.3806 85.2621 25.3044 85.3752 25.2285 85.4861C25.1525 85.597 25.078 85.7112 24.9995 85.8264L24.9986 85.8317Z" fill="#242E42"/>
<path d="M15.9939 74.3398L12.8462 79.0088L10.9465 81.834L10.8272 82.0112C9.46746 82.4794 7.70615 81.3545 6.61932 80.4876L13.0617 70.9247C14.2663 71.6169 15.9636 72.8366 16.036 74.2775L15.9939 74.3398Z" fill="#242E42"/>
<path d="M16.7724 72.0606L25.1937 77.1206C25.1937 77.1206 20.53 76.6551 19.5445 76.063C18.559 75.4709 15.7826 71.4659 16.7724 72.0606Z" fill="#242E42"/>
<path d="M9.55543 84.0814L17.9767 89.1414C17.9767 89.1414 15.2527 85.1679 14.2672 84.5757C13.2817 83.9836 8.56564 83.4866 9.55543 84.0814Z" fill="#242E42"/>
<g filter="url(#filter2_d_11_2182)">
<path d="M233.802 29.894L235.35 30.9794L235.485 31.0742C236.547 31.7332 237.664 32.2969 238.825 32.7587C239.923 33.0261 241.088 32.1989 241.901 31.4149C242.128 31.3857 242.346 31.3084 242.54 31.1882C242.735 31.068 242.901 30.9077 243.029 30.7179L244.74 28.2872C244.957 27.9856 245.067 27.6196 245.052 27.248L245.302 26.8925L246.064 25.8121L247.362 26.1089L247.621 25.7411L246.507 25.1799L251.054 18.7212C251.409 18.6103 251.718 18.3833 251.929 18.0764L256.109 12.1361C256.352 11.8029 256.459 11.3906 256.411 10.9814C256.81 10.1869 257.301 8.89391 256.622 8.30415L252.204 5.21317L247.784 2.12113C247.001 1.68275 245.945 2.58603 245.333 3.22964C244.93 3.3226 244.577 3.56359 244.345 3.9047L240.162 9.84343C239.944 10.1449 239.834 10.511 239.849 10.8827L235.273 17.3831L234.441 16.6045L234.182 16.9723L234.846 17.9921L234.099 19.0523L233.838 19.4095C233.487 19.5226 233.184 19.7485 232.975 20.0522L231.263 22.4829C231.046 22.7878 230.938 23.1575 230.957 23.5317C230.465 24.5755 230.002 26.0455 230.661 27.0334C231.492 27.965 232.404 28.821 233.386 29.5914L233.807 29.8864L233.802 29.894Z" fill="white"/>
</g>
<path d="M251.468 8.10897C251.927 8.41826 252.549 8.29727 252.859 7.83872C253.168 7.38018 253.047 6.75772 252.588 6.44843L250.098 4.76835C249.639 4.45906 249.017 4.58005 248.707 5.0386C248.398 5.49715 248.519 6.1196 248.978 6.4289L251.468 8.10897Z" fill="#242E42"/>
<path d="M253.959 9.78895C254.417 10.0982 255.04 9.97725 255.349 9.51871C255.659 9.06016 255.538 8.43771 255.079 8.12841L253.418 7.00836C252.96 6.69907 252.337 6.82006 252.028 7.27861C251.719 7.73715 251.84 8.35961 252.298 8.6689L253.959 9.78895Z" fill="#F52D56"/>
<path d="M235.372 31.0765C235.602 31.2312 235.913 31.1707 236.067 30.9414C236.222 30.7121 236.162 30.4009 235.932 30.2463L232.611 28.0062C232.382 27.8515 232.071 27.912 231.916 28.1413C231.761 28.3706 231.822 28.6818 232.051 28.8364L235.372 31.0765Z" fill="#242E42"/>
<path d="M248.147 5.86883C248.606 6.17812 249.228 6.05713 249.537 5.59858C249.847 5.14003 249.726 4.51758 249.267 4.20829L247.607 3.08824C247.148 2.77894 246.526 2.89994 246.216 3.35848C245.907 3.81703 246.028 4.43948 246.487 4.74878L248.147 5.86883Z" fill="#F52D56"/>
<path d="M237.971 23.5427L237.975 23.5361C236.845 22.7138 235.869 21.6979 235.093 20.5354C234.9 20.2737 234.765 19.9745 234.695 19.657C234.626 19.3395 234.624 19.011 234.69 18.6927L234.699 18.6794C234.719 18.6125 234.746 18.5475 234.778 18.4851C234.842 18.3502 234.936 18.2314 235.052 18.1375L239.119 15.4829C239.097 16.2425 241.254 18.1107 242.082 18.801C242.975 19.403 245.363 20.9623 246.093 20.7354L244.645 25.3591C244.585 25.4964 244.496 25.6187 244.384 25.7171C244.332 25.765 244.277 25.8086 244.219 25.8473L244.207 25.8589C243.918 26.0088 243.6 26.0967 243.274 26.1167C242.949 26.1368 242.622 26.0886 242.317 25.9753C240.985 25.5488 239.739 24.8906 238.635 24.031L238.631 24.0377C238.519 23.954 238.41 23.8721 238.304 23.7904C238.197 23.7087 238.087 23.6284 237.976 23.5439L237.971 23.5427Z" fill="#242E42"/>
<path d="M249.918 15.152L245.42 11.7641L242.698 9.71923L242.528 9.59081C242.131 8.20844 243.347 6.50842 244.269 5.46845L253.482 12.4025C252.728 13.5692 251.421 15.2004 249.978 15.1973L249.918 15.152Z" fill="#242E42"/>
<path d="M252.153 16.0484L246.659 24.1934C246.659 24.1934 247.368 19.5605 248.011 18.6073C248.654 17.6542 252.799 15.0911 252.153 16.0484Z" fill="#242E42"/>
<path d="M240.527 8.21208L235.033 16.357C235.033 16.357 239.143 13.8447 239.786 12.8915C240.429 11.9384 241.172 7.25478 240.527 8.21208Z" fill="#242E42"/>
<g filter="url(#filter3_d_11_2182)">
<path d="M238.175 269.175L237.195 270.797L237.109 270.938C236.522 272.044 236.034 273.2 235.651 274.392C235.458 275.508 236.365 276.616 237.204 277.377C237.248 277.601 237.34 277.814 237.474 278C237.607 278.186 237.779 278.342 237.977 278.456L240.523 280.003C240.84 280.2 241.213 280.285 241.584 280.244L241.956 280.471L243.088 281.158L242.879 282.477L243.265 282.711L243.75 281.559L250.517 285.667C250.652 286.015 250.899 286.308 251.221 286.499L257.444 290.276C257.793 290.496 258.213 290.576 258.619 290.499C259.44 290.845 260.766 291.248 261.31 290.529L264.101 285.902L266.893 281.273C267.278 280.46 266.304 279.465 265.619 278.896C265.498 278.5 265.233 278.164 264.877 277.954L258.655 274.175C258.339 273.977 257.965 273.892 257.595 273.933L250.785 269.798L251.507 268.913L251.121 268.679L250.147 269.411L249.036 268.737L248.661 268.5C248.524 268.157 248.278 267.869 247.96 267.68L245.413 266.134C245.094 265.937 244.717 265.854 244.344 265.899C243.267 265.477 241.766 265.114 240.823 265.841C239.947 266.734 239.153 267.704 238.45 268.738L238.183 269.179L238.175 269.175Z" fill="white"/>
</g>
<path d="M260.774 283.437C260.497 283.916 260.661 284.529 261.14 284.805C261.619 285.082 262.232 284.918 262.508 284.439L264.011 281.837C264.287 281.358 264.123 280.745 263.644 280.469C263.165 280.192 262.553 280.356 262.276 280.835L260.774 283.437Z" fill="#242E42"/>
<path d="M259.272 286.039C258.995 286.518 259.159 287.131 259.638 287.407C260.117 287.684 260.73 287.52 261.006 287.041L262.008 285.306C262.284 284.827 262.12 284.215 261.641 283.938C261.162 283.662 260.55 283.826 260.273 284.305L259.272 286.039Z" fill="#F52D56"/>
<path d="M236.739 268.983C236.601 269.222 236.683 269.529 236.923 269.667C237.162 269.805 237.468 269.723 237.607 269.484L239.61 266.014C239.748 265.775 239.666 265.469 239.426 265.33C239.187 265.192 238.881 265.274 238.742 265.514L236.739 268.983Z" fill="#242E42"/>
<path d="M262.777 279.968C262.5 280.447 262.664 281.06 263.143 281.336C263.622 281.613 264.235 281.449 264.511 280.97L265.513 279.235C265.789 278.756 265.625 278.143 265.146 277.867C264.667 277.59 264.055 277.754 263.778 278.233L262.777 279.968Z" fill="#F52D56"/>
<path d="M244.436 271.049L244.443 271.053C245.184 269.868 246.13 268.824 247.235 267.969C247.483 267.758 247.772 267.602 248.084 267.511C248.395 267.419 248.723 267.394 249.045 267.438L249.059 267.446C249.127 267.462 249.194 267.484 249.258 267.511C249.397 267.566 249.522 267.651 249.624 267.761L252.556 271.632C251.797 271.663 250.084 273.946 249.453 274.82C248.914 275.752 247.526 278.244 247.803 278.956L243.089 277.834C242.948 277.784 242.82 277.704 242.714 277.598C242.663 277.551 242.615 277.499 242.573 277.443L242.56 277.432C242.391 277.154 242.281 276.843 242.238 276.519C242.195 276.196 242.221 275.867 242.312 275.554C242.645 274.196 243.215 272.907 243.995 271.746L243.988 271.742C244.064 271.625 244.138 271.511 244.212 271.399C244.286 271.286 244.358 271.171 244.435 271.054L244.436 271.049Z" fill="#242E42"/>
<path d="M253.64 282.382L256.706 277.659L258.556 274.801L258.672 274.622C260.023 274.13 261.804 275.224 262.906 276.071L256.631 285.745C255.415 285.074 253.696 283.884 253.599 282.445L253.64 282.382Z" fill="#242E42"/>
<path d="M252.901 284.675L244.393 279.762C244.393 279.762 249.064 280.146 250.06 280.721C251.055 281.296 253.901 285.252 252.901 284.675Z" fill="#242E42"/>
<path d="M259.908 272.529L251.399 267.617C251.399 267.617 254.192 271.543 255.188 272.117C256.184 272.692 260.908 273.107 259.908 272.529Z" fill="#242E42"/>
<g filter="url(#filter4_d_11_2182)">
<path d="M175.05 176.592L174.07 178.214L173.984 178.355C173.397 179.461 172.909 180.617 172.526 181.809C172.334 182.925 173.24 184.033 174.079 184.794C174.123 185.019 174.215 185.231 174.349 185.417C174.482 185.604 174.654 185.759 174.852 185.874L177.398 187.42C177.715 187.617 178.088 187.702 178.459 187.662L178.831 187.888L179.963 188.576L179.754 189.894L180.14 190.128L180.625 188.976L187.392 193.084C187.527 193.433 187.774 193.726 188.096 193.916L194.319 197.693C194.668 197.913 195.088 197.993 195.494 197.917C196.315 198.262 197.641 198.665 198.185 197.946L200.976 193.319L203.768 188.69C204.153 187.877 203.179 186.883 202.494 186.314C202.373 185.918 202.108 185.581 201.752 185.372L195.53 181.592C195.214 181.394 194.84 181.309 194.47 181.35L187.66 177.215L188.382 176.33L187.996 176.096L187.022 176.829L185.911 176.154L185.536 175.918C185.399 175.574 185.153 175.286 184.835 175.098L182.288 173.551C181.969 173.354 181.592 173.272 181.219 173.316C180.142 172.895 178.641 172.531 177.698 173.258C176.822 174.152 176.028 175.121 175.325 176.156L175.058 176.597L175.05 176.592Z" fill="white"/>
</g>
<path d="M197.68 191.301C197.404 191.78 197.568 192.392 198.047 192.669C198.526 192.945 199.138 192.781 199.415 192.302L200.917 189.7C201.193 189.221 201.029 188.609 200.55 188.332C200.071 188.056 199.459 188.22 199.182 188.699L197.68 191.301Z" fill="#242E42"/>
<path d="M196.178 193.903C195.901 194.382 196.065 194.994 196.544 195.271C197.023 195.547 197.636 195.383 197.912 194.904L198.914 193.17C199.191 192.691 199.026 192.078 198.547 191.802C198.068 191.525 197.456 191.689 197.179 192.168L196.178 193.903Z" fill="#F52D56"/>
<path d="M173.646 176.846C173.507 177.086 173.589 177.392 173.829 177.53C174.068 177.669 174.375 177.587 174.513 177.347L176.516 173.878C176.654 173.638 176.572 173.332 176.333 173.194C176.093 173.056 175.787 173.138 175.649 173.377L173.646 176.846Z" fill="#242E42"/>
<path d="M199.683 187.832C199.407 188.311 199.571 188.923 200.05 189.2C200.529 189.476 201.141 189.312 201.418 188.833L202.419 187.098C202.696 186.619 202.532 186.007 202.053 185.73C201.574 185.454 200.961 185.618 200.685 186.097L199.683 187.832Z" fill="#F52D56"/>
<path d="M181.343 178.912L181.35 178.916C182.091 177.732 183.036 176.687 184.142 175.832C184.389 175.622 184.679 175.466 184.99 175.374C185.302 175.283 185.63 175.258 185.952 175.301L185.966 175.309C186.034 175.325 186.101 175.347 186.165 175.375C186.304 175.429 186.429 175.515 186.531 175.624L189.463 179.495C188.704 179.526 186.99 181.809 186.36 182.683C185.821 183.615 184.432 186.107 184.71 186.819L179.996 185.697C179.855 185.647 179.727 185.567 179.621 185.462C179.57 185.414 179.522 185.362 179.48 185.306L179.467 185.295C179.297 185.017 179.188 184.706 179.145 184.383C179.102 184.059 179.127 183.731 179.219 183.418C179.552 182.059 180.121 180.77 180.902 179.61L180.895 179.606C180.971 179.489 181.045 179.374 181.119 179.262C181.193 179.15 181.265 179.034 181.342 178.918L181.343 178.912Z" fill="#242E42"/>
<path d="M190.546 190.245L193.612 185.522L195.462 182.664L195.578 182.485C196.93 181.993 198.71 183.087 199.812 183.935L193.538 193.609C192.321 192.938 190.603 191.748 190.505 190.308L190.546 190.245Z" fill="#242E42"/>
<path d="M189.808 192.538L181.3 187.625C181.3 187.625 185.971 188.009 186.966 188.584C187.962 189.159 190.808 193.115 189.808 192.538Z" fill="#242E42"/>
<path d="M196.814 180.393L188.306 175.481C188.306 175.481 191.099 179.406 192.094 179.981C193.09 180.556 197.814 180.97 196.814 180.393Z" fill="#242E42"/>
<defs>
<filter id="filter0_d_11_2182" x="80.9923" y="233.276" width="38.8981" height="24.045" filterUnits="userSpaceOnUse" color-interpolation-filters="sRGB">
<feFlood flood-opacity="0" result="BackgroundImageFix"/>
<feColorMatrix in="SourceAlpha" type="matrix" values="0 0 0 0 0 0 0 0 0 0 0 0 0 0 0 0 0 0 127 0" result="hardAlpha"/>
<feOffset dy="2"/>
<feGaussianBlur stdDeviation="2"/>
<feColorMatrix type="matrix" values="0 0 0 0 0 0 0 0 0 0 0 0 0 0 0 0 0 0 0.2 0"/>
<feBlend mode="normal" in2="BackgroundImageFix" result="effect1_dropShadow_11_2182"/>
<feBlend mode="normal" in="SourceGraphic" in2="effect1_dropShadow_11_2182" result="shape"/>
</filter>
<filter id="filter1_d_11_2182" x="6.92442e-05" y="67.2234" width="39.3747" height="33.8235" filterUnits="userSpaceOnUse" color-interpolation-filters="sRGB">
<feFlood flood-opacity="0" result="BackgroundImageFix"/>
<feColorMatrix in="SourceAlpha" type="matrix" values="0 0 0 0 0 0 0 0 0 0 0 0 0 0 0 0 0 0 127 0" result="hardAlpha"/>
<feOffset dy="2.00998"/>
<feGaussianBlur stdDeviation="2.00998"/>
<feColorMatrix type="matrix" values="0 0 0 0 0 0 0 0 0 0 0 0 0 0 0 0 0 0 0.2 0"/>
<feBlend mode="normal" in2="BackgroundImageFix" result="effect1_dropShadow_11_2182"/>
<feBlend mode="normal" in="SourceGraphic" in2="effect1_dropShadow_11_2182" result="shape"/>
</filter>
<filter id="filter2_d_11_2182" x="226.323" y="-5.70668e-05" width="34.6474" height="38.8264" filterUnits="userSpaceOnUse" color-interpolation-filters="sRGB">
<feFlood flood-opacity="0" result="BackgroundImageFix"/>
<feColorMatrix in="SourceAlpha" type="matrix" values="0 0 0 0 0 0 0 0 0 0 0 0 0 0 0 0 0 0 127 0" result="hardAlpha"/>
<feOffset dy="2.0025"/>
<feGaussianBlur stdDeviation="2.0025"/>
<feColorMatrix type="matrix" values="0 0 0 0 0 0 0 0 0 0 0 0 0 0 0 0 0 0 0.2 0"/>
<feBlend mode="normal" in2="BackgroundImageFix" result="effect1_dropShadow_11_2182"/>
<feBlend mode="normal" in="SourceGraphic" in2="effect1_dropShadow_11_2182" result="shape"/>
</filter>
<filter id="filter3_d_11_2182" x="231.605" y="263.415" width="39.3946" height="33.5429" filterUnits="userSpaceOnUse" color-interpolation-filters="sRGB">
<feFlood flood-opacity="0" result="BackgroundImageFix"/>
<feColorMatrix in="SourceAlpha" type="matrix" values="0 0 0 0 0 0 0 0 0 0 0 0 0 0 0 0 0 0 127 0" result="hardAlpha"/>
<feOffset dy="2.00689"/>
<feGaussianBlur stdDeviation="2.00689"/>
<feColorMatrix type="matrix" values="0 0 0 0 0 0 0 0 0 0 0 0 0 0 0 0 0 0 0.2 0"/>
<feBlend mode="normal" in2="BackgroundImageFix" result="effect1_dropShadow_11_2182"/>
<feBlend mode="normal" in="SourceGraphic" in2="effect1_dropShadow_11_2182" result="shape"/>
</filter>
<filter id="filter4_d_11_2182" x="168.481" y="170.833" width="39.3946" height="33.5429" filterUnits="userSpaceOnUse" color-interpolation-filters="sRGB">
<feFlood flood-opacity="0" result="BackgroundImageFix"/>
<feColorMatrix in="SourceAlpha" type="matrix" values="0 0 0 0 0 0 0 0 0 0 0 0 0 0 0 0 0 0 127 0" result="hardAlpha"/>
<feOffset dy="2.00689"/>
<feGaussianBlur stdDeviation="2.00689"/>
<feColorMatrix type="matrix" values="0 0 0 0 0 0 0 0 0 0 0 0 0 0 0 0 0 0 0.2 0"/>
<feBlend mode="normal" in2="BackgroundImageFix" result="effect1_dropShadow_11_2182"/>
<feBlend mode="normal" in="SourceGraphic" in2="effect1_dropShadow_11_2182" result="shape"/>
</filter>
</defs>
</svg>
