<svg width="12" height="12" viewBox="0 0 12 12" fill="none" xmlns="http://www.w3.org/2000/svg">
<path d="M11.9687 4.34565C11.8901 4.10267 11.6746 3.93009 11.4196 3.90711L7.95612 3.59261L6.58655 0.387003C6.48556 0.152073 6.25558 0 6.00005 0C5.74452 0 5.51453 0.152073 5.41355 0.387552L4.04398 3.59261L0.579907 3.90711C0.325385 3.93063 0.110414 4.10267 0.0314018 4.34565C-0.0476101 4.58864 0.0253592 4.85516 0.217899 5.02316L2.83591 7.31917L2.06392 10.7198C2.00743 10.9698 2.10448 11.2283 2.31194 11.3783C2.42346 11.4588 2.55392 11.4998 2.68549 11.4998C2.79892 11.4998 2.91144 11.4693 3.01243 11.4088L6.00005 9.62324L8.98657 11.4088C9.20511 11.5403 9.4806 11.5283 9.6876 11.3783C9.89516 11.2278 9.99212 10.9693 9.93563 10.7198L9.16364 7.31917L11.7816 5.02362C11.9742 4.85516 12.0477 4.5891 11.9687 4.34565Z" fill="#FFC107"/>
</svg>
