<svg width="12" height="12" viewBox="0 0 12 12" fill="none" xmlns="http://www.w3.org/2000/svg">
<path d="M5.53622 0.299925C5.57613 0.210614 5.64104 0.134767 5.72312 0.0815443C5.8052 0.0283216 5.90092 0 5.99875 0C6.09657 0 6.1923 0.0283216 6.27437 0.0815443C6.35645 0.134767 6.42136 0.210614 6.46127 0.299925L7.85948 3.42765C7.89473 3.5067 7.94966 3.5754 8.01901 3.62719C8.08836 3.67898 8.16983 3.71214 8.25563 3.7235L11.5586 4.16019C11.6528 4.1725 11.7415 4.21101 11.8148 4.27132C11.8881 4.33162 11.943 4.41131 11.9732 4.50129C12.0034 4.59127 12.0077 4.68793 11.9856 4.78025C11.9636 4.87256 11.916 4.95682 11.8484 5.02343L9.38737 7.45509C9.32852 7.51306 9.28474 7.58454 9.25984 7.6633C9.23494 7.74206 9.22968 7.82571 9.24451 7.90698L9.8737 11.364C9.8909 11.4591 9.88054 11.5571 9.84386 11.6465C9.80718 11.7358 9.7457 11.8129 9.66668 11.8685C9.58766 11.9241 9.49438 11.9559 9.39786 11.9602C9.30134 11.9646 9.20559 11.9412 9.12191 11.8929L6.25255 10.2262C6.17554 10.1817 6.08818 10.1583 5.99925 10.1583C5.91033 10.1583 5.82297 10.1817 5.74596 10.2262L2.87761 11.8868C2.79393 11.9351 2.69818 11.9585 2.60166 11.9541C2.50514 11.9498 2.41186 11.918 2.33284 11.8624C2.25382 11.8068 2.19234 11.7298 2.15566 11.6404C2.11898 11.551 2.10862 11.453 2.12582 11.3579L2.75704 7.9009C2.77187 7.81964 2.76661 7.73598 2.74171 7.65722C2.71681 7.57846 2.67303 7.50698 2.61418 7.44901L0.151106 5.02242C0.0834833 4.95581 0.0359323 4.87155 0.0138724 4.77923C-0.00818747 4.68692 -0.00386885 4.59026 0.0263362 4.50028C0.0565412 4.4103 0.111417 4.33061 0.184711 4.2703C0.258004 4.20999 0.346765 4.17149 0.440879 4.15918L3.74287 3.72249C3.82868 3.71113 3.91015 3.67797 3.9795 3.62618C4.04885 3.57438 4.10377 3.50569 4.13903 3.42664L5.53622 0.299925Z" fill="#F8EA00"/>
</svg>
