<svg width="41" height="41" viewBox="0 0 41 41" fill="none" xmlns="http://www.w3.org/2000/svg">
<path d="M32 0H9C4.02944 0 0 4.02944 0 9V32C0 36.9706 4.02944 41 9 41H32C36.9706 41 41 36.9706 41 32V9C41 4.02944 36.9706 0 32 0Z" fill="white"/>
<path d="M32 0.5H9C4.30558 0.5 0.5 4.30558 0.5 9V32C0.5 36.6944 4.30558 40.5 9 40.5H32C36.6944 40.5 40.5 36.6944 40.5 32V9C40.5 4.30558 36.6944 0.5 32 0.5Z" stroke="#E7EAEC"/>
<path d="M27 13.1427C27 12.8397 26.8736 12.549 26.6486 12.3347C26.4236 12.1204 26.1184 12 25.8002 12H10.1998C9.88162 12 9.57644 12.1204 9.35142 12.3347C9.12641 12.549 9 12.8397 9 13.1427C9 13.4458 9.12641 13.7365 9.35142 13.9508C9.57644 14.1651 9.88162 14.2855 10.1998 14.2855H25.8002C26.1184 14.2855 26.4236 14.1651 26.6486 13.9508C26.8736 13.7365 27 13.4458 27 13.1427ZM10.1998 18.8573H31.8002C32.1184 18.8573 32.4236 18.9776 32.6486 19.192C32.8736 19.4063 33 19.6969 33 20C33 20.3031 32.8736 20.5937 32.6486 20.808C32.4236 21.0223 32.1184 21.1427 31.8002 21.1427H10.1998C9.88162 21.1427 9.57644 21.0223 9.35142 20.808C9.12641 20.5937 9 20.3031 9 20C9 19.6969 9.12641 19.4063 9.35142 19.192C9.57644 18.9776 9.88162 18.8573 10.1998 18.8573ZM10.1998 25.7145H21C21.3182 25.7145 21.6234 25.8349 21.8484 26.0492C22.0734 26.2635 22.1998 26.5542 22.1998 26.8572C22.1998 27.1603 22.0734 27.451 21.8484 27.6653C21.6234 27.8796 21.3182 28 21 28H10.1998C9.88162 28 9.57644 27.8796 9.35142 27.6653C9.12641 27.451 9 27.1603 9 26.8572C9 26.5542 9.12641 26.2635 9.35142 26.0492C9.57644 25.8349 9.88162 25.7145 10.1998 25.7145Z" fill="black"/>
</svg>
