<svg width="21" height="21" viewBox="0 0 21 21" fill="none" xmlns="http://www.w3.org/2000/svg">
<path d="M20.5788 10.6372C20.5915 9.90895 20.5166 9.18187 20.3556 8.47158H10.4083V12.4036H16.2466C16.1361 13.0929 15.8872 13.7528 15.5151 14.3434C15.1429 14.9341 14.6551 15.4434 14.081 15.8407L14.0615 15.9724L17.2065 18.4085L17.4246 18.4301C18.4658 17.4238 19.2845 16.2103 19.8278 14.868C20.3711 13.5257 20.627 12.0844 20.5788 10.6372Z" fill="#4285F4"/>
<path d="M10.597 20.996C13.1774 21.0689 15.6878 20.1507 17.6123 18.4302L14.2687 15.8408C13.1845 16.5673 11.9006 16.9377 10.596 16.9004C9.25644 16.8924 7.9534 16.4629 6.87167 15.6728C5.78995 14.8826 4.98445 13.7719 4.56942 12.4983L4.44494 12.5086L1.17446 15.0394L1.13125 15.1587C2.01205 16.914 3.36377 18.3897 5.03526 19.4207C6.70674 20.4518 8.63209 20.9976 10.596 20.997" fill="#34A853"/>
<path d="M4.57022 12.5939C4.34033 11.9194 4.22252 11.2118 4.22146 10.4993C4.22576 9.78724 4.341 9.08021 4.56302 8.40366L4.55684 8.26374L1.23801 5.6918L1.12999 5.74324C0.387007 7.21838 0 8.84708 0 10.4988C0 12.1504 0.387007 13.7791 1.12999 15.2543L4.56713 12.5939" fill="#FBBC05"/>
<path d="M10.489 4.09722C11.9927 4.07519 13.4455 4.64107 14.5382 5.67434L17.4939 2.75467C15.6067 0.959375 13.0935 -0.028709 10.489 0.000635391C8.54036 0.00518911 6.63181 0.554251 4.97869 1.58586C3.32556 2.61748 1.99366 4.09058 1.13326 5.83894L4.51999 8.49936C4.92647 7.23204 5.72156 6.12483 6.79255 5.3347C7.86353 4.54457 9.15607 4.11162 10.4869 4.09722" fill="#EB4335"/>
</svg>
