<svg width="268" height="298" viewBox="0 0 268 298" fill="none" xmlns="http://www.w3.org/2000/svg">
<path d="M228.744 216.564H39.2555C17.5753 216.564 0 234.139 0 255.819C0 277.499 17.5753 295.074 39.2555 295.074H228.744C250.425 295.074 268 277.499 268 255.819C268 234.139 250.425 216.564 228.744 216.564Z" fill="white"/>
<path d="M83.4183 145.072C79.3565 138.367 59.8458 138.474 58.0786 141.454C58.0786 141.454 67.7464 172.703 78.5199 169.464C89.2935 166.225 83.4183 145.072 83.4183 145.072Z" fill="#92E3A9"/>
<path opacity="0.3" d="M83.4183 145.072C79.3565 138.367 59.8458 138.474 58.0786 141.454C58.0786 141.454 67.7464 172.703 78.5199 169.464C89.2935 166.225 83.4183 145.072 83.4183 145.072Z" fill="black" fill-opacity="0.7"/>
<path d="M83.4183 145.072C79.3565 138.367 59.8458 138.474 58.0786 141.454C58.0786 141.454 67.7464 172.703 78.5199 169.464C89.2935 166.225 83.4183 145.072 83.4183 145.072Z" stroke="#263238" stroke-linecap="round" stroke-linejoin="round"/>
<path d="M60.1431 160.973C58.8192 162.654 58.0928 164.728 58.0787 166.868C58.0787 169.782 63.6386 227.996 80.7946 248.261C84.3891 252.515 88.5 255.095 93.1763 255.15C107.702 255.306 114.737 243.783 123.981 217.054C125.131 213.727 126.326 210.154 127.565 206.336C136.554 178.748 147.595 121.202 147.595 121.202C147.595 121.202 128.001 125.747 116.374 137.269C111.294 142.305 106.002 156.596 102.619 167.09C100.955 172.249 99.7489 176.481 99.2466 178.267C99.0904 178.859 99.0014 179.182 99.0014 179.182C98.5041 177.376 97.815 175.629 96.9459 173.969C96.9349 173.947 96.9349 173.935 96.9249 173.924C96.8932 173.885 96.87 173.839 96.8569 173.79C94.3207 169.204 91.2285 164.948 87.6504 161.118L83.4184 145.074C83.4184 145.074 81.9224 147.998 75.1567 149.038C68.3909 150.077 58.0747 141.456 58.0747 141.456L60.1431 160.973Z" fill="#F3F3F3"/>
<path opacity="0.3" d="M80.7986 248.266C84.3931 252.52 88.504 255.1 93.1803 255.155C107.707 255.311 114.741 243.788 123.985 217.059L123.785 154.937C123.785 154.937 112.865 157.058 102.627 167.094C100.963 172.253 99.7569 176.485 99.2546 178.271C103.341 186.777 110.462 206.34 102.292 227.184C96.989 240.704 88.3129 246.196 80.7986 248.266Z" fill="black" fill-opacity="0.7"/>
<path d="M60.1431 160.973C58.8192 162.654 58.0928 164.728 58.0787 166.868C58.0787 169.782 63.6386 227.996 80.7946 248.261C84.3891 252.515 88.5 255.095 93.1763 255.15C107.702 255.306 114.737 243.783 123.981 217.054C125.131 213.727 126.326 210.154 127.565 206.336C136.554 178.748 147.595 121.202 147.595 121.202C147.595 121.202 128.001 125.747 116.374 137.269C111.294 142.305 106.002 156.596 102.619 167.09C100.955 172.249 99.7489 176.481 99.2466 178.267C99.0904 178.859 99.0014 179.182 99.0014 179.182C98.5041 177.376 97.815 175.629 96.9459 173.969C96.9349 173.947 96.9349 173.935 96.9249 173.924C96.8932 173.885 96.87 173.839 96.8569 173.79C94.3207 169.204 91.2285 164.948 87.6504 161.118L83.4184 145.074C83.4184 145.074 81.9224 147.998 75.1567 149.038C68.3909 150.077 58.0747 141.456 58.0747 141.456L60.1431 160.973Z" stroke="#263238" stroke-linecap="round" stroke-linejoin="round"/>
<path d="M106.338 198.148C107.379 203.602 107.42 209.516 104.899 214.592" stroke="#263238" stroke-linecap="round" stroke-linejoin="round"/>
<path d="M99.0094 179.182C101.892 184.063 104.097 189.313 105.566 194.788" stroke="#263238" stroke-linecap="round" stroke-linejoin="round"/>
<path d="M108.267 186.055C108.267 186.055 106.223 180.435 100.703 179.184" stroke="#263238" stroke-linecap="round" stroke-linejoin="round"/>
<path d="M80.0701 165.516C81.4003 164.794 82.6427 163.921 83.7727 162.915" stroke="#263238" stroke-linecap="round" stroke-linejoin="round"/>
<path d="M60.1401 160.973C64.4651 165.599 71.2099 168.622 77.4973 166.61" stroke="#263238" stroke-linecap="round" stroke-linejoin="round"/>
<path d="M96.8549 173.802C96.8773 173.845 96.9035 173.886 96.9329 173.925C96.9011 173.886 96.878 173.84 96.8649 173.791C96.8635 173.791 96.8621 173.791 96.8608 173.792C96.8595 173.792 96.8584 173.793 96.8574 173.794C96.8565 173.795 96.8558 173.797 96.8553 173.798C96.8549 173.799 96.8547 173.801 96.8549 173.802Z" fill="#92E3A9" stroke="#263238" stroke-linecap="round" stroke-linejoin="round"/>
<path d="M224.832 292.48C224.832 292.48 227.304 272.976 228.809 266.609C235.591 237.938 259.486 171.508 255.634 151.85C251.674 131.649 227.455 113.973 188.365 112.031C152.113 110.221 122.224 123.072 115.078 138.011C108.256 152.269 108.536 250.674 110.266 295.076H209.853C214.95 294.99 220.003 294.114 224.832 292.48Z" fill="#F3F3F3"/>
<path opacity="0.3" d="M217.047 173.932C198.269 199.672 177.798 238.193 177.798 238.193L121.872 168.494C121.872 168.494 134.681 257.022 141.664 266.606C148.648 276.191 148.339 280.591 148.339 280.591C148.339 280.591 166.065 299.68 179.361 297.089C190.638 294.887 231.197 249.632 243.844 197.166L217.047 173.932Z" fill="black" fill-opacity="0.7"/>
<path d="M224.832 292.48C224.832 292.48 227.304 272.976 228.809 266.609C235.591 237.938 259.486 171.508 255.634 151.85C251.674 131.649 227.455 113.973 188.365 112.031C152.113 110.221 122.224 123.072 115.078 138.011C108.256 152.269 108.536 250.674 110.266 295.076H209.853C214.95 294.99 220.003 294.114 224.832 292.48V292.48Z" stroke="#263238" stroke-linecap="round" stroke-linejoin="round"/>
<path d="M204.149 115.967C204.149 115.967 184.656 124.327 163.562 117.398C163.562 117.398 166.278 110.793 166.291 105.351C166.304 102.621 165.616 100.172 163.562 99.0058C163.562 99.0058 164.515 97.958 166.132 96.3039H166.145C174.136 88.1682 198.398 65.2961 206.295 78.9317C206.291 78.9287 198.028 79.7112 204.149 115.967Z" fill="white" stroke="#263238" stroke-linecap="round" stroke-linejoin="round"/>
<path d="M182.113 90.7099C182.113 90.7099 178.91 102.462 166.29 105.351C166.303 102.621 165.615 100.171 163.561 99.0057C163.561 99.0057 164.514 97.9579 166.131 96.3038H166.144C173.869 93.2677 182.113 90.7099 182.113 90.7099Z" fill="#263238"/>
<path d="M211.784 59.7403C220.156 26.3779 202.125 14.9599 190.762 10.5878C172.562 3.58288 149.592 11.5525 144.211 30.0855C138.83 48.6185 143.679 52.8384 143.427 60.4208C143.251 65.7395 139.725 68.3583 143.612 81.7017C146.177 90.5079 150.941 100.604 156.496 100.927C171.53 101.801 185.764 93.2388 184.974 89.219" fill="white"/>
<path d="M211.784 59.7403C220.156 26.3779 202.125 14.9599 190.762 10.5878C172.562 3.58288 149.592 11.5525 144.211 30.0855C138.83 48.6185 143.679 52.8384 143.427 60.4208C143.251 65.7395 139.725 68.3583 143.612 81.7017C146.177 90.5079 150.941 100.604 156.496 100.927C171.53 101.801 185.764 93.2388 184.974 89.219" stroke="#263238" stroke-linecap="round" stroke-linejoin="round"/>
<path d="M164.542 43.3937C164.542 43.3937 171.274 41.0671 174.868 48.4093" stroke="#263238" stroke-linecap="round" stroke-linejoin="round"/>
<path d="M141.664 42.2978C141.664 42.2978 146.668 38.0498 151.686 44.06" stroke="#263238" stroke-linecap="round" stroke-linejoin="round"/>
<path d="M167.55 60.3277C168.472 60.3277 169.22 59.0705 169.22 57.5197C169.22 55.9689 168.472 54.7117 167.55 54.7117C166.629 54.7117 165.881 55.9689 165.881 57.5197C165.881 59.0705 166.629 60.3277 167.55 60.3277Z" fill="#263238"/>
<path d="M146.67 55.9835C146.67 57.5335 147.417 58.7914 148.339 58.7914C149.261 58.7914 150.008 57.5335 150.008 55.9835C150.008 54.4334 149.261 53.1755 148.339 53.1755C147.417 53.1755 146.67 54.4364 146.67 55.9835Z" fill="#263238"/>
<path d="M151.686 49.555C151.686 49.555 152.723 57.2794 152.26 58.7905C151.796 60.3016 146.571 65.0189 146.365 67.1143C146.16 69.2098 150.736 71.3293 150.736 71.3293" fill="white"/>
<path d="M151.686 49.555C151.686 49.555 152.723 57.2794 152.26 58.7905C151.796 60.3016 146.571 65.0189 146.365 67.1143C146.16 69.2098 150.736 71.3293 150.736 71.3293" stroke="#263238" stroke-linecap="round" stroke-linejoin="round"/>
<path d="M148.339 75.7653C148.339 75.7653 158.776 78.3861 167.552 75.7653C167.552 75.7653 163.418 88.7114 155.244 87.3935C149.832 86.5198 151.21 78.0359 151.21 78.0359L148.339 75.7653Z" fill="#263238"/>
<path d="M177.116 24.6986C174.015 22.8426 170.308 22.2777 166.795 23.1255C160.791 24.5265 159.847 37.1503 159.847 37.1503C159.847 37.1503 156.638 34.3083 156.071 30.8139L154.184 36.2307L149.18 31.5124L147.504 37.1503L145.517 33.0845L141.663 40.5897C141.663 40.5897 135.874 33.1285 136.771 27.3614C139.217 11.6354 151.696 -1.28565 177.8 0.102327C190.939 0.802819 195.843 9.80913 195.843 9.80913C195.843 9.80913 208.694 8.07092 214.393 14.7376C233.807 37.4375 221.631 62.0878 203.198 85.4412L196.88 63.1846L190.764 62.4841C190.899 60.2001 190.911 57.9106 190.802 55.6253C190.613 52.1308 188.536 47.0192 188.536 47.0192L186.272 48.0359L187.215 43.773L182.042 46.4258C182.042 46.4258 184.228 28.8925 182.042 25.9224C181.548 25.1098 180.754 24.5252 179.831 24.2959C178.908 24.0667 177.932 24.2114 177.116 24.6986Z" fill="#263238"/>
<path d="M193.034 65.5782C193.034 65.5782 199.151 54.1792 205.543 56.9601C211.936 59.7411 207.489 73.3626 201.929 77.8108C196.369 82.2589 193.031 77.8108 193.031 77.8108" fill="white"/>
<path d="M193.034 65.5782C193.034 65.5782 199.151 54.1792 205.543 56.9601C211.936 59.7411 207.489 73.3626 201.929 77.8108C196.369 82.2589 193.031 77.8108 193.031 77.8108" stroke="#263238" stroke-linecap="round" stroke-linejoin="round"/>
<g opacity="0.2">
<path d="M182.663 20.0083C181.851 18.0561 180.502 16.3737 178.774 15.1557C177.046 13.9377 175.008 13.2338 172.896 13.1255C165.411 12.6341 160.032 20.7458 159.861 26.3988" stroke="white" stroke-linecap="round" stroke-linejoin="round"/>
<path d="M187.726 19.7512C187.726 19.7512 192.856 15.8185 195.832 19.7512C200.863 26.3989 196.698 42.4502 196.698 42.4502" stroke="white" stroke-linecap="round" stroke-linejoin="round"/>
<path d="M194.702 15.0629C194.702 15.0629 200.04 11.7846 204.609 18.108C209.178 24.4314 208.691 39.7942 208.691 39.7942" stroke="white" stroke-linecap="round" stroke-linejoin="round"/>
<path d="M209.829 14.2133C209.829 14.2133 219.071 18.1081 219.595 36.7231" stroke="white" stroke-linecap="round" stroke-linejoin="round"/>
<path d="M188.349 15.0629C188.349 15.0629 183.145 6.24269 167.76 9.19276C152.374 12.1428 150.059 27.8739 150.059 27.8739" stroke="white" stroke-linecap="round" stroke-linejoin="round"/>
<path d="M192.179 12.389C192.179 12.389 185.981 3.783 167.142 5.50621C148.303 7.22942 140.729 23.695 142.642 31.5605" stroke="white" stroke-linecap="round" stroke-linejoin="round"/>
</g>
<path d="M37.8085 122.692C37.8085 122.692 60.2142 105.446 69.979 103.698C79.7439 101.95 113.349 109.29 113.349 109.29V149.087C113.349 149.087 92.3257 151.393 82.8911 158.3C73.4565 165.207 40.9527 166.315 40.9527 166.315L37.8085 122.692Z" fill="#757575" stroke="#263238" stroke-linecap="round" stroke-linejoin="round"/>
<path d="M58.8352 110.365C59.0966 107.718 59.5312 105.091 60.1361 102.501C60.9277 99.705 66.3405 100.004 67.5673 100.99C68.4733 101.794 69.2796 102.703 69.969 103.699C69.969 103.699 68.0887 104.247 67.5673 104.422C67.046 104.597 66.5236 114.733 58.8352 110.365Z" fill="white" stroke="#263238" stroke-linecap="round" stroke-linejoin="round"/>
<path d="M87.4475 49.5996L65.1216 114.321L97.1711 125.377L119.497 60.6552L87.4475 49.5996Z" fill="#3422F2"/>
<path opacity="0.5" d="M65.1206 114.322L97.1711 125.378L119.498 60.6567L87.4473 49.6L65.1206 114.322ZM116.127 62.2979L95.531 122.01L68.491 112.682L89.0884 52.9723L116.127 62.2979Z" fill="black" fill-opacity="0.7"/>
<path opacity="0.5" d="M92.2076 58.0269L89.4497 66.0195C89.3014 66.4491 88.9887 66.8022 88.5802 67.0013C88.1717 67.2004 87.7009 67.2292 87.2712 67.0812C86.8418 66.9328 86.4889 66.6199 86.2902 66.2114C86.0914 65.8029 86.0631 65.3321 86.2114 64.9027L88.9673 56.9101C89.0406 56.6973 89.1551 56.501 89.3043 56.3325C89.4534 56.1639 89.6343 56.0264 89.8366 55.9278C90.0389 55.8292 90.2587 55.7715 90.4833 55.7578C90.708 55.7442 90.9331 55.7749 91.1459 55.8483C91.3587 55.9215 91.5551 56.0359 91.7237 56.185C91.8923 56.3342 92.0299 56.5151 92.1285 56.7174C92.2271 56.9198 92.2848 57.1396 92.2984 57.3643C92.312 57.5889 92.2811 57.8141 92.2076 58.0269Z" fill="black" fill-opacity="0.7"/>
<path opacity="0.5" d="M98.4091 110.074L95.6511 118.067C95.5027 118.496 95.1899 118.849 94.7813 119.048C94.3728 119.247 93.902 119.275 93.4726 119.127C93.2598 119.053 93.0635 118.939 92.895 118.79C92.7265 118.641 92.589 118.46 92.4904 118.257C92.3918 118.055 92.334 117.835 92.3203 117.611C92.3067 117.386 92.3375 117.161 92.4109 116.948L95.1688 108.956C95.3172 108.526 95.6301 108.173 96.0386 107.975C96.4472 107.776 96.9179 107.747 97.3473 107.896C97.5602 107.969 97.7566 108.083 97.9252 108.233C98.0938 108.382 98.2313 108.563 98.3299 108.765C98.4285 108.967 98.4863 109.187 98.4999 109.412C98.5135 109.636 98.4826 109.862 98.4091 110.074Z" fill="black" fill-opacity="0.7"/>
<path opacity="0.5" d="M82.2697 84.0261C81.5851 86.0118 81.5045 88.1559 82.0384 90.1874C82.5722 92.2188 83.6965 94.0464 85.2689 95.4389C86.8414 96.8314 88.7914 97.7265 90.8725 98.0108C92.9536 98.2951 95.0723 97.9559 96.9606 97.0362C98.849 96.1164 100.422 94.6574 101.481 92.8435C102.541 91.0297 103.038 88.9425 102.911 86.8459C102.784 84.7494 102.038 82.7375 100.768 81.0648C99.4976 79.392 97.7598 78.1336 95.7742 77.4485C94.4556 76.9936 93.0603 76.8029 91.668 76.8873C90.2757 76.9717 88.9137 77.3296 87.6597 77.9403C86.4056 78.5511 85.2842 79.4029 84.3594 80.4471C83.4346 81.4913 82.7245 82.7074 82.2697 84.0261ZM97.8897 88.6293L98.6812 88.9025L98.1989 90.3035L97.4073 90.0293C96.7339 91.1711 95.5731 91.4653 94.097 90.9569L93.3505 90.6998L93.9079 89.0846L94.7615 89.3788C95.539 89.646 95.9373 89.4018 96.1235 88.8585C96.3096 88.3151 96.1495 87.8768 95.3719 87.6076C94.5944 87.3384 93.9289 87.4575 92.632 88.2971C91.0469 89.3148 90.0112 89.4979 88.7683 89.0666C87.3083 88.5663 86.5848 87.6366 86.7329 86.3487L85.9263 86.0705L86.4086 84.6695L87.2152 84.9477C87.8817 83.8209 89.0275 83.5217 90.5045 84.0311L90.8467 84.1492L90.2903 85.7643L89.84 85.6092C89.0625 85.342 88.6612 85.5491 88.4721 86.0945C88.283 86.6399 88.4721 87.0502 89.2496 87.3194C90.0272 87.5886 90.6766 87.4635 91.9895 86.6299C93.5907 85.6172 94.6104 85.429 95.8532 85.8603C97.3303 86.3697 98.0578 87.3334 97.8857 88.6303L97.8897 88.6293Z" fill="black" fill-opacity="0.7"/>
<path d="M87.4475 49.5996L65.1216 114.321L97.1711 125.377L119.497 60.6552L87.4475 49.5996Z" stroke="#263238" stroke-linecap="round" stroke-linejoin="round"/>
<path d="M37.8085 122.693C37.8085 122.693 70.3093 111.738 79.0454 110.164C87.7816 108.591 113.349 109.291 113.349 109.291V149.088C113.349 149.088 86.6598 157.185 82.5409 160.426C78.422 163.666 40.9527 166.316 40.9527 166.316L37.8085 122.693Z" fill="#999999" stroke="#263238" stroke-linecap="round" stroke-linejoin="round"/>
<path d="M82.1576 127.431C80.4454 136.645 81.6752 148.997 75.576 156.471" stroke="#263238" stroke-linecap="round" stroke-linejoin="round"/>
<path d="M84.9886 113.485C84.3274 116.491 83.6983 119.505 83.1013 122.526" stroke="#263238" stroke-linecap="round" stroke-linejoin="round"/>
<path d="M109.387 19.8781C109.387 21.3182 108.96 22.7259 108.16 23.9233C107.36 25.1207 106.222 26.054 104.892 26.605C103.561 27.1561 102.097 27.3002 100.685 27.0192C99.2724 26.7382 97.9751 26.0446 96.9568 25.0262C95.9386 24.0079 95.2452 22.7104 94.9644 21.2979C94.6835 19.8855 94.8279 18.4215 95.3791 17.091C95.9303 15.7606 96.8637 14.6235 98.0612 13.8236C99.2587 13.0236 100.667 12.5968 102.107 12.597C103.063 12.597 104.01 12.7853 104.893 13.1512C105.776 13.5172 106.579 14.0535 107.255 14.7296C107.931 15.4057 108.467 16.2084 108.833 17.0918C109.199 17.9752 109.387 18.9219 109.387 19.8781Z" fill="white" stroke="#263238" stroke-linecap="round" stroke-linejoin="round"/>
<path d="M106.173 24.4123C107.069 23.6078 107.706 22.5558 108.004 21.3891C108.303 20.2224 108.248 18.9935 107.848 17.8577C107.449 16.7219 106.721 15.7301 105.757 15.0077C104.794 14.2854 103.638 13.8648 102.436 13.7992C101.233 13.7337 100.038 14.026 99.002 14.6393C97.9657 15.2526 97.1345 16.1594 96.6134 17.245C96.0923 18.3306 95.9047 19.5463 96.0744 20.7385C96.244 21.9307 96.7633 23.0458 97.5666 23.9429C98.1007 24.5391 98.747 25.0241 99.4687 25.3704C100.19 25.7166 100.973 25.9173 101.772 25.9609C102.572 26.0045 103.372 25.8901 104.127 25.6244C104.882 25.3587 105.577 24.9468 106.173 24.4123ZM99.629 17.7496L99.3088 17.3914L99.9392 16.826L100.259 17.1842C100.577 17.002 100.953 16.9479 101.309 17.0331C101.665 17.1183 101.976 17.3363 102.177 17.6425L102.477 17.9788L101.746 18.6322L101.4 18.247C101.086 17.8957 100.819 17.9087 100.574 18.1289C100.328 18.349 100.286 18.6142 100.602 18.9655C100.917 19.3167 101.283 19.4428 102.167 19.3838C102.555 19.3055 102.956 19.3279 103.332 19.4488C103.709 19.5696 104.049 19.785 104.318 20.0742C104.596 20.3045 104.777 20.6306 104.825 20.988C104.873 21.3453 104.786 21.7078 104.579 22.0036L104.907 22.3688L104.276 22.9342L103.949 22.57C103.633 22.749 103.261 22.8013 102.908 22.7164C102.555 22.6315 102.248 22.4157 102.048 22.1127L101.91 21.9576L102.638 21.3031L102.821 21.5032C103.135 21.8545 103.395 21.8615 103.642 21.6413C103.889 21.4212 103.908 21.162 103.593 20.8108C103.278 20.4595 102.918 20.3404 102.028 20.3925C101.64 20.4695 101.239 20.4465 100.863 20.3257C100.486 20.2049 100.147 19.9902 99.8762 19.702C99.5969 19.4676 99.4163 19.1364 99.3704 18.7747C99.3246 18.4129 99.4169 18.0472 99.629 17.7506V17.7496Z" fill="#3422F2"/>
<path d="M49.0584 64.5895C47.66 64.2461 46.3949 63.4958 45.423 62.4334C44.4511 61.371 43.8161 60.0443 43.5982 58.621C43.3804 57.1977 43.5894 55.7418 44.199 54.4373C44.8086 53.1328 45.7914 52.0384 47.0229 51.2925C48.2545 50.5465 49.6797 50.1825 51.1181 50.2465C52.5566 50.3105 53.9437 50.7997 55.1042 51.652C56.2647 52.5044 57.1463 53.6818 57.6377 55.0352C58.129 56.3887 58.2079 57.8574 57.8645 59.2558C57.404 61.1308 56.2175 62.7462 54.5661 63.7464C52.9146 64.7467 50.9334 65.05 49.0584 64.5895Z" fill="white" stroke="#263238" stroke-linecap="round" stroke-linejoin="round"/>
<path d="M45.4228 60.3865C45.9898 61.4495 46.8594 62.3205 47.9214 62.8893C48.9835 63.4581 50.1903 63.6992 51.3894 63.5821C52.5885 63.465 53.7259 62.9949 54.6578 62.2314C55.5898 61.4678 56.2743 60.445 56.6249 59.2924C56.9755 58.1397 56.9765 56.909 56.6276 55.7558C56.2787 54.6027 55.5957 53.5789 54.665 52.8139C53.7342 52.0489 52.5975 51.5771 51.3986 51.4582C50.1997 51.3392 48.9925 51.5785 47.9296 52.1457C47.2238 52.5221 46.5992 53.0339 46.0913 53.6518C45.5833 54.2697 45.2021 54.9816 44.9693 55.7469C44.7365 56.5121 44.6567 57.3157 44.7346 58.1118C44.8124 58.9078 45.0463 59.6808 45.4228 60.3865ZM53.4545 55.6211L53.8788 55.395L54.279 56.1435L53.8547 56.3697C53.9556 56.7215 53.9186 57.0985 53.7513 57.4241C53.584 57.7496 53.2989 57.9991 52.9541 58.1219L52.5538 58.335L52.0925 57.4694L52.5498 57.2253C52.9661 57.0041 53.0171 56.7399 52.863 56.4497C52.7089 56.1595 52.4628 56.0544 52.0445 56.2776C51.6262 56.5007 51.418 56.825 51.2639 57.6966C51.2474 58.092 51.1299 58.4766 50.9224 58.8137C50.715 59.1507 50.4247 59.429 50.0791 59.6219C49.7891 59.8363 49.4292 59.934 49.0706 59.8957C48.7119 59.8573 48.3808 59.6857 48.1427 59.4148L47.7104 59.645L47.3102 58.8964L47.7435 58.6663C47.6441 58.3161 47.6819 57.9411 47.8492 57.6178C48.0165 57.2945 48.3008 57.0471 48.6441 56.9261L48.8272 56.826L49.2885 57.6916L49.0474 57.8197C48.6311 58.0408 48.562 58.291 48.7171 58.5832C48.8722 58.8754 49.1174 58.9555 49.5347 58.7343C49.952 58.5132 50.1531 58.1909 50.3153 57.3133C50.333 56.9183 50.451 56.5343 50.6583 56.1976C50.8656 55.8609 51.1553 55.5826 51.5001 55.389C51.7952 55.1743 52.1604 55.0789 52.5228 55.122C52.8851 55.165 53.2179 55.3433 53.4545 55.6211Z" fill="#3422F2"/>
<path d="M136.347 129.294C134.491 125.934 129.191 127.553 123.008 137.271C116.826 146.988 114.302 158.319 115.793 162.446C117.284 166.573 137.289 171.575 137.289 171.575L141.411 161.121L136.347 129.294Z" fill="#92E3A9"/>
<path d="M136.347 129.294C134.491 125.934 129.191 127.553 123.008 137.271C116.826 146.988 114.302 158.319 115.793 162.446C117.284 166.573 137.289 171.575 137.289 171.575L141.411 161.121L136.347 129.294Z" fill="white" fill-opacity="0.7"/>
<path d="M136.347 129.294C134.491 125.934 129.191 127.553 123.008 137.271C116.826 146.988 114.302 158.319 115.793 162.446C117.284 166.573 137.289 171.575 137.289 171.575L141.411 161.121L136.347 129.294Z" stroke="#263238" stroke-linecap="round" stroke-linejoin="round"/>
<path d="M144.806 149.636L133.333 124.531C133.333 124.531 125.857 113.832 124.384 109.753C122.911 105.674 106.472 102.501 102.753 102.501C99.0344 102.501 95.1127 109.136 95.1127 109.136L102.838 109.141C102.838 109.141 105.719 112.17 106.08 113.983C106.442 115.796 95.8682 124.811 94.3572 125.666C92.8461 126.522 88.8593 127.852 84.6584 130.964C80.4574 134.076 70.9898 136.504 69.2265 139.294C67.4633 142.084 68.7102 142.612 69.9751 143.255C71.0529 143.697 72.1943 143.965 73.3564 144.048C73.3564 144.048 72.6009 147.22 73.3564 148.883C74.112 150.545 78.514 150.395 78.514 150.395C78.5718 151.032 78.8319 151.634 79.2562 152.114C79.6805 152.593 80.2469 152.924 80.8727 153.059C82.1635 153.271 83.4311 153.606 84.6584 154.059C84.6584 154.059 93.7527 155.597 97.8316 154.733C101.91 153.868 114.289 147.276 117.316 147.55C120.343 147.824 128.709 167.244 128.709 167.244C128.709 167.244 142.993 164.825 144.806 149.636Z" fill="white" stroke="#263238" stroke-linecap="round" stroke-linejoin="round"/>
<path d="M73.3574 144.049C73.3574 144.049 85.2347 141.481 86.0183 140.575C86.8018 139.668 95.1126 137.085 95.1126 137.085" stroke="#263238" stroke-linecap="round" stroke-linejoin="round"/>
<path d="M78.515 150.394C78.515 150.394 85.1847 149.034 87.5043 148.731C89.824 148.427 99.3426 144.047 99.3426 144.047" stroke="#263238" stroke-linecap="round" stroke-linejoin="round"/>
<path d="M84.6592 154.06C84.6592 154.06 94.0558 153.26 96.0192 152.359C97.9826 151.458 103.725 149.638 103.725 149.638" stroke="#263238" stroke-linecap="round" stroke-linejoin="round"/>
<path d="M223.486 138.573C209.544 147.762 201.123 169.955 201.123 169.955L179.361 210.435C179.361 210.435 161.06 165.378 155.876 164.803L136.347 129.294C136.347 129.294 138.656 150.108 130.516 158.939C122.377 167.769 115.793 162.446 115.793 162.446L121.871 179.231L123.384 187.205C123.384 187.205 149.055 264.219 157.447 268.987C165.839 273.754 184.934 275.892 201.123 264.036C217.312 252.181 245.011 207.348 247.633 192.681" fill="#F3F3F3"/>
<path d="M223.486 138.573C209.544 147.762 201.123 169.955 201.123 169.955L179.361 210.435C179.361 210.435 161.06 165.378 155.876 164.803L136.347 129.294C136.347 129.294 138.656 150.108 130.516 158.939C122.377 167.769 115.793 162.446 115.793 162.446L121.871 179.231L123.384 187.205C123.384 187.205 149.055 264.219 157.447 268.987C165.839 273.754 184.934 275.892 201.123 264.036C217.312 252.181 245.011 207.348 247.633 192.681" stroke="#263238" stroke-linecap="round" stroke-linejoin="round"/>
<path d="M148.018 170.13C148.718 169.076 149.372 167.984 149.968 166.864" stroke="#263238" stroke-linecap="round" stroke-linejoin="round"/>
<path d="M131.568 180.656C137.187 179.994 142.339 177.206 145.965 172.864" stroke="#263238" stroke-linecap="round" stroke-linejoin="round"/>
<path d="M121.871 179.231C124.041 180.144 126.358 180.659 128.71 180.752" stroke="#263238" stroke-linecap="round" stroke-linejoin="round"/>
<path d="M185.07 228.283C185.176 230.136 185.027 231.994 184.624 233.805" stroke="#263238" stroke-linecap="round" stroke-linejoin="round"/>
<path d="M179.361 210.435C181.969 214.925 183.776 219.835 184.699 224.945" stroke="#263238" stroke-linecap="round" stroke-linejoin="round"/>
<path d="M191.397 217.683C191.397 217.683 187.441 212.725 182.928 210.435" stroke="#263238" stroke-linecap="round" stroke-linejoin="round"/>
<path d="M225.799 158.933C225.799 158.933 213.556 157.296 203.839 168.496" stroke="#263238" stroke-linecap="round" stroke-linejoin="round"/>
<path d="M238.748 193.178C236.401 193.523 234.004 193.134 231.886 192.065" stroke="#263238" stroke-linecap="round" stroke-linejoin="round"/>
<path d="M253.45 176.756C251.523 186.049 246.337 190.766 241.817 192.403" stroke="#263238" stroke-linecap="round" stroke-linejoin="round"/>
<path d="M195.724 123.938C195.724 123.938 175.399 128.66 164.073 121.089" stroke="#263238" stroke-linecap="round" stroke-linejoin="round"/>
<path d="M122.828 248.321C122.828 248.321 133.903 279.593 159.522 284.894" stroke="#263238" stroke-linecap="round" stroke-linejoin="round"/>
<path d="M196.865 291.667C195.546 292.661 194.163 293.568 192.762 294.438" stroke="#263238" stroke-linecap="round" stroke-linejoin="round"/>
<path d="M69.2634 50.6017V78.0939" stroke="#263238" stroke-linecap="round" stroke-linejoin="round"/>
<path d="M69.2634 34.1062V45.1029" stroke="#263238" stroke-linecap="round" stroke-linejoin="round"/>
<path d="M69.2634 23.8299V29.7121" stroke="#263238" stroke-linecap="round" stroke-linejoin="round"/>
<path d="M64.0718 74.8797L69.2634 81.3062L74.4551 74.8797" stroke="#263238" stroke-linecap="round" stroke-linejoin="round"/>
</svg>
