<svg width="138" height="279" viewBox="0 0 138 279" fill="none" xmlns="http://www.w3.org/2000/svg">
<path d="M52.3735 198.227C55.0409 179.555 57.7084 160.88 60.3758 142.203C79.4743 141.697 98.5869 144.032 117.678 141.939C116.643 162.076 111.801 181.726 110.032 201.769C106.064 222.988 102.013 244.189 98.1708 265.429C96.7944 273.045 103.107 271.649 107.273 272.631C107.926 274.132 112.548 276.187 108.064 277.052C101.1 278.398 93.7805 278.061 86.6084 278.096C82.5292 278.115 83.8966 274.563 83.4805 272.264C86.9715 268.363 86.3043 263.375 86.5274 258.842C88.0208 228.359 89.2692 197.864 90.4495 167.368C90.5425 164.989 92.05 161.176 89.0111 160.396C85.126 159.395 84.7889 163.797 83.9386 166.259C75.9943 189.278 70.0076 212.873 64.417 236.535C61.2331 250.013 55.3524 263.136 57.601 277.547C50.808 279.655 43.843 278.916 36.93 278.686C33.8981 278.586 31.4574 277.694 34.6224 274.185C39.1357 272.829 44.6523 273.201 45.3305 266.247C47.5431 243.56 50.0038 220.895 52.3695 198.222" fill="black"/>
<path d="M117.676 141.938C98.5848 144.033 79.4733 141.698 60.3738 142.202C57.5199 130.384 60.6538 119.06 63.1556 107.664C64.584 101.163 65.7713 94.6077 67.0637 88.0758C67.1304 87.3989 67.2014 86.7224 67.2768 86.0462L65.5763 86.7264C54.435 92.281 43.1248 96.8663 30.4541 98.2607C25.5897 98.7969 21.9616 97.4185 17.8895 96.0941C18.1995 93.7708 18.5086 91.4491 18.8167 89.1291C35.5736 91.6638 45.3144 81.3598 54.6271 69.8755C64.556 57.625 76.3524 48.6534 93.3713 50.1698C92.396 61.373 89.9953 72.4763 90.8256 83.8125C86.5503 82.044 87.6387 78.0869 87.1405 74.7809C86.0532 67.5368 86.1232 60.0537 82.6592 51.3741C78.37 60.6088 82.1481 68.124 82.4862 75.4811C82.6342 78.6821 85.0869 81.914 86.9465 84.8438C89.1021 88.2448 89.9663 85.7231 90.7136 83.6595C94.2276 81.7699 93.5144 77.5857 95.4399 74.906C98.4948 70.6637 93.3313 65.6433 96.6583 61.8422C100.459 57.4999 98.2587 54.0199 95.9941 50.3038C105.971 51.5242 114.568 55.2983 120.487 63.8137C128.438 75.1142 134.04 87.8961 136.959 101.402C139.214 111.973 136.51 118.13 126.676 121.87C120.53 124.207 119.603 127.407 120.384 132.964C120.828 136.122 122.597 140.189 117.678 141.94M121.44 117.416C127.755 116.216 129.002 111.18 128.926 106.147C128.826 99.4991 125.788 94.2116 119.383 91.2887V116.35C117.808 115.64 116.275 114.811 114.651 114.249C111.84 113.273 109.303 113.498 108.661 117.006C108.095 120.1 109.62 121.968 112.77 122.472C117.052 123.154 121.098 123.472 121.44 117.415" fill="#3422F2"/>
<path d="M74.543 23.5521C68.6103 18.1875 73.2627 13.2031 75.7634 8.89185C79.0373 3.24121 93.7086 -1.6172 98.1579 0.51042C107.451 4.94971 113.64 15.5148 112.228 24.5344C111.491 29.2357 111.49 29.2357 116.078 31.9495C112.445 33.9151 107.81 32.9228 104.76 36.1017C106.938 23.0519 96.0262 21.9976 88.213 18.9308C83.2676 16.9912 78.2401 19.4229 74.539 23.5531" fill="black"/>
<path d="M74.5428 23.5511C78.2439 19.4209 83.2714 16.9892 88.2168 18.9287C96.0301 21.9986 106.942 23.0509 104.764 36.1027L104.907 36.0567C103.667 36.2087 103.232 37.046 103.117 38.1573C99.4851 45.1193 93.4733 48.4403 86.1412 46.3007C79.0001 44.2131 76.2993 38.0513 76.5774 30.6561C76.6774 28.1284 77.1346 25.3676 74.5428 23.5541" fill="#F3F3F3"/>
<path d="M90.8206 83.8116C89.9904 72.4703 92.3911 61.3741 93.3664 50.1688C94.246 50.2108 95.1216 50.2542 95.9931 50.2989C98.2618 54.0169 100.455 57.4949 96.6573 61.8392C93.3304 65.6403 98.4939 70.6608 95.436 74.91C93.5054 77.5898 94.2226 81.771 90.7096 83.6615L90.8206 83.8116Z" fill="#2E2E2E"/>
<path d="M18.8168 89.1282L17.8915 96.0932C11.5427 97.2855 6.17612 93.9006 0.421454 92.3251C0.689531 91.3488 -0.648856 89.2432 0.421454 88.0239C0.721541 87.7798 0.321424 83.6046 9.28602 84.8399C12.8491 85.129 15.8429 87.1086 18.8168 89.1312" fill="#F3F3F3"/>
<path d="M127.809 31.8976L127.266 31.5735C127.461 31.4762 127.673 31.4172 127.89 31.3995C128.082 31.4205 128.258 31.5995 128.44 31.7096L127.809 31.8986" fill="#67EF80"/>
<path d="M103.117 38.1523C103.232 37.042 103.667 36.2057 104.907 36.0517C104.307 36.7519 103.71 37.4521 103.117 38.1523Z" fill="#364874"/>
<path d="M90.7097 83.6625C89.9625 85.7271 89.0982 88.2459 86.9426 84.8489C85.0831 81.919 82.6303 78.6801 82.4823 75.4842C82.1442 68.122 78.3671 60.6069 82.6554 51.3772C86.1194 60.0537 86.0503 67.5369 87.1327 74.779C87.6328 78.0799 86.5425 82.0421 90.8177 83.8106L90.7067 83.6625" fill="#2E2E2E"/>
<path d="M119.381 116.35L121.439 117.415C121.099 123.473 117.052 123.154 112.768 122.47C109.618 121.97 108.095 120.099 108.659 117.006C109.302 113.496 111.838 113.272 114.65 114.249C116.275 114.814 117.808 115.642 119.381 116.35Z" fill="#F3F3F3"/>
<path d="M65.5732 86.7273L67.2737 86.0481C67.2017 86.7236 67.1307 87.4002 67.0607 88.0777C66.5672 87.6282 66.0707 87.1781 65.5712 86.7273" fill="#F0F4FB"/>
</svg>
