<svg width="212" height="204" viewBox="0 0 212 204" fill="none" xmlns="http://www.w3.org/2000/svg">
<path d="M168.009 49.2968L151.386 40.0407C151.036 39.8454 150.636 39.754 150.236 39.778L125.057 41.287C124.556 41.317 124.057 41.1655 123.658 40.8615L92.7367 17.3432C92.3713 17.0653 91.9222 16.914 91.4624 16.914L64.5689 16.914C64.16 16.914 63.7583 16.7943 63.4161 16.5706L40.1104 1.33165C39.7682 1.10788 39.3665 0.988187 38.9576 0.988187L20.179 0.988189C19.5063 0.988189 18.8835 1.31131 18.5153 1.85134L1.34922 27.0293C0.753087 27.9037 0.980944 29.0923 1.86608 29.7256L210.134 178.74C211.028 179.38 211.25 180.584 210.635 181.459L195.686 202.716" stroke="#FF2A7F" stroke-width="2" stroke-linecap="round" stroke-linejoin="round" stroke-dasharray="4 4"/>
</svg>
