<svg width="219" height="215" viewBox="0 0 219 215" fill="none" xmlns="http://www.w3.org/2000/svg">
<path d="M173.557 51.9521L156.361 42.1747C156.015 41.9777 155.618 41.8856 155.22 41.9099L129.155 43.505C128.657 43.5355 128.164 43.3831 127.77 43.0774L95.7706 18.2252C95.4109 17.9458 94.967 17.7938 94.5112 17.7938L66.6742 17.7938C66.2685 17.7938 65.871 17.6733 65.5336 17.448L41.4086 1.34049C41.0712 1.11521 40.6737 0.994719 40.268 0.994719L20.8121 0.994721C20.1378 0.994721 19.5112 1.32664 19.1421 1.8794L1.33849 28.5434C0.750941 29.4234 0.969556 30.6093 1.83601 31.2423L217.164 188.559C218.039 189.198 218.252 190.4 217.646 191.281L202.148 213.783" stroke="#FF2A7F" stroke-width="2" stroke-linecap="round" stroke-linejoin="round" stroke-dasharray="4 4"/>
</svg>
