<svg width="18" height="26" viewBox="0 0 18 26" fill="none" xmlns="http://www.w3.org/2000/svg">
<path d="M18 9C18 4.02944 13.9706 0 9 0C4.02944 0 0 4.02944 0 9V17C0 21.9706 4.02944 26 9 26C13.9706 26 18 21.9706 18 17V9Z" fill="white"/>
<path d="M17.75 9C17.75 4.16751 13.8325 0.25 9 0.25C4.16751 0.25 0.25 4.16751 0.25 9V17C0.25 21.8325 4.16751 25.75 9 25.75C13.8325 25.75 17.75 21.8325 17.75 17V9Z" stroke="#DCDAE3" stroke-width="0.5"/>
<path d="M9.16071 10.125C10.6696 10.125 11.8927 8.90185 11.8927 7.39301C11.8927 5.88417 10.6696 4.66101 9.16071 4.66101C7.65187 4.66101 6.42871 5.88417 6.42871 7.39301C6.42871 8.90185 7.65187 10.125 9.16071 10.125Z" fill="black"/>
</svg>
