<svg width="22" height="22" viewBox="0 0 22 22" fill="none" xmlns="http://www.w3.org/2000/svg">
<path d="M11 0C10.6108 0 10.2377 0.154602 9.96249 0.429765C9.68733 0.704929 9.53273 1.07812 9.53273 1.46726V9.53276H1.46726C1.07812 9.53276 0.704929 9.68733 0.429765 9.96249C0.154602 10.2377 0 10.6108 0 11C0 11.3891 0.154602 11.7623 0.429765 12.0375C0.704929 12.3127 1.07812 12.4672 1.46726 12.4672H9.53273V20.5327C9.53273 20.9219 9.68733 21.2951 9.96249 21.5702C10.2377 21.8454 10.6108 22 11 22C11.3891 22 11.7623 21.8454 12.0375 21.5702C12.3127 21.2951 12.4672 20.9219 12.4672 20.5327V12.4672H20.5327C20.9219 12.4672 21.2951 12.3127 21.5702 12.0375C21.8454 11.7623 22 11.3891 22 11C22 10.6108 21.8454 10.2377 21.5702 9.96249C21.2951 9.68733 20.9219 9.53276 20.5327 9.53276H12.4672V1.46726C12.4672 1.07812 12.3127 0.704929 12.0375 0.429765C11.7623 0.154602 11.3891 0 11 0Z" fill="#8E8E8E"/>
</svg>
