<svg width="20" height="23" viewBox="0 0 20 23" fill="none" xmlns="http://www.w3.org/2000/svg">
<path d="M9.46029 11.0791C10.1892 11.0889 10.9125 10.95 11.5858 10.6707C12.2592 10.3914 12.8685 9.97772 13.3765 9.45488C13.8989 8.94672 14.3123 8.33734 14.5912 7.66399C14.8701 6.99064 15.0088 6.26747 14.9987 5.53871C15.0086 4.80988 14.8697 4.08668 14.5906 3.41334C14.3115 2.73999 13.8981 2.13064 13.3755 1.62253C12.8612 1.10814 12.2507 0.700086 11.5788 0.421689C10.9068 0.143291 10.1866 0 9.45929 0C8.73195 0 8.01173 0.143291 7.33979 0.421689C6.66784 0.700086 6.05732 1.10814 5.5431 1.62253C5.02045 2.1306 4.60694 2.73995 4.32784 3.4133C4.04875 4.08666 3.90994 4.80987 3.91991 5.53871C3.91007 6.26761 4.04904 6.99087 4.32831 7.66423C4.60758 8.33759 5.02128 8.9469 5.54411 9.45488C6.05217 9.97762 6.66149 10.3913 7.33484 10.6705C8.00818 10.9498 8.7314 11.0888 9.46029 11.0791ZM6.49751 2.57693C6.88659 2.18767 7.34855 1.87888 7.857 1.66821C8.36545 1.45753 8.91042 1.34909 9.46079 1.34909C10.0112 1.34909 10.5561 1.45753 11.0646 1.66821C11.573 1.87888 12.035 2.18767 12.4241 2.57693C12.8219 2.95951 13.1363 3.42018 13.3476 3.93003C13.5589 4.43988 13.6626 4.98791 13.652 5.53971C13.6627 6.09169 13.5591 6.6399 13.3478 7.14994C13.1365 7.65997 12.822 8.1208 12.4241 8.5035C12.035 8.89276 11.573 9.20155 11.0646 9.41222C10.5561 9.6229 10.0112 9.73134 9.46079 9.73134C8.91042 9.73134 8.36545 9.6229 7.857 9.41222C7.34855 9.20155 6.88659 8.89276 6.49751 8.5035C6.09955 8.12084 5.78502 7.66002 5.5737 7.14997C5.36238 6.63993 5.25883 6.09169 5.26956 5.53971C5.25897 4.9879 5.36259 4.43985 5.5739 3.92999C5.78522 3.42013 6.09968 2.95947 6.49751 2.57693Z" fill="#474747"/>
<path d="M19.1521 17.6845C19.1161 17.1971 19.054 16.712 18.9661 16.2313C18.8793 15.7369 18.76 15.2488 18.6091 14.77C18.4555 14.2962 18.2533 13.8395 18.0057 13.4073C17.7628 12.9719 17.4579 12.5742 17.1005 12.2266C16.7238 11.8724 16.2818 11.5947 15.7992 11.409C15.2697 11.2045 14.7063 11.1021 14.1388 11.1073C13.8058 11.142 13.4907 11.275 13.2336 11.4894C12.9641 11.6654 12.6483 11.8686 12.2963 12.0929C11.9154 12.3207 11.5076 12.5004 11.0825 12.6279C10.119 12.9476 9.07808 12.9476 8.11464 12.6279C7.6898 12.5008 7.2824 12.3214 6.90178 12.0939C6.5528 11.8706 6.23701 11.6675 5.96346 11.4905C5.70785 11.2768 5.3946 11.1438 5.06336 11.1083C4.4958 11.103 3.93239 11.2054 3.40296 11.41C2.92029 11.5956 2.47831 11.8733 2.10159 12.2276C1.74427 12.5749 1.43937 12.9723 1.19647 13.4073C0.948922 13.8395 0.746709 14.2962 0.593049 14.77C0.442249 15.2484 0.322986 15.7363 0.236027 16.2303C0.147924 16.711 0.0858158 17.1961 0.0499734 17.6835C0.0198026 18.123 0.00371144 18.5796 0.00371144 19.0412C-0.0198469 19.5754 0.0689483 20.1086 0.264357 20.6063C0.459766 21.104 0.75744 21.5551 1.13814 21.9306C1.93342 22.6577 2.98398 23.0409 4.06069 22.9966H15.1334C16.2101 23.0408 17.2606 22.6576 18.0559 21.9306C18.4366 21.5551 18.7343 21.104 18.9297 20.6063C19.1251 20.1086 19.2139 19.5754 19.1904 19.0412C19.1904 18.5776 19.1743 18.121 19.1441 17.6825L19.1521 17.6845ZM17.1347 20.956C16.8647 21.1975 16.5495 21.3832 16.2075 21.5025C15.8654 21.6218 15.5031 21.6722 15.1414 21.651H4.06873C3.70715 21.6724 3.3449 21.6221 3.00282 21.503C2.66075 21.3839 2.34558 21.1984 2.07544 20.9571C1.82807 20.7071 1.63638 20.4076 1.51297 20.0783C1.38956 19.7489 1.33722 19.3972 1.35939 19.0462C1.35939 18.6158 1.37347 18.1894 1.40163 17.7811C1.43412 17.3426 1.49018 16.9061 1.56958 16.4737C1.6459 16.0378 1.75072 15.6075 1.88336 15.1854C2.00786 14.8008 2.17165 14.4301 2.37212 14.0791C2.55079 13.7578 2.77504 13.4641 3.03789 13.2072C3.28897 12.9734 3.58305 12.7907 3.9038 12.6691C4.24298 12.5405 4.60209 12.4725 4.96481 12.468C5.01207 12.4931 5.09555 12.5414 5.23232 12.6299C5.50889 12.8109 5.8287 13.0161 6.1817 13.2414C6.65878 13.5311 7.17032 13.7598 7.70432 13.9222C8.93744 14.3292 10.2687 14.3292 11.5018 13.9222C12.0362 13.7598 12.548 13.5311 13.0255 13.2414C13.3865 13.0101 13.6973 12.8109 13.9738 12.6299C14.1096 12.5414 14.1941 12.4931 14.2413 12.468C14.6044 12.4724 14.9638 12.5405 15.3034 12.6691C15.6237 12.7909 15.9174 12.9736 16.1682 13.2072C16.4312 13.4641 16.6555 13.7578 16.834 14.0791C17.0346 14.43 17.1984 14.8008 17.3228 15.1854C17.4558 15.6074 17.561 16.0378 17.6376 16.4737C17.7168 16.9062 17.7728 17.3426 17.8055 17.7811C17.8337 18.1833 17.8488 18.6128 17.8488 19.0452C17.8709 19.3962 17.8186 19.7479 17.6952 20.0773C17.5718 20.4066 17.3801 20.7061 17.1327 20.956H17.1347Z" fill="#474747"/>
</svg>
