<svg width="66" height="66" viewBox="0 0 66 66" fill="none" xmlns="http://www.w3.org/2000/svg">
<path d="M42.8191 51.7439L52.6656 57.1149C53.2434 57.4299 53.7627 57.8172 54.2459 58.2394C48.5051 63.0798 41.0944 66 32.9976 66C24.9605 66 17.5971 63.1234 11.8725 58.3489C12.4005 57.9031 12.9734 57.5021 13.6085 57.1858L24.1523 51.9145C25.5146 51.2334 26.3751 49.8411 26.3751 48.3182V44.1813C26.0788 43.8438 25.74 43.4105 25.3777 42.8987C23.9406 40.8689 22.8535 38.6361 22.1001 36.2937C20.7477 35.8765 19.7515 34.6275 19.7515 33.1431V28.7273C19.7515 27.756 20.1836 26.888 20.8548 26.2803V19.897C20.8548 19.897 19.5435 9.96334 32.9963 9.96334C46.4492 9.96334 45.1379 19.897 45.1379 19.897V26.2803C45.8103 26.888 46.2412 27.756 46.2412 28.7273V33.1431C46.2412 34.3062 45.6298 35.3298 44.7145 35.9213C43.6111 40.7244 40.7221 44.1813 40.7221 44.1813V48.2161C40.7233 49.6855 41.5278 51.0391 42.8191 51.7439Z" fill="#E7ECED"/>
<path d="M32.4337 0.0049141C50.6559 -0.306407 65.6816 14.2136 65.9929 32.4359C66.1697 42.768 61.5646 52.0541 54.2324 58.2295C53.753 57.8111 53.2387 57.4276 52.6671 57.1162L42.8206 51.7453C41.5292 51.0405 40.7248 49.6869 40.7248 48.2149V44.1802C40.7248 44.1802 43.6151 40.7233 44.7172 35.9202C45.6312 35.3287 46.2439 34.3063 46.2439 33.142V28.7262C46.2439 27.7549 45.8118 26.8869 45.1406 26.2792V19.8959C45.1406 19.8959 46.4519 9.96222 32.999 9.96222C19.5462 9.96222 20.8575 19.8959 20.8575 19.8959V26.2792C20.185 26.8869 19.7542 27.7549 19.7542 28.7262V33.142C19.7542 34.6264 20.7504 35.8754 22.1028 36.2926C22.8562 38.6349 23.9433 40.8677 25.3804 42.8976C25.7427 43.4094 26.0815 43.8427 26.3778 44.1802V48.317C26.3778 49.84 25.5174 51.2335 24.155 51.9134L13.6112 57.1847C12.9786 57.501 12.407 57.9008 11.8802 58.3453C4.76964 52.4153 0.175781 43.5488 0.00518034 33.5641C-0.308638 15.3419 14.2102 0.316236 32.4337 0.0049141Z" fill="#969696"/>
</svg>
