<svg width="20" height="20" viewBox="0 0 20 20" fill="none" xmlns="http://www.w3.org/2000/svg">
<path d="M0 9.99963C0 15.5229 4.47721 19.9998 9.99989 19.9998C15.5228 19.9998 20 15.5229 20 9.99963C20 4.47711 15.5228 -1.90749e-05 9.99989 -1.90749e-05C4.47721 -1.90749e-05 0 4.47711 0 9.99963Z" fill="#25B7D3"/>
<path d="M15.9006 13.9006L13.9006 15.9005C13.4682 16.333 12.7671 16.3329 12.3348 15.9005L9.24584 12.8116C8.81348 12.3791 8.81344 11.6781 9.2458 11.2457L11.2458 9.24574C11.6782 8.81334 12.3792 8.81338 12.8116 9.24582L15.9006 12.3348C16.3329 12.7671 16.3329 13.4682 15.9006 13.9006ZM12.6003 10.51C12.3468 10.2565 11.9358 10.2565 11.6824 10.5099L10.51 11.6823C10.2565 11.9358 10.2566 12.3467 10.51 12.6002L12.5461 14.6363C12.7996 14.8898 13.2105 14.8898 13.464 14.6363L14.6364 13.4639C14.8899 13.2105 14.8898 12.7995 14.6364 12.5461L12.6003 10.51Z" fill="white"/>
<path d="M10.7542 8.75399L8.75428 10.7539C8.32187 11.1863 7.62081 11.1863 7.18844 10.7539L4.09947 7.6649C3.6671 7.23254 3.66706 6.53147 4.09947 6.09911L6.09944 4.09914C6.5318 3.66673 7.23291 3.66681 7.66523 4.09914L10.7542 7.1882C11.1865 7.62052 11.1866 8.32158 10.7542 8.75399ZM7.45388 5.36337C7.20042 5.1099 6.7895 5.10982 6.53599 5.36333L5.36362 6.5357C5.11011 6.78917 5.11015 7.20013 5.36362 7.45359L7.39975 9.48972C7.65318 9.74315 8.06413 9.74319 8.31764 9.48972L9.49001 8.31735C9.74348 8.06384 9.74344 7.65289 9.49001 7.39946L7.45388 5.36337Z" fill="white"/>
<path d="M12.3712 12.2736L12.2737 12.3712C11.9616 12.6833 11.4538 12.6833 11.1417 12.3712L7.62864 8.85817C7.31656 8.54609 7.31656 8.03827 7.62864 7.72619L7.72619 7.6286C8.03827 7.31656 8.54609 7.31656 8.85821 7.6286L12.3712 11.1417C12.6833 11.4537 12.6833 11.9616 12.3712 12.2736Z" fill="#48A1AF"/>
<path d="M8.68264 7.80423C8.46707 7.58866 8.1175 7.58862 7.90192 7.80419L7.80433 7.90178C7.58876 8.11736 7.58876 8.46693 7.80433 8.68246L11.3174 12.1955C11.533 12.4112 11.8825 12.4111 12.0981 12.1955L12.1957 12.0979C12.4112 11.8823 12.4113 11.5328 12.1957 11.3173L8.68264 7.80423Z" fill="white"/>
</svg>
