<svg width="35" height="33" viewBox="0 0 35 33" fill="none" xmlns="http://www.w3.org/2000/svg">
<path d="M27.5032 32.4964C27.4208 32.4964 27.3395 32.4747 27.2615 32.432L18.1063 27.4187C17.8845 27.2972 17.6336 27.233 17.3807 27.233C17.1278 27.233 16.8768 27.2972 16.655 27.4187L7.49987 32.432C7.42188 32.4747 7.34052 32.4964 7.25807 32.4964C7.11008 32.4964 6.9633 32.4256 6.86543 32.3071C6.79836 32.2259 6.72623 32.0886 6.76344 31.8951L8.72502 21.7014C8.82388 21.1877 8.65452 20.668 8.27201 20.3111L0.665097 13.2149C0.447698 13.0121 0.506349 12.763 0.529505 12.6915C0.552661 12.62 0.651137 12.3838 0.946152 12.3469L11.3037 11.0519C11.8197 10.9874 12.2603 10.6682 12.4824 10.198L16.9253 0.792123C17.0518 0.524414 17.3058 0.503615 17.3807 0.503615C17.4555 0.503615 17.7096 0.524414 17.836 0.792123L22.2789 10.198C22.501 10.6682 22.9417 10.9874 23.4576 11.0519L33.8152 12.3469C34.1102 12.3838 34.2087 12.62 34.2318 12.6915C34.255 12.763 34.3136 13.0121 34.0962 13.2149L26.4893 20.3111C26.1068 20.668 25.9375 21.1877 26.0363 21.7014L27.9979 31.8951C28.0351 32.0885 27.963 32.2259 27.8959 32.3071C27.798 32.4256 27.6512 32.4964 27.5032 32.4964Z" fill="#FDF239"/>
<path d="M17.3805 1.00722L17.3805 1.00722L12.9376 10.4131C12.6414 11.04 12.0539 11.4656 11.366 11.5516L1.00842 12.8466C1.00842 12.8466 1.00842 12.8466 1.00842 12.8466L8.61533 19.9429C9.12535 20.4187 9.35115 21.1116 9.21934 21.7965L7.25777 31.9903L16.4129 26.977C16.7087 26.815 17.0433 26.7294 17.3805 26.7294C17.7177 26.7294 18.0522 26.815 18.348 26.977L27.5031 31.9903C27.5031 31.9903 27.5031 31.9903 27.5032 31.9903L25.5416 21.7965C25.4098 21.1116 25.6356 20.4186 26.1456 19.9429L33.7525 12.8466C33.7525 12.8466 33.7525 12.8466 33.7525 12.8466L23.3949 11.5516C22.707 11.4656 22.1195 11.04 21.8234 10.4131L17.3805 1.00723L17.3805 1.00722ZM17.3805 0C17.745 0 18.1095 0.192343 18.2912 0.577032L22.7341 9.9829C22.8813 10.2946 23.1778 10.5094 23.5199 10.5522L33.8775 11.8472C34.7253 11.9532 35.0643 13.0003 34.4396 13.5831L26.8327 20.6794C26.5792 20.9158 26.4652 21.2659 26.5306 21.6062L28.4922 31.8C28.6533 32.6369 27.7669 33.2831 27.0194 32.8737L17.8642 27.8604C17.5628 27.6954 17.1981 27.6954 16.8967 27.8604L7.74154 32.8737C6.99404 33.2831 6.10765 32.6369 6.2687 31.8L8.23027 21.6062C8.29576 21.2659 8.18168 20.9158 7.92827 20.6794L0.321353 13.5831C-0.303427 13.0003 0.0356245 11.9532 0.883455 11.8472L11.241 10.5522C11.5831 10.5094 11.8796 10.2946 12.0268 9.9829L16.4697 0.577032C16.6514 0.192343 17.0159 0 17.3805 0Z" fill="#707070"/>
</svg>
