<svg width="22" height="21" viewBox="0 0 22 21" fill="none" xmlns="http://www.w3.org/2000/svg">
<path d="M20.2252 10.5893V7.63727C20.2246 7.15839 20.0417 6.69737 19.7132 6.34628C19.3846 5.99519 18.9345 5.77987 18.4528 5.74332L15.6875 0.956395C15.5632 0.739287 15.3966 0.548765 15.1975 0.395843C14.9984 0.242922 14.7707 0.130635 14.5276 0.0654746C14.2845 0.0003145 14.0307 -0.0164262 13.781 0.0162205C13.5313 0.0488672 13.2906 0.130254 13.0728 0.255674L3.5934 5.7283H1.929C1.41784 5.72804 0.927495 5.92898 0.565766 6.28695C0.204037 6.64492 0.000535456 7.13062 0 7.63727L0 19.0911C0.000535456 19.5977 0.204037 20.0834 0.565766 20.4414C0.927495 20.7993 1.41784 21.0003 1.929 21H18.2992C18.8099 20.9995 19.2994 20.7982 19.6605 20.4403C20.0216 20.0824 20.2247 19.5972 20.2252 19.0911V16.14C20.5059 16.0419 20.7491 15.8601 20.9214 15.6196C21.0937 15.3791 21.1867 15.0916 21.1877 14.7966V11.9337C21.1869 11.6385 21.094 11.3508 20.9217 11.1101C20.7493 10.8694 20.506 10.6875 20.2252 10.5893ZM17.3337 5.7283H13.1374L16.2854 3.91244L17.3337 5.7283ZM15.8067 3.08358L11.2236 5.7283H9.32283L15.331 2.26074L15.8067 3.08358ZM13.5586 1.08152C13.665 1.01849 13.7831 0.977161 13.9059 0.959971C14.0287 0.942781 14.1537 0.950074 14.2736 0.981421C14.395 1.01348 14.5087 1.06921 14.608 1.14535C14.7074 1.2215 14.7904 1.31653 14.8523 1.42488L7.40898 5.7283H5.50725L13.5586 1.08152ZM19.2627 19.0911C19.2622 19.3439 19.1606 19.5862 18.9802 19.765C18.7999 19.9438 18.5554 20.0445 18.3003 20.045H1.929C1.6739 20.0445 1.4294 19.9438 1.24901 19.765C1.06863 19.5862 0.967054 19.3439 0.96652 19.0911V7.63727C0.967054 7.38442 1.06863 7.14208 1.24901 6.96329C1.4294 6.78449 1.6739 6.68382 1.929 6.68329H18.2992C18.5543 6.68382 18.7989 6.78449 18.9792 6.96329C19.1596 7.14208 19.2612 7.38442 19.2617 7.63727V10.5002H16.3733C15.6071 10.5002 14.8723 10.8019 14.3305 11.3389C13.7887 11.8759 13.4843 12.6042 13.4843 13.3637C13.4843 14.1231 13.7887 14.8514 14.3305 15.3884C14.8723 15.9254 15.6071 16.2271 16.3733 16.2271H19.2617V19.0901L19.2627 19.0911ZM20.2262 14.7956C20.2262 14.8583 20.2138 14.9204 20.1896 14.9784C20.1653 15.0363 20.1299 15.0889 20.0851 15.1333C20.0404 15.1776 19.9873 15.2128 19.9288 15.2368C19.8704 15.2608 19.8077 15.2731 19.7445 15.2731H16.3733C15.8625 15.2731 15.3726 15.072 15.0114 14.714C14.6502 14.356 14.4473 13.8705 14.4473 13.3642C14.4473 12.8579 14.6502 12.3723 15.0114 12.0143C15.3726 11.6563 15.8625 11.4552 16.3733 11.4552H19.7435C19.8067 11.4552 19.8694 11.4675 19.9278 11.4915C19.9863 11.5155 20.0394 11.5507 20.0841 11.5951C20.1289 11.6394 20.1643 11.692 20.1885 11.75C20.2128 11.8079 20.2252 11.87 20.2252 11.9327L20.2262 14.7956Z" fill="#474747"/>
<path d="M16.3734 12.4102C16.183 12.4102 15.9969 12.4662 15.8386 12.571C15.6803 12.6758 15.557 12.8248 15.4841 12.9991C15.4113 13.1734 15.3922 13.3653 15.4294 13.5503C15.4665 13.7354 15.5582 13.9053 15.6928 14.0388C15.8274 14.1722 15.9989 14.2631 16.1856 14.2999C16.3723 14.3367 16.5658 14.3178 16.7417 14.2456C16.9175 14.1734 17.0679 14.0511 17.1736 13.8942C17.2794 13.7373 17.3358 13.5529 17.3358 13.3642C17.3353 13.1114 17.2337 12.869 17.0533 12.6902C16.873 12.5114 16.6285 12.4108 16.3734 12.4102Z" fill="#474747"/>
</svg>
