<svg width="19" height="19" viewBox="0 0 19 19" fill="none" xmlns="http://www.w3.org/2000/svg">
<g clip-path="url(#clip0_411_1296)">
<path d="M9.50008 0C4.26174 0 0 4.17121 0 9.29827C0 14.4253 4.26174 18.5965 9.50008 18.5965C14.7384 18.5965 19.0002 14.4253 19.0002 9.29827C19.0002 4.17121 14.7384 0 9.50008 0ZM9.50008 16.618C5.3764 16.618 2.02126 13.3345 2.02126 9.29827C2.02126 5.262 5.3764 1.97851 9.50008 1.97851C13.6238 1.97851 16.9789 5.262 16.9789 9.29827C16.9789 13.3345 13.6238 16.618 9.50008 16.618Z" fill="#979797"/>
<path d="M14.4512 9.01116H10.1818V3.98688C10.1818 3.56408 9.83156 3.22128 9.39958 3.22128C8.9676 3.22128 8.61736 3.56408 8.61736 3.98688V9.77677C8.61736 10.1996 8.9676 10.5424 9.39958 10.5424H14.4512C14.8831 10.5424 15.2334 10.1996 15.2334 9.77677C15.2334 9.35396 14.8831 9.01116 14.4512 9.01116Z" fill="#979797"/>
</g>
<defs>
<clipPath id="clip0_411_1296">
<rect width="18.8146" height="18.4149" fill="white" transform="scale(1.00986)"/>
</clipPath>
</defs>
</svg>
