<svg width="6" height="9" viewBox="0 0 6 9" fill="none" xmlns="http://www.w3.org/2000/svg">
<path d="M0.821564 8.79149C0.902548 8.79198 0.982833 8.77649 1.05781 8.74589C1.1328 8.71529 1.201 8.67018 1.25851 8.61316L4.95221 4.91947C5.06684 4.80418 5.13118 4.64822 5.13118 4.48565C5.13118 4.32308 5.06684 4.16711 4.95221 4.05183L1.25851 0.357089C1.14084 0.255999 0.989325 0.203089 0.834306 0.208955C0.679286 0.214821 0.532204 0.27903 0.42251 0.388724C0.312816 0.498417 0.248608 0.6455 0.242742 0.80052C0.236876 0.955539 0.289785 1.10705 0.390875 1.22472L3.65076 4.48252L0.390875 7.73928C0.304443 7.82496 0.245363 7.93435 0.22111 8.05362C0.196857 8.17288 0.20852 8.29666 0.254623 8.4093C0.300727 8.52193 0.3792 8.61836 0.480117 8.6864C0.581033 8.75443 0.699859 8.791 0.821564 8.79149Z" fill="black" stroke="white" stroke-width="0.4"/>
</svg>
